<?xml version="1.0" encoding="utf-8"?>
<!-- Generator: Adobe Illustrator 22.0.0, SVG Export Plug-In . SVG Version: 6.00 Build 0)  -->
<svg version="1.1" id="图层_12" xmlns="http://www.w3.org/2000/svg" xmlns:xlink="http://www.w3.org/1999/xlink" x="0px" y="0px"
	 viewBox="0 0 50 50" style="enable-background:new 0 0 50 50;" xml:space="preserve">
<style type="text/css">
	.st0{fill:#ACEFE6;}
	.st1{fill:#3494A8;}
	.st2{fill:#FFFFFF;}
</style>
<g>
	<path class="st0" d="M34.8,8.7c0,1-0.8,1.8-1.8,1.8H15.9c-1,0-1.8-0.8-1.8-1.8V4.1c4.3,0,8.6,0,20.7,0L34.8,8.7L34.8,8.7z"/>
	<path class="st1" d="M32.8,11.2H15.7c-1.4,0-2.6-1.1-2.6-2.6V3.2h0.8c2.5,0,5.1,0,9.4,0c2.9,0,6.5,0,11.3,0h0.8v5.4
		C35.3,10.1,34.2,11.2,32.8,11.2z M14.7,4.8v3.8c0,0.6,0.5,1,1,1h17.1c0.6,0,1-0.5,1-1V4.8c-4.5,0-7.8,0-10.5,0
		C19.5,4.9,17,4.9,14.7,4.8z"/>
	<path class="st1" d="M40.8,47H7.6C6.2,47,5,45.9,5,44.4V5.5c0-1.4,1.1-2.6,2.6-2.6h33.2c1.4,0,2.6,1.1,2.6,2.6v38.9
		C43.4,45.9,42.3,47,40.8,47z M7.6,4.5c-0.6,0-1,0.5-1,1v38.9c0,0.6,0.5,1,1,1h33.2c0.6,0,1-0.5,1-1V5.5c0-0.6-0.5-1-1-1H7.6z"/>
	<g>
		<path class="st1" d="M15.2,15.8h1.3v3.9c0.1-0.1,0.3-0.2,0.4-0.3c-0.1-0.2-0.2-0.3-0.4-0.5c0.6-0.1,1.1-0.2,1.6-0.3
			c-0.4-0.3-0.8-0.7-1.1-1.1l0.6-0.3h-0.9v-1.1H22v1c-0.4,0.6-0.9,1.1-1.5,1.5c0.6,0.2,1.4,0.3,2.2,0.4c-0.3,0.5-0.4,0.9-0.5,1.2
			c-1.3-0.2-2.3-0.4-3.1-0.8c-0.5,0.2-1,0.4-1.6,0.5l0.2,0.2l-1.9,0.7h2c0.5-0.3,1.1-0.6,1.6-0.9l1,0.9c-1.6,0.7-3.2,1.3-4.7,1.8
			l3.9-0.2l-0.7-0.6l0.8-0.6c0.9,0.7,1.7,1.3,2.4,1.8l-0.9,0.8l-0.6-0.6l-2.4,0.1v1.5c0,0.3-0.1,0.6-0.3,0.8
			c-0.2,0.2-0.5,0.3-0.9,0.3s-0.9,0-1.5,0c-0.1-0.5-0.2-0.9-0.3-1.2c-0.8,0.5-1.5,0.8-2.2,1.2c-0.1-0.2-0.4-0.6-0.7-1.1
			c1-0.4,1.9-0.8,2.7-1.3c-0.6,0-1.2,0.1-1.6,0.1L13,22.4c1-0.2,1.9-0.5,2.9-0.9c-0.8,0-1.5,0.1-2,0.2l-0.3-1c1-0.3,1.8-0.6,2.6-1
			H15v-3.9H15.2z M13.1,16.1h1.3v3.7h-1.3V16.1z M17.3,23.5l-1.6,0.1l0.7,0.8c-0.2,0.1-0.4,0.3-0.6,0.4c0.4,0,0.7,0,0.9,0
			c0.4,0,0.6-0.1,0.6-0.5V23.5z M19.5,18.2c0.5-0.3,0.9-0.6,1.2-0.9h-2.2C18.8,17.6,19.1,17.9,19.5,18.2z M19.8,23.5
			c1,0.4,2,0.9,3,1.4L22.1,26c-0.9-0.5-1.9-1-2.9-1.5L19.8,23.5z"/>
		<path class="st1" d="M27.4,22.7l1.3,0.5l-1,2.5l-1.2-0.6C26.9,24.3,27.2,23.5,27.4,22.7z M27.5,21.4h7.1v-0.6h-6.7v-1h6.7v-0.6
			h-6.7v-0.4c-0.1,0.1-0.3,0.2-0.4,0.3l-0.9-0.9c1.3-0.7,2.3-1.5,3-2.4h1.7c-0.2,0.2-0.3,0.4-0.5,0.7h4v1l-0.9,0.7H36v4.4h-0.2
			c0.4,0.7,0.8,1.4,1.2,2.2l-1.2,0.7c-0.4-0.8-0.8-1.6-1.2-2.3l1.2-0.6h-3.3c0.3,0.3,0.6,0.7,0.8,1l-1.2,0.8c-0.4-0.5-0.7-1-1.1-1.5
			l0.5-0.3h-3.9v-1.2H27.5z M29,18.1h3.1l0.8-0.7h-3.1C29.5,17.7,29.2,17.9,29,18.1z M33.6,23.4c0.6,0.3,1,0.6,1.4,0.7
			c-0.1,0.4-0.3,0.7-0.4,1s-0.3,0.5-0.6,0.6c-0.3,0.1-0.6,0.2-1,0.2h-2.3c-1.1,0-1.6-0.5-1.6-1.4v-1.7h1.4v1.4
			c0,0.4,0.2,0.5,0.7,0.5h1.5c0.3,0,0.6-0.1,0.7-0.3C33.4,24.2,33.5,23.9,33.6,23.4z"/>
	</g>
	<path class="st1" d="M24.2,41.1c-0.8,0-1.5-0.6-1.7-1.3h-1.6c-0.2,0-0.4,0-0.6-0.1c-0.5-0.2-0.8-0.7-0.8-1.2V38
		c0-0.3,0.1-0.7,0.3-0.9l0.6-0.8v-1.6c0-1,0.4-2,1-2.8c0.3-0.3,0.7-0.6,1.1-0.8c0.3-0.6,0.9-1.1,1.7-1.1c0.7,0,1.4,0.4,1.7,1.1
		c0.4,0.2,0.7,0.5,1,0.8c0.7,0.8,1.1,1.7,1.1,2.8v1.6l0.6,0.8c0.2,0.2,0.3,0.5,0.3,0.9v0.5c0,0.8-0.6,1.4-1.4,1.4h-1.7
		C25.6,40.5,25,41.1,24.2,41.1z M24.2,30.9c-0.4,0-0.7,0.2-0.8,0.6l-0.1,0.2l-0.2,0.1c-0.4,0.2-0.7,0.4-0.9,0.7
		c-0.5,0.6-0.8,1.3-0.8,2.1v1.9l-0.8,1.1c-0.1,0.1-0.1,0.2-0.1,0.3v0.5c0,0.2,0.1,0.3,0.2,0.4c0.1,0,0.1,0,0.2,0h2.5v0.5
		c0,0.5,0.3,0.8,0.8,0.8c0.4,0,0.8-0.3,0.8-0.8v-0.5l0.5-0.1h2.1c0.2,0,0.4-0.2,0.4-0.4v-0.5c0-0.1,0-0.2-0.1-0.3l-0.8-1.1v-1.9
		c0-0.8-0.3-1.6-0.8-2.1c-0.3-0.3-0.6-0.5-0.9-0.7l-0.2-0.1l-0.1-0.2C24.9,31.2,24.6,30.9,24.2,30.9z"/>
	<g>
		<path class="st1" d="M20,31.2h-5.5c-0.3,0-0.5,0.2-0.5,0.5s0.2,0.5,0.5,0.5h5C19.7,31.9,19.8,31.5,20,31.2z"/>
		<path class="st1" d="M33.9,31.2h-5.5c0.2,0.3,0.3,0.6,0.4,1h5c0.3,0,0.5-0.2,0.5-0.5C34.4,31.5,34.2,31.2,33.9,31.2z"/>
	</g>
	<g>
		<path class="st1" d="M18.2,38.3l0.2-0.3h-3.9c-0.3,0-0.5,0.2-0.5,0.5s0.2,0.5,0.5,0.5h3.3C17.9,38.7,18,38.5,18.2,38.3z"/>
		<path class="st1" d="M33.9,38H30l0.2,0.3c0.2,0.2,0.2,0.4,0.3,0.6h3.3c0.3,0,0.5-0.2,0.5-0.5S34.2,38,33.9,38z"/>
	</g>
</g>
<g>
	<circle class="st2" cx="39.1" cy="39.1" r="10"/>
	<path class="st1" d="M39.1,30.5c4.7,0,8.6,3.9,8.6,8.6s-3.9,8.6-8.6,8.6s-8.6-3.9-8.6-8.6S34.3,30.5,39.1,30.5 M39.1,29.1
		c-5.5,0-10,4.5-10,10s4.5,10,10,10s10-4.5,10-10S44.6,29.1,39.1,29.1L39.1,29.1z"/>
</g>
<g>
	<path class="st1" d="M44.1,40.1h-4v4h-2v-4h-4v-2h4v-4h2v4h4V40.1z"/>
</g>
</svg>
