<?xml version="1.0" encoding="utf-8"?>
<!-- Generator: Adobe Illustrator 22.0.0, SVG Export Plug-In . SVG Version: 6.00 Build 0)  -->
<svg version="1.1" id="图层_1" xmlns="http://www.w3.org/2000/svg" xmlns:xlink="http://www.w3.org/1999/xlink" x="0px" y="0px"
	 viewBox="0 0 28 28" style="enable-background:new 0 0 28 28;" xml:space="preserve">
<style type="text/css">
	.st0{clip-path:url(#SVGID_2_);}
	.st1{fill:#996932;}
	.st2{fill:#A87438;}
	.st3{fill:#1F1F1F;}
	.st4{fill:#825520;}
	.st5{fill:#42260B;}
	.st6{fill:#3D2003;}
	.st7{fill:#A7BF1D;}
	.st8{fill:#EBEBEB;}
	.st9{fill:#E8B58F;}
	.st10{fill:#1C4059;}
	.st11{fill:#12344A;}
	.st12{fill:#32A6A0;}
	.st13{fill:#48C2C1;}
	.st14{fill:#1F4964;}
	.st15{fill:#133B54;}
	.st16{fill:#4FC2BE;}
	.st17{fill:#46B3B0;}
	.st18{fill:#E0AA82;}
	.st19{fill:#4DC2BF;}
	.st20{fill:#B1D331;}
	.st21{fill:#78D4C3;}
	.st22{fill:#F4FAFC;}
	.st23{fill:#9CB31B;}
	.st24{fill:#D98F6C;}
	.st25{fill:#51D6BE;}
	.st26{fill:#EAA685;}
	.st27{fill:#F0B88F;}
	.st28{fill:#DF9876;}
	.st29{fill:#A34512;}
	.st30{fill:#7D350E;}
	.st31{fill:#D18D6D;}
	.st32{fill:#B8E0CA;}
	.st33{fill:#FF9500;}
	.st34{fill:#FFDF0D;}
	.st35{fill:#FFD30D;}
	.st36{fill:#EDC200;}
	.st37{fill:#4EF037;}
</style>
<g>
	<g>
		<defs>
			<circle id="SVGID_1_" cx="14" cy="14" r="13.5"/>
		</defs>
		<clipPath id="SVGID_2_">
			<use xlink:href="#SVGID_1_"  style="overflow:visible;"/>
		</clipPath>
		<g id="图层_1_2_" class="st0">
			<g id="图层_1_1_">
				<g>
					<g id="XMLID_36_">
						<path class="st1" d="M11.4,43.3c0.2,0,0.5,0,0.7,0c0.4,0,1.1,0.2,1.2,0.6c0,0.2,0,0.5,0,0.6c0,0.3,0,0.7,0.1,1
							c0,0.5,0.3,0.8,0.6,1.3c0.2,0.4,0.4,0.8,0.6,1.2c0.2,0.3,0.3,0.6,0.3,1c0,0.4-0.1,1-0.2,1.3c-0.2,0.2-0.4,0.3-0.6,0.4
							c-0.2,0.1-0.3,0.1-0.5,0.1c-0.1,0-0.2,0-0.2,0c-0.5-0.1-0.9-0.4-1.2-0.8c-0.2-0.2-0.3-0.3-0.4-0.5c-0.2-0.2-0.2-0.5-0.3-0.8
							l-0.2-0.6h-0.1c-0.1,0-0.3-0.5-0.4-0.5c-0.2-0.2-0.2-0.4-0.3-0.6c-0.1-0.2-0.2-0.3-0.2-0.5c-0.2-0.1-0.2-0.4-0.2-0.8
							c0-0.2,0.2-0.5,0.1-0.7c0-0.2-0.1-0.4-0.1-0.6c-0.1-0.2-0.2-0.6,0.1-0.9c0.2-0.1,0.4-0.1,0.6-0.2
							C10.9,43.4,11.1,43.3,11.4,43.3C11.3,43.4,11.3,43.4,11.4,43.3z"/>
					</g>
					<path class="st2" d="M14.1,48.8c-1,1-2.1-0.2-2.4-1.2c-0.2-0.5-0.2-1-0.2-1.4c0-0.3-0.1-0.7-0.1-1.1c0-0.2,0.1-0.5,0.2-0.6
						c0.1-0.1,0.2-0.1,0.4-0.1s0.4-0.1,0.6,0c0.2,0,0.4,0.2,0.6,0.2c0,0,0,0,0.1,0v0.2c0,0.6,0,1.3,0.3,1.7c0.3,0.6,1,1.3,0.9,1.9
						C14.3,48.6,14.2,48.7,14.1,48.8z"/>
					<g>
						<path class="st3" d="M12,47.3L12,47.3c0-0.2,0.2-0.4,0.4-0.6c0.1-0.1,0.2-0.1,0.2-0.2c0.1-0.1,0.2-0.2,0.2-0.3l0,0l0,0
							c-0.1-0.1-0.2-0.1-0.4-0.1c-0.1,0-0.1,0-0.2,0c-0.2,0-0.3-0.1-0.4-0.2c0-0.1,0-0.2,0.1-0.2c0.1-0.1,0.2-0.2,0.3-0.2h0.1
							c0.1,0,0.2-0.1,0.2-0.2c0-0.1,0-0.1,0-0.2C12.4,45,12.2,45,12,45h-0.1c-0.1,0-0.2,0-0.2-0.1c-0.1-0.1-0.2-0.2-0.1-0.2
							c0-0.1,0.2-0.2,0.2-0.2l0.1-0.1c0.2-0.2,0.2-0.2,0.2-0.3c0-0.1-0.2-0.2-0.2-0.2l0.1-0.1c0.1,0.1,0.2,0.2,0.2,0.2
							c0,0.2,0,0.3-0.2,0.4l-0.1,0.1c-0.1,0.1-0.2,0.2-0.2,0.2c0,0.1,0,0.1,0.1,0.2c0.1,0,0.1,0,0.2,0.1h0.1c0.2,0,0.4,0,0.5,0.2
							c0,0.1,0.1,0.2,0,0.2c0,0.1-0.2,0.2-0.2,0.2s0,0-0.1,0c-0.1,0.1-0.2,0.1-0.2,0.2C12,45.9,12,45.9,12,46s0.2,0.2,0.3,0.2
							c0,0,0.1,0,0.2,0c0.2,0,0.3,0,0.5,0.1c0,0,0,0,0.1,0.1v0.1c0,0.2-0.1,0.2-0.2,0.3c-0.1,0.1-0.2,0.1-0.2,0.2
							C12.3,47,12.1,47.1,12,47.3z"/>
					</g>
					<g>
						<path class="st3" d="M13.1,46.8c-0.2,0-0.6,0-0.8-0.1c-0.1,0-0.2-0.1-0.2-0.2c0-0.2,0.2-0.2,0.2-0.3c0,0,0,0,0.1,0
							c0,0,0.1,0,0.1-0.1c0.1-0.1,0.1-0.1,0.2-0.2c0-0.1,0-0.2,0-0.2c-0.1-0.1-0.2-0.1-0.3,0c-0.1,0-0.1,0-0.2,0l0,0
							c-0.1,0-0.2,0-0.2-0.1c-0.1-0.1-0.1-0.2,0.1-0.3c0.1-0.1,0.2-0.1,0.2-0.2h0.1c0.2-0.1,0.2-0.2,0.2-0.2v-0.1h-0.1
							c-0.2,0-0.4,0-0.6-0.1c0,0-0.1,0-0.1-0.1v-0.1c0-0.3,0.2-0.6,0.4-1l0.1,0.1C12.2,44,12,44.3,12,44.6v0.3c0,0,0,0,0.1,0
							c0.2,0.1,0.4,0.1,0.6,0.1c0.1,0,0.1,0,0.2,0c0.1,0.1,0.1,0.2,0.1,0.2c0,0.1-0.1,0.2-0.2,0.2h-0.1c-0.1,0-0.2,0.1-0.2,0.2
							c0,0.1-0.1,0.2,0,0.2s0.2,0.1,0.2,0.1l0,0c0,0,0.1,0,0.2,0c0.2,0,0.3,0,0.4,0.1c0.1,0.1,0.1,0.2,0.1,0.3
							c0,0.1-0.1,0.2-0.2,0.2c0,0,0,0-0.1,0.1c0,0,0,0-0.1,0c-0.1,0.1-0.2,0.2-0.2,0.2c0,0.1,0.1,0.1,0.2,0.2c0.3,0.1,0.6,0.2,1,0.1
							v0.1C13.3,46.8,13.2,46.8,13.1,46.8z"/>
					</g>
					<path class="st4" d="M20.2,45.2c0.1,0.7-0.3,0.9-1,0.9c-0.4,0-1,0-1.3-0.2c-0.3-0.1-1-0.2-1.2-0.6c-0.1-0.2-0.2-0.3-0.2-0.3
						l-0.4-0.2L16,45.1c0,0-0.1,0-0.8-0.3c-0.7-0.3-0.9-0.6-0.9-0.6c-0.1-0.2,0-0.7,0-1c-0.1-0.5,0-0.9,0-1.4c0-0.3,0.1-0.7,0.3-0.9
						c0.1-0.1,0.2-0.1,0.4-0.2c0.3-0.1,0.6-0.1,0.9-0.2c0.3,0,0.6,0,0.9,0c0.3,0.1,0.6,0.2,0.7,0.5c0.2,0.2,0.2,0.5,0.2,0.8
						c0,0.2,0,0.6,0.2,0.9c0.2,0.2,0.6,0.3,0.8,0.5c0.2,0.2,0.5,0.2,0.7,0.4C19.8,44.2,20.2,44.8,20.2,45.2z"/>
					<path class="st5" d="M14.8,48.9c0,0.3-0.1,0.8-0.2,1c-0.2,0.2-0.4,0.3-0.6,0.4c-0.2,0.1-0.3,0.1-0.5,0.1c-0.1,0-0.2,0-0.2,0
						c-0.5-0.1-0.9-0.4-1.2-0.8c-0.2-0.2-0.3-0.3-0.4-0.5c-0.2-0.2-0.2-0.5-0.3-0.8l-0.2-0.6h-0.2c-0.1,0-0.3-0.5-0.4-0.5
						c-0.2-0.2-0.2-0.4-0.3-0.6s-0.2-0.3-0.2-0.5c0-0.2-0.1-0.2-0.1-0.4c0,0.2,0,0.5,0.1,0.7c0.1,0.2,0.2,0.3,0.2,0.5
						c0.1,0.2,0.2,0.4,0.3,0.6c0.1,0.1,0.3,0.6,0.4,0.5h0.1l0.2,0.6c0.1,0.3,0.2,0.6,0.3,0.8c0.2,0.2,0.2,0.3,0.4,0.5
						c0.3,0.3,0.7,0.6,1.2,0.8c0.1,0,0.2,0,0.2,0c0.2,0,0.3-0.1,0.5-0.1c0.2-0.1,0.5-0.2,0.6-0.4C14.7,49.8,14.8,49.3,14.8,48.9
						L14.8,48.9z"/>
					<path class="st6" d="M19.3,45.8c-0.4,0-1,0-1.4-0.2c-0.3-0.1-1-0.2-1.2-0.6c-0.1-0.2-0.2-0.3-0.2-0.3l-0.5-0.2L16,44.9
						c0,0-0.1,0-0.8-0.3c-0.7-0.3-0.9-0.6-0.9-0.6c0-0.1,0-0.1,0-0.2c0,0.2,0,0.3,0,0.5c0,0,0.2,0.3,0.9,0.6
						c0.7,0.3,0.8,0.3,0.8,0.3l0.1-0.2l0.4,0.2c0,0,0.2,0.2,0.2,0.3c0.2,0.2,1,0.4,1.2,0.6c0.4,0.2,1,0.2,1.3,0.2c0.6,0,1-0.2,1-0.9
						l0,0C20.2,45.7,19.8,45.8,19.3,45.8z"/>
					<g>
						<path class="st3" d="M18.3,44L18.3,44l0.1-0.4c0-0.1,0-0.1,0-0.2c0,0,0,0-0.1,0c-0.2,0-0.3,0-0.5-0.1
							c-0.2-0.1-0.3-0.2-0.2-0.5c0-0.1,0-0.1,0.1-0.2c0.1-0.1,0.1-0.2,0.1-0.2s-0.2-0.1-0.2-0.2l0,0c-0.1,0-0.2,0-0.2-0.1
							c-0.1-0.1-0.1-0.2-0.1-0.3s0.1-0.2,0.2-0.2l0,0l0.1-0.1c0,0,0-0.1-0.1-0.1c0,0-0.1-0.1-0.1-0.2h0.1c0,0,0,0.1,0.1,0.1
							c0,0.1,0.1,0.1,0.1,0.2c0,0.1,0,0.1-0.1,0.2l0,0c-0.1,0.1-0.1,0.2-0.2,0.2c0,0.1,0,0.2,0,0.2c0.1,0.1,0.2,0.1,0.2,0.1l0,0
							c0.2,0,0.2,0.1,0.2,0.2c0,0.1,0,0.2-0.1,0.2c0,0.1-0.1,0.1-0.1,0.2c0,0.2,0.1,0.3,0.2,0.3c0.1,0.1,0.2,0.1,0.5,0.1h0.1
							c0.1,0,0.1,0.1,0,0.2C18.3,43.5,18.3,44,18.3,44z"/>
					</g>
					<g>
						<path class="st3" d="M18.1,43.7c-0.1,0-0.2-0.1-0.3-0.2c-0.1-0.1-0.1-0.2-0.1-0.2c0-0.1,0.1-0.2,0.1-0.2s0,0,0-0.1
							s0.1-0.2,0-0.2c0-0.1-0.2-0.1-0.2-0.1h-0.1c-0.1,0-0.1,0-0.2,0s-0.2-0.1-0.2-0.2c-0.1-0.1-0.1-0.2,0-0.3
							c0-0.1,0.1-0.2,0.2-0.2c0,0,0,0,0.1-0.1c0.1-0.1,0.1-0.2,0.1-0.2c0-0.1-0.1-0.2-0.2-0.2s-0.1,0-0.2,0h-0.1
							c-0.2,0-0.4-0.2-0.6-0.3l0.1-0.1c0.2,0.2,0.3,0.2,0.5,0.2h0.1c0.1,0,0.2,0,0.2,0c0.2,0,0.2,0.1,0.2,0.2c0,0.1,0,0.2-0.1,0.3
							c0,0,0,0.1-0.1,0.1c-0.1,0.1-0.1,0.1-0.2,0.2c0,0.1,0,0.2,0,0.2c0.1,0.1,0.1,0.2,0.2,0.2s0.1,0,0.2,0h0.1
							c0.1,0,0.2,0.1,0.2,0.1c0.1,0.1,0,0.2,0,0.3c0,0,0,0,0,0.1s-0.1,0.1-0.1,0.2c0,0.1,0,0.1,0.1,0.2c0.1,0.1,0.2,0.1,0.2,0.1l0,0
							c0.2,0,0.3-0.1,0.4-0.2l0.1,0.1C18.5,43.6,18.3,43.7,18.1,43.7L18.1,43.7z"/>
					</g>
					<g>
						<path class="st7" d="M9,16.1c-0.1,0.4-0.2,0.8-0.4,1.1c0,0,0,0.1-0.1,0.1l-0.1-0.1c-0.1-0.2-0.2-0.6-0.1-0.9
							c0-0.2,0.2-0.7,0.4-0.9c0.1,0,0.2,0,0.2,0s0,0.1,0,0.2C9,15.9,9,16,9,16.1z"/>
						<g>
							<g>
								<path class="st8" d="M15.5,41.7L15.5,41.7L15.5,41.7L15.5,41.7z"/>
							</g>
							<path id="XMLID_35_" class="st9" d="M21.9,25.8c-0.2-0.2-0.5-0.4-0.7-0.6c0-0.1-0.1-0.1-0.1-0.2c-0.2-0.2-0.3-0.5-0.5-0.8
								c-0.2-0.6-0.5-1.1-0.7-1.5c-0.4-0.8-1-2.8-1-2.8c-1.4-0.5-1.5,1.4-1.3,1.9c0.3,0.5,0.6,1,1,1.4c0.3,0.4,0.5,0.9,0.6,1.3
								c0.1,0.1,0.1,0.2,0.2,0.3c0.1,0.1,0.1,0.2,0.1,0.2c0.1,0.2,0.2,0.5,0.2,0.7c0.1,0.2,0,0.6,0.1,0.8c0.1,0.2,0.2,0.4,0.3,0.5
								c0.2,0.6,0.5,0.8,0.6,1c0.2,0.2,0.1,0.3,0.7,0.3s0.5-0.3,0.5-0.3s0,0,0.2-0.1c0.2-0.1,0.1-0.2,0.1-0.2l-0.4-1.1
								c0-0.1,0.1-0.2,0.1-0.2s0,0,0-0.1c0.2,0.1,0.7,0.3,0.9,0.2C22.9,26.2,22.2,26.1,21.9,25.8z"/>
							<path class="st10" d="M16.7,26.9c-0.2-0.3-0.1-0.6,0.1-0.8c-0.1-0.1-0.1-0.2-0.1-0.3c-0.2,0-0.2,0.1-0.3,0.2
								c-0.6,0.4-1,1-1.3,1.6c-0.1,0.2-0.1,0.2-0.2,0.4c-0.3,0.9-0.1,1.9-0.1,2.8c0,1.2,0.1,2.4-0.2,3.6c-0.5,1.8-0.5,3.5-0.4,4.7
								c0.1,1.4,0,3.6,0,3.6s0.5,0.7,1.6,0.7c0.5,0,0.9-0.1,1.3-0.3c0.5-0.3,0.6-0.5,0.6-1c-0.1-1.3,0-2.4,0-3.6c0.1-1,0.1-2,0.2-3
								c0.2-1.5,0.2-1.9,0.3-3.2c0.1-0.9,0.5-3.9,0.2-5C18.1,27.4,17.1,27.5,16.7,26.9z"/>
							<g>
								<path class="st11" d="M15.2,40c-0.1-1.3-0.1-2.9,0.4-4.7c0.3-1.2,0.3-2.4,0.2-3.6c0-0.9-0.3-2,0.1-2.8
									c0.1-0.2,0.1-0.2,0.2-0.4c0.2-0.5,0.5-1,0.8-1.4c-0.1-0.1-0.1-0.1-0.2-0.2c-0.2-0.3-0.1-0.6,0.1-0.8
									c-0.1-0.1-0.1-0.2-0.1-0.3c-0.2,0-0.2,0.1-0.3,0.2c-0.6,0.4-1,1-1.3,1.6C15,28,15,28,14.9,28.2c-0.3,0.9-0.1,1.9-0.1,2.8
									c0,1.2,0.1,2.4-0.2,3.6c-0.5,1.8-0.5,3.5-0.4,4.7c0.1,1.4,0,3.6,0,3.6s0.2,0.4,1,0.6C15.2,42.8,15.3,41.1,15.2,40z"/>
							</g>
							<path id="XMLID_34_" class="st12" d="M16.3,12.7c0,0,1-0.3,1.6,0.4c0.6,0.7,0.6,1.2,0.6,2.4s-0.1,2.7-0.1,2.7l2.4,6.5
								c0,0-0.8,0.2-1.2,1c-0.1,0.2-1.6-2.8-1.8-3C16.2,20.8,15,12.8,16.3,12.7z"/>
							<path id="XMLID_33_" class="st13" d="M18.5,14.3c-0.1-0.5-0.2-0.9-0.6-1.3c-0.6-0.7-1.6-0.4-1.6-0.4c-0.2,0-0.4,0.3-0.4,0.8
								c0.4,0.1,1,0,1.3,0c0.5,0,0.9,0.3,1.2,0.6C18.5,14.1,18.5,14.2,18.5,14.3z"/>
							<g>
								<path class="st14" d="M14,38.7c0.1-0.8,0.4-1.6,0.6-2.4c0.2-1.1,0.4-2.6,0.5-3.7c0-0.6,0.1-1.2,0.2-1.7c0-0.1,0-0.2,0.1-0.2
									c0-0.1,0.1-0.1,0.1-0.2c0.1-0.1,0.2-0.2,0.3-0.3c0.3-0.3,0.6-0.6,0.6-1c0.1-0.6,0-1.2-0.2-1.7c0-0.1,0-0.2,0.1-0.2
									c0.1-0.1,0.2-0.2,0.3-0.2c0.2-0.2,0.4-0.3,0.6-0.5c0.3-0.2,0.6-0.4,0.9-0.6c0.2-0.1,0.4-0.1,0.6-0.1c0-1.3-0.4-2.4-0.4-2.4
									s0.2,0.4-2.4,1.8c-0.6,0.4-1.4,0.6-2,0.9c-0.8,0.2-1.7-0.2-2.4,0.3c-0.7,0.5-0.9,1.3-1,2c-0.1,1-0.2,2-0.1,3.2
									c0.2,2,0.3,4,0.2,6.2c-0.2,1.9-0.2,4-0.1,5.9c0.1,0.6-0.1,1.6,0.4,2.2c0.3,0.3,0.9,0.5,1.3,0.6c0.5,0.1,1,0.2,1.4-0.1
									c0.5-0.3,0.4-1.2,0.5-1.6C14,44,14,43.2,14,42.4C13.8,40.9,13.9,39.7,14,38.7z"/>
							</g>
							<path class="st15" d="M11.2,44.6c-0.2-1.9,0-4,0.1-5.9c0.2-2,0-4-0.2-6.2c-0.1-0.6-0.1-1.2,0-1.6c0-0.4,0.1-0.8,0.2-1.2
								c0,0.1,1,0.2,1.1,0.2c0.4,0.1,0.9,0.1,1.3,0c0.9-0.1,1.6-0.5,2.4-0.6c0.9-0.2,1.6-0.4,2.3-0.9c0.1-0.1,0.2-0.1,0.2-0.2
								c0-0.1,0.1-0.2,0.1-0.2c0.1-1.6,0-3.2-0.6-4.6c0,0,0.2,0.4-2.4,1.8c-0.6,0.4-1.3,0.6-2,0.9c-0.8,0.2-1.7-0.2-2.4,0.3
								c-0.7,0.5-0.9,1.3-1,2c-0.1,0.9-0.1,1.9-0.1,3c0.2,2,0.3,4.1,0.2,6.2c-0.2,1.9-0.2,4-0.1,5.9c0.1,0.6-0.1,1.6,0.4,2.2
								c0.2,0.2,0.5,0.4,0.8,0.5C11.1,45.7,11.2,45,11.2,44.6z"/>
							<path id="XMLID_32_" class="st16" d="M18.5,20.2c-0.1,1.1-0.1,2.2,0,3.3c0,0.5,0.1,1,0.1,1.4c0.1,0.4,0.2,0.9,0.1,1.3
								c-0.1,0.3-0.2,0.6-0.2,1c0,0.1-0.1,0.2-0.2,0.3c-0.2,0.2-0.3,0.6-0.6,0.6c-0.3,0.2-0.6,0.2-1,0.4c-1.3,0.4-3,0.9-5.8,0
								c0,0,0.5-4.6,0.2-5.2C10.9,22.5,9,20,8.9,18.6c-0.1-1.4-0.4-2.6,1.1-3.9c0.9-0.7,1.4-1.3,2.1-1.6c0.6-0.4,1.1-0.6,1.6-0.9
								c0.6-0.2,1.2-0.2,1.7,0c1,0.2,1.8,0.6,2.1,1.1C18.5,14.3,18.7,16.5,18.5,20.2z"/>
							<path class="st17" d="M17.5,13c0,0,0.5,0.6,0.6,0.7c0.2,0.2,0.3,0.6,0.4,0.9c0.2,0.8,0.2,1.6,0.1,2.4c-0.1,1.3,0,2.4,0,3.7
								c0,0.8,0,1.4,0,2.2c0,0.3,0,0.7,0,1c0,0.6,0.1,1.4,0.2,1.9c0.1,0.3,0,0.6-0.1,0.9c-0.1,0.3-0.2,0.7-0.5,0.9
								c-0.3,0.2-0.6,0.4-1,0.6c-0.1,0-0.8,0.2-0.8,0.2s0.3-3.8-0.1-7.9c-0.1-1-0.2-1.9-0.4-2.8c-0.2-0.6-0.3-1.3-0.5-1.8
								c-0.1-0.2-0.3-0.6-0.2-0.8c0.1-0.1,0.2-0.2,0.3-0.2c0.2-0.2,0.3-0.6,0.4-1c0-0.1,0-0.2,0.1-0.3c0-0.1,0-0.2,0.1-0.2
								c0.1-0.2,0.3-0.2,0.5-0.3C16.9,13,17.4,12.9,17.5,13z"/>
							<path id="XMLID_31_" class="st12" d="M15.1,13.5c0.9-0.1,1.6-0.5,2.4-0.4c-0.5-0.5-0.9-0.9-1.6-1c-0.6-0.2-1.4,0.1-2,0.3
								c-0.6,0.2-1.2,0.6-1.6,0.9c-0.7,0.5-2,1-2.8,1.6c-1.4,1.2-1,2.3-1.1,3.9c0,0.2,0.6,0.3,0.7,0.5c0.2,0.9,0.7,1.5,1.2,2.3
								c0.2,0.2,0.2,0.5,0.5,0.6c0.1,0.1,0.1,0.4,0.1,0.5c0,0.4,0,0.8,0,1.1c0,0.5-0.1,1-0.1,1.3c0,0.2-0.1,0.5-0.1,0.7
								c0,0.3,0.3,0.7,0.2,1.1c-0.1,0.3-0.2,0.6-0.2,0.9c0.1,0.2,0,0.6,0.2,0.6s0.4,0.1,0.4,0.2c0.2,0.1,0.2,0.1,0.4,0.1
								c0,0,0.1-2.1,0.1-2.2c0-0.8,0-1.6,0-2.4c0.1-1.1,0.2-2,0.2-3.2c0-0.5,0.1-1,0.1-1.4c0-0.5-0.1-1-0.2-1.4
								c-0.1-0.6-0.1-1.3-0.4-1.9c-0.2-0.2-0.2-0.4-0.4-0.6c-0.3-0.2-0.2-0.3,0-0.6c0.2-0.2,0.5-0.4,0.8-0.6
								c0.4-0.2,0.7-0.3,1.1-0.5c0.1,0,0.2-0.1,0.3-0.1C13.7,13.7,14.4,13.5,15.1,13.5z"/>
							<path id="XMLID_30_" class="st9" d="M10.9,32.1c-0.1-0.1-0.2-0.2-0.3-0.4c0,0,0-0.1-0.1-0.1c-0.2-0.2-0.4-0.4-0.6-0.6
								c-0.2-0.2-0.2-0.6-0.2-0.8c-0.1-1.2,0.2-3.2-0.1-4.3c-0.3-1.2-2.2-0.3-2.2-0.3S7.3,27,8,28.9s0.8,2.2,0.8,3
								c0,0.3-0.1,0.5,0.1,0.7c0.1,0.2,0.2,0.3,0.2,0.5c0.2,0.4,0.2,0.6,0.3,0.9c0.2,0.3,0,0.3,0.7,0.5c0.7,0.2,0.6-0.2,0.6-0.2
								s0,0,0.2,0s0.2-0.2,0.2-0.2l-0.3-1.3c0-0.1,0.1-0.1,0.1-0.2c0.2,0.2,0.7,0.6,0.9,0.5C11.9,32.8,11.2,32.4,10.9,32.1z"/>
							<path id="XMLID_29_" class="st18" d="M7.5,25.6c0,0-0.1,1.4,0.6,3.3c0.6,2,0.8,2.2,0.8,3c0,0.2,0,0.4,0,0.6
								c0.2-0.4,0.2-0.9,0.2-1.2c-0.1-1-0.4-1.8-0.6-2.8c-0.2-1.1-0.3-2.1-0.2-3.2C7.9,25.3,7.5,25.6,7.5,25.6z"/>
							<path class="st19" d="M10.7,15.1c0,0-1.8-0.8-2.2,1.7S8,20.2,7.7,22.1c-0.4,1.9-0.4,2.3-0.4,2.8c0,0.5,0.3,2.6,0.6,4
								c0.3,1.3,0.7,2.2,0.7,2.2s0.2-0.7,0.8-0.7s0.6,0.2,0.6,0.2v-6c0,0,2-5.8,1.8-7.1C11.6,16.1,11.4,15.3,10.7,15.1z"/>
							<path class="st12" d="M9.4,15.7c-0.2,0.1-0.3,0.2-0.3,0.3c0,0.2,0.2,0.2,0.2,0.3c0.4,0.2,0.7,0.2,1,0.4
								c0.3,0.2,0.5,0.6,0.6,1C11,18,11,18.3,11,18.7c0,0.3,0.1,0.7,0,1c-0.1,0.8-0.4,1.5-0.6,2.2c-0.2,1-0.5,1.7-0.8,2.6
								c0,0,0.1,4.2,0.2,4.2v-4.1c0.3-0.9,0.6-1.6,0.9-2.5c0.2-0.7,0.5-1.4,0.6-2.1c0.1-0.3,0.2-0.7,0.2-1c0.1-0.4,0-0.8,0-1.2
								c0-0.5,0-1.4-0.4-1.7C10.8,15.7,9.9,15.5,9.4,15.7z"/>
							<path class="st12" d="M8.6,29.6C8.3,28.3,8,25.4,8,24.9c0-0.6,0.3-1.3,0.6-3.2c0.4-1.9,0.6-2.3,1-4.8
								c0.2-1.2,0.7-1.6,1.3-1.7c-0.3-0.1-1.8-0.6-2.1,1.7c-0.4,2.5-0.5,3.4-0.8,5.3c-0.4,1.9-0.4,2.3-0.4,2.8s0.3,2.6,0.6,4
								c0.3,1.4,0.7,2.2,0.7,2.2S8.9,31,9,30.8C8.8,30.4,8.7,30.1,8.6,29.6z"/>
							<path class="st20" d="M16.9,13.8c-0.1-0.2-0.1-0.5-0.2-0.6c-0.2-0.2-0.5-0.4-0.6-0.6c-0.2-0.2-0.2-0.2-0.4-0.4
								c0,0,1.2,0.1,2.1,1.2c1.2,1.3,1.2,3.1,1.1,3.7c0,0.2-0.1,1.2-0.2,2.3c-0.1,0.2,0,0.5,0,0.8c0,0.3,0,0.6,0,1
								c0,0.2,0,0.5,0,0.8c0,1,0,1.7,0,1.7s0.4,2.6,0.2,3.5c-0.2,0.8-1.4,1.5-4.2,2c-1.3,0.2-2.3,0.1-3.1-0.2
								c-0.9-0.2-1.3-0.6-1.3-0.6s0-1.4,0.2-1.9s0.2-2.8,0.2-3.4c0-0.2,0-0.2,0-0.2l0.2-0.5l0.1-0.4c0,0,0.1-0.2,0.2-0.5
								c0.1-0.2,0.2-0.5,0.2-0.7s0.1-0.2,0.1-0.4c0.2-0.8,0.4-1.4-0.2-3.5c-0.1-0.3-0.2-0.4-0.2-0.6c-0.8-1.1-2.2-0.7-2.3-0.7
								c0.9-1.3,3-2.6,3.7-2.8c0,0.2-0.9,0.9-1,1.2c-0.2,0.4,1,1.4,1,1.4c0.3,0.2,0.6,0.5,0.9,0.7c0.3,0.2,0.6,0.3,1,0.4
								c0.2,0.1,0.2,0.1,0.4,0.2c0.7,0.2,1.5,0.1,2.1-0.3c0.5-0.3,0.6-0.9,0.6-1.4c0-0.3,0-0.7-0.1-1C16.9,14,16.9,13.9,16.9,13.8z"
								/>
							<path class="st21" d="M8.3,31l-0.4-1.4c0,0,1,0.2,1.4-0.1c0.6-0.2,0.7-0.6,0.7-0.6l0.1,1.6C10.1,30.5,9.4,31.5,8.3,31z"/>
							<path class="st21" d="M19.7,25.8L19,24.7c0,0,0.6-0.1,1.1-0.3c0.6-0.3,0.6-0.9,0.6-0.9l0.6,1.3C21.3,24.9,21,25.7,19.7,25.8z
								"/>
							<path class="st22" d="M17,13.5c0-0.1-0.1-0.2-0.1-0.2c-0.1-0.2-0.2-0.4-0.4-0.6c-0.1-0.1-0.4-0.2-0.5,0
								c0,0.1,0.1,0.2,0.1,0.2c0.1,0.2,0.2,0.3,0.3,0.5c0.1,0.2,0.1,0.4,0.2,0.6c0.1,0.4,0.1,0.8,0,1.2c-0.1,0.4-0.3,0.6-0.7,0.7
								c-0.2,0.1-0.4,0.2-0.6,0.2c-0.6,0.1-1,0.1-1.5-0.1c-0.3-0.1-0.6-0.3-1-0.5c-0.3-0.2-0.6-0.4-0.9-0.7c-0.3-0.3-0.6-0.6-0.6-1
								c0-0.2,0.1-0.5,0.3-0.6l0.1-0.1V13c0-0.1,0.1-0.2,0.1-0.2S11.6,13,11.5,13c-0.2,0.1-0.5,0.2-0.6,0.5c-0.2,0.9,0.4,1.6,1,2.1
								c0.2,0.2,0.2,0.2,0.5,0.4c0.3,0.2,0.4,0.2,0.6,0.4c1.1,0.6,2.2,0.7,3.3,0.1c0.2-0.1,0.3-0.2,0.4-0.4c0.2-0.4,0.3-0.8,0.3-1.2
								C17.3,14.7,17.1,14.1,17,13.5z"/>
							<path class="st23" d="M10.8,16.1c0.2,0.1,0.2,0.2,0.3,0.4c0.2,0.3,0.4,0.7,0.5,1.1c0.2,0.6,0.2,1.2,0.2,1.7
								c0,0.3,0,0.6,0,0.9c0,0.1,0,0.9,0,0.9c-0.1,0-0.2-0.1-0.2-0.1c-0.2-0.1-0.3-0.1-0.4-0.2c0,0,0,0,0,0.1c0-0.2,0.1-0.3,0.1-0.4
								c0.1-0.2,0.1-0.5,0.2-0.7c0.1-0.6,0.1-1.1-0.1-1.6c-0.1-0.2-0.2-0.6-0.2-0.8c0-0.1-0.1-0.2-0.1-0.3S11,17,11,16.9
								c-0.2-0.2-0.2-0.3-0.4-0.5c-0.1-0.2-0.2-0.2-0.4-0.3C10,16,9.9,15.9,9.8,15.9c-0.5-0.1-0.9,0-1.3,0.1v-0.1
								c0-0.1,0.1-0.2,0.2-0.2c0.6-0.3,1.4-0.1,1.9,0.2C10.6,16,10.7,16.1,10.8,16.1z"/>
							<path class="st23" d="M11.9,23.4c0,1.3,0,2.5-0.2,3.4c-0.1,0.6-0.1,1.2-0.2,1.6l0,0c-0.8-0.2-1.3-0.6-1.3-0.6
								c0-0.4,0.1-0.9,0.2-1.2c0.2-0.6,0.2-3.6,0.2-3.6V23c0.2,0.2,0.6,0.2,1,0.4C11.6,23.4,11.8,23.4,11.9,23.4z"/>
							<path class="st23" d="M11.6,22.5c-0.3-0.1-0.6-0.2-0.8-0.3V22c0,0,0.1-0.2,0.2-0.5c0.2,0.1,0.4,0.2,0.6,0.2
								c0.1,0,0.2,0.1,0.2,0.1c0,0.2,0,0.5,0,0.7C11.8,22.6,11.6,22.6,11.6,22.5z"/>
							<path class="st24" d="M12.3,13.4c-0.1,0.2-0.1,0.3,0.1,0.6c0.2,0.2,0.2,0.2,0.4,0.3c0.2,0.2,0.3,0.3,0.5,0.4
								c0.2,0.2,0.4,0.2,0.6,0.4c-0.2-0.5-0.2-1.1-0.2-1.6c0-0.4,0.1-0.8,0.1-1.2v-0.1c-0.1,0-0.2,0-0.2,0.1
								C12.9,12.6,12.5,12.7,12.3,13.4z"/>
							<path class="st25" d="M14.6,15.6c0.4,0,1.3-0.2,1.4-0.5c0.3-0.4,0.2-1.2,0.2-1.5c-0.2-0.8-1.2-0.5-1.2-0.5
								c-0.2,0-0.3,0-0.5,0c-0.4,0-0.8-0.1-1.1-0.1c-0.1,0-0.2,0-0.3,0c-0.2,0-0.2-0.2-0.4-0.2c-0.1-0.1-0.3,0-0.4,0
								c-0.2,0.1-0.5,0.4-0.6,0.6c-0.2,0.6,0.3,1,0.7,1.3c0.5,0.4,1,0.8,1.6,0.9C14.3,15.6,14.4,15.7,14.6,15.6z"/>
							<path id="XMLID_28_" class="st26" d="M12.7,11.8c0,0.1,0,0.1,0,0.2c0,0.3,0,0.6-0.1,1c0,0.1-0.1,0.3,0,0.4
								c0.1,0.1,0.2,0.2,0.2,0.2c0.4,0.3,0.9,0.6,1.3,0.8c1.2,0.5,1.5,0.2,1.5,0.2l0.2-2.4L15.7,12c-0.2-0.1-0.5-0.2-0.7-0.2
								c-0.4-0.2-0.8-0.2-1.2-0.3c-0.2,0-0.4-0.1-0.6,0c-0.1,0-0.2,0-0.2,0.1c-0.1,0.1-0.2,0.2-0.2,0.3
								C12.7,11.7,12.7,11.7,12.7,11.8z"/>
							<path id="XMLID_27_" class="st26" d="M13.4,12.4c0.2-0.1,0.6-0.2,0.9-0.2c0.2,0,0.7,0,1,0.1c0.2,0.1,0.2,0.3,0.2,0.5
								c0.2,0.2,0.4,0.1,0.5,0.2c0.2,0.2,0.1,0.6,0.1,0.7c0,0.3,0,0.6,0,0.9c0,0.1,0,0.2-0.1,0.2c-0.2,0.3-0.5,0.4-0.7,0.5
								c-0.3,0.1-0.7,0.1-1,0.1c-0.2,0-0.4-0.2-0.6-0.2c-0.5-0.2-0.9-0.6-1.3-1c-0.1-0.1,0-0.2,0-0.2c0-0.3,0.1-0.7,0.3-1
								C12.9,12.6,13.2,12.5,13.4,12.4z"/>
							<path id="XMLID_26_" class="st24" d="M12.8,11.3c-0.2,0.1-0.4,0.2-0.4,0.3c-0.1,0.2,0.1,0.5,0.1,0.7c0,0.3,0,0.6-0.1,0.9
								c0,0.2-0.1,0.4-0.1,0.6c0,0.2,0.2,0.5,0.3,0.6c0.2,0.2,0.5,0.4,0.7,0.6c0.2,0.2,0.5,0.2,0.7,0.3c-0.2-0.1-0.3-0.3-0.4-0.5
								c-0.1-0.2-0.1-0.3-0.1-0.5s-0.1-0.4,0.1-0.6c0.1-0.2,0.2-0.1,0.4-0.1c0.1,0,0.2,0.1,0.2,0.1c0.5,0.2,1,0.3,1.5,0.3
								c0.1,0,0.2,0,0.2-0.1s0-0.1-0.1-0.2c-0.1-0.1-0.2-0.1-0.4-0.2c-0.3-0.2-0.6-0.5-1-0.6c-0.2-0.1-0.4-0.2-0.6-0.2
								c-0.1-0.1-0.2-0.2-0.2-0.2c0-0.2,0-0.2,0-0.4s-0.1-0.3-0.1-0.5c0-0.1-0.1-0.4-0.2-0.4C13.3,11.2,12.9,11.3,12.8,11.3z"/>
							<path class="st27" d="M17.6,8.8L17.6,8.8c0-0.5-0.2-0.9-0.4-1.2c-0.3-0.5-0.9-0.8-1.3-0.9c-0.8-0.1-2.1,0.3-2.9,1.3
								c-0.1,0.1-0.1,0.2-0.2,0.2c-0.1,0.1-0.1,0.2-0.2,0.2c-0.5,1.2-2,1.4,0.5,4.1c0,0,0,0,0.1,0.1l0.1,0.1l0.1,0.1
								c0.1,0.1,0.2,0.2,0.4,0.3c0.4,0.3,0.9,0.6,1.3,0.7c1,0.2,1.6-0.1,1.7-0.8c0.2-1.3,0.6-2.4,0.7-3.6C17.6,9.2,17.6,9,17.6,8.8z
								"/>
							<path class="st28" d="M17,8.3c-0.1-0.2-0.2-0.6-0.2-0.8h-0.1c-0.4-0.2-0.9-0.2-1.3-0.2c-0.3,0-0.7,0-1,0.1
								c-0.6,0.1-1.1,0.3-1.4,0.7c-0.1,0.1-0.1,0.2-0.2,0.2c-0.1,0.1-0.1,0.2-0.2,0.2c-0.5,1.2-2,1.4,0.5,4.1c0,0,0,0,0.1,0.1
								l0.1,0.1l0.1,0.1c0.1,0.1,0.2,0.2,0.4,0.3c-0.1-0.3-0.1-0.7-0.1-1c0-0.2,0-0.3,0-0.5s0.1-0.3,0.2-0.4
								c0.1-0.1,0.2-0.2,0.2-0.3s0-0.2,0-0.3c0.1-0.4,0-0.8,0.1-1.1c0.2-0.3,0.3-0.5,0.4-0.7c0.2-0.2,0.6-0.4,0.8-0.5
								c0.2,0,0.3,0,0.6,0c0.2,0,0.3,0,0.5,0c0.3,0.1,0.6,0.1,0.8,0h0.1C17,8.4,17,8.4,17,8.3z"/>
							<g id="XMLID_25_">
								<path class="st29" d="M16.5,7.5c-0.1-0.3-0.2-0.7-0.2-1.1c-0.6-0.5-1.3-0.9-2-1c-1-0.2-1.6,0.2-2.4,0.8c0,0,0,0-0.1,0.1
									c0,0,0,0-0.1,0.1l-0.1,0.1c-0.1,0.1-0.2,0.2-0.2,0.3c0,0.1-0.1,0.1-0.1,0.2c-0.2,0.2-0.2,0.6-0.3,0.9V8c0,0.2,0,0.5,0,0.6
									c0,0.2,0.1,0.6,0.2,0.8c0.1,0.2,0.2,0.6,0.2,0.8c0,0.1,0,0.2,0.1,0.2c0.1,0.3,0.2,0.6,0.3,1c0.1,0.2,0.1,0.4,0.2,0.6
									c0.1,0.2,0.2,0.2,0.3,0.4c0.2,0.1,0.2,0.2,0.4,0.3l0,0l0,0c0-0.1,0-0.2,0-0.2l0,0c0-0.5-0.2-1-0.5-1.4
									c-0.1-0.2-0.2-0.3-0.2-0.5c0-0.1,0-0.1,0-0.2c0-0.1,0-0.1,0-0.1c0-0.2,0.1-0.3,0.2-0.4c0.2-0.3,0.6-0.2,0.8,0.1
									c0.1,0.2,0.2,0.5,0.2,0.6s0.1,0.4,0.1,0.6c0,0.1,0,0.2,0,0.2c0.2,0.1,0.3,0.1,0.5,0.2c0-0.1,0-0.2,0.1-0.2
									c0.1-0.5,0.2-1,0.2-1.4l0,0c0,0,0,0,0-0.1c0.2-1,1.1-1.3,2.6-1.3c0,0,0,0,0.1,0C16.6,7.9,16.5,7.7,16.5,7.5z"/>
								<path class="st30" d="M14,9.5c0,0.1,0,0.1,0,0.2c-0.1,0.6-0.2,1-0.2,1.4c0,0.1,0,0.2-0.1,0.2c-0.2,0-0.3-0.1-0.5-0.2l0,0
									c0-0.1,0-0.2,0-0.2c0-0.2,0-0.3-0.1-0.5C13,10.2,13,10,12.9,9.9c-0.2-0.3-0.6-0.4-0.8-0.1c0,0.1-0.1,0.2-0.1,0.4v0.1
									c0,0.1,0,0.2,0,0.2v0.1c0.1,0.2,0.2,0.3,0.2,0.4c0.2,0.4,0.5,0.8,0.5,1.3l0,0v0.2l0,0c-0.2-0.1-0.3-0.2-0.4-0.3
									c-0.2-0.1-0.3-0.2-0.3-0.4c-0.1-0.2-0.1-0.4-0.2-0.6c-0.1-0.3-0.2-0.6-0.3-1c0-0.1,0-0.2-0.1-0.2c-0.1-0.2-0.2-0.6-0.2-0.8
									c-0.1-0.1-0.2-0.4-0.2-0.6s0-0.5,0-0.6V7.9c0.1-0.3,0.2-0.6,0.3-0.9c0-0.1,0.1-0.1,0.1-0.2c0.1-0.1,0.2-0.2,0.2-0.3l0.1-0.2
									c0,0,0,0,0.1-0.1c-0.1,0.1-0.2,0.2-0.2,0.2c-0.3,0.6-0.1,1.4,0.4,1.8c0.2,0.2,0.5,0.3,0.7,0.4c0.4,0.2,0.7,0.4,1,0.6
									C13.9,9.5,13.9,9.5,14,9.5L14,9.5z"/>
							</g>
							<path class="st31" d="M8.3,26.9C8.3,27,8.3,27,8.3,26.9C8.3,27,8.3,27,8.3,26.9z"/>
						</g>
						<path class="st32" d="M11.6,28.3c0,0.2,0,0.6,0,0.8c-0.9-0.2-1.3-0.6-1.3-0.6s0-0.3,0-0.8C10.3,27.8,10.8,28.1,11.6,28.3
							L11.6,28.3z"/>
						<path class="st22" d="M18.9,27.1c-0.2,0.8-1.4,1.5-4.2,2c-1.3,0.2-2.3,0.1-3.1-0.2c0-0.2,0-0.5,0-0.8c0.8,0.2,1.7,0.4,3,0.2
							c2.7-0.6,4-1.4,4.2-2c0-0.2,0.1-0.3,0.1-0.5C19,26.4,19,26.8,18.9,27.1z"/>
						<path class="st32" d="M11.9,23.4c-0.1,0-0.2-0.1-0.2-0.1c-0.4-0.2-0.7-0.2-1-0.4l0.2-0.7c0.2,0.1,0.5,0.2,0.8,0.3
							c0.1,0,0.2,0.1,0.2,0.1C11.9,22.9,11.9,23.1,11.9,23.4z"/>
						<path class="st22" d="M18.7,21.6c-0.5,0.7-1.6,1.4-4,1.6c-1.1,0.2-2,0.2-2.8-0.1c0-0.2,0-0.6,0-0.8c0.7,0.2,1.6,0.2,2.8,0.1
							c2.3-0.5,3.6-1.1,4-1.6C18.7,21.1,18.7,21.4,18.7,21.6z"/>
						<path class="st32" d="M11.9,21.9c-0.1,0-0.2-0.1-0.2-0.1c-0.2-0.1-0.4-0.2-0.6-0.2c0,0,0-0.1,0-0.2c0,0,0-0.1,0-0.2
							c0-0.2,0.1-0.2,0.1-0.4c0,0,0,0,0-0.1c0.2,0.1,0.2,0.1,0.4,0.2c0.1,0,0.2,0.1,0.2,0.1C11.9,21.4,11.9,21.6,11.9,21.9z"/>
						<path class="st22" d="M18.7,20.2c-0.5,0.6-1.6,1.3-4,1.6c-1.2,0.2-2,0.2-2.8-0.1c0-0.2,0-0.6,0-0.8c0.7,0.2,1.6,0.3,2.8,0.1
							c2.2-0.5,3.6-1,4-1.6C18.7,19.7,18.7,19.9,18.7,20.2z"/>
						<path class="st33" d="M18.6,8.6c0.1,0.2,0,0.3-0.2,0.5c-0.1,0.1-0.1,0.1-0.2,0.2c-0.3,0.2-0.6,0.4-1,0.6
							c-0.2,0.1-0.5,0.2-0.7,0.2c-0.3,0-0.7,0.1-1.1,0c-0.2,0-0.6-0.2-0.8-0.2c-0.1-0.1-0.2-0.2-0.2-0.2s-0.2-0.2,0-0.2h0.1
							c0.1,0,0.2,0,0.2,0c0.1,0,0.1,0,0.2-0.1c0.2,0,0.2-0.1,0.4-0.1c0.2-0.1,0.6-0.1,0.8-0.2c0.6-0.2,1.3-0.4,1.7-0.7
							c0.1-0.1,0.2-0.2,0.3-0.3s0.1,0,0.2,0c0.1,0.1,0.1,0.1,0.2,0.2C18.5,8.3,18.5,8.4,18.6,8.6z"/>
						<path class="st34" d="M18.1,7.9c0.1,0.2-0.1,0.6-0.3,0.8c-0.2,0.2-0.4,0.2-0.6,0.3c-0.5,0.2-1,0.2-1.3,0.3c-0.2,0-0.5,0-0.7,0
							s-0.4,0.2-0.6,0.1l0,0c-0.4,0-0.8,0-1.2-0.1c-0.6-0.1-1.3-0.3-1.8-0.5C11.4,8.7,11,8.7,11,8.3c0-0.6,0-1.1,0.2-1.6
							c0.1-0.4,0.2-0.8,0.6-1.1c0.1-0.1,0.2-0.2,0.3-0.3c0.3-0.2,0.6-0.4,1-0.6c0.8-0.3,1.8-0.2,2.7-0.1c0.2,0.1,0.6,0.1,0.8,0.2
							c0.2,0.1,0.6,0.2,0.8,0.4c0.2,0.2,0.3,0.4,0.4,0.6c0.2,0.4,0.2,1,0.4,1.4C18,7.4,18.1,7.6,18.1,7.9L18.1,7.9z"/>
						<path class="st35" d="M18.6,8.4c0.1,0.2,0,0.3-0.2,0.5C18.3,9,18.3,9,18.2,9.1c-0.3,0.2-0.6,0.4-1,0.6
							c-0.2,0.1-0.5,0.2-0.7,0.2c-0.4,0.1-0.8,0.2-1.2,0.1c-0.2,0-0.6-0.2-0.8-0.2c-0.2-0.2-0.3-0.4-0.3-0.4s1.4-0.1,1.7-0.2
							c2-0.6,1.8-1.3,1.8-1.3c0.1-0.1,0.1,0,0.2,0C18.2,8,18.2,8,18.3,8.1C18.5,8.1,18.5,8.3,18.6,8.4z"/>
						<path class="st36" d="M14.5,9.5L14.5,9.5c-0.4,0-0.8,0-1.2-0.1c-0.6-0.1-1.3-0.3-1.8-0.5c-0.3-0.1-0.7-0.1-0.7-0.5
							c0-0.6,0-1.1,0.2-1.6c0.1-0.4,0.2-0.8,0.6-1.1c0.1-0.1,0.2-0.2,0.3-0.3c-0.1,0.1-0.6,0.6,0.6,0.9c1.2,0.2,1.4,0.4,1.6,1.1
							C14.1,7.8,14.2,8.9,14.5,9.5z"/>
						<path class="st36" d="M12.8,5.2c-0.2,0-0.5,0-0.6,0.1c-0.1,0.1-0.2,0.2,0,0.2c0.5,0.2,1.9,0.2,2.3,1.2c0.5,1,0.6,2,0.8,2
							s0.3-0.2,0.1-1.2c-0.3-1.3-0.6-1.4-0.8-1.7C14.3,5.5,13.4,5.3,12.8,5.2z"/>
						<path class="st36" d="M17.1,8.1c0.2,0,0.2-0.3,0.2-0.6s-0.2-0.7-0.2-1C17,6.4,17,6.2,16.9,6c-0.1-0.2-0.2-0.4-0.2-0.6
							c0-0.2-0.3-0.1-0.4-0.3c-0.2-0.2-0.5-0.2-0.8-0.3c-0.2,0-0.5-0.1-0.8-0.1h-0.1c-0.2,0-0.4-0.1-0.6-0.1c-0.1,0-0.2,0-0.2,0.1
							c0,0.1,0.2,0.1,0.2,0.1C14.6,5,15.8,5,16.3,6C16.8,7,16.9,8.1,17.1,8.1z"/>
						<path class="st36" d="M16.3,7.2c0-0.1-0.1-0.2-0.1-0.2c-0.1-0.3-0.2-0.7-0.3-1c0-0.2,0-0.3-0.1-0.3c-0.2-0.2-0.3-0.2-0.5-0.3
							C15,5.2,14.6,5.1,14.1,5c-0.2,0-0.3-0.1-0.6-0.1c-0.1,0-0.5-0.1-0.6,0.1c0,0.1,0.1,0.2,0.2,0.2c0.6,0.1,2,0.1,2.4,1.1
							c0.5,1,0.6,2,0.8,2C16.6,8.3,16.6,8.1,16.3,7.2z"/>
					</g>
				</g>
			</g>
		</g>
	</g>
</g>
<g>
	<path class="st37" d="M14,1.2c7.1,0,12.8,5.7,12.8,12.8S21.1,26.8,14,26.8S1.2,21.1,1.2,14S6.9,1.2,14,1.2 M14,0C6.3,0,0,6.3,0,14
		s6.3,14,14,14s14-6.3,14-14S21.7,0,14,0L14,0z"/>
</g>
</svg>
