<?xml version="1.0" encoding="utf-8"?>
<!-- Generator: Adobe Illustrator 22.0.0, SVG Export Plug-In . SVG Version: 6.00 Build 0)  -->
<svg version="1.1" id="图层_1" xmlns="http://www.w3.org/2000/svg" xmlns:xlink="http://www.w3.org/1999/xlink" x="0px" y="0px"
	 viewBox="0 0 28 28" style="enable-background:new 0 0 28 28;" xml:space="preserve">
<style type="text/css">
	.st0{clip-path:url(#SVGID_2_);}
	.st1{fill:#7B8387;}
	.st2{fill:#006482;}
	.st3{opacity:0.2;fill:#FFFFFF;enable-background:new    ;}
	.st4{opacity:0.1;fill:#FFFFFF;enable-background:new    ;}
	.st5{fill:url(#SVGID_3_);}
	.st6{fill:#E6EDEF;}
	.st7{fill:#959EA2;}
	.st8{fill:#67D329;}
	.st9{fill:#4EF037;}
</style>
<g>
	<g>
		<defs>
			<circle id="SVGID_1_" cx="14" cy="14" r="13.5"/>
		</defs>
		<clipPath id="SVGID_2_">
			<use xlink:href="#SVGID_1_"  style="overflow:visible;"/>
		</clipPath>
		<g class="st0">
			<path class="st1" d="M15.5,18.6c0.1-0.3-0.1-0.6-0.4-0.8c-0.6-0.4-1.5-0.4-2.1,0c-0.3,0.2-0.5,0.4-0.5,0.6l0,0l0,0l0,0V39
				c0,0.2,0.9,2.6,1.1,2.6c0.4,0.1,0.6,0.1,1,0c0.2-0.1,1.1-2.4,1.1-2.6V18.4C15.6,18.5,15.5,18.6,15.5,18.6z M12.7,18.7L12.7,18.7
				L12.7,18.7L12.7,18.7z"/>
			<polygon class="st2" points="23.4,18.8 4.7,18.8 6.1,7.3 22.1,7.3 			"/>
			<polygon class="st3" points="5.6,18.1 6.8,8.1 21.4,8.1 22.5,18.1 			"/>
			<g>
				<g>
					<rect x="14" y="8.1" class="st2" width="0.3" height="10"/>
					
						<rect x="16.6" y="8" transform="matrix(0.9992 -3.898699e-02 3.898699e-02 0.9992 -0.4954 0.6628)" class="st2" width="0.3" height="10"/>
					
						<rect x="19.2" y="8" transform="matrix(0.997 -7.776181e-02 7.776181e-02 0.997 -0.9552 1.5444)" class="st2" width="0.3" height="10"/>
				</g>
				<g>
					
						<rect x="6.4" y="12.9" transform="matrix(3.904422e-02 -0.9992 0.9992 3.904422e-02 -2.0885 23.974)" class="st2" width="10" height="0.3"/>
					
						<rect x="3.8" y="12.9" transform="matrix(7.816710e-02 -0.9969 0.9969 7.816710e-02 -4.8897 20.7932)" class="st2" width="10" height="0.3"/>
				</g>
				<g>
					<rect x="6.6" y="9.9" class="st2" width="15.1" height="0.3"/>
					<rect x="6.4" y="12" class="st2" width="15.5" height="0.3"/>
					<rect x="6.1" y="13.9" class="st2" width="16" height="0.3"/>
					<rect x="5.9" y="15.9" class="st2" width="16.5" height="0.3"/>
				</g>
			</g>
			<path class="st4" d="M23.4,18.8L22.1,7.3h-8v34.4c0,0,0.3,0.1,0.5-0.1c0.6-1.1,1-2.6,1-2.6V18.8C15.5,18.8,23.4,18.8,23.4,18.8z"
				/>
			
				<linearGradient id="SVGID_3_" gradientUnits="userSpaceOnUse" x1="11.5558" y1="-20.7054" x2="16.6737" y2="-20.7054" gradientTransform="matrix(1 0 0 -1 0 8)">
				<stop  offset="0" style="stop-color:#889197"/>
				<stop  offset="0.5762" style="stop-color:#B8BFC1"/>
				<stop  offset="1" style="stop-color:#D8DFE1"/>
			</linearGradient>
			<path class="st5" d="M14.6,34.4h-0.9c-1.2,0-2.1-1-2.1-2.1v-7.2c0-1.2,1-2.1,2.1-2.1h0.9c1.2,0,2.1,1,2.1,2.1v7.2
				C16.7,33.5,15.7,34.4,14.6,34.4z"/>
			<path class="st6" d="M14.1,34.2h-0.9c-1.2,0-2.1-1-2.1-2.1v-7.2c0-1.2,1-2.1,2.1-2.1h0.9c1.2,0,2.1,1,2.1,2.1V32
				C16.3,33.2,15.3,34.2,14.1,34.2z"/>
			<g>
				<path class="st7" d="M15.5,23.8c0-0.1,0.1-0.1,0-0.2c0-0.1-0.1-0.1-0.2-0.1c-0.1,0-0.1,0-0.2,0.1c-0.1,0.1,0,0.2,0,0.3
					c0.1,0.1,0.1,0.1,0.3,0.1C15.4,23.9,15.4,23.9,15.5,23.8z"/>
				<path class="st8" d="M15.3,23.9C15.4,23.9,15.4,23.8,15.3,23.9c0.1-0.2,0.1-0.2,0.1-0.2c-0.1-0.1-0.3-0.2-0.4,0
					C15.2,23.8,15.3,23.9,15.3,23.9z"/>
			</g>
		</g>
	</g>
</g>
<g>
	<path class="st9" d="M14,1.2c7.1,0,12.8,5.7,12.8,12.8S21.1,26.8,14,26.8S1.2,21.1,1.2,14S6.9,1.2,14,1.2 M14,0C6.3,0,0,6.3,0,14
		s6.3,14,14,14s14-6.3,14-14S21.7,0,14,0L14,0z"/>
</g>
</svg>
