<?xml version="1.0" encoding="utf-8"?>
<!-- Generator: Adobe Illustrator 22.0.0, SVG Export Plug-In . SVG Version: 6.00 Build 0)  -->
<svg version="1.1" id="图层_1" xmlns="http://www.w3.org/2000/svg" xmlns:xlink="http://www.w3.org/1999/xlink" x="0px" y="0px"
	 viewBox="0 0 28 28" style="enable-background:new 0 0 28 28;" xml:space="preserve">
<style type="text/css">
	.st0{clip-path:url(#SVGID_2_);}
	.st1{fill:url(#SVGID_3_);}
	.st2{fill:#4A82D4;stroke:#174EA1;}
	.st3{opacity:0.66;fill:#FFFFFF;enable-background:new    ;}
	.st4{opacity:0.24;fill:#FFFFFF;enable-background:new    ;}
	.st5{fill:url(#SVGID_4_);}
	.st6{fill:#0077A6;stroke:#005577;}
	.st7{fill:url(#SVGID_5_);}
	.st8{fill:#FFFFFF;}
	.st9{opacity:0.76;fill:#FFFFFF;enable-background:new    ;}
	.st10{opacity:0.32;fill:#969696;enable-background:new    ;}
	.st11{opacity:0.3;fill:#FFFFFF;enable-background:new    ;}
	.st12{fill:#4EF037;}
</style>
<g>
	<defs>
		<circle id="SVGID_1_" cx="14" cy="14" r="13.5"/>
	</defs>
	<clipPath id="SVGID_2_">
		<use xlink:href="#SVGID_1_"  style="overflow:visible;"/>
	</clipPath>
	<g id="图层_1_2_" class="st0">
		<g>
			
				<linearGradient id="SVGID_3_" gradientUnits="userSpaceOnUse" x1="13.462" y1="31.4906" x2="14.1837" y2="26.0448" gradientTransform="matrix(1 0 0 1 0 -1.75)">
				<stop  offset="0" style="stop-color:#DBDBDB"/>
				<stop  offset="0.8516" style="stop-color:#828282"/>
				<stop  offset="0.8817" style="stop-color:#898989"/>
				<stop  offset="0.9247" style="stop-color:#9C9C9C"/>
				<stop  offset="0.9752" style="stop-color:#BABABA"/>
				<stop  offset="1" style="stop-color:#CCCCCC"/>
			</linearGradient>
			<path class="st1" d="M21.6,27.9c0,1.5-3.6,2.7-7.9,2.7s-7.9-1.2-7.9-2.7c0-1.5,3.6-2.7,7.9-2.7C18.1,25.1,21.6,26.3,21.6,27.9z"
				/>
			<g>
				<path class="st2" d="M15.7,26.5c0,0.9-0.8,1.6-1.6,1.6h-0.4c-0.9,0-1.6-0.8-1.6-1.6v-5.3c0-0.9,0.8-1.6,1.6-1.6h0.4
					c0.9,0,1.6,0.8,1.6,1.6V26.5z"/>
				<path class="st3" d="M12.7,26.6v-5c0-0.9,0.7-1.5,1.5-1.5h0.4c0.1,0,0.2,0,0.4,0.1c-0.2-0.1-0.5-0.2-0.8-0.2h-0.4
					c-0.8,0-1.5,0.7-1.5,1.5v5c0,0.7,0.5,1.3,1.1,1.5C12.9,27.6,12.7,27,12.7,26.6z"/>
				<path class="st4" d="M14.5,19.9H14c-0.9,0-1.7,0.7-1.7,1.5v5c0,0.7,0.6,1.3,1.3,1.5C13.2,27.6,13,21.5,14.5,19.9z"/>
			</g>
			
				<linearGradient id="SVGID_4_" gradientUnits="userSpaceOnUse" x1="12.0936" y1="8.04" x2="15.9431" y2="23.9629" gradientTransform="matrix(1 0 0 1 0 -1.75)">
				<stop  offset="0" style="stop-color:#F7F7F7"/>
				<stop  offset="0.8516" style="stop-color:#ADADAD"/>
				<stop  offset="0.9058" style="stop-color:#B4B4B4"/>
				<stop  offset="0.9829" style="stop-color:#C7C7C7"/>
				<stop  offset="1" style="stop-color:#CCCCCC"/>
			</linearGradient>
			<path class="st5" d="M23.2,14.2c0,5.1-4.1,9.2-9.2,9.2s-9.2-4.1-9.2-9.2S8.9,5,14,5S23.2,9.1,23.2,14.2z"/>
			<path class="st6" d="M17.3,15c0,1.9-1.5,3.4-3.4,3.4s-3.4-1.5-3.4-3.4s1.5-3.4,3.4-3.4C15.7,11.6,17.3,13.1,17.3,15z"/>
			
				<linearGradient id="SVGID_5_" gradientUnits="userSpaceOnUse" x1="13.4813" y1="15.3067" x2="14.1779" y2="18.188" gradientTransform="matrix(1 0 0 1 0 -1.75)">
				<stop  offset="0" style="stop-color:#E0F2A4"/>
				<stop  offset="0.7363" style="stop-color:#B6E026"/>
				<stop  offset="1" style="stop-color:#D8EE8A"/>
			</linearGradient>
			<path class="st7" d="M15.5,15c0,0.9-0.8,1.7-1.7,1.7c-0.9,0-1.7-0.8-1.7-1.7c0-0.9,0.8-1.7,1.7-1.7C14.7,13.4,15.5,14.1,15.5,15z
				"/>
			<path class="st8" d="M6,14.8c0-4.6,3.9-8.4,8.8-8.4c2.5,0,4.7,1,6.3,2.6c-1.6-2.1-4.2-3.6-7.1-3.6c-4.8,0-8.8,3.8-8.8,8.4
				c0,2.3,0.9,4.4,2.5,5.9C6.6,18.3,6,16.7,6,14.8z"/>
			<path class="st3" d="M11,15.4c0-1.8,1.5-3.3,3.3-3.3c0.9,0,1.6,0.3,2.1,0.8c-0.6-0.7-1.5-1.1-2.5-1.1c-1.8,0-3.3,1.5-3.3,3.3
				c0,1,0.4,1.8,1.2,2.5C11.2,17,11,16.2,11,15.4z"/>
			<path class="st9" d="M12.7,15.1c0-0.8,0.6-1.3,1.3-1.3c0.4,0,0.7,0.1,0.9,0.3c-0.2-0.3-0.6-0.5-1-0.5c-0.8,0-1.3,0.6-1.3,1.3
				c0,0.4,0.2,0.8,0.5,1C12.8,15.8,12.7,15.5,12.7,15.1z"/>
			<path class="st10" d="M21.9,13.4c0,4.6-3.9,8.4-8.8,8.4c-2.5,0-4.7-1-6.3-2.6c1.6,2.1,4.2,3.6,7.1,3.6c4.8,0,8.8-3.8,8.8-8.4
				c0-2.3-0.9-4.4-2.5-5.9C21.3,9.9,21.9,11.6,21.9,13.4z"/>
			<path class="st11" d="M22.5,11.9c-1-3.6-4.3-6.1-8.2-6.1c-4.7,0-8.5,3.8-8.5,8.5c0,0.5,0.1,0.9,0.1,1.3c0.8,0.1,1.5,0.1,2.3,0.1
				C14.3,15.7,19.6,14.2,22.5,11.9z"/>
		</g>
	</g>
</g>
<g>
	<path class="st12" d="M14,1.2c7.1,0,12.8,5.7,12.8,12.8S21.1,26.8,14,26.8S1.2,21.1,1.2,14S6.9,1.2,14,1.2 M14,0C6.3,0,0,6.3,0,14
		s6.3,14,14,14s14-6.3,14-14S21.7,0,14,0L14,0z"/>
</g>
</svg>
