<?xml version="1.0" encoding="utf-8"?>
<!-- Generator: Adobe Illustrator 22.0.0, SVG Export Plug-In . SVG Version: 6.00 Build 0)  -->
<svg version="1.1" id="图层_1" xmlns="http://www.w3.org/2000/svg" xmlns:xlink="http://www.w3.org/1999/xlink" x="0px" y="0px"
	 viewBox="0 0 28 28" style="enable-background:new 0 0 28 28;" xml:space="preserve">
<style type="text/css">
	.st0{clip-path:url(#SVGID_2_);}
	.st1{fill:url(#SVGID_3_);}
	.st2{fill:#D0D6D6;}
	.st3{fill:#E6EDEF;}
	.st4{opacity:0.7;fill:#A0A8AC;enable-background:new    ;}
	.st5{opacity:0.3;fill:url(#SVGID_4_);enable-background:new    ;}
	.st6{opacity:0.3;fill:url(#SVGID_5_);enable-background:new    ;}
	.st7{opacity:0.3;fill:url(#SVGID_6_);enable-background:new    ;}
	.st8{fill:#E53030;}
	.st9{opacity:0.8;fill:url(#SVGID_7_);enable-background:new    ;}
	.st10{fill:#4EF037;}
</style>
<g>
	<g>
		<defs>
			<circle id="SVGID_1_" cx="14" cy="14" r="14"/>
		</defs>
		<clipPath id="SVGID_2_">
			<use xlink:href="#SVGID_1_"  style="overflow:visible;"/>
		</clipPath>
		<g id="_x37_" class="st0">
			<g>
				<g>
					
						<linearGradient id="SVGID_3_" gradientUnits="userSpaceOnUse" x1="5.0298" y1="17.0744" x2="23.0223" y2="17.0744" gradientTransform="matrix(1 0 0 1 0 2)">
						<stop  offset="0" style="stop-color:#889197"/>
						<stop  offset="1" style="stop-color:#B8BFC1"/>
					</linearGradient>
					<path class="st1" d="M22.9,15.8C22.9,15.8,22.8,15.9,22.9,15.8c-0.1,0.2-0.1,0.2-0.2,0.3c0,0,0,0.1-0.1,0.1
						c0,0.1-0.1,0.2-0.2,0.2c0,0,0,0.1-0.1,0.1l-0.1,0.1c-0.1,0.1-0.2,0.2-0.2,0.2l-0.1,0.1c-0.1,0.1-0.2,0.2-0.2,0.2
						s-0.1,0.1-0.2,0.1c-0.1,0.1-0.2,0.2-0.3,0.2c0,0-0.1,0.1-0.2,0.1c-0.1,0.1-0.3,0.2-0.4,0.2c-0.3-0.6-0.9-1-1.6-1.5
						c-2.7-1.6-7.2-1.7-9.9-0.1c-0.8,0.4-1.3,1-1.7,1.5c0,0,0,0-0.1,0c-1.1-0.7-1.9-1.5-2.3-2.4c0.7,1.6,1.5,3.2,2.2,4.8l0,0
						c0,0,0,0,0,0.1s0.1,0.2,0.2,0.3l0,0c0.1,0.1,0.2,0.2,0.2,0.3c0,0,0,0,0.1,0.1S7.9,21,8,21.1l0,0c0.1,0.1,0.2,0.2,0.4,0.3
						c0,0,0.1,0,0.1,0.1C8.7,21.8,8.8,21.9,9,22s0.4,0.2,0.5,0.3c0.1,0,0.1,0,0.2,0.1c0.1,0,0.2,0.1,0.4,0.2c0.1,0,0.2,0,0.2,0.1
						c0.1,0,0.2,0.1,0.4,0.1c0.1,0,0.2,0,0.3,0.1c0.1,0,0.2,0.1,0.4,0.1c0.1,0,0.2,0,0.3,0.1c0.1,0,0.2,0,0.4,0.1c0.1,0,0.2,0,0.3,0
						s0.2,0,0.4,0s0.2,0,0.3,0s0.2,0,0.4,0s0.2,0,0.3,0s0.2,0,0.3,0h0.1c0,0,0.1,0,0.2,0c0.2,0,0.4,0,0.5,0c0,0,0,0,0.1,0
						c0.2,0,0.4,0,0.6,0c0,0,0.1,0,0.2,0s0.1,0,0.2,0s0.2,0,0.3,0h0.1c0.2,0,0.4-0.1,0.6-0.1h0.1c0.2,0,0.3-0.1,0.4-0.1h0.1
						c0.2,0,0.4-0.1,0.6-0.2c0,0,0,0,0.1,0c0.2,0,0.3-0.1,0.4-0.2c0,0,0.1,0,0.1-0.1c0.2-0.1,0.3-0.2,0.5-0.2
						c0.1-0.1,0.2-0.2,0.4-0.2c0,0,0,0,0.1,0c0,0,0.1,0,0.1-0.1c0.1,0,0.1-0.1,0.2-0.1l0.1-0.1c0,0,0,0,0.1,0l0,0l0.1-0.1l0.1-0.1
						l0.1-0.1c0,0,0,0,0.1-0.1l0,0l0,0c0,0,0,0,0-0.1c0,0,0.1-0.1,0.1-0.2l0,0l0,0c0,0,0.1-0.1,0.1-0.2c0,0,0,0,0-0.1c0,0,0,0,0-0.1
						l0,0c0,0,0-0.1,0.1-0.1c0.7-1.6,1.5-3.2,2.2-4.8C23,15.6,22.9,15.7,22.9,15.8z"/>
					<path class="st2" d="M23.3,13.2v0.1v0.1v0.1v0.1v0.1v0.1v0.1V14c0,0,0,0.1,0,0.2v0.1c0,0,0,0.1-0.1,0.1c0,0,0,0.1-0.1,0.1
						S23,14.6,23,14.7c0,0,0,0.1-0.1,0.1c0,0-0.1,0.1-0.1,0.2c0,0,0,0.1-0.1,0.1c-0.1,0.1-0.2,0.2-0.2,0.3l0,0
						c-0.1,0.1-0.2,0.2-0.3,0.3l-0.1,0.1L22,15.9L21.9,16c0,0-0.1,0.1-0.2,0.1c0,0-0.1,0.1-0.2,0.1c0,0-0.1,0.1-0.2,0.1
						c0,0-0.1,0.1-0.2,0.1c0,0-0.1,0.1-0.2,0.1s-0.2,0.1-0.3,0.2l0,0c-0.2,0.1-0.4,0.2-0.6,0.3c0,0-0.1,0-0.2,0.1
						c-0.2,0.1-0.4,0.2-0.7,0.3c0,0,0,0-0.1,0c-0.2,0.1-0.4,0.1-0.6,0.2c-0.2,0-0.3,0.1-0.4,0.1c0,0.3-0.2,0.3-0.3,0.3
						c-0.2,0-0.3,0.1-0.5,0.1s-0.3,0.1-0.4,0.1s-0.1,0-0.2,0c-0.2,0-0.5,0.1-0.7,0.1c0,0,0,0-0.1,0c-0.3,0-0.5,0-0.8,0
						c0,0-0.1,0-0.2,0c-0.2,0-0.3,0-0.4,0c-0.2,0-0.4,0-0.5,0s-0.3,0-0.4,0s-0.3,0-0.5,0s-0.3,0-0.4,0s-0.3,0-0.5,0
						c-0.1,0-0.3,0-0.4-0.1c-0.2,0-0.4,0-0.5-0.1c-0.2,0-0.4-0.1-0.7-0.2l0,0c-0.2,0-0.5-0.1-0.7-0.2c-0.1,0-0.1,0-0.2-0.1
						c-0.2-0.1-0.5-0.2-0.7-0.2c-0.2-0.1-0.3-0.2-0.5-0.2c-0.1,0-0.2-0.1-0.2-0.1C8,17,7.7,16.9,7.5,16.7c-1.8-1.1-2.6-2.4-2.6-3.8
						v1c0,1.4,0.9,2.7,2.6,3.8C7.7,17.8,8,18,8.2,18.1c0.1,0,0.2,0.1,0.2,0.1c0.2,0.1,0.3,0.2,0.5,0.2l0,0c0.2,0.1,0.5,0.2,0.7,0.2
						c0.1,0,0.1,0,0.2,0.1c0.1,0,0.2,0,0.2,0.1c0.2,0,0.3,0.1,0.4,0.1l0,0c0.2,0,0.3,0.1,0.5,0.1c0,0,0.1,0,0.2,0
						c0.2,0,0.3,0.1,0.5,0.1c0.1,0,0.2,0,0.3,0c0,0,0.1,0,0.2,0c0.2,0,0.3,0,0.5,0c0.1,0,0.2,0,0.3,0H13c0.2,0,0.3,0,0.5,0
						c0.1,0,0.2,0,0.3,0h0.1c0.2,0,0.4,0,0.5,0s0.2,0,0.3,0h0.1c0,0,0.1,0,0.2,0c0.3,0,0.5,0,0.8,0l0,0c0,0,0,0,0.1,0
						c0.2,0,0.5,0,0.7-0.1c0.1,0,0.1,0,0.2,0s0.1,0,0.2,0s0.2,0,0.3,0c0.2,0,0.3-0.1,0.5-0.1c0.1,0,0.3-0.1,0.4-0.1
						c0.2,0,0.3-0.1,0.4-0.1c0,0,0.1,0,0.2,0s0.3-0.1,0.4-0.2c0,0,0,0,0.1,0c0.2-0.1,0.4-0.2,0.7-0.3c0,0,0.1,0,0.2-0.1
						c0.2-0.1,0.4-0.2,0.6-0.3c0.1,0,0.2-0.1,0.2-0.1l0,0c0,0,0.1-0.1,0.2-0.1s0.1-0.1,0.2-0.1c0,0,0.1-0.1,0.2-0.1
						c0,0,0.1-0.1,0.2-0.1c0,0,0.1-0.1,0.2-0.1s0.1-0.1,0.1-0.1l0.1-0.1c0,0,0.1,0,0.1-0.1l0,0c0.1-0.1,0.2-0.2,0.3-0.3l0,0
						c0.1-0.1,0.2-0.2,0.2-0.3l0,0c0,0,0,0,0-0.1c0,0,0.1-0.1,0.1-0.2s0-0.1,0.1-0.1s0.1-0.1,0.1-0.2c0,0,0,0,0-0.1l0,0
						c0,0,0-0.1,0.1-0.1v-0.1c0,0,0-0.1,0-0.2c0,0,0,0,0-0.1l0,0V15v-0.1v-0.1c0,0,0,0,0-0.1l0,0v-0.1v-0.1v-0.1c0,0,0,0,0-0.1
						c0,0,0,0,0-0.1L23.3,13.2C23.3,13.1,23.3,13.2,23.3,13.2z"/>
					<ellipse transform="matrix(2.833198e-03 -1 1 2.833198e-03 0.916 27.1032)" class="st3" cx="14" cy="13.1" rx="5.4" ry="9.3"/>
				</g>
				<path class="st4" d="M16,22.1c-0.1,0-0.2,0-0.3,0s-0.2,0-0.2,0s-0.1,0-0.2,0c-0.2,0-0.4,0-0.6,0h-0.1c-0.2,0-0.4,0-0.6,0
					c0,0-0.1,0-0.2,0h-0.1c-0.1,0-0.2,0-0.3,0s-0.2,0-0.3,0s-0.2,0-0.4,0c-0.1,0-0.2,0-0.3,0s-0.2,0-0.4,0c-0.1,0-0.2,0-0.2,0
					l-0.2-1.5h0.1c0.2,0,0.3,0,0.4,0.1c0.1,0,0.2,0,0.4,0s0.3,0,0.4,0c0.1,0,0.2,0,0.4,0s0.2,0,0.3,0h0.1c0.1,0,0.1,0,0.2,0
					c0.2,0,0.4,0,0.6,0h0.1c0.2,0,0.5,0,0.7,0c0,0,0.1,0,0.2,0c0.1,0,0.2,0,0.2,0c0.1,0,0.2,0,0.4,0c0,0,0.1,0,0.2,0l0,0l-0.1,1.5
					c0,0-0.1,0-0.2,0C16.1,22.1,16,22.1,16,22.1z"/>
				<path class="st4" d="M9.7,20.2c-0.1,0-0.2,0-0.2-0.1S9.3,20,9.3,20c-0.2,0-0.3-0.1-0.4-0.2c-0.1,0-0.2-0.1-0.2-0.1
					c-0.2-0.1-0.4-0.2-0.6-0.3c-0.2-0.1-0.4-0.2-0.5-0.3c0,0-0.1,0-0.1-0.1c-0.2-0.1-0.3-0.2-0.4-0.3l0,0c-0.1-0.1-0.2-0.2-0.4-0.3
					c0,0,0-0.1-0.1-0.1C6.3,18.2,6.2,18,6.2,18c0.3,0.6,0.5,1.1,0.8,1.7l0,0l0,0c0.1,0.1,0.2,0.2,0.3,0.3c0,0,0,0,0.1,0.1
					s0.2,0.2,0.3,0.3l0,0c0.1,0.1,0.2,0.2,0.4,0.3c0,0,0.1,0,0.1,0.1c0.2,0.1,0.3,0.2,0.5,0.3c0.2,0.1,0.4,0.2,0.6,0.3
					c0.1,0,0.1,0,0.2,0.1c0.1,0,0.3,0.1,0.4,0.2c0.1,0,0.1,0,0.2,0.1L9.7,20.2z"/>
				<path class="st4" d="M21.8,18L21.8,18c0,0.1,0,0.1-0.1,0.1c0,0-0.1,0.1-0.2,0.2c0,0,0,0-0.1,0.1l0,0c0,0,0,0-0.1,0
					c0,0,0,0-0.1,0.1c0,0-0.1,0.1-0.2,0.1l-0.1,0.1l-0.1,0.1l0,0c0,0,0,0-0.1,0c0,0-0.1,0.1-0.2,0.1s-0.2,0.1-0.2,0.2
					c0,0-0.1,0-0.1,0.1h-0.1c-0.2,0.1-0.3,0.2-0.4,0.2c-0.2,0.1-0.4,0.2-0.6,0.3c0,0-0.1,0-0.2,0.1c-0.2,0.1-0.4,0.1-0.5,0.2h-0.1
					c-0.1,0-0.2,0-0.2,0.1l-0.2,1.5l0,0c0.2,0,0.3-0.1,0.5-0.2c0,0,0.1,0,0.2-0.1c0.2-0.1,0.4-0.2,0.5-0.2c0.2-0.1,0.3-0.2,0.4-0.2
					c0,0,0,0,0.1,0c0,0,0.1,0,0.1-0.1c0.1,0,0.1-0.1,0.2-0.1l0.1-0.1c0,0,0,0,0.1,0l0,0l0.1-0.1l0.1-0.1l0.1-0.1c0,0,0,0,0.1-0.1
					l0,0l0,0c0,0,0,0,0-0.1c0,0,0.1-0.1,0.1-0.2l0,0l0,0l0.1-0.1C21.3,19.1,21.6,18.5,21.8,18C21.9,17.9,21.9,17.9,21.8,18z"/>
				<path class="st4" d="M15.8,20.7c-0.1,0-0.2,0-0.2,0s-0.1,0-0.2,0c-0.2,0-0.5,0-0.7,0h-0.1c-0.2,0-0.4,0-0.6,0
					c-0.1,0-0.1,0-0.2,0h-0.1c-0.1,0-0.2,0-0.3,0s-0.2,0-0.4,0s-0.3,0-0.4,0c-0.1,0-0.2,0-0.4,0c-0.1,0-0.1,0-0.2,0l0.1,1.2
					c0.1,0,0.1,0,0.2,0c0.1,0,0.2,0,0.3,0s0.2,0,0.3,0s0.2,0,0.3,0s0.2,0,0.3,0s0.2,0,0.2,0h0.1h0.1c0.2,0,0.3,0,0.5,0
					c0,0,0,0,0.1,0c0.2,0,0.4,0,0.6,0h0.1c0.1,0,0.1,0,0.2,0s0.2,0,0.3,0h0.1c0,0,0.1,0,0.2,0l0.1-1.2C16,20.7,15.9,20.7,15.8,20.7z
					"/>
				<path class="st4" d="M21.8,18L21.8,18c0,0.1,0,0.1-0.1,0.1c0,0-0.1,0.1-0.2,0.2c0,0,0,0-0.1,0.1l0,0c0,0,0,0-0.1,0
					c0,0,0,0-0.1,0.1c0,0-0.1,0.1-0.2,0.1l-0.1,0.1l-0.1,0.1l0,0c0,0,0,0-0.1,0c0,0-0.1,0.1-0.2,0.1s-0.2,0.1-0.2,0.2
					c0,0-0.1,0-0.1,0.1h-0.1c-0.2,0.1-0.3,0.2-0.4,0.2c-0.2,0.1-0.4,0.2-0.6,0.3c0,0-0.1,0-0.2,0.1c-0.2,0.1-0.4,0.1-0.5,0.2h-0.1
					c-0.1,0-0.2,0-0.2,0.1L18,21.3c0.1,0,0.3-0.1,0.4-0.2c0,0,0.1,0,0.2-0.1c0.2-0.1,0.4-0.2,0.6-0.3c0.2-0.1,0.3-0.2,0.4-0.2h0.1
					c0,0,0.1,0,0.1-0.1c0.1,0,0.2-0.1,0.2-0.2l0.1-0.1c0,0,0,0,0.1,0l0,0l0.1-0.1l0.1-0.1c0,0,0.1-0.1,0.2-0.1c0,0,0,0,0.1-0.1
					c0,0,0,0,0.1,0l0,0c0,0,0,0,0.1-0.1c0,0,0.1-0.1,0.2-0.2l0,0l0,0C21.3,18.9,21.6,18.4,21.8,18C21.9,17.9,21.9,17.9,21.8,18z"/>
				<path class="st4" d="M9.1,21.1c0.1,0,0.2,0,0.2,0.1c0.2,0,0.3,0.1,0.4,0.2c0.1,0,0.1,0,0.2,0.1l-0.2-1.2c-0.1,0-0.2,0-0.2-0.1
					C9.5,20,9.4,20,9.3,20c-0.2,0-0.3-0.1-0.4-0.2c-0.1,0-0.2-0.1-0.2-0.1c-0.2-0.1-0.4-0.2-0.6-0.3c-0.2-0.1-0.4-0.2-0.5-0.3
					c0,0-0.1,0-0.1-0.1c-0.2-0.1-0.3-0.2-0.4-0.3c-0.1,0-0.1,0-0.1,0c-0.1-0.1-0.2-0.2-0.4-0.3c0,0,0-0.1-0.1-0.1
					C6.3,18.2,6.2,18,6.2,18c0.2,0.5,0.4,0.9,0.7,1.5c0.1,0.1,0.2,0.2,0.3,0.3c0,0,0,0,0.1,0.1s0.2,0.2,0.3,0.3l0,0
					c0.1,0.1,0.3,0.2,0.4,0.3c0,0,0.1,0,0.1,0.1c0.2,0.1,0.3,0.2,0.5,0.3C8.7,20.9,8.9,21,9.1,21.1z"/>
				
					<linearGradient id="SVGID_4_" gradientUnits="userSpaceOnUse" x1="13.95" y1="19.8469" x2="13.95" y2="19.0176" gradientTransform="matrix(1 0 0 1 0 2)">
					<stop  offset="0" style="stop-color:#E6EDEF"/>
					<stop  offset="1" style="stop-color:#A6AEB2"/>
				</linearGradient>
				<path class="st5" d="M15.9,21.9L15.9,21.9L15.9,21.9L15.9,21.9z M15.3,22C15.3,22,15.3,21.9,15.3,22l-0.1-0.1L15.1,22l0,0H15
					l0,0l-0.1-0.1L14.8,22c0,0,0,0,0.1,0.1c0,0,0,0-0.1,0l0,0l0,0l0,0h-0.1c0,0,0,0,0.1-0.1l0,0c0,0,0,0-0.1-0.1L14.6,22l0,0l0,0
					c0,0,0,0-0.1,0l0,0l0,0c0,0,0,0-0.1,0l0,0l-0.1-0.1L14.2,22c0,0,0,0,0.1,0.1c0,0,0,0-0.1,0l0,0l0,0c0,0,0,0-0.1,0l0,0
					c0,0,0,0,0.1-0.1l-0.1-0.1L14,22c0,0,0,0,0.1,0.1c0,0,0,0-0.1,0l0,0l0,0l0,0l0,0l0,0l0,0L13.9,22c0,0,0,0-0.1,0.1l0.1,0.1h-0.1
					l0,0l0,0c0,0,0,0-0.1,0c0,0,0,0,0.1-0.1L13.7,22l-0.1,0.1l0,0c0,0,0,0-0.1,0l0,0l0,0l0,0c0,0,0,0-0.1,0l0,0L13.3,22H13l0,0
					c0,0,0,0-0.1,0c0,0,0,0-0.1,0l0,0l-0.1-0.1c0,0,0,0-0.1,0.1l0,0l0,0l0,0c0,0,0,0-0.1,0l-0.1-0.1c0,0,0,0-0.1,0.1c0,0,0,0-0.1,0
					s0,0-0.1,0c0,0,0,0-0.1-0.1l0,0v-0.1l0,0l0,0v-0.1l0,0l0.1-0.1L12,21.5l0,0v-0.1l0,0l0,0v-0.1c0,0,0,0,0.1,0.1l0.1-0.1l-0.1-0.1
					c0,0,0,0-0.1,0.1v-0.1l0,0c0,0,0,0-0.1-0.1V21l0.1,0.1l0.1-0.1L12,20.9L11.9,21v0c0,0,0,0,0.1-0.1c0,0,0,0-0.1-0.1v-0.1l0,0
					c0,0,0,0,0.1,0l0,0l0.1,0.1l0.1-0.1l0,0h0.1l0.1,0.1c0,0,0,0,0.1-0.1l0,0l0,0c0,0,0,0,0.1,0l0,0l0.1,0.1l0.1-0.1h0.1
					c0,0,0,0,0.1,0.1c0,0,0,0,0.1-0.1c0,0,0.1,0,0.2,0c0,0,0,0,0.1,0.1l0,0c0,0,0,0,0.1,0l-0.1,0.1l0.1,0.1l0.1-0.1c0,0,0,0-0.1-0.1
					h0.1l0,0l0,0c0,0,0,0,0.1,0c0,0,0,0-0.1,0.1l0.1,0.1l0.1-0.1l-0.1-0.1l0,0c0,0,0,0,0.1,0l0,0l0,0c0,0,0,0,0.1,0l-0.1,0.1
					l0.1,0.1l0.1-0.1l-0.1-0.1c0,0,0,0,0.1,0l0,0l0,0c0,0,0,0,0.1,0c0,0,0,0.1-0.1,0.1l0.1,0.1l0.1-0.1l-0.1-0.1c0,0,0,0,0.1,0l0,0
					l0,0l0,0c0,0,0,0,0.1,0l-0.1,0.1l0.1,0.1l0.1-0.1l-0.1-0.1l0,0c0,0,0,0,0.1,0c0,0,0,0,0.1,0.1c0,0,0,0,0.1-0.1c0,0,0.1,0,0.2,0
					c0,0,0,0,0.1,0.1c0,0,0,0,0.1-0.1h0.1l0.1,0.1l0.1-0.1l0,0l0,0h0.1l0,0c0,0,0,0,0.1,0.1l0.1-0.1l0,0l0,0c0,0,0.1,0,0.2,0l0,0
					l0.1,0.1v0.2l0,0l0,0v0.1c0,0,0,0-0.1-0.1l-0.1,0.1l0.1,0.1c0,0,0,0,0.1-0.1l0,0v0.1l0,0l0,0v0.1c0,0,0,0-0.1-0.1l-0.1,0.1
					l0.1,0.1l0,0v0.1l0,0l0,0v0.1l0,0l-0.1,0.1c0,0,0,0.1,0.1,0.1c0,0,0,0-0.1,0l0,0c0,0,0,0-0.1,0.1h-0.1c0,0,0,0-0.1-0.1L15.3,22
					L15.3,22C15.4,22,15.3,22,15.3,22z M15.6,21.7l-0.1-0.1l-0.1,0.1l0.1,0.1C15.5,21.7,15.6,21.7,15.6,21.7z M12.4,21.2l-0.1,0.1
					l0.1,0.1l0.1-0.1C12.5,21.3,12.5,21.3,12.4,21.2z M12.6,21.3l0.1-0.1l-0.1-0.1l-0.1,0.1C12.5,21.2,12.6,21.3,12.6,21.3z
					 M12.5,21.5l0.1,0.1l0.1-0.1l-0.1-0.1L12.5,21.5z M12.8,21.4l0.1-0.1l-0.1-0.1l-0.1,0.1C12.7,21.3,12.7,21.4,12.8,21.4z
					 M12.9,21.3C13,21.2,13,21.2,12.9,21.3c0-0.1,0-0.2,0-0.2s0,0-0.1,0.1C12.8,21.2,12.9,21.2,12.9,21.3z M12.8,21.5l0.1,0.1
					l0.1-0.1l-0.1-0.1C12.9,21.4,12.8,21.4,12.8,21.5z M13.1,21.4L13.1,21.4c0-0.1,0-0.2,0-0.2s0,0-0.1,0.1
					C13,21.3,13,21.4,13.1,21.4z M13.2,21.3l0.1-0.1l-0.1-0.1l-0.1,0.1C13.1,21.2,13.2,21.3,13.2,21.3z M13.1,21.5l0.1,0.1l0.1-0.1
					C13.3,21.5,13.2,21.4,13.1,21.5C13.2,21.4,13.1,21.4,13.1,21.5z M13.4,21.5l0.1-0.1l-0.1-0.1l-0.1,0.1
					C13.3,21.4,13.3,21.4,13.4,21.5z M13.4,21.5l0.1,0.1l0.1-0.1l-0.1-0.1L13.4,21.5z M13.7,21.5l0.1-0.1l-0.1-0.1l-0.1,0.1
					C13.6,21.4,13.6,21.4,13.7,21.5z M13.7,21.5l0.1,0.1l0.1-0.1l-0.1-0.1L13.7,21.5z M13.9,21.5l0.1-0.1l-0.1-0.1l-0.1,0.1
					C13.9,21.4,13.9,21.4,13.9,21.5z M14,21.5l0.1,0.1l0.1-0.1l-0.1-0.1L14,21.5z M14.3,21.5C14.3,21.4,14.4,21.4,14.3,21.5
					c0-0.1,0-0.2,0-0.2l-0.1,0.1C14.2,21.4,14.3,21.4,14.3,21.5z M14.3,21.5C14.4,21.5,14.4,21.6,14.3,21.5c0.1,0,0.2,0,0.2,0
					S14.4,21.4,14.3,21.5C14.4,21.4,14.3,21.5,14.3,21.5z M14.6,21.5l0.1-0.1l-0.1-0.1C14.6,21.3,14.5,21.3,14.6,21.5
					C14.5,21.4,14.5,21.4,14.6,21.5z M14.6,21.5l0.1,0.1l0.1-0.1l-0.1-0.1C14.7,21.4,14.6,21.5,14.6,21.5z M14.9,21.5l0.1-0.1
					l-0.1-0.1l-0.1,0.1L14.9,21.5z M15,21.3l0.1-0.1L15,21.1l-0.1,0.1l0,0C15,21.2,15,21.3,15,21.3z M14.9,21.5L14.9,21.5
					c0.1,0,0.2,0,0.2,0s0,0-0.1-0.1C15,21.4,15,21.5,14.9,21.5z M15.2,21.4l0.1-0.1c0,0,0,0-0.1-0.1C15.2,21.3,15.1,21.3,15.2,21.4
					C15.1,21.4,15.1,21.4,15.2,21.4z M15.8,21.2l-0.1-0.1l-0.1,0.1l0.1,0.1C15.7,21.3,15.7,21.2,15.8,21.2z M15.5,21.5l0.1,0.1
					l0.1-0.1l-0.1-0.1C15.6,21.4,15.6,21.5,15.5,21.5z M15.5,21.2l-0.1,0.1l0.1,0.1l0.1-0.1C15.6,21.3,15.5,21.3,15.5,21.2z
					 M15.4,21.1L15.4,21.1c-0.1,0-0.2,0-0.2,0s0,0,0.1,0.1C15.4,21.2,15.4,21.2,15.4,21.1z M15.2,21.5l0.1,0.1l0.1-0.1l-0.1-0.1
					L15.2,21.5z M15.7,21.8C15.7,21.7,15.6,21.7,15.7,21.8c-0.1,0-0.2,0-0.2,0l0.1,0.1C15.7,21.9,15.7,21.8,15.7,21.8z M15.8,21.5
					l-0.1,0.1l0.1,0.1C15.8,21.7,15.8,21.7,15.8,21.5C15.9,21.6,15.8,21.6,15.8,21.5z M15.8,21.2l-0.1,0.1l0.1,0.1l0.1-0.1
					C15.9,21.3,15.8,21.3,15.8,21.2z M15.8,20.9l0.1,0.1l0.1-0.1l-0.1-0.1C15.9,20.8,15.8,20.8,15.8,20.9z M15.6,21l0.1,0.1l0.1-0.1
					l-0.1-0.1C15.7,20.9,15.7,21,15.6,21z M15.5,20.9C15.6,20.9,15.6,20.9,15.5,20.9c0.1,0,0.2,0,0.2,0s0,0-0.1-0.1
					C15.6,20.8,15.6,20.9,15.5,20.9z M15.4,21C15.4,21.1,15.4,21.1,15.4,21c0.1,0,0.2,0,0.2,0s0,0-0.1-0.1C15.4,21,15.4,21,15.4,21z
					 M15.2,20.9L15.2,20.9l0.1,0.1l0.1-0.1l-0.1-0.1C15.3,20.8,15.2,20.8,15.2,20.9z M15,21l0.1,0.1l0.1-0.1l-0.1-0.1l0,0
					C15.1,20.9,15.1,21,15,21z M14.9,20.9C15,20.9,15,21,14.9,20.9c0.1,0,0.2,0,0.2,0L15,20.8C15,20.8,15,20.9,14.9,20.9z M14.8,21
					C14.8,21.1,14.8,21.1,14.8,21L14.8,21c0.1,0,0.2,0,0.2,0C14.9,21,14.8,20.9,14.8,21L14.8,21z M14.6,21.2L14.6,21.2
					c0.1,0,0.2,0,0.2,0l-0.1-0.1C14.7,21.1,14.6,21.1,14.6,21.2z M14.5,21l0.1,0.1l0.1-0.1l-0.1-0.1C14.5,20.9,14.5,21,14.5,21z
					 M14.3,21.2l0.1,0.1l0.1-0.1l-0.1-0.1C14.4,21.1,14.3,21.1,14.3,21.2z M14.1,21.1C14.2,21.1,14.2,21.1,14.1,21.1l0.1,0.1
					l0.1-0.1L14.2,21C14.2,20.9,14.2,21,14.1,21.1z M14.1,21.1C14.1,21.1,14,21.2,14.1,21.1c0,0.1,0,0.2,0,0.2l0.1-0.1L14.1,21.1
					L14.1,21.1z M13.9,21l0.1,0.1l0.1-0.1C14,21,14,21,13.9,21L13.9,21z M13.8,21.1l-0.1,0.1l0.1,0.1l0.1-0.1
					C13.9,21.1,13.9,21.1,13.8,21.1z M13.5,21l0.1,0.1l0.1-0.1l-0.1-0.1C13.6,20.9,13.6,21,13.5,21z M13.5,21.1l-0.1,0.1l0.1,0.1
					l0.1-0.1C13.5,21.1,13.5,21.1,13.5,21.1z M13.4,20.9L13.3,21l0.1,0.1l0.1-0.1C13.4,21,13.4,20.9,13.4,20.9z M13.1,20.9l0.1,0.1
					l0.1-0.1l-0.1-0.1C13.2,20.8,13.1,20.8,13.1,20.9z M13,20.9L12.9,21l0.1,0.1l0.1-0.1C13.1,21,13.1,20.9,13,20.9z M12.8,20.9
					l0.1,0.1l0.1-0.1l-0.1-0.1C12.8,20.8,12.8,20.9,12.8,20.9z M12.8,20.9C12.7,21,12.7,21,12.8,20.9c0,0.1,0,0.2,0,0.2s0,0,0.1-0.1
					C12.8,21,12.8,21,12.8,20.9z M12.5,20.9l0.1,0.1c0,0,0,0,0.1-0.1C12.7,20.9,12.6,20.8,12.5,20.9C12.6,20.8,12.5,20.8,12.5,20.9z
					 M12.5,20.9L12.4,21l0.1,0.1l0.1-0.1C12.5,21,12.5,20.9,12.5,20.9z M12.3,21l0.1-0.1l-0.1-0.1l-0.1,0.1
					C12.2,20.9,12.3,20.9,12.3,21z M12.3,21.3l0.1-0.1l-0.1-0.1l-0.1,0.1C12.2,21.2,12.3,21.3,12.3,21.3z M12.3,21.6l0.1-0.1
					l-0.1-0.1l-0.1,0.1C12.2,21.5,12.3,21.5,12.3,21.6z M12.4,21.8l-0.1-0.1l-0.1,0.1C12.3,21.8,12.3,21.8,12.4,21.8
					C12.3,21.9,12.4,21.8,12.4,21.8z M12.4,21.7C12.5,21.7,12.5,21.7,12.4,21.7L12.4,21.7c0-0.1,0-0.2,0-0.2l-0.1,0.1
					C12.4,21.7,12.4,21.7,12.4,21.7z M12.7,21.8l-0.1-0.1l0,0l-0.1,0.1C12.5,21.8,12.6,21.8,12.7,21.8L12.7,21.8
					C12.6,21.9,12.7,21.8,12.7,21.8z M12.7,21.7l0.1-0.1l-0.1-0.1l-0.1,0.1C12.7,21.7,12.7,21.7,12.7,21.7z M13,21.8l-0.1-0.1
					l-0.1,0.1l0.1,0.1L13,21.8z M13.1,21.7l0.1-0.1l-0.1-0.1L13,21.6C13,21.7,13,21.7,13.1,21.7z M13.4,21.8l-0.1-0.1l-0.1,0.1
					l0.1,0.1C13.3,21.9,13.3,21.8,13.4,21.8z M13.5,21.7l-0.1-0.1l-0.1,0.1C13.3,21.7,13.4,21.7,13.5,21.7
					C13.4,21.7,13.4,21.7,13.5,21.7z M13.6,21.8l-0.1-0.1c0,0,0,0-0.1,0.1C13.5,21.8,13.5,21.9,13.6,21.8
					C13.5,21.9,13.6,21.8,13.6,21.8z M13.7,21.7l-0.1-0.1l-0.1,0.1l0.1,0.1C13.7,21.7,13.7,21.7,13.7,21.7z M13.9,21.8l-0.1-0.1
					l-0.1,0.1l0.1,0.1C13.9,21.9,13.9,21.9,13.9,21.8z M14.1,21.7L14,21.6l-0.1,0.1l0.1,0.1C14,21.7,14,21.7,14.1,21.7z M14.2,21.8
					C14.2,21.8,14.1,21.7,14.2,21.8c-0.1,0-0.2,0-0.2,0l0.1,0.1C14.1,21.9,14.2,21.9,14.2,21.8z M14.4,21.7
					C14.3,21.6,14.3,21.6,14.4,21.7c-0.1,0-0.2,0-0.2,0l0.1,0.1C14.3,21.7,14.3,21.7,14.4,21.7z M14.5,21.8l-0.1-0.1l-0.1,0.1
					l0.1,0.1C14.5,21.9,14.5,21.9,14.5,21.8z M14.7,21.7l-0.1-0.1l-0.1,0.1C14.5,21.7,14.6,21.7,14.7,21.7
					C14.6,21.7,14.6,21.7,14.7,21.7z M14.8,21.8L14.8,21.8c-0.1,0-0.2,0-0.2,0C14.7,21.9,14.7,21.9,14.8,21.8
					C14.7,21.9,14.8,21.8,14.8,21.8z M15,21.6L15,21.6c-0.1,0-0.2,0-0.2,0s0,0,0.1,0.1C14.9,21.7,14.9,21.7,15,21.6z M15.2,21.8
					L15,21.7l-0.1,0.1l0.1,0.1C15,21.9,15.1,21.9,15.2,21.8z M15.3,21.7l-0.1-0.1l-0.1,0.1l0.1,0.1C15.2,21.7,15.2,21.7,15.3,21.7z
					 M15.3,21.9l0.1-0.1l-0.1-0.1l-0.1,0.1L15.3,21.9z"/>
				
					<linearGradient id="SVGID_5_" gradientUnits="userSpaceOnUse" x1="20.15" y1="18.4437" x2="20.15" y2="17.346" gradientTransform="matrix(1 0 0 1 0 2)">
					<stop  offset="0" style="stop-color:#E6EDEF"/>
					<stop  offset="1" style="stop-color:#A6AEB2"/>
				</linearGradient>
				<path class="st6" d="M21.9,18L21.9,18C21.8,18,21.8,18,21.9,18C21.8,18,21.8,18,21.9,18C21.8,18,21.8,18,21.9,18L21.9,18z
					 M21.8,18.1L21.8,18.1v0.1c0,0,0,0-0.1,0.1l0,0l0,0l0,0l-0.1,0.1c0,0,0,0,0.1,0.1l0,0l-0.1-0.1l-0.1,0.1l0.1,0.1l0.1-0.1
					c0,0.1-0.1,0.1-0.1,0.2l0,0l-0.1,0.1l0,0l0,0c0,0,0,0-0.1-0.1l-0.1,0.1l0.1,0.1l0,0c0,0,0,0.1-0.1,0.2l0,0l0,0l0,0l0,0l0,0
					l-0.1,0.1l0,0l0,0l0,0l-0.1,0.1l0,0l0,0l0,0l0,0L21,19.4l0,0l0,0l0,0l0,0l-0.1,0.1l0,0l0,0l0,0l-0.1,0.1l0,0l0,0l0,0l-0.1,0.1
					l0,0l0,0l0,0l0,0l0,0l0,0c-0.1,0-0.1,0.1-0.2,0.2c0,0,0,0-0.1,0l-0.1-0.1l-0.1,0.1c0,0,0,0,0.1,0.1l0,0l0,0l0,0l-0.1,0.1l0,0
					l0,0l0,0l0,0c0,0-0.1,0-0.2,0.1l0,0l0,0l-0.1-0.1l-0.1,0.1c0,0,0,0,0.1,0.1l0,0c0,0,0,0-0.1-0.1c0,0,0,0-0.1,0.1l0,0l0,0l0,0
					l0,0h-0.1l0,0l0,0l-0.1-0.1l-0.1,0.1c0,0,0,0,0.1,0.1c0,0,0,0-0.1,0c0,0,0,0-0.1-0.1l-0.1,0.1l0,0c0,0-0.1,0-0.2,0.1l0,0
					c0,0,0,0,0.1-0.1l0,0v-0.1c0,0,0,0,0.1,0.1l0.1-0.1c0,0,0,0-0.1-0.1l-0.1,0.1V21l0,0l0,0v-0.1c0,0,0,0,0.1,0.1l0.1-0.1l-0.1-0.1
					l0,0v-0.2l0,0l0.1-0.1l-0.1-0.1l0,0v-0.1l0,0c0,0,0,0,0.1-0.1c0,0,0,0-0.1-0.1V20l0.1,0.1l0.1-0.1l0,0l0,0l0,0l0,0l0,0l0,0
					c0,0,0.1,0,0.2,0l0.1,0.1l0.1-0.1l0,0c0,0,0,0,0.1,0l0,0l0,0c0,0,0,0,0.1,0c0,0,0,0,0.1,0l0,0l0.1,0.1l0.1-0.1l-0.1-0.1l0,0
					l0.1,0.1l0.1-0.1l0,0l0,0l0,0l0,0c0.1,0,0.1,0,0.2-0.1c0,0,0,0,0.1,0.1l0.1-0.1l0,0l0,0l0,0l0.1-0.1l0,0c0,0,0.1-0.1,0.2-0.1
					h0.1l0,0l0.1,0.1c0,0,0,0,0.1-0.1l0,0l-0.1-0.1l0,0c0,0,0,0,0.1,0.1l0.1-0.1c0,0,0,0-0.1-0.1l0,0l0,0c0,0,0,0,0.1,0.1l0.1-0.1
					l0,0l0,0l0,0l0,0l0.1-0.1l0,0l0,0l0,0l0,0l0.1-0.1l0,0l0,0l0,0l0,0l0.1-0.1l0,0l0,0l0,0L22,19l0,0l0,0l0,0
					C21.8,18.2,21.8,18.2,21.8,18.1L21.8,18.1C21.7,18.1,21.7,18.1,21.8,18.1L21.8,18.1z M20.9,19.1l0.1,0.1l0.1-0.1
					C21.1,19.1,21,19,20.9,19.1C21,19,20.9,19.1,20.9,19.1z M20.7,19.2l0.1,0.1l0.1-0.1l-0.1-0.1C20.8,19.1,20.8,19.2,20.7,19.2z
					 M20.6,19.4l0.1,0.1l0.1-0.1l-0.1-0.1L20.6,19.4C20.7,19.3,20.6,19.4,20.6,19.4z M20.5,19.4l-0.1,0.1l0.1,0.1l0.1-0.1
					C20.6,19.5,20.6,19.5,20.5,19.4z M18.6,20.5C18.5,20.5,18.5,20.5,18.6,20.5c0,0.1,0,0.2,0,0.2s0,0,0.1-0.1L18.6,20.5z
					 M18.7,20.6l0.1-0.1l-0.1-0.1l-0.1,0.1C18.7,20.5,18.7,20.5,18.7,20.6z M18.7,20.8L18.7,20.8c0.1,0,0.1,0,0.2,0
					C18.8,20.7,18.8,20.7,18.7,20.8C18.7,20.7,18.7,20.7,18.7,20.8z M18.9,20.7l0.1-0.1c0,0,0,0-0.1-0.1
					C18.9,20.6,18.8,20.6,18.9,20.7C18.8,20.6,18.8,20.7,18.9,20.7z M19,20.6l0.1-0.1c0,0,0,0-0.1-0.1C19,20.4,19,20.4,19,20.6
					C19,20.5,19,20.5,19,20.6z M19.2,20.4l0.1-0.1c0,0,0,0-0.1-0.1C19.2,20.2,19.1,20.3,19.2,20.4C19.1,20.3,19.1,20.4,19.2,20.4z
					 M19.2,20.4l0.1,0.1l0.1-0.1l-0.1-0.1C19.3,20.4,19.2,20.4,19.2,20.4z M19.5,20.4C19.5,20.4,19.6,20.3,19.5,20.4
					c0-0.1,0-0.2,0-0.2l-0.1,0.1C19.4,20.3,19.4,20.4,19.5,20.4z M19.6,20.2l0.1-0.1L19.6,20l-0.1,0.1
					C19.6,20.2,19.6,20.2,19.6,20.2z M19.8,20.1l0.1-0.1l-0.1-0.1L19.7,20L19.8,20.1z M19.8,20.1l0.1,0.1l0.1-0.1L19.9,20
					C19.9,20,19.9,20.1,19.8,20.1z M20.1,20.1l0.1-0.1l-0.1-0.1L20,20C20,20,20.1,20,20.1,20.1z M20.2,19.9l0.1-0.1l-0.1-0.1
					l-0.1,0.1C20.2,19.9,20.2,19.9,20.2,19.9z M20.4,19.8C20.5,19.7,20.5,19.7,20.4,19.8c0-0.1,0-0.2,0-0.2l-0.1,0.1
					C20.3,19.7,20.4,19.7,20.4,19.8z M20.3,19.4l0.1,0.1l0.1-0.1l-0.1-0.1C20.3,19.3,20.3,19.3,20.3,19.4z M20.2,19.5l0.1,0.1
					l0.1-0.1C20.3,19.5,20.3,19.5,20.2,19.5L20.2,19.5z M20,19.7l0.1,0.1l0.1-0.1l-0.1-0.1L20,19.7z M19.9,19.7l-0.1,0.1l0.1,0.1
					l0.1-0.1C20,19.8,20,19.8,19.9,19.7z M19.7,19.7L19.7,19.7c0.1,0,0.2,0,0.2,0s0,0-0.1-0.1C19.8,19.6,19.7,19.7,19.7,19.7z
					 M19.6,19.8L19.6,19.8c0.1,0,0.2,0,0.2,0s0,0-0.1-0.1C19.6,19.8,19.6,19.8,19.6,19.8z M19.4,20L19.4,20c0.1,0,0.2,0,0.2,0
					l-0.1-0.1C19.4,19.9,19.4,20,19.4,20z M19.3,20C19.3,20.1,19.3,20.1,19.3,20L19.3,20c0,0.1,0,0.1,0,0.2
					C19.4,20.2,19.4,20.1,19.3,20C19.4,20.1,19.4,20.1,19.3,20z M19.1,20l0.1,0.1l0,0c0,0,0,0,0.1-0.1C19.2,20,19.2,19.9,19.1,20
					C19.1,19.9,19.1,20,19.1,20z M18.9,20.1l0.1,0.1l0.1-0.1L19,20C19,20,19,20.1,18.9,20.1z M18.9,20.2l-0.1,0.1l0.1,0.1l0.1-0.1
					C19,20.2,18.9,20.2,18.9,20.2z M18.6,20.2C18.7,20.2,18.7,20.2,18.6,20.2c0.1,0,0.2,0,0.2,0l-0.1-0.1
					C18.7,20.1,18.7,20.1,18.6,20.2z M18.5,20.3C18.5,20.4,18.5,20.4,18.5,20.3c0.1,0,0.2,0,0.2,0l-0.1-0.1
					C18.5,20.2,18.5,20.3,18.5,20.3z M18.4,20.6C18.5,20.5,18.5,20.5,18.4,20.6c0-0.1,0-0.2,0-0.2S18.4,20.4,18.4,20.6
					C18.4,20.5,18.4,20.5,18.4,20.6z M18.5,20.9l0.1-0.1l-0.1-0.1l-0.1,0.1C18.4,20.8,18.4,20.8,18.5,20.9z M18.5,21L18.5,21
					c-0.1,0-0.2,0-0.2,0s0,0,0.1,0.1C18.5,21.1,18.5,21.1,18.5,21z M18.6,21l0.1-0.1c0,0,0,0-0.1-0.1C18.6,20.8,18.5,20.9,18.6,21
					C18.5,20.9,18.5,20.9,18.6,21z M18.9,21l-0.1-0.1L18.7,21l0.1,0.1C18.8,21.1,18.8,21.1,18.9,21z M19,20.9l-0.1-0.1
					c0,0,0,0-0.1,0.1C18.8,20.9,18.9,20.9,19,20.9C18.9,20.9,18.9,20.9,19,20.9z M19.1,20.8L19,20.7l-0.1,0.1l0.1,0.1
					C19.1,20.8,19.1,20.8,19.1,20.8z M19.2,20.7l0.1-0.1l-0.1-0.1l-0.1,0.1C19.1,20.6,19.1,20.7,19.2,20.7z M19.4,20.8l-0.1-0.1
					l-0.1,0.1l0.1,0.1C19.4,20.8,19.4,20.8,19.4,20.8z M19.6,20.6l-0.1-0.1l-0.1,0.1l0.1,0.1L19.6,20.6z M19.7,20.4l-0.1-0.1
					l-0.1,0.1C19.6,20.4,19.6,20.5,19.7,20.4C19.7,20.5,19.7,20.5,19.7,20.4z M19.9,20.3l-0.1-0.1l-0.1,0.1l0.1,0.1L19.9,20.3z
					 M20,20.4L20,20.4c-0.1,0-0.2,0-0.2,0l0.1,0.1C20,20.5,20,20.5,20,20.4z M20.2,20.3C20.2,20.2,20.1,20.2,20.2,20.3
					c-0.1,0-0.2,0-0.2,0l0.1,0.1L20.2,20.3z M20.3,20.1C20.3,20.1,20.3,20,20.3,20.1c-0.1,0-0.2,0-0.2,0l0.1,0.1
					C20.3,20.2,20.3,20.2,20.3,20.1z M20.5,20l-0.1-0.1L20.3,20l0.1,0.1C20.4,20,20.5,20,20.5,20z M20.7,19.8l-0.1-0.1l-0.1,0.1
					C20.5,19.8,20.5,19.8,20.7,19.8C20.6,19.9,20.6,19.8,20.7,19.8z M20.8,19.7l-0.1-0.1l-0.1,0.1l0.1,0.1
					C20.7,19.7,20.8,19.7,20.8,19.7z M20.9,19.5l-0.1-0.1l-0.1,0.1l0.1,0.1C20.9,19.6,20.9,19.6,20.9,19.5z M21.1,19.4L21,19.3
					l-0.1,0.1l0.1,0.1L21.1,19.4z M21.1,19.1C21.1,19.2,21.1,19.2,21.1,19.1c0,0.1,0,0.2,0,0.2s0,0,0.1-0.1
					C21.2,19.2,21.2,19.2,21.1,19.1z M21.3,18.9l-0.1-0.1l-0.1,0.1l0.1,0.1C21.2,19,21.2,19,21.3,18.9z M21.3,18.7l-0.1,0.1l0.1,0.1
					l0.1-0.1C21.4,18.7,21.3,18.7,21.3,18.7z"/>
				
					<linearGradient id="SVGID_6_" gradientUnits="userSpaceOnUse" x1="8" y1="19.0872" x2="8" y2="17.9194" gradientTransform="matrix(1 0 0 1 0 2)">
					<stop  offset="0" style="stop-color:#E6EDEF"/>
					<stop  offset="1" style="stop-color:#A6AEB2"/>
				</linearGradient>
				<path class="st7" d="M6.3,18.2L6.3,18.2c0,0,0.1,0,0.1,0.1c0,0,0,0-0.1,0.1l0,0c0,0,0,0,0.1-0.1l0.1,0.1l-0.1,0.1
					c0,0,0,0-0.1-0.1c0,0,0,0.1,0.1,0.2l0.1,0.1l0,0l0,0l0,0l0.1,0.1l-0.1,0.1c0,0.1,0.1,0.2,0.1,0.3l0,0l0.1,0.1l0,0l0,0l0,0
					l0.1,0.1l0,0l0,0c0,0,0,0,0.1-0.1L7,19.4c0,0,0,0-0.1,0.1l0,0l0,0c0,0,0,0,0.1-0.1l0.1,0.1c0,0,0,0-0.1,0.1l0,0c0,0,0,0,0.1-0.1
					l0.1,0.1l0,0l0,0l0,0l0,0l0.1,0.1l0,0l0,0l0,0l0.1,0.1l0,0l0,0l0,0l0.1,0.1l0,0c0,0,0,0,0.1,0c0,0,0.1,0.1,0.2,0.1l0.1-0.1L8,20
					c0,0,0,0-0.1,0.1l0,0c0.1,0.1,0.1,0,0.1,0l0.1,0.1l0,0l0,0l0,0c0,0,0,0,0.1,0.1l0,0c0.1,0,0.1,0.1,0.2,0.1l-0.1-0.1
					c0,0,0,0,0.1-0.1l0.1,0.1c0,0,0,0-0.1,0.1l0,0c0,0,0,0,0.1-0.1l0.1,0.1l0,0c0,0,0,0,0.1,0l0,0l0,0h0.1c0,0,0,0,0.1,0L9,20.3
					l0.1,0.1l0,0c0,0,0,0,0.1,0l0,0l0.1,0.1h0.1l0,0l0,0v-0.1l-0.1,0.1l-0.1-0.1l0.1-0.1l0.1,0.1V21l0,0l0,0v-0.1c0,0,0,0-0.1,0.1
					l-0.1-0.1l0.1-0.1l0,0v-0.1l0,0l-0.1-0.1c0,0,0,0,0.1-0.1v-0.1c0,0,0,0-0.1-0.1c0,0,0,0,0.1-0.1v-0.1l0,0l-0.1,0.1l-0.1-0.1l0,0
					l0,0l0,0l0,0l0,0c0,0-0.1,0-0.2,0c0,0,0,0-0.1,0.1l0,0l-0.1-0.1l0,0c0,0,0,0-0.1,0l0,0l0,0c0,0-0.1,0-0.2-0.1l-0.1,0.1L8.2,20
					l0,0c0,0,0,0-0.1,0l0,0L8,19.9l0,0c-0.1,0-0.1-0.1-0.2-0.1l0.1,0.1L7.8,20l-0.1-0.1l0.1-0.1l0,0l-0.1,0.1l-0.1-0.1
					c0,0,0,0,0.1-0.1l0,0l0,0l-0.1-0.1l0,0l0,0l0,0l0,0c-0.1,0-0.2-0.1-0.2-0.1l0,0l-0.1,0.1l-0.1-0.1l0.1-0.1l0,0l-0.1,0.1
					l-0.1-0.1c0,0,0,0,0.1-0.1l0,0l0,0c0.1-0.3,0.1-0.3,0-0.2L7.1,19l0,0l0,0l0,0L7,18.9l0,0l0,0l0,0c-0.1,0-0.1-0.1-0.2-0.1l0,0
					l0,0l0,0l-0.1-0.1l0,0c0,0-0.1-0.1-0.2-0.2c0,0,0-0.1-0.1-0.1C6.4,18.2,6.4,18.2,6.3,18.2L6.3,18.2L6.3,18.2L6.3,18.2L6.3,18.2
					c0-0.1-0.1-0.2-0.1-0.2l0,0l0,0l0,0C6.2,18,6.2,18.1,6.3,18.2L6.3,18.2L6.3,18.2L6.3,18.2z M6.7,19.1L6.8,19l0.1,0.1l-0.1,0.1
					C6.8,19.1,6.7,19.1,6.7,19.1z M6.9,19.3L6.9,19.3c0-0.1,0-0.2,0-0.2L7,19.2C7,19.3,7,19.3,6.9,19.3z M7,19.4l0.1-0.1l0.1,0.1
					l-0.1,0.1L7,19.4z M7.1,19.5l0.1-0.1l0.1,0.1l-0.1,0.1C7.2,19.6,7.2,19.6,7.1,19.5z M7.3,19.7l0.1-0.1l0.1,0.1
					C7.5,19.7,7.4,19.7,7.3,19.7C7.4,19.8,7.3,19.7,7.3,19.7z M7.5,19.8l0.1-0.1l0.1,0.1l-0.1,0.1C7.5,19.9,7.5,19.9,7.5,19.8z
					 M8,20.1C8,20,7.9,20,8,20.1C8,20,8,20,8,19.9C8,20,8.1,20,8,20.1C8,20,8,20,8,20.1z M8.1,20l0.1,0.1c0,0,0,0-0.1,0.1
					C8.1,20.2,8.1,20.2,8.1,20C8.1,20.1,8.1,20.1,8.1,20z M7.9,19.9l-0.1-0.1c0,0,0,0,0.1-0.1C7.9,19.8,7.9,19.8,7.9,19.9L7.9,19.9z
					 M7.7,19.8l-0.1-0.1c0,0,0,0,0.1-0.1C7.7,19.7,7.8,19.7,7.7,19.8C7.8,19.7,7.7,19.8,7.7,19.8z M7.6,20l0.1-0.1L7.8,20l-0.1,0.1
					C7.7,20,7.7,20,7.6,20z M7.8,20.1L7.9,20L8,20.1C7.9,20.1,7.9,20.2,7.8,20.1C7.8,20.2,7.8,20.2,7.8,20.1z M8,20.4l-0.1-0.1
					L8,20.2l0.1,0.1L8,20.4z M8.2,20.6l-0.1-0.1l0.1-0.1l0.1,0.1C8.2,20.5,8.2,20.5,8.2,20.6z M8.3,20.4l-0.1-0.1c0,0,0,0,0.1-0.1
					C8.3,20.2,8.4,20.3,8.3,20.4C8.4,20.4,8.4,20.4,8.3,20.4z M9.4,20.6l0.1-0.1l0.1,0.1l-0.1,0.1L9.4,20.6z M9.5,20.8l-0.1,0.1
					l-0.1-0.1l0.1-0.1C9.4,20.7,9.4,20.7,9.5,20.8z M9.3,20.6l-0.1-0.1l0.1-0.1l0.1,0.1C9.4,20.5,9.4,20.5,9.3,20.6z M9.3,20.6
					l-0.1,0.1l-0.1-0.1l0.1-0.1L9.3,20.6z M9,20.6C9,20.5,9,20.5,9,20.6c0-0.1,0-0.2,0-0.2s0,0,0.1,0.1C9.1,20.5,9.1,20.5,9,20.6z
					 M8.9,20.4l-0.1-0.1l0.1-0.1L9,20.3C9,20.3,9,20.4,8.9,20.4z M8.9,20.4l-0.1,0.1l-0.1-0.1l0.1-0.1C8.8,20.4,8.8,20.4,8.9,20.4z
					 M8.6,20.4C8.6,20.4,8.5,20.3,8.6,20.4c0-0.1,0-0.2,0-0.2l0.1,0.1C8.7,20.3,8.6,20.4,8.6,20.4z M8.4,20.3l-0.1-0.1l0.1-0.1
					l0.1,0.1C8.5,20.2,8.5,20.2,8.4,20.3z M8.4,20.6C8.4,20.5,8.4,20.5,8.4,20.6c0-0.1,0-0.1,0-0.2C8.5,20.4,8.5,20.5,8.4,20.6
					C8.5,20.5,8.5,20.5,8.4,20.6z M8.5,20.6L8.5,20.6c0.1,0,0.2,0,0.2,0s0,0-0.1,0.1C8.6,20.7,8.5,20.6,8.5,20.6z M8.8,20.8
					C8.7,20.8,8.7,20.8,8.8,20.8c0-0.1,0-0.1,0-0.2C8.8,20.7,8.8,20.7,8.8,20.8L8.8,20.8z M8.8,20.6l0.1-0.1c0,0,0,0,0.1,0.1
					C9,20.6,8.9,20.6,8.8,20.6C8.8,20.7,8.8,20.6,8.8,20.6z M9,20.9l-0.1-0.1L9,20.7l0.1,0.1C9.1,20.8,9.1,20.8,9,20.9z M9.2,21
					l-0.1-0.1l0.1-0.1l0.1,0.1L9.2,21z M9.3,21.1C9.3,21.1,9.2,21.1,9.3,21.1c0-0.1,0-0.2,0-0.2L9.4,21C9.4,21.1,9.3,21.1,9.3,21.1z
					 M9.4,20.9l0.1-0.1l0.1,0.1C9.5,20.9,9.5,20.9,9.4,20.9C9.5,20.9,9.4,20.9,9.4,20.9z M9.7,21l-0.1,0.1L9.5,21l0.1-0.1
					C9.7,20.9,9.7,21,9.7,21z M9.7,20.7l-0.1,0.1l-0.1-0.1C9.6,20.7,9.6,20.7,9.7,20.7L9.7,20.7z M9.7,20.4l0.1,0.1l-0.1,0.1
					C9.7,20.5,9.6,20.5,9.7,20.4C9.6,20.4,9.6,20.4,9.7,20.4z M9.6,20.3C9.6,20.3,9.5,20.4,9.6,20.3c-0.1,0-0.2,0-0.2,0l0.1-0.1
					C9.5,20.2,9.5,20.2,9.6,20.3z M9.3,20.1L9.3,20.1c0.1,0,0.1,0,0.2,0C9.4,20.2,9.3,20.2,9.3,20.1C9.3,20.2,9.3,20.2,9.3,20.1
					L9.3,20.1z M9.3,20.3l-0.1,0.1c0,0,0,0-0.1-0.1C9.1,20.3,9.2,20.2,9.3,20.3C9.2,20.2,9.3,20.2,9.3,20.3z M9.2,20.2l-0.1,0.1
					L9,20.2l0.1-0.1C9.1,20.1,9.1,20.1,9.2,20.2z M8.9,19.9C9,19.9,9,20,8.9,19.9c0,0.1,0,0.2,0,0.2L8.8,20
					C8.8,20,8.9,19.9,8.9,19.9z M8.9,20.1l-0.1,0.1l-0.1-0.1C8.7,20.1,8.8,20.1,8.9,20.1C8.8,20.1,8.8,20.1,8.9,20.1z M8.7,20
					l-0.1,0.1L8.5,20l0.1-0.1C8.6,19.9,8.7,20,8.7,20z M8.4,19.7l0.1,0.1l-0.1,0.1l-0.1-0.1C8.4,19.8,8.4,19.8,8.4,19.7z M8.4,20
					l-0.1,0.1L8.2,20l0.1-0.1C8.3,19.9,8.4,20,8.4,20z M8.2,19.8l-0.1,0.1L8,19.8l0.1-0.1C8.2,19.8,8.2,19.8,8.2,19.8z M8.1,19.7
					L8,19.8l-0.1-0.1L8,19.6L8.1,19.7z M8,19.5l-0.1,0.1l-0.1-0.1l0.1-0.1C7.9,19.5,7.9,19.5,8,19.5z M7.7,19.3
					C7.7,19.3,7.8,19.4,7.7,19.3c0,0.1,0,0.2,0,0.2s0,0-0.1-0.1L7.7,19.3z M7.7,19.5C7.6,19.6,7.6,19.6,7.7,19.5c-0.1,0-0.2,0-0.2,0
					S7.5,19.5,7.7,19.5C7.6,19.5,7.6,19.5,7.7,19.5z M7.5,19.4C7.5,19.5,7.5,19.5,7.5,19.4c-0.1,0-0.2,0-0.2,0s0,0,0.1-0.1L7.5,19.4
					z M7.3,19.3L7.3,19.3c-0.1,0-0.2,0-0.2,0s0.1,0,0.1-0.1C7.3,19.2,7.3,19.2,7.3,19.3z M7.2,19.1C7.1,19.1,7.1,19.1,7.2,19.1
					c-0.1,0-0.2,0-0.2,0C7.1,19.1,7.1,19,7.2,19.1C7.1,19,7.1,19.1,7.2,19.1z M7.1,18.9C7,19,7,19,7.1,18.9c-0.1,0-0.2,0-0.2,0
					L7,18.8C7,18.9,7,18.9,7.1,18.9z M6.9,18.8C6.9,18.8,6.8,18.9,6.9,18.8c-0.1,0-0.2,0-0.2,0l0.1-0.1C6.8,18.7,6.9,18.7,6.9,18.8z
					 M6.7,18.7L6.7,18.7c-0.1,0-0.2,0-0.2,0l0.1-0.1C6.7,18.6,6.7,18.6,6.7,18.7z"/>
			</g>
			<g>
				<path class="st4" d="M13.9,20.6c-0.1,0-0.2,0-0.3-0.2c-0.1-0.1-0.2-0.3-0.1-0.5c0-0.1,0.1-0.2,0.4-0.2c0.2,0,0.4,0.1,0.4,0.2
					c0.1,0.2,0,0.4-0.1,0.5C14.2,20.6,14.1,20.6,13.9,20.6z"/>
				<path class="st8" d="M14.3,20.5c-0.1,0.1-0.2,0.2-0.3,0.2s-0.2,0-0.3-0.1C13.5,20.4,13.5,20,14,20
					C14.4,19.9,14.4,20.3,14.3,20.5z"/>
				
					<linearGradient id="SVGID_7_" gradientUnits="userSpaceOnUse" x1="13.9" y1="18.247" x2="13.9" y2="18.9068" gradientTransform="matrix(1 0 0 1 0 2)">
					<stop  offset="0" style="stop-color:#FF6E4D"/>
					<stop  offset="1" style="stop-color:#690000"/>
				</linearGradient>
				<path class="st9" d="M14.2,20.1c0,0.1-0.1,0.2-0.3,0.2s-0.3-0.1-0.3-0.2s0.1-0.2,0.3-0.2S14.2,20,14.2,20.1z"/>
			</g>
		</g>
	</g>
</g>
<g>
	<path class="st10" d="M14,1.2c7.1,0,12.8,5.7,12.8,12.8S21.1,26.8,14,26.8S1.2,21.1,1.2,14S6.9,1.2,14,1.2 M14,0C6.3,0,0,6.3,0,14
		s6.3,14,14,14s14-6.3,14-14S21.7,0,14,0L14,0z"/>
</g>
</svg>
