<?xml version="1.0" encoding="utf-8"?>
<!-- Generator: Adobe Illustrator 22.0.0, SVG Export Plug-In . SVG Version: 6.00 Build 0)  -->
<svg version="1.1" id="图层_1" xmlns="http://www.w3.org/2000/svg" xmlns:xlink="http://www.w3.org/1999/xlink" x="0px" y="0px"
	 viewBox="0 0 28 28" style="enable-background:new 0 0 28 28;" xml:space="preserve">
<style type="text/css">
	.st0{clip-path:url(#SVGID_2_);}
	.st1{fill:#7C7C7C;}
	.st2{opacity:0.2;fill:#E6EDEF;enable-background:new    ;}
	.st3{fill:#D0D6D6;}
	.st4{fill:#E6EDEF;}
	.st5{fill:#DFE4E5;}
	.st6{fill:url(#SVGID_3_);}
	.st7{fill:#4EF037;}
</style>
<g>
	<g>
		<defs>
			<circle id="SVGID_1_" cx="14" cy="14" r="13.5"/>
		</defs>
		<clipPath id="SVGID_2_">
			<use xlink:href="#SVGID_1_"  style="overflow:visible;"/>
		</clipPath>
		<g id="图层_1_1_" class="st0">
			<path class="st1" d="M14.9,16.6c0-0.5,0-1-0.3-1.4c-0.5-0.7-1.2-0.7-1.6,0c-0.2,0.3-0.3,0.7-0.3,1.2l0,0l0,0l0,0V38
				c0,0.5,0.1,0.9,0.3,1.2c0.5,0.7,1.2,0.7,1.6,0c0.2-0.3,0.3-0.7,0.3-1.2V16.4C14.9,16.4,14.9,16.5,14.9,16.6z M12.7,17
				C12.7,17,12.7,17,12.7,17L12.7,17L12.7,17z"/>
			<path class="st2" d="M13.9,15.6v24c0.2,0,0.3-0.2,0.5-0.4V15.5C14.2,15.5,14.1,15.6,13.9,15.6z"/>
			<ellipse class="st3" cx="13.8" cy="14.5" rx="9.2" ry="2.3"/>
			<ellipse class="st4" cx="13.7" cy="14.2" rx="9.2" ry="2.1"/>
			<rect x="6.9" y="8.9" class="st5" width="0.7" height="4.4"/>
			<path class="st4" d="M7.8,7.9H7c-0.5,0-1.3,0.8-1.3,0.9C6,9,6.6,9.2,6.9,9.3c0.2,0,1,0,1,0c0.1,0,0.2,0,0.2-0.2l0,0V8.7V8.2
				C8,8,8,7.9,7.8,7.9z"/>
			<rect x="13.7" y="9.6" class="st5" width="0.7" height="5.3"/>
			<rect x="19.9" y="8.9" class="st5" width="0.7" height="4.8"/>
			<path class="st4" d="M19.5,8h1c0.5,0,1.3,0.8,1.3,0.9c-0.2,0.2-0.8,0.4-1.2,0.5c-0.2,0-1,0-1,0c-0.1,0-0.2,0-0.2-0.2l0,0V8.8V8.2
				C19.3,8.1,19.4,8,19.5,8z"/>
			<path class="st4" d="M14,9.9L14,9.9c-0.3,0-0.6-0.2-0.6-0.6V9.1c0-0.3,0.2-0.6,0.6-0.6l0,0c0.3,0,0.6,0.2,0.6,0.6v0.3
				C14.6,9.8,14.3,9.9,14,9.9z"/>
			<polygon class="st3" points="19,27.9 6.9,27.9 8.4,20.1 20.4,20.1 			"/>
			
				<linearGradient id="SVGID_3_" gradientUnits="userSpaceOnUse" x1="4.5686" y1="2.3661" x2="17.8542" y2="2.3661" gradientTransform="matrix(1 0 0 -1 0 26.25)">
				<stop  offset="0" style="stop-color:#889197"/>
				<stop  offset="0.205" style="stop-color:#AAB3B7"/>
				<stop  offset="0.4386" style="stop-color:#CBD2D6"/>
				<stop  offset="0.6343" style="stop-color:#DFE6E8"/>
				<stop  offset="0.7667" style="stop-color:#E6EDEF"/>
			</linearGradient>
			<polygon class="st6" points="18.8,27.7 6.9,27.7 8.3,20.1 20.2,20.1 			"/>
		</g>
	</g>
</g>
<g>
	<path class="st7" d="M14,1.2c7.1,0,12.8,5.7,12.8,12.8S21.1,26.8,14,26.8S1.2,21.1,1.2,14S6.9,1.2,14,1.2 M14,0C6.3,0,0,6.3,0,14
		s6.3,14,14,14s14-6.3,14-14S21.7,0,14,0L14,0z"/>
</g>
</svg>
