<?xml version="1.0" encoding="utf-8"?>
<!-- Generator: Adobe Illustrator 22.0.0, SVG Export Plug-In . SVG Version: 6.00 Build 0)  -->
<svg version="1.1" id="图层_1" xmlns="http://www.w3.org/2000/svg" xmlns:xlink="http://www.w3.org/1999/xlink" x="0px" y="0px"
	 viewBox="0 0 28 28" style="enable-background:new 0 0 28 28;" xml:space="preserve">
<style type="text/css">
	.st0{clip-path:url(#SVGID_2_);}
	.st1{fill:#1F1F1F;}
	.st2{fill:#2A2A2A;}
	.st3{fill:#1D1D1D;}
	.st4{fill:#3B3B3B;}
	.st5{fill:#727272;}
	.st6{fill:#A9A9A9;}
	.st7{fill:#E9EAE7;}
	.st8{fill:#4D4D4D;}
	.st9{fill:#949494;}
	.st10{fill:#C4C4C4;}
	.st11{fill:#448000;}
	.st12{fill:#306100;}
	.st13{fill:#76B805;}
	.st14{fill:#407000;}
	.st15{fill:#246909;}
	.st16{fill:#8CBF34;}
	.st17{fill:#FFFFFF;}
	.st18{fill:#4EF037;}
</style>
<g>
	<g>
		<defs>
			<circle id="SVGID_1_" cx="14" cy="14" r="13.5"/>
		</defs>
		<clipPath id="SVGID_2_">
			<use xlink:href="#SVGID_1_"  style="overflow:visible;"/>
		</clipPath>
		<g id="图层_1_1_" class="st0">
			<g>
				<g>
					<path d="M9.6,26.2L8.2,24l0.7-0.4l0,0c0.2-0.1,0.4-0.1,0.7,0c0.5,0.3,1,1,1,1.6c0,0.3-0.1,0.5-0.2,0.6l0,0l0,0l0,0L9.6,26.2z"
						/>
					<path class="st1" d="M8.5,24.1l1-0.6c0,0,0.1,0,0.2,0.1c0.5,0.3,1,1,1,1.6c0,0.1,0,0.2,0,0.3L9.9,26c-0.1,0-0.2,0-0.2-0.1
						c-0.1,0-0.2-0.1-0.3-0.2l-0.7-1.2C8.5,24.3,8.5,24.2,8.5,24.1z"/>
					<path class="st2" d="M8,24.5c0,0.6,0.4,1.4,1,1.6c0.5,0.3,1,0,1-0.6s-0.4-1.3-1-1.6C8.4,23.7,8,23.9,8,24.5z"/>
					<path class="st3" d="M8,24.5c0,0.6,0.4,1.3,1,1.5c0.5,0.3,1,0,0.9-0.5c0-0.6-0.4-1.3-1-1.5C8.5,23.8,8,24,8,24.5z"/>
					<path class="st4" d="M8.2,24.7c0,0.5,0.3,1,0.7,1.2c0.4,0.2,0.7,0,0.7-0.4c0-0.4-0.3-1-0.7-1.2C8.5,24,8.2,24.2,8.2,24.7z"/>
					<path class="st5" d="M8.2,24.7c0,0.4,0.3,1,0.7,1.1c0.4,0.2,0.7,0,0.7-0.4s-0.3-1-0.7-1.1C8.6,24.1,8.2,24.3,8.2,24.7z"/>
					<path class="st6" d="M9,24.3c0.4,0.2,0.7,0.7,0.7,1.1v0.1l-0.5,0.4H9.1c-0.4-0.2-0.7-0.7-0.7-1.1L9,24.3z"/>
					<path class="st7" d="M9.3,24.6c0.1,0.2,0.2,0.4,0.3,0.6l-0.8,0.5c-0.1-0.1-0.3-0.3-0.4-0.5L9.3,24.6z"/>
					<path class="st7" d="M9.3,24.6c0.1,0.2,0.2,0.4,0.3,0.6l-0.8,0.5c-0.1-0.1-0.3-0.3-0.4-0.5L9.3,24.6z"/>
					<path class="st8" d="M8.4,24.8c0,0.4,0.3,0.8,0.6,1c0.3,0.2,0.6,0,0.6-0.3c0-0.3-0.4-0.9-0.6-1.1C8.6,24.2,8.4,24.4,8.4,24.8z"
						/>
					<path class="st9" d="M8.6,24.7c0,0.3,0.2,0.6,0.5,0.7c0.2,0.1,0.5,0,0.5-0.3c0-0.3-0.2-0.6-0.5-0.7C8.8,24.3,8.6,24.4,8.6,24.7
						z"/>
					<path class="st10" d="M8.8,24.9c0,0.1,0.1,0.3,0.2,0.3s0.2,0,0.2-0.1c0-0.1-0.1-0.3-0.2-0.3C8.9,24.8,8.8,24.8,8.8,24.9z"/>
					<path class="st8" d="M8.9,25c0,0,0,0.1,0.1,0.2h0.1C9.1,25.2,9,25,8.9,25C8.9,24.9,8.9,24.9,8.9,25z"/>
					<path d="M9.6,26.1L9.9,26l0,0l0,0l0,0c0.1-0.1,0.2-0.3,0.2-0.6c0-0.6-0.4-1.4-1-1.6c-0.3-0.1-0.5-0.1-0.7,0l0,0l0,0l0,0
						c0.2-0.1,0.4-0.1,0.7,0c0.5,0.3,1,1,1,1.6c0,0.3-0.1,0.5-0.2,0.6l0,0l0,0l0,0L9.6,26.1L9.6,26.1z"/>
					<path d="M9.6,26.2l0.2-0.1l0,0l0,0l0,0c0.1-0.1,0.2-0.3,0.2-0.6c0-0.6-0.4-1.3-1-1.6c-0.3-0.2-0.5-0.2-0.6-0.1l0,0l0,0l0,0
						c0.2-0.1,0.4-0.1,0.7,0c0.5,0.3,1,1,1,1.6c0,0.3-0.1,0.5-0.2,0.6l0,0l0,0l0,0L9.6,26.2L9.6,26.2z"/>
				</g>
				<path class="st11" d="M12.7,27.6l6.9-4l1.1-12.5l-6.1,3.6c-0.3,0.1-0.6,0.2-0.9,0.2L12.7,27.6z"/>
				<g>
					<polygon class="st12" points="18.8,24 18.4,24.3 19.6,10.7 19.9,10.4 					"/>
					<polygon class="st12" points="14.8,13.4 15.2,13.2 14,26.8 13.6,27 					"/>
				</g>
				<path class="st13" d="M7.8,11.9l0.7,11.5c0.2,0,0.4,0,0.6,0.1c0.7,0.4,1.2,1.4,1.3,2c0,0.3-0.1,0.5-0.2,0.7l2.4,1.4l1.1-12.8
					c0,0,0,0-0.1,0c-0.3,0-0.6-0.1-0.9-0.2L7.8,11.9z"/>
				<path class="st14" d="M7.8,10.7v1.2l4.9,2.7c0.3,0.1,0.6,0.2,0.9,0.2c0,0,0,0,0.1,0v-0.9L7.8,10.7z"/>
				<path class="st15" d="M13.7,14.9c0.3,0,0.6-0.1,0.9-0.2l6.1-3.6V10l-6.9,4V14.9z"/>
				<path class="st11" d="M13.6,14.5c0.3,0,0.7-0.1,1-0.2l6.5-3.8c0.3-0.3,0.1-1-0.2-1.4l-0.7-0.2l-6.3,4.7
					C13.5,13.8,13.4,14.2,13.6,14.5z"/>
				<path class="st13" d="M7.5,11.4l5.2,3c0.3,0.1,0.6,0.2,0.9,0.2c-0.1-0.3-0.1-0.7,0.2-0.9L20,9l-4.2-2.4c-0.6-0.3-1.3-0.3-1.8,0
					L7.6,9.9C7.4,10.2,7.2,10.9,7.5,11.4z"/>
				<path class="st16" d="M7.8,10.7l4.9,2.7c0.6,0.3,1.2,0.3,1.6,0l6.1-3.6c0.4-0.2,0.4-0.8,0-1l-4.9-2.8c-0.6-0.3-1.2-0.3-1.6,0
					l-6,3.7C7.5,9.9,7.5,10.5,7.8,10.7z"/>
				<path class="st13" d="M19.5,9.1l-4.2-2.4c-0.1,0-0.3-0.1-0.5-0.1c-0.2,0-0.4,0-0.5,0.1L8.9,9.9c-0.2,0.1-0.2,0.5,0,0.7l4.1,2.3
					c0.1,0.1,0.3,0.1,0.5,0.1c0.2,0,0.4,0,0.5-0.1l0.7-0.4l0,0l4.7-2.7C19.7,9.6,19.7,9.2,19.5,9.1z"/>
				<g>
					<path class="st17" d="M15.7,18l1.9-1.2c0,0,0.5,0.4,0.5,1l-1,0.7v-0.2L17,17.7L15.7,18z"/>
					<polygon class="st17" points="18.1,17.9 18.1,20.8 17.8,19.2 17.1,21.4 17.2,18.4 					"/>
					<path class="st17" d="M17.6,16.3c0,0.2-0.1,0.6-0.3,0.7c-0.2,0.1-0.4,0-0.4-0.2s0.1-0.6,0.3-0.7C17.4,15.9,17.6,16,17.6,16.3z"
						/>
					<path class="st17" d="M15.7,18.4c0,0,0,0.3-0.1,0.5c-0.1,0.2-0.2,0.3-0.2,0.3s0.1,0.2,0.3,0.1c0.2-0.1,0.3-0.3,0.4-0.3
						c0.1,0,0.1,0,0.1,0s0-0.1,0.1-0.4c0.1-0.2,0.2-0.4,0.2-0.5C16.6,18.1,16.1,18.5,15.7,18.4z"/>
					<path class="st17" d="M16.8,18.9l-1.5,1V20l0,0c0,0,0,0,0.1,0l0,0l0.4,2.1l1-0.6L16.8,18.9L16.8,18.9L16.8,18.9L16.8,18.9
						C17,18.9,16.9,18.9,16.8,18.9z M16.4,19.5v0.2l-0.2,0.1v-0.2L16.4,19.5z M16.1,19.9L15.9,20v-0.2l0.2-0.1V19.9z M15.5,20.1
						l0.2-0.1v0.2l-0.2,0.1V20.1z M15.5,20.4L15.5,20.4l0.2-0.2l0,0v0.1v0.1H15.5L15.5,20.4z M15.6,20.7l0.2-0.1v0.1v0.1l0,0l0,0
						l-0.2,0.1V20.7z M15.7,21.2V21l0.2-0.1V21v0.1L15.7,21.2L15.7,21.2z M15.7,21.4l0.2-0.1l0,0l0,0v0.1H15.7L15.7,21.4z
						 M15.8,21.9v-0.2h0.1L15.8,21.9L15.8,21.9z M15.9,20.4L15.9,20.4L15.9,20.4l0.2-0.2l0,0v0.2H15.9L15.9,20.4z M15.9,20.6
						L15.9,20.6l0.2-0.2v0.1l0,0v0.1l-0.2,0.2V20.6z M16,20.9L16,20.9L16,20.9l0.2-0.2v0.2V21L16,21.1V20.9z M16,21.3L16,21.3
						l0.2-0.2l0,0v0.2H16L16,21.3z M16,21.8v-0.2l0.1-0.1L16,21.8L16,21.8z M16.4,21.5L16.4,21.5L16.4,21.5v-0.2V21.5z M16.4,21.1
						L16.4,21.1l-0.1,0.2L16.4,21.1L16.4,21.1L16.4,21.1L16.4,21.1z M16.4,20.6L16.4,20.6v0.2l-0.2,0.1v-0.1v-0.2H16.4L16.4,20.6z
						 M16.4,20.4L16.4,20.4l-0.2,0.2v-0.1l0,0v-0.1H16.4L16.4,20.4z M16.2,20.3v-0.2V20l0.2-0.1l0,0V20v0.1L16.2,20.3z M16.6,21.4
						L16.6,21.4L16.6,21.4L16.6,21.4L16.6,21.4z M16.6,21.1L16.6,21.1L16.6,21.1L16.6,21.1L16.6,21.1l0.1-0.2L16.6,21.1z M16.7,20.7
						L16.7,20.7l-0.2,0.2v-0.1v-0.1H16.7L16.7,20.7z M16.7,20.3l-0.2,0.1l0,0l0,0v-0.1v-0.1l0.2-0.1V20.3z M16.7,19.7v0.2L16.5,20
						v-0.1v-0.1l0,0L16.7,19.7L16.7,19.7z M16.7,19.5l-0.2,0.1v-0.2l0.2-0.1V19.5z"/>
				</g>
			</g>
		</g>
	</g>
</g>
<g>
	<path class="st18" d="M14,1.2c7.1,0,12.8,5.7,12.8,12.8S21.1,26.8,14,26.8S1.2,21.1,1.2,14S6.9,1.2,14,1.2 M14,0C6.3,0,0,6.3,0,14
		s6.3,14,14,14s14-6.3,14-14S21.7,0,14,0L14,0z"/>
</g>
</svg>
