<?xml version="1.0" encoding="utf-8"?>
<!-- Generator: Adobe Illustrator 22.0.0, SVG Export Plug-In . SVG Version: 6.00 Build 0)  -->
<svg version="1.1" id="图层_1" xmlns="http://www.w3.org/2000/svg" xmlns:xlink="http://www.w3.org/1999/xlink" x="0px" y="0px"
	 viewBox="0 0 60 79" style="enable-background:new 0 0 60 79;" xml:space="preserve">
<style type="text/css">
	.st0{fill:url(#SVGID_1_);}
	.st1{fill:#FFFFFF;}
	.st2{fill:#F3D516;}
	.st3{clip-path:url(#SVGID_3_);}
	.st4{fill:#7B8387;}
	.st5{fill:#006482;}
	.st6{opacity:0.2;fill:#FFFFFF;enable-background:new    ;}
	.st7{opacity:0.1;fill:#FFFFFF;enable-background:new    ;}
	.st8{fill:url(#SVGID_4_);}
	.st9{fill:#E6EDEF;}
	.st10{fill:#959EA2;}
	.st11{fill:#67D329;}
</style>
<g>
	
		<radialGradient id="SVGID_1_" cx="30.5" cy="-639.2002" r="17.4444" gradientTransform="matrix(1 0 0 -0.1461 0 -17.0948)" gradientUnits="userSpaceOnUse">
		<stop  offset="0" style="stop-color:#7A7A7A"/>
		<stop  offset="1" style="stop-color:#FFFFFF;stop-opacity:0"/>
	</radialGradient>
	<ellipse class="st0" cx="30.5" cy="76.3" rx="17" ry="2.7"/>
	<g>
		<path class="st1" d="M57.2,29.7c0,15-27.2,43.4-27.2,43.4S2.8,44.7,2.8,29.7S15,2.5,30,2.5S57.2,14.7,57.2,29.7z"/>
		<path class="st2" d="M30,2.5c15,0,27.2,12.2,27.2,27.2S30,73.1,30,73.1S2.8,44.7,2.8,29.7S15,2.5,30,2.5 M30,0.7
			c-16,0-29,13-29,29c0,15.6,26.6,43.5,27.7,44.7l1.3,1.4l1.3-1.4C32.5,73.2,59,45.3,59,29.7C59,13.7,46,0.7,30,0.7L30,0.7z"/>
	</g>
	<g>
		<g>
			<defs>
				<path id="SVGID_2_" d="M57.2,29.7c0,15-27.2,43.4-27.2,43.4S2.8,44.7,2.8,29.7S15,2.5,30,2.5S57.2,14.7,57.2,29.7z"/>
			</defs>
			<clipPath id="SVGID_3_">
				<use xlink:href="#SVGID_2_"  style="overflow:visible;"/>
			</clipPath>
			<g class="st3">
				<path class="st4" d="M34.2,40.3c0.2-0.6-0.2-1.3-0.9-1.7c-1.4-0.8-3.6-0.8-5,0c-0.6,0.5-1.1,0.9-1.1,1.4l0,0l0,0l0,0v47.8
					c0,0.5,2,6,2.5,6.1c0.8,0.3,1.4,0.3,2.2,0c0.5-0.2,2.4-5.5,2.4-6.1V40C34.3,40.1,34.2,40.3,34.2,40.3z M27.4,40.7L27.4,40.7
					L27.4,40.7L27.4,40.7z"/>
				<polygon class="st5" points="52.5,40.9 8.9,40.9 12.1,14.1 49.4,14.1 				"/>
				<polygon class="st6" points="11,39 13.6,16 47.7,16 50.3,39 				"/>
				<g>
					<g>
						<rect x="30.4" y="16" class="st5" width="0.6" height="23.2"/>
						
							<rect x="36.5" y="15.8" transform="matrix(0.9992 -3.898389e-02 3.898389e-02 0.9992 -1.0407 1.4573)" class="st5" width="0.6" height="23.2"/>
						
							<rect x="42.7" y="15.8" transform="matrix(0.997 -7.776619e-02 7.776619e-02 0.997 -2.0021 3.4243)" class="st5" width="0.6" height="23.2"/>
					</g>
					<g>
						
							<rect x="12.9" y="27.1" transform="matrix(3.904129e-02 -0.9992 0.9992 3.904129e-02 -3.8628 50.8816)" class="st5" width="23.2" height="0.6"/>
						
							<rect x="6.8" y="27.1" transform="matrix(7.816076e-02 -0.9969 0.9969 7.816076e-02 -10.3942 43.6562)" class="st5" width="23.2" height="0.6"/>
					</g>
					<g>
						<rect x="13.2" y="20.2" class="st5" width="35.1" height="0.6"/>
						<rect x="12.7" y="24.9" class="st5" width="36.1" height="0.6"/>
						<rect x="12.1" y="29.5" class="st5" width="37.2" height="0.6"/>
						<rect x="11.6" y="34.2" class="st5" width="38.3" height="0.6"/>
					</g>
				</g>
				<path class="st7" d="M52.5,40.9l-3.1-26.8H30.7v80.1c0,0,0.7,0.2,1.2-0.3c1.4-2.5,2.2-6,2.2-6l0-47H52.5z"/>
				
					<linearGradient id="SVGID_4_" gradientUnits="userSpaceOnUse" x1="24.8278" y1="16.2738" x2="36.7226" y2="16.2738" gradientTransform="matrix(1 0 0 -1 0 80)">
					<stop  offset="0" style="stop-color:#889197"/>
					<stop  offset="0.5762" style="stop-color:#B8BFC1"/>
					<stop  offset="1" style="stop-color:#D8DFE1"/>
				</linearGradient>
				<path class="st8" d="M31.8,77.1h-2c-2.7,0-5-2.2-5-5V55.3c0-2.7,2.2-5,5-5h2c2.7,0,5,2.2,5,5v16.8
					C36.7,74.9,34.5,77.1,31.8,77.1z"/>
				<path class="st9" d="M30.7,76.5h-2c-2.7,0-5-2.2-5-5V54.7c0-2.7,2.2-5,5-5h2c2.7,0,5,2.2,5,5v16.8
					C35.8,74.3,33.6,76.5,30.7,76.5z"/>
				<g>
					<path class="st10" d="M34,52.5c0-0.2,0.2-0.3,0-0.5c0-0.2-0.3-0.3-0.5-0.3c-0.2,0-0.3,0-0.5,0.3c-0.2,0.3,0,0.5,0,0.6
						c0.2,0.2,0.3,0.3,0.6,0.2C33.9,52.7,33.9,52.7,34,52.5z"/>
					<path class="st11" d="M33.7,52.7c0.2,0,0.3-0.2,0.3-0.2c0-0.2,0-0.3,0-0.3c-0.2-0.3-0.6-0.5-0.8,0
						C33.1,52.5,33.4,52.8,33.7,52.7z"/>
				</g>
			</g>
		</g>
	</g>
</g>
</svg>
