<?xml version="1.0" encoding="utf-8"?>
<!-- Generator: Adobe Illustrator 22.0.0, SVG Export Plug-In . SVG Version: 6.00 Build 0)  -->
<svg version="1.1" id="图层_1" xmlns="http://www.w3.org/2000/svg" xmlns:xlink="http://www.w3.org/1999/xlink" x="0px" y="0px"
	 viewBox="0 0 60 79" style="enable-background:new 0 0 60 79;" xml:space="preserve">
<style type="text/css">
	.st0{fill:url(#SVGID_1_);}
	.st1{fill:#FFFFFF;}
	.st2{fill:#F3D516;}
	.st3{fill:none;}
	.st4{fill:url(#SVGID_2_);}
	.st5{fill:#D0D6D6;}
	.st6{fill:#E6EDEF;}
	.st7{opacity:0.7;fill:#A0A8AC;enable-background:new    ;}
	.st8{opacity:0.3;fill:url(#SVGID_3_);enable-background:new    ;}
	.st9{opacity:0.3;fill:url(#SVGID_4_);enable-background:new    ;}
	.st10{opacity:0.3;fill:url(#SVGID_5_);enable-background:new    ;}
	.st11{fill:#E53030;}
	.st12{opacity:0.8;fill:url(#SVGID_6_);enable-background:new    ;}
	.st13{opacity:0.7;fill:#E6EDEF;}
	.st14{fill:#FFFFFF;stroke:#F17368;stroke-miterlimit:10;}
	.st15{fill:#F17368;}
</style>
<radialGradient id="SVGID_1_" cx="30.5" cy="143.9798" r="17.4444" gradientTransform="matrix(1 0 0 -0.1461 0 97.3278)" gradientUnits="userSpaceOnUse">
	<stop  offset="0" style="stop-color:#7A7A7A"/>
	<stop  offset="1" style="stop-color:#FFFFFF;stop-opacity:0"/>
</radialGradient>
<ellipse class="st0" cx="30.5" cy="76.3" rx="17" ry="2.7"/>
<g>
	<path class="st1" d="M57.3,29.7c0,15-27.2,43.4-27.2,43.4S2.9,44.7,2.9,29.7S15.1,2.5,30.1,2.5S57.3,14.7,57.3,29.7z"/>
	<path class="st2" d="M30.1,2.5c15,0,27.2,12.2,27.2,27.2S30.1,73.1,30.1,73.1S2.9,44.7,2.9,29.7S15.1,2.5,30.1,2.5 M30.1,0.7
		c-16,0-29,13-29,29c0,15.6,26.6,43.5,27.7,44.7l1.3,1.4l1.3-1.4c1.2-1.2,27.7-29.1,27.7-44.7C59.1,13.7,46.1,0.7,30.1,0.7L30.1,0.7
		z"/>
</g>
<path class="st3" d="M57.2,29.7c0,15-27.2,43.4-27.2,43.4S2.8,44.7,2.8,29.7S15,2.5,30,2.5S57.2,14.7,57.2,29.7z"/>
<g>
	
		<linearGradient id="SVGID_2_" gradientUnits="userSpaceOnUse" x1="7.3241" y1="39.6759" x2="53.1026" y2="39.6759" gradientTransform="matrix(1 0 0 -1 0 80)">
		<stop  offset="0" style="stop-color:#889197"/>
		<stop  offset="1" style="stop-color:#B8BFC1"/>
	</linearGradient>
	<path class="st4" d="M52.7,31.7c0,0.1-0.1,0.2-0.1,0.2c-0.1,0.2-0.2,0.4-0.4,0.5c-0.1,0.1-0.1,0.2-0.2,0.3
		c-0.1,0.2-0.3,0.4-0.4,0.5c-0.1,0.1-0.1,0.2-0.2,0.2c-0.1,0.1-0.2,0.2-0.3,0.3c-0.2,0.2-0.4,0.4-0.6,0.6c-0.1,0.1-0.2,0.2-0.3,0.3
		c-0.2,0.2-0.4,0.4-0.6,0.6c-0.1,0.1-0.3,0.2-0.4,0.3c-0.2,0.2-0.5,0.4-0.8,0.6c-0.1,0.1-0.2,0.2-0.4,0.3c-0.3,0.2-0.7,0.4-1,0.6
		c-0.8-1.4-2.2-2.6-4-3.7c-6.9-4.1-18.2-4.2-25.2-0.3c-2,1.1-3.4,2.5-4.3,3.9c-0.1,0-0.1-0.1-0.2-0.1c-2.9-1.8-4.9-3.9-5.9-6.1
		c1.9,4.1,3.7,8.2,5.6,12.3v0.1c0,0.1,0.1,0.1,0.1,0.2c0.1,0.2,0.3,0.5,0.4,0.7l0.1,0.1c0.2,0.3,0.4,0.5,0.6,0.8
		c0.1,0.1,0.1,0.1,0.2,0.2c0.2,0.2,0.5,0.5,0.7,0.7l0.1,0.1c0.3,0.3,0.6,0.5,0.9,0.7c0.1,0.1,0.2,0.1,0.2,0.2
		c0.3,0.2,0.7,0.5,1.1,0.7c0.4,0.3,0.9,0.5,1.3,0.7c0.2,0.1,0.3,0.1,0.5,0.2c0.3,0.1,0.6,0.3,0.9,0.4c0.2,0.1,0.4,0.1,0.6,0.2
		c0.3,0.1,0.6,0.2,0.9,0.3c0.2,0.1,0.4,0.1,0.7,0.2c0.3,0.1,0.6,0.2,0.9,0.2c0.2,0.1,0.5,0.1,0.7,0.2c0.3,0.1,0.6,0.1,0.9,0.2
		c0.2,0,0.5,0.1,0.7,0.1c0.3,0,0.6,0.1,0.9,0.1s0.5,0.1,0.8,0.1s0.6,0.1,0.9,0.1s0.5,0,0.8,0c0.2,0,0.4,0,0.7,0c0.1,0,0.2,0,0.3,0
		c0.1,0,0.3,0,0.4,0c0.4,0,0.9,0,1.3,0c0.1,0,0.1,0,0.2,0c0.5,0,1-0.1,1.5-0.1c0.1,0,0.2,0,0.4,0s0.3,0,0.5-0.1
		c0.3,0,0.5-0.1,0.7-0.1c0.1,0,0.2,0,0.3,0c0.5-0.1,1-0.2,1.4-0.3c0.1,0,0.2-0.1,0.3-0.1c0.4-0.1,0.8-0.2,1.1-0.3
		c0.1,0,0.2-0.1,0.3-0.1c0.5-0.1,0.9-0.3,1.4-0.4c0.1,0,0.1-0.1,0.2-0.1c0.4-0.1,0.7-0.3,1.1-0.5c0.1-0.1,0.2-0.1,0.3-0.2
		c0.4-0.2,0.8-0.4,1.2-0.6c0.3-0.2,0.6-0.4,1-0.6c0.1,0,0.1-0.1,0.2-0.1c0.1-0.1,0.2-0.1,0.2-0.2c0.2-0.1,0.3-0.2,0.4-0.3
		c0.1-0.1,0.2-0.2,0.3-0.2s0.1-0.1,0.2-0.1c0,0,0,0,0.1-0.1s0.2-0.2,0.3-0.2c0.1-0.1,0.2-0.2,0.3-0.2c0.1-0.1,0.2-0.2,0.3-0.3
		s0.1-0.1,0.2-0.2l0.1-0.1c0,0,0,0,0.1-0.1c0-0.1,0.1-0.1,0.1-0.2c0.1-0.1,0.2-0.3,0.3-0.4c0,0,0-0.1,0.1-0.1l0.1-0.1
		c0.1-0.1,0.2-0.3,0.3-0.4c0-0.1,0.1-0.1,0.1-0.2c0-0.1,0.1-0.1,0.1-0.2c0,0,0-0.1,0.1-0.1c0.1-0.1,0.1-0.2,0.2-0.3
		c1.9-4.1,3.8-8.2,5.7-12.3C53,31.1,52.8,31.4,52.7,31.7z"/>
	<path class="st5" d="M53.9,25.2c0,0.1,0,0.2,0,0.3c0,0.1,0,0.2,0,0.3c0,0.1,0,0.2-0.1,0.3c0,0.1,0,0.2-0.1,0.3
		c0,0.1-0.1,0.2-0.1,0.3c0,0.1-0.1,0.2-0.1,0.3c0,0.1-0.1,0.2-0.1,0.3c0,0.1-0.1,0.2-0.1,0.3c0,0.1-0.1,0.2-0.1,0.4
		c0,0.1-0.1,0.2-0.1,0.3c-0.1,0.1-0.1,0.2-0.2,0.3c-0.1,0.1-0.1,0.2-0.2,0.3c-0.1,0.1-0.2,0.3-0.2,0.4c-0.1,0.1-0.1,0.2-0.2,0.3
		c-0.1,0.1-0.2,0.3-0.3,0.4s-0.1,0.2-0.2,0.3c-0.2,0.2-0.4,0.5-0.6,0.7l0,0c-0.2,0.2-0.5,0.5-0.7,0.7c-0.1,0.1-0.2,0.2-0.3,0.3
		c-0.1,0.1-0.2,0.2-0.3,0.3c-0.1,0.1-0.2,0.2-0.3,0.3s-0.2,0.2-0.4,0.3c-0.1,0.1-0.2,0.2-0.4,0.3c-0.1,0.1-0.3,0.2-0.4,0.3
		c-0.1,0.1-0.3,0.2-0.4,0.3c-0.1,0.1-0.3,0.2-0.4,0.3c-0.2,0.1-0.5,0.3-0.7,0.4l0,0c-0.5,0.3-1.1,0.6-1.6,0.8
		c-0.1,0.1-0.3,0.1-0.4,0.2c-0.6,0.2-1.1,0.5-1.7,0.7c-0.1,0-0.1,0-0.2,0.1c-0.5,0.2-1,0.3-1.4,0.5c-0.4,0.1-0.8,0.2-1.1,0.3
		s-0.7,0.2-1,0.3c-0.4,0.1-0.8,0.2-1.2,0.3s-0.8,0.2-1.1,0.2c-0.2,0-0.3,0.1-0.5,0.1c-0.6,0.1-1.2,0.2-1.8,0.2c-0.1,0-0.1,0-0.2,0
		c-0.7,0.1-1.3,0.1-2,0.1c-0.1,0-0.2,0-0.4,0c-0.4,0-0.7,0-1.1,0s-0.9,0-1.3,0s-0.7,0-1.1,0s-0.8,0-1.2-0.1c-0.4,0-0.7-0.1-1.1-0.1
		S25.7,38,25.3,38c-0.3,0-0.7-0.1-1-0.2c-0.4-0.1-0.9-0.1-1.3-0.2c-0.6-0.1-1.1-0.2-1.7-0.4c0,0,0,0-0.1,0c-0.6-0.1-1.2-0.3-1.7-0.5
		c-0.2-0.1-0.3-0.1-0.5-0.2c-0.6-0.2-1.2-0.4-1.8-0.6c-0.4-0.2-0.8-0.4-1.3-0.6c-0.2-0.1-0.4-0.2-0.6-0.3c-0.6-0.3-1.2-0.6-1.8-1
		c-4.5-2.7-6.7-6.1-6.7-9.6V27c0,3.5,2.2,6.9,6.7,9.6c0.6,0.3,1.2,0.7,1.8,1c0.2,0.1,0.4,0.2,0.6,0.3c0.4,0.2,0.8,0.4,1.3,0.6l0,0
		c0.6,0.2,1.2,0.4,1.8,0.6c0.2,0.1,0.3,0.1,0.5,0.2c0.2,0.1,0.4,0.1,0.6,0.2c0.4,0.1,0.8,0.2,1.1,0.3c0,0,0,0,0.1,0
		c0.4,0.1,0.8,0.2,1.3,0.3c0.1,0,0.3,0,0.4,0.1c0.4,0.1,0.8,0.2,1.3,0.2c0.2,0,0.4,0.1,0.7,0.1c0.1,0,0.2,0,0.4,0
		c0.4,0.1,0.8,0.1,1.2,0.1c0.2,0,0.5,0.1,0.7,0.1c0.1,0,0.2,0,0.3,0c0.4,0,0.8,0,1.2,0.1c0.3,0,0.5,0,0.8,0c0.1,0,0.2,0,0.3,0
		c0.4,0,0.9,0,1.3,0c0.3,0,0.5,0,0.8,0c0.1,0,0.2,0,0.3,0c0.1,0,0.2,0,0.4,0c0.7,0,1.3-0.1,2-0.1l0,0c0.1,0,0.1,0,0.2,0
		c0.6-0.1,1.2-0.1,1.8-0.2c0.2,0,0.3-0.1,0.5-0.1s0.3,0,0.5-0.1c0.2,0,0.4-0.1,0.7-0.1c0.4-0.1,0.8-0.2,1.2-0.3
		c0.3-0.1,0.7-0.2,1-0.3c0.4-0.1,0.8-0.2,1.1-0.3c0.1,0,0.3-0.1,0.4-0.1c0.3-0.1,0.7-0.2,1-0.4c0.1,0,0.1,0,0.2-0.1
		c0.6-0.2,1.1-0.5,1.7-0.7c0.1-0.1,0.3-0.1,0.4-0.2c0.6-0.3,1.1-0.5,1.6-0.8c0.2-0.1,0.4-0.2,0.6-0.3c0.1,0,0.1-0.1,0.1-0.1
		c0.1-0.1,0.3-0.2,0.4-0.3c0.1-0.1,0.3-0.2,0.4-0.3c0.1-0.1,0.3-0.2,0.4-0.3c0.1-0.1,0.2-0.2,0.4-0.3c0.1-0.1,0.3-0.2,0.4-0.3
		c0.1-0.1,0.2-0.2,0.3-0.3s0.2-0.2,0.3-0.3s0.2-0.1,0.2-0.2c0,0,0,0,0.1-0.1c0.2-0.2,0.5-0.5,0.7-0.7l0,0c0.2-0.2,0.4-0.5,0.6-0.7
		c0,0,0-0.1,0.1-0.1c0-0.1,0.1-0.1,0.1-0.2c0.1-0.1,0.2-0.3,0.3-0.4c0.1-0.1,0.1-0.2,0.2-0.3c0.1-0.1,0.2-0.3,0.2-0.4
		s0.1-0.1,0.1-0.2c0,0,0-0.1,0.1-0.1c0.1-0.1,0.1-0.2,0.2-0.3c0.1-0.1,0.1-0.2,0.1-0.3c0.1-0.1,0.1-0.2,0.1-0.4
		c0-0.1,0.1-0.1,0.1-0.2v-0.1c0-0.1,0.1-0.2,0.1-0.3c0-0.1,0.1-0.2,0.1-0.3c0-0.1,0.1-0.2,0.1-0.3c0-0.1,0-0.1,0.1-0.2v-0.1
		c0-0.1,0-0.2,0.1-0.3c0-0.1,0-0.2,0-0.3c0-0.1,0-0.2,0-0.3c0-0.1,0-0.1,0-0.2s0-0.1,0-0.2v-2.6C53.9,24.9,53.9,25.1,53.9,25.2z"/>
	
		<ellipse transform="matrix(2.833209e-03 -1 1 2.833209e-03 5.3496 54.8914)" class="st6" cx="30.2" cy="24.8" rx="13.7" ry="23.7"/>
</g>
<path class="st7" d="M35.2,47.8c-0.3,0-0.5,0.1-0.8,0.1c-0.2,0-0.4,0-0.5,0.1c-0.1,0-0.3,0-0.4,0c-0.5,0-1.1,0.1-1.6,0.1
	c-0.1,0-0.2,0-0.2,0c-0.5,0-1,0-1.4,0c-0.1,0-0.3,0-0.4,0s-0.2,0-0.3,0c-0.2,0-0.5,0-0.7,0c-0.3,0-0.6,0-0.8,0c-0.3,0-0.6-0.1-1-0.1
	c-0.3,0-0.6,0-0.8-0.1c-0.3,0-0.6-0.1-1-0.1c-0.2,0-0.4-0.1-0.5-0.1L24.2,44c0.1,0,0.2,0,0.3,0c0.4,0.1,0.7,0.1,1.1,0.2
	c0.3,0,0.6,0.1,0.9,0.1c0.4,0,0.7,0.1,1.1,0.1c0.3,0,0.6,0,0.9,0s0.5,0,0.8,0c0.1,0,0.2,0,0.3,0c0.2,0,0.3,0,0.5,0
	c0.5,0,1.1,0,1.6,0c0.1,0,0.2,0,0.3,0c0.6,0,1.2-0.1,1.8-0.1c0.1,0,0.3,0,0.4,0c0.2,0,0.4,0,0.6-0.1c0.3,0,0.6-0.1,0.9-0.1
	c0.1,0,0.2,0,0.4,0h0.1l-0.3,3.8c-0.1,0-0.3,0.1-0.4,0.1C35.4,47.8,35.3,47.8,35.2,47.8z"/>
<path class="st7" d="M19.3,42.8c-0.2-0.1-0.4-0.1-0.5-0.2c-0.2-0.1-0.5-0.2-0.7-0.2c-0.4-0.1-0.8-0.3-1.1-0.5
	c-0.2-0.1-0.4-0.2-0.6-0.2c-0.5-0.2-1.1-0.5-1.6-0.8s-0.9-0.5-1.3-0.8c-0.1-0.1-0.2-0.1-0.3-0.2c-0.4-0.3-0.8-0.5-1.1-0.8
	C12,39,12,39,12,39c-0.3-0.3-0.6-0.5-0.9-0.8c0-0.1-0.1-0.2-0.2-0.2c-0.3-0.3-0.5-0.6-0.7-0.8c0.7,1.4,1.3,2.9,2,4.3l0,0l0.1,0.1
	c0.2,0.3,0.4,0.5,0.7,0.8c0.1,0.1,0.1,0.1,0.2,0.2c0.2,0.2,0.5,0.5,0.8,0.7l0.1,0.1c0.3,0.3,0.6,0.5,1,0.7c0.1,0.1,0.2,0.1,0.3,0.2
	c0.4,0.2,0.7,0.5,1.2,0.7c0.5,0.3,0.9,0.5,1.4,0.7c0.2,0.1,0.3,0.1,0.5,0.2c0.3,0.1,0.7,0.3,1,0.4c0.2,0.1,0.3,0.1,0.5,0.2
	L19.3,42.8z"/>
<path class="st7" d="M50.1,37.2c0,0.1-0.1,0.1-0.1,0.2c0,0,0,0.1-0.1,0.1c-0.1,0.1-0.2,0.3-0.4,0.4c-0.1,0.1-0.1,0.1-0.2,0.2
	c0,0,0,0-0.1,0.1c0,0.1-0.1,0.1-0.2,0.1c-0.1,0.1-0.1,0.1-0.2,0.2c-0.1,0.1-0.2,0.2-0.4,0.3c-0.1,0.1-0.2,0.2-0.3,0.3
	s-0.2,0.2-0.3,0.3c0,0-0.1,0-0.1,0.1c-0.1,0-0.1,0.1-0.2,0.1c-0.1,0.1-0.2,0.2-0.4,0.3s-0.4,0.2-0.5,0.4c-0.1,0.1-0.2,0.1-0.3,0.2
	c-0.1,0-0.2,0.1-0.2,0.1c-0.4,0.2-0.7,0.4-1.1,0.6c-0.5,0.2-1,0.5-1.5,0.7c-0.1,0.1-0.3,0.1-0.4,0.2c-0.4,0.2-0.9,0.3-1.3,0.5
	c-0.1,0-0.2,0.1-0.3,0.1c-0.2,0.1-0.4,0.1-0.5,0.2l-0.5,3.7c0,0,0,0,0.1,0c0.4-0.1,0.8-0.3,1.2-0.5c0.1-0.1,0.2-0.1,0.4-0.2
	c0.5-0.2,0.9-0.4,1.3-0.6c0.4-0.2,0.7-0.4,1-0.6c0.1,0,0.1-0.1,0.2-0.1c0.1-0.1,0.2-0.1,0.2-0.2c0.2-0.1,0.3-0.2,0.5-0.3
	c0.1-0.1,0.2-0.2,0.3-0.2s0.1-0.1,0.2-0.1c0,0,0.1,0,0.1-0.1c0.1-0.1,0.2-0.2,0.3-0.2c0.1-0.1,0.2-0.2,0.3-0.2
	c0.1-0.1,0.2-0.2,0.3-0.3s0.1-0.1,0.2-0.2l0.1-0.1c0,0,0,0,0.1-0.1s0.1-0.1,0.1-0.2c0.1-0.1,0.2-0.3,0.3-0.4c0,0,0-0.1,0.1-0.1
	l0.1-0.1c0.1-0.1,0.2-0.2,0.2-0.3C48.8,40,49.5,38.5,50.1,37.2C50.2,37.1,50.2,37.1,50.1,37.2z"/>
<path class="st7" d="M34.8,44.2c-0.2,0-0.4,0-0.6,0.1c-0.1,0-0.3,0-0.4,0c-0.6,0.1-1.2,0.1-1.8,0.1c-0.1,0-0.2,0-0.3,0
	c-0.5,0-1.1,0-1.6,0c-0.2,0-0.3,0-0.5,0c-0.1,0-0.2,0-0.3,0c-0.3,0-0.5,0-0.8,0s-0.6,0-0.9,0c-0.4,0-0.7-0.1-1.1-0.1
	c-0.3,0-0.6-0.1-0.9-0.1c-0.2,0-0.3,0-0.5-0.1l0.3,3.1c0.2,0,0.3,0,0.5,0.1c0.3,0,0.6,0.1,0.8,0.1c0.2,0,0.5,0,0.7,0.1
	c0.3,0,0.6,0.1,0.8,0.1c0.2,0,0.5,0,0.7,0s0.4,0,0.6,0c0.1,0,0.2,0,0.3,0c0.1,0,0.2,0,0.3,0c0.4,0,0.8,0,1.2,0c0.1,0,0.1,0,0.2,0
	c0.5,0,0.9-0.1,1.4-0.1c0.1,0,0.2,0,0.3,0c0.2,0,0.3,0,0.5,0s0.5-0.1,0.7-0.1c0.1,0,0.2,0,0.3,0s0.2,0,0.4-0.1l0.3-3.1
	C35.2,44.1,35,44.1,34.8,44.2z"/>
<path class="st7" d="M50.1,37.2c0,0.1-0.1,0.1-0.1,0.2c0,0,0,0.1-0.1,0.1c-0.1,0.1-0.2,0.3-0.4,0.4c-0.1,0.1-0.1,0.1-0.2,0.2
	c0,0,0,0-0.1,0.1c0,0.1-0.1,0.1-0.2,0.1c-0.1,0.1-0.1,0.1-0.2,0.2c-0.1,0.1-0.2,0.2-0.4,0.3c-0.1,0.1-0.2,0.2-0.3,0.3
	s-0.2,0.2-0.3,0.3c0,0-0.1,0-0.1,0.1c-0.1,0-0.1,0.1-0.2,0.1c-0.1,0.1-0.2,0.2-0.4,0.3s-0.4,0.2-0.5,0.4c-0.1,0.1-0.2,0.1-0.3,0.2
	c-0.1,0-0.2,0.1-0.2,0.1c-0.4,0.2-0.7,0.4-1.1,0.6c-0.5,0.2-1,0.5-1.5,0.7c-0.1,0.1-0.3,0.1-0.4,0.2c-0.4,0.2-0.9,0.3-1.3,0.5
	c-0.1,0-0.2,0.1-0.3,0.1c-0.2,0.1-0.4,0.1-0.5,0.2L40.7,46c0.3-0.1,0.7-0.3,1-0.4c0.1-0.1,0.3-0.1,0.4-0.2c0.5-0.2,1-0.4,1.5-0.7
	c0.4-0.2,0.8-0.4,1.1-0.6c0.1,0,0.2-0.1,0.2-0.1c0.1-0.1,0.2-0.1,0.3-0.2c0.2-0.1,0.4-0.2,0.5-0.4c0.1-0.1,0.2-0.2,0.3-0.3
	c0.1,0,0.1-0.1,0.2-0.1c0,0,0.1,0,0.1-0.1c0.1-0.1,0.2-0.2,0.3-0.3s0.2-0.2,0.3-0.3s0.2-0.2,0.4-0.3c0.1-0.1,0.1-0.1,0.2-0.2
	c0,0,0.1-0.1,0.2-0.1c0,0,0,0,0.1-0.1s0.1-0.1,0.2-0.2c0.1-0.1,0.2-0.3,0.4-0.4c0,0,0-0.1,0.1-0.1l0.1-0.1c0.6-1.3,1.2-2.5,1.8-3.8
	C50.2,37.1,50.2,37.1,50.1,37.2z"/>
<path class="st7" d="M17.7,45.1c0.2,0.1,0.4,0.1,0.5,0.2c0.4,0.1,0.7,0.3,1.1,0.4c0.2,0.1,0.3,0.1,0.5,0.2l-0.4-3.1
	c-0.2-0.1-0.4-0.1-0.5-0.2c-0.2-0.1-0.5-0.2-0.7-0.2c-0.4-0.1-0.8-0.3-1.1-0.5c-0.2-0.1-0.4-0.2-0.6-0.2c-0.5-0.2-1.1-0.5-1.6-0.8
	s-0.9-0.5-1.3-0.8c-0.1-0.1-0.2-0.1-0.3-0.2c-0.4-0.3-0.8-0.5-1.1-0.8C12,39,12,39,12,39c-0.3-0.3-0.6-0.5-0.9-0.8
	c0-0.1-0.1-0.2-0.2-0.2c-0.3-0.3-0.5-0.6-0.7-0.8c0.6,1.2,1.1,2.4,1.7,3.7c0.2,0.3,0.4,0.5,0.7,0.8c0.1,0.1,0.1,0.1,0.2,0.2
	c0.2,0.3,0.5,0.5,0.8,0.8l0.1,0.1c0.3,0.3,0.7,0.5,1,0.8c0.1,0.1,0.2,0.1,0.3,0.2c0.4,0.3,0.8,0.5,1.2,0.7
	C16.7,44.6,17.2,44.9,17.7,45.1z"/>
<linearGradient id="SVGID_3_" gradientUnits="userSpaceOnUse" x1="30.2" y1="32.9109" x2="30.2" y2="35.0208" gradientTransform="matrix(1 0 0 -1 0 80)">
	<stop  offset="0" style="stop-color:#E6EDEF"/>
	<stop  offset="1" style="stop-color:#A6AEB2"/>
</linearGradient>
<path class="st8" d="M35.1,47.1L35.1,47.1L35.1,47.1L35.1,47.1z M33.4,47.4C33.4,47.4,33.4,47.3,33.4,47.4l-0.2-0.3
	c-0.1,0.1-0.2,0.2-0.3,0.3l0,0c-0.1,0-0.2,0-0.3,0c0,0,0,0,0.1-0.1c-0.1-0.1-0.2-0.2-0.3-0.3c-0.1,0.1-0.2,0.2-0.2,0.2
	c0.1,0.1,0.1,0.1,0.2,0.2c-0.1,0-0.1,0-0.2,0c0,0,0,0-0.1-0.1l0,0c0,0,0,0-0.1,0.1c-0.1,0-0.2,0-0.2,0c0.1-0.1,0.1-0.1,0.2-0.2l0,0
	c-0.1-0.1-0.1-0.1-0.2-0.2c-0.1,0.1-0.2,0.2-0.3,0.3l0.1,0.1c0,0,0,0-0.1,0s-0.1,0-0.2,0l0,0l0,0c-0.1,0-0.1,0-0.2,0l0.1-0.1
	c-0.1-0.1-0.2-0.2-0.3-0.3c-0.1,0.1-0.2,0.2-0.3,0.3c0.1,0.1,0.1,0.1,0.2,0.2c-0.1,0-0.1,0-0.2,0c0,0,0,0-0.1-0.1c0,0,0,0-0.1,0.1
	c-0.1,0-0.1,0-0.2,0l0,0c0.1-0.1,0.1-0.1,0.2-0.2c-0.1-0.1-0.2-0.2-0.3-0.2c-0.1,0.1-0.2,0.2-0.3,0.3c0.1,0.1,0.1,0.1,0.2,0.2
	c-0.1,0-0.1,0-0.2,0c0,0,0,0-0.1,0l0,0l0,0h-0.1h-0.1l0.1-0.1c-0.1-0.1-0.2-0.2-0.3-0.3c-0.1,0.1-0.1,0.1-0.2,0.2
	c0.1,0.1,0.2,0.2,0.2,0.2c-0.1,0-0.2,0-0.2,0L29,47.5l-0.1,0.1c-0.1,0-0.1,0-0.2,0c0.1-0.1,0.1-0.1,0.2-0.2
	c-0.1-0.1-0.2-0.2-0.3-0.3c-0.1,0.1-0.2,0.2-0.3,0.3l0.1,0.1c-0.1,0-0.1,0-0.2,0l0,0l0,0l0,0c-0.1,0-0.1,0-0.2,0l0.1-0.1
	c-0.1-0.1-0.2-0.2-0.3-0.3l-0.3,0.3c0,0,0,0,0.1,0.1c-0.1,0-0.1,0-0.2,0s-0.1,0-0.2,0l0,0c-0.1-0.1-0.2-0.2-0.3-0.3
	c-0.1,0.1-0.1,0.1-0.2,0.2l-0.1,0.1l0,0l0,0c-0.1,0-0.1,0-0.2,0c-0.1-0.1-0.2-0.2-0.2-0.2c-0.1,0.1-0.1,0.1-0.2,0.2
	c-0.1,0-0.1,0-0.2,0s-0.1,0-0.2,0c-0.1-0.1-0.1-0.1-0.2-0.2l-0.1,0.1v-0.2l0,0l0,0V47l0.1,0.1c0.1-0.1,0.2-0.2,0.2-0.2
	c-0.1-0.1-0.2-0.2-0.3-0.3l-0.1,0.1v-0.2c0,0,0,0,0.1-0.1c0,0,0,0-0.1-0.1v-0.2c0.1,0.1,0.1,0.1,0.2,0.2c0.1-0.1,0.2-0.2,0.3-0.3
	c-0.1-0.1-0.2-0.2-0.3-0.3c-0.1,0.1-0.1,0.1-0.2,0.2v-0.2l0.1-0.1c-0.1-0.1-0.1-0.1-0.2-0.2v-0.2c0.1,0.1,0.2,0.2,0.3,0.3
	c0.1-0.1,0.2-0.2,0.3-0.3c-0.1-0.1-0.2-0.2-0.3-0.3c-0.1,0.1-0.2,0.2-0.3,0.3V45c0.1-0.1,0.1-0.1,0.2-0.2c-0.1-0.1-0.1-0.1-0.2-0.2
	v-0.3l0,0c0.1,0,0.1,0,0.2,0l-0.1,0.1c0.1,0.1,0.2,0.2,0.2,0.2c0.1-0.1,0.2-0.2,0.3-0.3l0,0c0.1,0,0.2,0,0.2,0
	c0.1,0.1,0.2,0.2,0.3,0.3c0.1-0.1,0.1-0.1,0.2-0.2c0,0,0,0-0.1-0.1h0.1c0.1,0,0.1,0,0.2,0l0,0c0.1,0.1,0.2,0.2,0.3,0.3
	c0.1-0.1,0.2-0.2,0.3-0.3c0.1,0,0.2,0,0.3,0c0.1,0.1,0.1,0.1,0.2,0.2c0.1-0.1,0.1-0.1,0.2-0.2c0.1,0,0.3,0,0.4,0
	c0.1,0.1,0.1,0.1,0.2,0.2l0.1-0.1c0.1,0,0.1,0,0.2,0c-0.1,0.1-0.2,0.2-0.2,0.2c0.1,0.1,0.2,0.2,0.3,0.3c0.1-0.1,0.2-0.2,0.3-0.3
	c-0.1-0.1-0.1-0.1-0.2-0.2c0.1,0,0.2,0,0.2,0l0.1,0.1l0.1-0.1c0.1,0,0.1,0,0.2,0c-0.1,0.1-0.1,0.1-0.2,0.2c0.1,0.1,0.2,0.2,0.3,0.3
	l0.2-0.2c-0.1-0.1-0.2-0.2-0.2-0.2l0,0c0.1,0,0.1,0,0.2,0l0.1,0.1l0.1-0.1c0.1,0,0.1,0,0.2,0L30,44.8c0.1,0.1,0.2,0.2,0.3,0.3
	c0.1-0.1,0.2-0.2,0.3-0.3l-0.2-0.2c0.1,0,0.1,0,0.2,0l0.1,0.1l0.1-0.1c0.1,0,0.1,0,0.2,0c-0.1,0.1-0.1,0.2-0.2,0.2l0.3,0.3
	c0.1-0.1,0.2-0.2,0.3-0.3c-0.1-0.1-0.2-0.2-0.2-0.2c0.1,0,0.1,0,0.2,0l0.1,0.1l0.1-0.1l0,0c0.1,0,0.1,0,0.2,0
	c-0.1,0.1-0.2,0.2-0.3,0.3c0.1,0.1,0.2,0.2,0.3,0.3c0.1-0.1,0.2-0.2,0.3-0.3c-0.1-0.1-0.2-0.2-0.3-0.3l0,0c0.1,0,0.1,0,0.2,0
	c0.1,0.1,0.1,0.1,0.2,0.2c0.1-0.1,0.1-0.1,0.2-0.2c0.1,0,0.2,0,0.4,0c0.1,0.1,0.1,0.1,0.2,0.2c0.1-0.1,0.1-0.1,0.2-0.2
	c0.1,0,0.2,0,0.3,0c0.1,0.1,0.2,0.2,0.3,0.3c0.1-0.1,0.2-0.2,0.3-0.3l0,0h0.1c0.1,0,0.2,0,0.2,0l-0.1,0.1c0.1,0.1,0.1,0.1,0.2,0.2
	c0.1-0.1,0.2-0.2,0.3-0.3c0,0,0,0-0.1-0.1l0,0c0.1,0,0.2,0,0.4,0L35,44.6c0.1,0.1,0.2,0.2,0.3,0.3v0.4l-0.1,0.1l0.1,0.1v0.2
	c-0.1-0.1-0.1-0.1-0.2-0.2c-0.1,0.1-0.2,0.2-0.3,0.3c0.1,0.1,0.2,0.2,0.3,0.3c0.1-0.1,0.1-0.1,0.2-0.2l0,0v0.2l-0.1,0.1
	c0,0,0,0,0.1,0.1v0.2c-0.1-0.1-0.1-0.1-0.2-0.2c-0.1,0.1-0.2,0.2-0.3,0.3c0.1,0.1,0.2,0.2,0.2,0.3l0.1-0.1V47l0,0l0,0v0.2L35,47.1
	c-0.1,0.1-0.2,0.2-0.3,0.3c0.1,0.1,0.1,0.2,0.2,0.2c-0.1,0-0.1,0-0.2,0l-0.1-0.1c-0.1,0.1-0.1,0.1-0.2,0.2c-0.1,0-0.2,0-0.3,0
	c-0.1-0.1-0.1-0.1-0.2-0.2c-0.1,0.1-0.2,0.2-0.3,0.3l0,0C33.6,47.4,33.5,47.4,33.4,47.4z M34.2,46.6c-0.1-0.1-0.2-0.2-0.3-0.3
	c-0.1,0.1-0.2,0.2-0.3,0.3c0.1,0.1,0.2,0.2,0.3,0.3C34,46.8,34.1,46.7,34.2,46.6z M26.2,45.5c-0.1,0.1-0.2,0.2-0.3,0.3
	c0.1,0.1,0.2,0.2,0.3,0.3c0.1-0.1,0.2-0.2,0.3-0.3C26.4,45.7,26.3,45.6,26.2,45.5z M26.6,45.6c0.1-0.1,0.2-0.2,0.3-0.3
	c-0.1-0.1-0.2-0.2-0.3-0.3c-0.1,0.1-0.2,0.2-0.3,0.3C26.4,45.5,26.5,45.6,26.6,45.6z M26.3,46.2c0.1,0.1,0.2,0.2,0.3,0.3
	c0.1-0.1,0.2-0.2,0.3-0.3c-0.1-0.1-0.2-0.2-0.3-0.3C26.5,46,26.4,46.1,26.3,46.2z M27,46c0.1-0.1,0.2-0.2,0.3-0.3
	c-0.1-0.1-0.2-0.2-0.3-0.3c-0.1,0.1-0.2,0.2-0.3,0.3C26.8,45.8,26.9,45.9,27,46z M27.4,45.6c0.1-0.1,0.1-0.1,0.2-0.2
	c-0.1-0.1-0.2-0.2-0.3-0.3c-0.1,0.1-0.1,0.1-0.2,0.2C27.2,45.4,27.3,45.5,27.4,45.6z M27.1,46.1c0.1,0.1,0.2,0.2,0.3,0.3
	c0.1-0.1,0.2-0.2,0.3-0.3c-0.1-0.1-0.2-0.2-0.3-0.3C27.3,45.9,27.2,46,27.1,46.1z M27.8,46c0.1-0.1,0.1-0.1,0.2-0.2
	c-0.1-0.1-0.2-0.2-0.3-0.3c-0.1,0.1-0.1,0.1-0.2,0.2C27.6,45.8,27.7,45.9,27.8,46z M28.1,45.7c0.1-0.1,0.2-0.2,0.3-0.3
	c-0.1-0.1-0.2-0.2-0.3-0.3c-0.1,0.1-0.2,0.2-0.3,0.3C27.9,45.5,28,45.6,28.1,45.7z M27.9,46.1c0.1,0.1,0.2,0.2,0.3,0.3l0.2-0.2
	c-0.1-0.1-0.2-0.2-0.3-0.3C28,46,27.9,46,27.9,46.1z M28.5,46.1l0.3-0.3c-0.1-0.1-0.2-0.2-0.3-0.3c-0.1,0.1-0.2,0.2-0.3,0.3
	C28.3,45.9,28.4,46,28.5,46.1z M28.6,46.2c0.1,0.1,0.2,0.2,0.3,0.3c0.1-0.1,0.2-0.2,0.3-0.3c-0.1-0.1-0.2-0.2-0.3-0.3L28.6,46.2z
	 M29.3,46.1c0.1-0.1,0.2-0.2,0.3-0.3c-0.1-0.1-0.2-0.2-0.3-0.3L29,45.8C29.1,45.9,29.2,46,29.3,46.1z M29.4,46.2
	c0.1,0.1,0.2,0.2,0.3,0.3c0.1-0.1,0.2-0.2,0.3-0.3c-0.1-0.1-0.2-0.2-0.3-0.3C29.6,46,29.5,46.1,29.4,46.2z M30,46.1
	c0.1-0.1,0.2-0.2,0.3-0.3c-0.1-0.1-0.2-0.2-0.3-0.3c-0.1,0.1-0.2,0.2-0.3,0.3C29.8,45.9,29.9,46,30,46.1z M30.1,46.2
	c0.1,0.1,0.2,0.2,0.3,0.3c0.1-0.1,0.2-0.2,0.3-0.3c-0.1-0.1-0.2-0.2-0.3-0.3C30.3,46,30.2,46.1,30.1,46.2z M30.9,46.1
	c0.1-0.1,0.2-0.2,0.2-0.2c-0.1-0.1-0.2-0.2-0.3-0.3c-0.1,0.1-0.2,0.2-0.2,0.2C30.7,45.9,30.8,46,30.9,46.1z M31,46.2
	c0.1,0.1,0.2,0.2,0.2,0.2c0.1-0.1,0.2-0.2,0.2-0.2c-0.1-0.1-0.2-0.2-0.2-0.2C31.1,46,31,46.1,31,46.2z M31.6,46.1
	c0.1-0.1,0.2-0.2,0.3-0.3l-0.2-0.2c-0.1,0.1-0.2,0.2-0.3,0.3C31.4,45.9,31.5,46,31.6,46.1z M31.7,46.2c0.1,0.1,0.2,0.2,0.3,0.3
	c0.1-0.1,0.2-0.2,0.3-0.3L32,45.9C31.9,46,31.8,46.1,31.7,46.2z M32.4,46.1c0.1-0.1,0.2-0.2,0.3-0.3c-0.1-0.1-0.2-0.2-0.3-0.3
	c-0.1,0.1-0.2,0.2-0.3,0.3L32.4,46.1z M32.8,45.7c0.1-0.1,0.2-0.2,0.3-0.3c-0.1-0.1-0.2-0.2-0.3-0.3c-0.1,0.1-0.2,0.2-0.2,0.2l0,0
	C32.6,45.5,32.7,45.6,32.8,45.7z M32.5,46.2l0.2,0.2c0.1-0.1,0.2-0.2,0.3-0.3c-0.1-0.1-0.1-0.1-0.2-0.2C32.7,46,32.6,46.1,32.5,46.2
	z M33.1,46c0.1-0.1,0.2-0.2,0.3-0.3c-0.1-0.1-0.1-0.1-0.2-0.2c-0.1,0.1-0.2,0.2-0.3,0.3C32.9,45.9,33,46,33.1,46z M34.6,45.4
	c-0.1-0.1-0.2-0.2-0.3-0.3c-0.1,0.1-0.2,0.2-0.2,0.3c0.1,0.1,0.2,0.2,0.3,0.3C34.4,45.6,34.5,45.5,34.6,45.4z M34,46.2
	c0.1,0.1,0.2,0.2,0.3,0.3c0.1-0.1,0.2-0.2,0.3-0.3c-0.1-0.1-0.2-0.2-0.3-0.3C34.2,46,34.1,46.1,34,46.2z M33.9,45.5
	c-0.1,0.1-0.2,0.2-0.3,0.3c0.1,0.1,0.2,0.2,0.3,0.3c0.1-0.1,0.2-0.2,0.3-0.3C34.1,45.7,34,45.6,33.9,45.5z M33.8,45.3
	c-0.1-0.1-0.1-0.1-0.2-0.2c-0.1,0.1-0.2,0.2-0.3,0.3c0.1,0.1,0.1,0.1,0.2,0.2C33.6,45.5,33.7,45.4,33.8,45.3z M33.2,46.1
	c0.1,0.1,0.2,0.2,0.3,0.3c0.1-0.1,0.2-0.2,0.3-0.3c-0.1-0.1-0.2-0.2-0.3-0.3C33.4,46,33.3,46.1,33.2,46.1z M34.5,46.9
	c-0.1-0.1-0.2-0.2-0.2-0.2c-0.1,0.1-0.2,0.2-0.3,0.3c0.1,0.1,0.2,0.2,0.2,0.2C34.4,47.1,34.5,47,34.5,46.9z M34.7,46.3
	c-0.1,0.1-0.2,0.2-0.3,0.3c0.1,0.1,0.2,0.2,0.2,0.2c0.1-0.1,0.2-0.2,0.3-0.3C34.9,46.4,34.8,46.4,34.7,46.3z M34.7,45.5
	c-0.1,0.1-0.2,0.2-0.3,0.3c0.1,0.1,0.2,0.2,0.3,0.3c0.1-0.1,0.2-0.2,0.3-0.3C34.9,45.7,34.8,45.6,34.7,45.5z M34.7,44.6
	c0.1,0.1,0.2,0.2,0.3,0.3c0.1-0.1,0.2-0.2,0.3-0.3c-0.1-0.1-0.2-0.2-0.3-0.3C34.9,44.4,34.8,44.5,34.7,44.6z M34.3,45
	c0.1,0.1,0.2,0.2,0.3,0.3c0.1-0.1,0.2-0.2,0.3-0.3c-0.1-0.1-0.2-0.2-0.3-0.3C34.5,44.8,34.4,44.9,34.3,45z M34,44.7
	c0.1,0.1,0.1,0.1,0.2,0.2c0.1-0.1,0.2-0.2,0.3-0.3c-0.1-0.1-0.1-0.1-0.2-0.2C34.2,44.5,34.1,44.6,34,44.7z M33.7,45
	c0.1,0.1,0.1,0.1,0.2,0.2c0.1-0.1,0.2-0.2,0.2-0.3c-0.1-0.1-0.1-0.1-0.2-0.2C33.8,44.9,33.7,44.9,33.7,45z M33.2,44.6L33.2,44.6
	c0.1,0.1,0.2,0.2,0.3,0.3c0.1-0.1,0.2-0.2,0.2-0.3c-0.1-0.1-0.2-0.2-0.3-0.3C33.4,44.4,33.3,44.5,33.2,44.6z M32.8,45
	c0.1,0.1,0.2,0.2,0.3,0.3c0.1-0.1,0.2-0.2,0.3-0.3c-0.1-0.1-0.2-0.2-0.3-0.3l0,0C33,44.8,32.9,44.9,32.8,45z M32.5,44.7
	c0.1,0.1,0.2,0.2,0.2,0.2c0.1-0.1,0.2-0.2,0.3-0.3c-0.1-0.1-0.2-0.2-0.2-0.2C32.7,44.5,32.6,44.6,32.5,44.7z M32.1,45
	c0.1,0.1,0.2,0.2,0.2,0.2l0,0c0.1-0.1,0.2-0.2,0.2-0.2c-0.1-0.1-0.2-0.2-0.2-0.2C32.3,44.9,32.2,45,32.1,45z M31.7,45.4l0.2,0.2
	c0.1-0.1,0.2-0.2,0.3-0.3c-0.1-0.1-0.2-0.2-0.2-0.2C31.9,45.2,31.8,45.3,31.7,45.4z M31.3,45l0.3,0.3c0.1-0.1,0.2-0.2,0.3-0.3
	c-0.1-0.1-0.2-0.2-0.3-0.3C31.5,44.8,31.4,44.9,31.3,45z M30.9,45.4c0.1,0.1,0.2,0.2,0.3,0.3c0.1-0.1,0.2-0.2,0.3-0.3l-0.3-0.3
	C31.1,45.2,31,45.3,30.9,45.4z M30.5,45.1c0.1,0.1,0.1,0.1,0.2,0.2l0.1,0.1c0.1-0.1,0.2-0.2,0.3-0.3l-0.3-0.3
	C30.7,44.8,30.6,45,30.5,45.1z M30.4,45.2c-0.1,0.1-0.2,0.2-0.2,0.2c0.1,0.1,0.2,0.2,0.3,0.3c0.1-0.1,0.2-0.2,0.2-0.2l-0.1-0.1
	C30.5,45.3,30.5,45.2,30.4,45.2z M29.8,45c0.1,0.1,0.2,0.2,0.3,0.3c0.1-0.1,0.2-0.2,0.2-0.2c-0.1-0.1-0.2-0.2-0.3-0.3L29.8,45z
	 M29.7,45.1l-0.3,0.3c0.1,0.1,0.2,0.2,0.3,0.3c0.1-0.1,0.2-0.2,0.3-0.3C29.9,45.3,29.8,45.2,29.7,45.1z M29,45
	c0.1,0.1,0.2,0.2,0.3,0.3l0.3-0.3c-0.1-0.1-0.2-0.2-0.3-0.3C29.2,44.8,29.1,44.9,29,45z M28.9,45.1c-0.1,0.1-0.2,0.2-0.3,0.3
	c0.1,0.1,0.2,0.2,0.3,0.3l0.3-0.3C29,45.3,29,45.2,28.9,45.1z M28.5,44.7c-0.1,0.1-0.2,0.2-0.3,0.3c0.1,0.1,0.2,0.2,0.3,0.3
	c0.1-0.1,0.2-0.2,0.3-0.3C28.7,44.9,28.6,44.8,28.5,44.7z M27.8,44.6c0.1,0.1,0.2,0.2,0.3,0.3c0.1-0.1,0.2-0.2,0.3-0.3
	c-0.1-0.1-0.2-0.2-0.3-0.3C28,44.4,27.9,44.5,27.8,44.6z M27.7,44.7c-0.1,0.1-0.2,0.2-0.3,0.3c0.1,0.1,0.2,0.2,0.3,0.3
	c0.1-0.1,0.2-0.2,0.3-0.3C27.9,44.9,27.8,44.8,27.7,44.7z M27.1,44.7c0.1,0.1,0.2,0.2,0.3,0.2c0.1-0.1,0.2-0.2,0.3-0.3
	c-0.1-0.1-0.2-0.2-0.2-0.3C27.2,44.5,27.2,44.6,27.1,44.7z M27,44.8c-0.1,0.1-0.1,0.1-0.2,0.2c0.1,0.1,0.2,0.2,0.3,0.3
	c0.1-0.1,0.1-0.1,0.2-0.2C27.1,44.9,27,44.9,27,44.8z M26.4,44.6c0.1,0.1,0.2,0.2,0.3,0.3c0.1-0.1,0.1-0.1,0.2-0.2
	c-0.1-0.1-0.2-0.2-0.3-0.3C26.5,44.5,26.4,44.5,26.4,44.6z M26.3,44.7c-0.1,0.1-0.2,0.2-0.3,0.3c0.1,0.1,0.2,0.2,0.3,0.3
	c0.1-0.1,0.2-0.2,0.3-0.3C26.4,44.9,26.3,44.8,26.3,44.7z M25.8,44.9c0.1-0.1,0.2-0.2,0.3-0.3c-0.1-0.1-0.2-0.2-0.3-0.3
	c-0.1,0.1-0.2,0.2-0.3,0.3C25.6,44.7,25.7,44.8,25.8,44.9z M25.8,45.7c0.1-0.1,0.2-0.2,0.3-0.3c-0.1-0.1-0.2-0.2-0.3-0.3
	c-0.1,0.1-0.2,0.2-0.3,0.3C25.6,45.5,25.7,45.6,25.8,45.7z M25.8,46.4c0.1-0.1,0.2-0.2,0.3-0.3c-0.1-0.1-0.2-0.2-0.3-0.3
	c-0.1,0.1-0.2,0.2-0.3,0.3C25.6,46.3,25.7,46.3,25.8,46.4z M26.1,46.9c-0.1-0.1-0.2-0.2-0.3-0.3c-0.1,0.1-0.2,0.2-0.2,0.2
	c0.1,0.1,0.2,0.2,0.3,0.3C25.9,47.1,26,47,26.1,46.9z M26.2,46.8c0.1-0.1,0.2-0.2,0.2-0.2l0,0c-0.1-0.1-0.2-0.2-0.3-0.3
	c-0.1,0.1-0.2,0.2-0.3,0.3C26,46.6,26.1,46.7,26.2,46.8z M26.8,46.9c-0.1-0.1-0.2-0.2-0.3-0.3l0,0c-0.1,0.1-0.2,0.2-0.2,0.2
	c0.1,0.1,0.2,0.2,0.3,0.3l0.1-0.1C26.7,47.1,26.8,47,26.8,46.9z M26.9,46.8c0.1-0.1,0.2-0.2,0.3-0.3c-0.1-0.1-0.2-0.2-0.3-0.3
	c-0.1,0.1-0.2,0.2-0.3,0.3C26.8,46.6,26.9,46.7,26.9,46.8z M27.6,46.9c-0.1-0.1-0.2-0.2-0.3-0.3c-0.1,0.1-0.2,0.2-0.3,0.3
	c0.1,0.1,0.2,0.2,0.3,0.3L27.6,46.9z M27.8,46.8l0.3-0.3c-0.1-0.1-0.2-0.2-0.3-0.3c-0.1,0.1-0.2,0.2-0.3,0.3
	C27.6,46.6,27.7,46.7,27.8,46.8z M28.5,46.9c-0.1-0.1-0.2-0.2-0.3-0.3l-0.3,0.3c0.1,0.1,0.2,0.2,0.3,0.3
	C28.3,47.1,28.4,47,28.5,46.9z M28.8,46.6c-0.1-0.1-0.2-0.2-0.3-0.3l-0.2,0.2c0.1,0.1,0.2,0.2,0.3,0.3
	C28.6,46.7,28.7,46.7,28.8,46.6z M29.2,47c-0.1-0.1-0.2-0.2-0.3-0.3c-0.1,0.1-0.1,0.1-0.2,0.2c0.1,0.1,0.2,0.2,0.3,0.3
	C29,47.1,29.1,47,29.2,47z M29.5,46.6c-0.1-0.1-0.2-0.2-0.3-0.3c-0.1,0.1-0.2,0.2-0.3,0.3c0.1,0.1,0.2,0.2,0.3,0.3
	C29.4,46.8,29.4,46.7,29.5,46.6z M30,47c-0.1-0.1-0.2-0.2-0.3-0.3c-0.1,0.1-0.2,0.2-0.3,0.3c0.1,0.1,0.2,0.2,0.3,0.3
	C29.8,47.2,29.9,47.1,30,47z M30.3,46.6c-0.1-0.1-0.2-0.2-0.3-0.3c-0.1,0.1-0.2,0.2-0.3,0.3c0.1,0.1,0.2,0.2,0.3,0.3
	C30.2,46.8,30.2,46.7,30.3,46.6z M30.7,47c-0.1-0.1-0.2-0.2-0.2-0.2c-0.1,0.1-0.2,0.2-0.3,0.3c0.1,0.1,0.2,0.2,0.3,0.2
	C30.5,47.2,30.6,47.1,30.7,47z M31.1,46.6c-0.1-0.1-0.2-0.2-0.2-0.2c-0.1,0.1-0.2,0.2-0.3,0.3c0.1,0.1,0.2,0.2,0.2,0.2
	C30.9,46.8,31,46.7,31.1,46.6z M31.5,47c-0.1-0.1-0.2-0.2-0.3-0.3c-0.1,0.1-0.2,0.2-0.3,0.3c0.1,0.1,0.2,0.2,0.3,0.3
	C31.3,47.2,31.4,47.1,31.5,47z M31.9,46.6c-0.1-0.1-0.2-0.2-0.3-0.3c-0.1,0.1-0.2,0.2-0.2,0.2c0.1,0.1,0.2,0.2,0.3,0.3
	C31.7,46.8,31.8,46.7,31.9,46.6z M32.2,47c-0.1-0.1-0.1-0.1-0.2-0.2c-0.1,0.1-0.2,0.2-0.2,0.2c0.1,0.1,0.1,0.1,0.2,0.2
	C32,47.1,32.1,47,32.2,47z M32.6,46.5l-0.2-0.2c-0.1,0.1-0.2,0.2-0.3,0.3c0.1,0.1,0.1,0.1,0.2,0.2C32.4,46.7,32.5,46.6,32.6,46.5z
	 M33.1,47l-0.3-0.3c-0.1,0.1-0.2,0.2-0.3,0.3c0.1,0.1,0.2,0.2,0.3,0.3C32.8,47.2,32.9,47.1,33.1,47z M33.4,46.6
	c-0.1-0.1-0.2-0.2-0.3-0.3c-0.1,0.1-0.2,0.2-0.3,0.3l0.3,0.3C33.2,46.8,33.3,46.7,33.4,46.6z M33.5,47.2c0.1-0.1,0.2-0.2,0.3-0.3
	c-0.1-0.1-0.2-0.2-0.3-0.3c-0.1,0.1-0.2,0.2-0.3,0.3L33.5,47.2z"/>
<linearGradient id="SVGID_4_" gradientUnits="userSpaceOnUse" x1="45.5" y1="36.4812" x2="45.5" y2="39.2739" gradientTransform="matrix(1 0 0 -1 0 80)">
	<stop  offset="0" style="stop-color:#E6EDEF"/>
	<stop  offset="1" style="stop-color:#A6AEB2"/>
</linearGradient>
<path class="st9" d="M50.2,37.2C50.2,37.2,50.2,37.3,50.2,37.2C50.1,37.3,50.1,37.3,50.2,37.2C50.1,37.3,50.1,37.2,50.2,37.2
	C50.1,37.2,50.1,37.2,50.2,37.2L50.2,37.2z M49.9,37.6L49.9,37.6c0,0,0,0.2-0.1,0.3c-0.1,0.1-0.1,0.1-0.2,0.2l0.1,0.1
	c0,0,0,0.1-0.1,0.1l-0.1-0.1c-0.1,0.1-0.2,0.2-0.3,0.3c0.1,0.1,0.1,0.1,0.2,0.2c0,0,0,0.1-0.1,0.1c-0.1-0.1-0.2-0.2-0.3-0.3
	c-0.1,0.1-0.2,0.2-0.3,0.3c0.1,0.1,0.2,0.2,0.3,0.3c0.1-0.1,0.2-0.2,0.3-0.3c-0.1,0.2-0.2,0.3-0.2,0.5l0,0c-0.1,0.1-0.2,0.2-0.3,0.3
	l0.1,0.1c0,0,0,0.1-0.1,0.1c-0.1-0.1-0.1-0.1-0.2-0.2c-0.1,0.1-0.2,0.2-0.3,0.3c0.1,0.1,0.2,0.2,0.3,0.3l0.1-0.1
	c-0.1,0.1-0.1,0.3-0.2,0.4l-0.1,0.1l0,0c0,0,0,0.1-0.1,0.1l0,0c0,0,0,0-0.1-0.1c-0.1,0.1-0.2,0.2-0.3,0.3L48,41l-0.1,0.1L47.8,41
	c-0.1,0.1-0.2,0.2-0.3,0.3l0.1,0.1l0,0l-0.1,0.1l-0.1-0.1c-0.1,0.1-0.2,0.2-0.3,0.3l0.1,0.1l0,0l-0.1,0.1L47,41.8
	c-0.1,0.1-0.2,0.2-0.2,0.2l0.1,0.1l-0.1,0.1l-0.1-0.1c-0.1,0.1-0.2,0.2-0.3,0.3l0.1,0.1l-0.1,0.1c0,0,0,0-0.1-0.1
	c-0.1,0.1-0.2,0.2-0.3,0.3l0,0l0,0l-0.1,0.1l0,0L45.8,43l-0.1,0.1c-0.2,0.1-0.3,0.2-0.5,0.4c-0.1,0-0.1,0.1-0.2,0.1
	c-0.1-0.1-0.2-0.2-0.2-0.2c-0.1,0.1-0.2,0.2-0.2,0.2c0.1,0.1,0.1,0.1,0.2,0.2l0,0c0,0-0.1,0-0.1,0.1l-0.1-0.1
	c-0.1,0.1-0.2,0.2-0.3,0.3c0,0,0,0,0.1,0.1l-0.1,0.1l0,0l-0.1,0.1c-0.1,0.1-0.2,0.1-0.4,0.2c0,0-0.1,0-0.1,0.1l0.1-0.1
	c-0.1-0.1-0.2-0.2-0.3-0.3c-0.1,0.1-0.2,0.2-0.3,0.3c0.1,0.1,0.1,0.1,0.2,0.2c0,0-0.1,0-0.1,0.1c-0.1-0.1-0.1-0.1-0.2-0.2
	c-0.1,0.1-0.1,0.1-0.2,0.2L43,45c0,0-0.1,0-0.1,0.1c0,0,0,0-0.1-0.1l-0.1,0.1c-0.1,0-0.2,0.1-0.3,0.1h-0.1l0,0
	c-0.1-0.1-0.2-0.2-0.3-0.3c-0.1,0.1-0.2,0.2-0.3,0.3c0.1,0.1,0.1,0.1,0.2,0.2c-0.1,0-0.1,0-0.2,0.1c-0.1-0.1-0.1-0.1-0.2-0.2
	c-0.1,0.1-0.2,0.2-0.3,0.3l0,0c-0.1,0.1-0.3,0.1-0.4,0.2l0,0c0.1-0.1,0.1-0.1,0.2-0.2l-0.1-0.1v-0.2c0.1,0.1,0.1,0.1,0.2,0.2
	c0.1-0.1,0.2-0.2,0.3-0.3c-0.1-0.1-0.1-0.1-0.2-0.2c-0.1,0.1-0.2,0.2-0.2,0.2v-0.3l0.1-0.1L41,44.7v-0.2c0.1,0.1,0.1,0.1,0.2,0.2
	c0.1-0.1,0.2-0.2,0.3-0.3c-0.1-0.1-0.2-0.2-0.3-0.3l-0.1,0.1l0.1-0.4c0,0,0,0,0.1,0.1c0.1-0.1,0.2-0.2,0.3-0.3
	c-0.1-0.1-0.2-0.2-0.2-0.2s0,0-0.1,0.1v-0.3l0,0c0.1-0.1,0.1-0.1,0.2-0.2c-0.1-0.1-0.1-0.1-0.2-0.2v-0.2c0.1,0.1,0.2,0.2,0.3,0.3
	c0.1-0.1,0.2-0.2,0.3-0.3l-0.1-0.1h0.1c0,0,0,0,0.1,0c0,0,0,0,0.1,0.1l0.1-0.1l0,0c0.1,0,0.3-0.1,0.4-0.1c0.1,0.1,0.2,0.2,0.2,0.2
	c0.1-0.1,0.2-0.2,0.3-0.3L43,42.2c0.1,0,0.1,0,0.2-0.1c0,0,0,0,0.1,0.1l0.1-0.1c0.1,0,0.1,0,0.2-0.1c0.1,0,0.1,0,0.2-0.1l0,0
	c0.1,0.1,0.2,0.2,0.3,0.3c0.1-0.1,0.2-0.2,0.3-0.3l-0.2-0.2c0.1,0,0.1,0,0.1-0.1l0.2,0.2c0.1-0.1,0.2-0.2,0.3-0.3c0,0,0,0-0.1-0.1
	c0,0,0.1,0,0.1-0.1l0,0c0,0,0,0,0.1-0.1c0.2-0.1,0.3-0.1,0.5-0.2c0.1,0.1,0.1,0.1,0.2,0.2c0.1-0.1,0.2-0.2,0.3-0.3l-0.1-0.1l0.1-0.1
	l0.1,0.1c0.1-0.1,0.2-0.2,0.2-0.2l0,0c0.1-0.1,0.3-0.2,0.4-0.2c0.1,0,0.2-0.1,0.2-0.1l0,0c0.1,0.1,0.2,0.2,0.3,0.3
	c0.1-0.1,0.1-0.1,0.2-0.2l0.1-0.1c-0.1-0.1-0.2-0.2-0.2-0.2l0.1-0.1c0.1,0.1,0.1,0.1,0.2,0.2c0.1-0.1,0.2-0.2,0.3-0.3
	c-0.1-0.1-0.1-0.1-0.2-0.2l0,0c0,0,0.1,0,0.1-0.1c0.1,0.1,0.1,0.1,0.2,0.2c0.1-0.1,0.2-0.2,0.2-0.2L48,39.5l0,0l0.1-0.1l0.1,0.1
	c0.1-0.1,0.2-0.2,0.3-0.3c0,0,0,0-0.1-0.1l0.1-0.1l0,0c0,0,0,0,0.1,0.1c0.1-0.1,0.2-0.2,0.3-0.3l0,0l0,0l0.1-0.1l0,0
	c0.1-0.1,0.2-0.2,0.3-0.3l0,0l0.1-0.1l0,0c0.1-0.1,0.2-0.2,0.3-0.3l0,0l0.1-0.1l0,0c0.1-0.1,0.2-0.2,0.3-0.3c0,0,0,0-0.1-0.1
	C49.8,37.6,49.8,37.6,49.9,37.6L49.9,37.6z M47.7,40c0.1,0.1,0.2,0.2,0.3,0.3c0.1-0.1,0.2-0.2,0.2-0.2c-0.1-0.1-0.2-0.2-0.3-0.3
	C47.9,39.9,47.8,40,47.7,40z M47.3,40.4c0.1,0.1,0.2,0.2,0.3,0.3c0.1-0.1,0.2-0.2,0.3-0.3c-0.1-0.1-0.2-0.2-0.3-0.3
	C47.5,40.2,47.4,40.3,47.3,40.4z M46.9,40.8c0.1,0.1,0.2,0.2,0.3,0.3c0.1-0.1,0.2-0.2,0.3-0.3c-0.1-0.1-0.2-0.2-0.3-0.3l-0.1,0.1
	C47.1,40.7,47,40.8,46.9,40.8z M46.8,40.9c-0.1,0.1-0.2,0.2-0.3,0.3c0.1,0.1,0.2,0.2,0.3,0.3c0.1-0.1,0.2-0.2,0.3-0.3
	C47,41.1,46.9,41,46.8,40.9z M41.8,43.6c-0.1,0.1-0.1,0.1-0.2,0.2c0.1,0.1,0.2,0.2,0.3,0.3C42,44,42,44,42.1,43.9
	C42,43.8,41.9,43.7,41.8,43.6z M42.2,43.8c0.1-0.1,0.2-0.2,0.3-0.3c-0.1-0.1-0.2-0.2-0.3-0.3c-0.1,0.1-0.2,0.2-0.3,0.3
	C42,43.6,42.1,43.7,42.2,43.8z M42,44.3c0.1,0.1,0.1,0.1,0.2,0.2c0.1-0.1,0.1-0.1,0.2-0.2c-0.1-0.1-0.1-0.1-0.2-0.2
	C42.1,44.1,42,44.2,42,44.3z M42.5,44.2c0.1-0.1,0.2-0.2,0.3-0.3c-0.1-0.1-0.1-0.1-0.2-0.2c-0.1,0.1-0.2,0.2-0.3,0.3
	C42.4,44,42.4,44.1,42.5,44.2z M42.9,43.8c0.1-0.1,0.2-0.2,0.3-0.3c-0.1-0.1-0.1-0.1-0.2-0.2c-0.1,0.1-0.2,0.2-0.3,0.3
	C42.8,43.6,42.8,43.7,42.9,43.8z M43.3,43.4c0.1-0.1,0.2-0.2,0.3-0.3c-0.1-0.1-0.1-0.1-0.2-0.2c-0.1,0.1-0.2,0.2-0.3,0.3
	C43.2,43.2,43.2,43.3,43.3,43.4z M43.4,43.5c0.1,0.1,0.2,0.2,0.3,0.3c0.1-0.1,0.2-0.2,0.3-0.3c-0.1-0.1-0.2-0.2-0.3-0.3
	C43.6,43.3,43.5,43.4,43.4,43.5z M44.1,43.4c0.1-0.1,0.2-0.2,0.2-0.2c-0.1-0.1-0.2-0.2-0.3-0.3c-0.1,0.1-0.2,0.2-0.2,0.2
	C43.9,43.2,44,43.3,44.1,43.4z M44.5,43c0.1-0.1,0.2-0.2,0.3-0.3l-0.3-0.3c-0.1,0.1-0.2,0.2-0.3,0.3C44.3,42.8,44.4,42.9,44.5,43z
	 M44.9,42.6c0.1-0.1,0.2-0.2,0.3-0.3c-0.1-0.1-0.2-0.2-0.3-0.3c-0.1,0.1-0.2,0.2-0.3,0.3L44.9,42.6z M45,42.7l0.3,0.3
	c0.1-0.1,0.2-0.2,0.3-0.3c-0.1-0.1-0.2-0.2-0.3-0.3C45.2,42.5,45.1,42.6,45,42.7z M45.7,42.6c0.1-0.1,0.2-0.2,0.3-0.3
	c-0.1-0.1-0.2-0.2-0.3-0.3c-0.1,0.1-0.2,0.2-0.3,0.3C45.5,42.4,45.6,42.5,45.7,42.6z M46,42.2c0.1-0.1,0.2-0.2,0.3-0.3
	c-0.1-0.1-0.2-0.2-0.3-0.3c-0.1,0.1-0.2,0.2-0.3,0.3C45.9,42.1,45.9,42.1,46,42.2z M46.5,41.8c0.1-0.1,0.2-0.2,0.2-0.2
	c-0.1-0.1-0.2-0.2-0.3-0.3c-0.1,0.1-0.2,0.2-0.2,0.2C46.3,41.6,46.4,41.7,46.5,41.8z M46.1,40.8c0.1,0.1,0.2,0.2,0.3,0.3
	c0.1-0.1,0.2-0.2,0.3-0.3c-0.1-0.1-0.2-0.2-0.3-0.3C46.3,40.6,46.2,40.7,46.1,40.8z M45.8,41.1c0.1,0.1,0.2,0.2,0.3,0.3
	c0.1-0.1,0.2-0.2,0.2-0.2c-0.1-0.1-0.2-0.2-0.3-0.3C45.9,41,45.9,41.1,45.8,41.1z M45.4,41.6c0.1,0.1,0.2,0.2,0.3,0.3
	c0.1-0.1,0.2-0.2,0.3-0.3c-0.1-0.1-0.2-0.2-0.3-0.3C45.6,41.4,45.5,41.5,45.4,41.6z M45.2,41.7c-0.1,0.1-0.2,0.2-0.3,0.3
	c0.1,0.1,0.2,0.2,0.3,0.3c0.1-0.1,0.2-0.2,0.3-0.3C45.4,41.9,45.3,41.8,45.2,41.7z M44.6,41.6c0.1,0.1,0.1,0.1,0.2,0.2
	c0.1-0.1,0.2-0.2,0.3-0.3c-0.1-0.1-0.1-0.1-0.2-0.2C44.8,41.4,44.7,41.5,44.6,41.6z M44.3,42l0.2,0.2c0.1-0.1,0.2-0.2,0.3-0.3
	c-0.1-0.1-0.1-0.1-0.2-0.2C44.4,41.8,44.3,41.9,44.3,42z M43.8,42.4c0.1,0.1,0.1,0.1,0.2,0.2c0.1-0.1,0.2-0.2,0.3-0.3l-0.2-0.2
	C44,42.2,43.9,42.3,43.8,42.4z M43.7,42.5c-0.1,0.1-0.1,0.1-0.2,0.2l0,0c0.1,0.1,0.1,0.1,0.2,0.2c0.1-0.1,0.2-0.2,0.2-0.2
	S43.8,42.6,43.7,42.5z M43.1,42.3c0.1,0.1,0.2,0.2,0.3,0.3l0,0c0.1-0.1,0.1-0.1,0.2-0.2c-0.1-0.1-0.2-0.2-0.3-0.3
	C43.2,42.2,43.2,42.3,43.1,42.3z M42.7,42.7c0.1,0.1,0.2,0.2,0.3,0.3c0.1-0.1,0.2-0.2,0.3-0.3c-0.1-0.1-0.2-0.2-0.3-0.3
	C42.9,42.5,42.8,42.6,42.7,42.7z M42.6,42.8c-0.1,0.1-0.2,0.2-0.3,0.3c0.1,0.1,0.2,0.2,0.3,0.3c0.1-0.1,0.2-0.2,0.3-0.3
	C42.8,43,42.7,42.9,42.6,42.8z M41.9,42.8c0.1,0.1,0.2,0.2,0.2,0.2c0.1-0.1,0.2-0.2,0.3-0.3c-0.1-0.1-0.2-0.2-0.2-0.2
	C42.1,42.6,42,42.7,41.9,42.8z M41.5,43.2c0.1,0.1,0.2,0.2,0.2,0.2c0.1-0.1,0.2-0.2,0.3-0.3c-0.1-0.1-0.2-0.2-0.2-0.2
	C41.7,43,41.6,43.1,41.5,43.2z M41.4,43.8c0.1-0.1,0.1-0.1,0.2-0.2c-0.1-0.1-0.2-0.2-0.2-0.2c-0.1,0.1-0.1,0.1-0.2,0.2
	C41.3,43.6,41.4,43.7,41.4,43.8z M41.5,44.6c0.1-0.1,0.2-0.2,0.3-0.3c-0.1-0.1-0.2-0.2-0.3-0.3c-0.1,0.1-0.2,0.2-0.3,0.3
	C41.3,44.4,41.4,44.5,41.5,44.6z M41.7,45c-0.1-0.1-0.1-0.1-0.2-0.2c-0.1,0.1-0.2,0.2-0.3,0.3c0.1,0.1,0.1,0.1,0.2,0.2
	C41.5,45.2,41.6,45.1,41.7,45z M41.8,44.9c0.1-0.1,0.2-0.2,0.3-0.3c-0.1-0.1-0.1-0.1-0.2-0.2c-0.1,0.1-0.2,0.2-0.3,0.3
	C41.6,44.7,41.7,44.8,41.8,44.9z M42.5,45c-0.1-0.1-0.2-0.2-0.3-0.3c-0.1,0.1-0.2,0.2-0.3,0.3c0.1,0.1,0.2,0.2,0.3,0.3
	C42.3,45.2,42.4,45.1,42.5,45z M42.8,44.7c-0.1-0.1-0.2-0.2-0.3-0.3c-0.1,0.1-0.1,0.1-0.2,0.2c0.1,0.1,0.2,0.2,0.3,0.3
	C42.7,44.8,42.7,44.8,42.8,44.7z M43.2,44.3c-0.1-0.1-0.2-0.2-0.3-0.3c-0.1,0.1-0.2,0.2-0.3,0.3c0.1,0.1,0.2,0.2,0.3,0.3
	C43,44.5,43.1,44.4,43.2,44.3z M43.3,44.2c0.1-0.1,0.2-0.2,0.3-0.3c-0.1-0.1-0.2-0.2-0.3-0.3c-0.1,0.1-0.2,0.2-0.3,0.3
	C43.1,44,43.2,44.1,43.3,44.2z M44,44.3c-0.1-0.1-0.2-0.2-0.3-0.3c-0.1,0.1-0.2,0.2-0.3,0.3c0.1,0.1,0.2,0.2,0.3,0.3
	C43.8,44.5,43.9,44.4,44,44.3z M44.4,43.9c-0.1-0.1-0.2-0.2-0.3-0.3c-0.1,0.1-0.2,0.2-0.3,0.3c0.1,0.1,0.2,0.2,0.3,0.3
	C44.2,44.1,44.3,44,44.4,43.9z M44.7,43.5c-0.1-0.1-0.2-0.2-0.3-0.3c-0.1,0.1-0.2,0.2-0.2,0.2c0.1,0.1,0.2,0.2,0.3,0.3
	C44.6,43.7,44.7,43.6,44.7,43.5z M45.2,43.1l-0.3-0.3c-0.1,0.1-0.2,0.2-0.3,0.3c0.1,0.1,0.2,0.2,0.3,0.3
	C45,43.3,45.1,43.2,45.2,43.1z M45.5,43.5l-0.2-0.2c-0.1,0.1-0.2,0.2-0.3,0.3c0.1,0.1,0.2,0.2,0.2,0.2
	C45.3,43.7,45.4,43.6,45.5,43.5z M45.9,43.1c-0.1-0.1-0.2-0.2-0.2-0.2c-0.1,0.1-0.2,0.2-0.3,0.3l0.2,0.2
	C45.7,43.3,45.8,43.2,45.9,43.1z M46.3,42.7c-0.1-0.1-0.2-0.2-0.2-0.2c-0.1,0.1-0.2,0.2-0.3,0.3C45.9,42.9,46,43,46,43
	C46.1,42.9,46.2,42.8,46.3,42.7z M46.7,42.3c-0.1-0.1-0.2-0.2-0.2-0.3c-0.1,0.1-0.2,0.2-0.3,0.3c0.1,0.1,0.2,0.2,0.2,0.2
	C46.5,42.5,46.6,42.4,46.7,42.3z M47.1,41.9c-0.1-0.1-0.2-0.2-0.3-0.3c-0.1,0.1-0.2,0.2-0.2,0.2c0.1,0.1,0.2,0.2,0.3,0.3
	C46.9,42.1,47,42,47.1,41.9z M47.4,41.6c-0.1-0.1-0.2-0.2-0.3-0.3c-0.1,0.1-0.2,0.2-0.3,0.3c0.1,0.1,0.2,0.2,0.3,0.3
	C47.3,41.7,47.4,41.7,47.4,41.6z M47.8,41.2c-0.1-0.1-0.2-0.2-0.3-0.3c-0.1,0.1-0.2,0.2-0.3,0.3c0.1,0.1,0.2,0.2,0.3,0.3
	C47.6,41.4,47.7,41.3,47.8,41.2z M48.2,40.8c-0.1-0.1-0.2-0.2-0.3-0.3c-0.1,0.1-0.2,0.2-0.3,0.3c0.1,0.1,0.2,0.2,0.3,0.3
	C48,41,48.1,40.9,48.2,40.8z M48.3,40.2c-0.1,0.1-0.2,0.1-0.2,0.2c0.1,0.1,0.2,0.2,0.3,0.3c0.1-0.1,0.1-0.1,0.2-0.2
	C48.5,40.4,48.4,40.3,48.3,40.2z M48.6,39.7c-0.1-0.1-0.2-0.2-0.3-0.3c-0.1,0.1-0.2,0.2-0.3,0.3c0.1,0.1,0.2,0.2,0.3,0.3
	C48.4,39.9,48.5,39.8,48.6,39.7z M48.7,39c-0.1,0.1-0.2,0.2-0.3,0.3c0.1,0.1,0.2,0.2,0.3,0.3c0.1-0.1,0.2-0.2,0.3-0.3
	C48.9,39.2,48.8,39.1,48.7,39z"/>
<linearGradient id="SVGID_5_" gradientUnits="userSpaceOnUse" x1="15" y1="34.8439" x2="15" y2="37.815" gradientTransform="matrix(1 0 0 -1 0 80)">
	<stop  offset="0" style="stop-color:#E6EDEF"/>
	<stop  offset="1" style="stop-color:#A6AEB2"/>
</linearGradient>
<path class="st10" d="M10.6,37.9L10.6,37.9c0.1,0,0.2,0.1,0.3,0.2c-0.1,0.1-0.1,0.1-0.2,0.2c0,0,0,0.1,0.1,0.1
	c0.1-0.1,0.1-0.1,0.2-0.2c0.1,0.1,0.2,0.2,0.3,0.3c-0.1,0.1-0.2,0.2-0.2,0.2c-0.1-0.1-0.1-0.1-0.2-0.2c0.1,0.1,0.1,0.3,0.2,0.4
	c0.1,0.1,0.2,0.2,0.3,0.3l-0.1,0.1c0,0,0,0.1,0.1,0.1l0.1-0.1c0.1,0.1,0.2,0.2,0.3,0.3c-0.1,0.1-0.2,0.2-0.2,0.2
	c0.1,0.2,0.2,0.4,0.3,0.7l0,0c0.1,0.1,0.2,0.2,0.2,0.2L12,40.8l0.1,0.1l0.1-0.1c0.1,0.1,0.2,0.2,0.3,0.3l-0.1,0.1l0.1,0.1
	c0.1-0.1,0.1-0.1,0.2-0.2c0.1,0.1,0.2,0.2,0.3,0.3c-0.1,0.1-0.1,0.1-0.2,0.2l0,0c0,0,0.1,0,0.1,0.1c0.1-0.1,0.1-0.1,0.2-0.2
	c0.1,0.1,0.2,0.2,0.2,0.2c-0.1,0.1-0.1,0.1-0.2,0.2l0.1,0.1c0.1-0.1,0.1-0.1,0.2-0.2c0.1,0.1,0.2,0.2,0.3,0.3l-0.1,0.1l0,0
	c0,0,0,0,0.1,0.1l0.1-0.1c0.1,0.1,0.2,0.2,0.3,0.3L14,42.6l0.1,0.1l0.1-0.1c0.1,0.1,0.2,0.2,0.2,0.2s0,0-0.1,0.1l0.1,0.1l0,0
	c0.1,0.1,0.2,0.2,0.3,0.3l0,0c0.1,0,0.1,0.1,0.2,0.1c0.1,0.1,0.3,0.2,0.4,0.3c0.1-0.1,0.2-0.2,0.3-0.3c0.1,0.1,0.2,0.2,0.2,0.2
	c-0.1,0.1-0.1,0.1-0.2,0.2l0.1,0.1C15.9,44.1,16,44,16,44c0.1,0.1,0.2,0.2,0.3,0.3l-0.1,0.1c0,0,0.1,0,0.1,0.1l0.1-0.1
	c0.1,0.1,0.1,0.1,0.2,0.2l0,0c0.2,0.1,0.3,0.2,0.5,0.2c-0.1-0.1-0.2-0.2-0.2-0.2c0.1-0.1,0.1-0.1,0.2-0.2c0.1,0.1,0.2,0.2,0.3,0.3
	c-0.1,0.1-0.1,0.1-0.2,0.2c0,0,0.1,0,0.1,0.1c0.1-0.1,0.1-0.1,0.2-0.2c0.1,0.1,0.2,0.2,0.3,0.3c0,0,0,0-0.1,0.1c0.1,0,0.1,0,0.2,0.1
	l0,0l0,0c0.1,0,0.2,0.1,0.3,0.1c0.1,0,0.1,0,0.2,0.1c0.1-0.1,0.2-0.2,0.3-0.3c0.1,0.1,0.2,0.2,0.3,0.3l-0.1,0.1c0.1,0,0.1,0,0.2,0.1
	l0.1-0.1c0.1,0.1,0.2,0.2,0.2,0.2c0.1,0,0.2,0.1,0.3,0.1c0,0,0,0-0.1-0.1l0.1-0.1v-0.2c-0.1,0.1-0.2,0.2-0.2,0.2
	c-0.1-0.1-0.2-0.2-0.3-0.3c0.1-0.1,0.2-0.2,0.3-0.3c0.1,0.1,0.2,0.2,0.2,0.2V45l-0.1-0.1c0,0,0,0,0.1-0.1v-0.2
	c-0.1,0.1-0.1,0.1-0.2,0.2c-0.1-0.1-0.2-0.2-0.3-0.3c0.1-0.1,0.2-0.2,0.3-0.3l0.1,0.1V44l0,0c-0.1-0.1-0.2-0.2-0.2-0.2
	c0.1-0.1,0.1-0.1,0.2-0.2v-0.3c-0.1-0.1-0.1-0.1-0.2-0.2c0.1-0.1,0.1-0.1,0.2-0.2v-0.2l0,0c-0.1,0.1-0.2,0.2-0.2,0.2
	c-0.1-0.1-0.2-0.2-0.3-0.3l0.1-0.1h-0.1H19l0,0c0,0,0,0-0.1-0.1c-0.1,0-0.3-0.1-0.4-0.1c-0.1,0.1-0.1,0.1-0.2,0.2l0,0
	c-0.1-0.1-0.2-0.2-0.3-0.3l0.1-0.1c-0.1,0-0.1,0-0.2-0.1l0,0l-0.1-0.1c-0.1-0.1-0.3-0.1-0.4-0.2c-0.1,0.1-0.2,0.2-0.3,0.3
	c-0.1-0.1-0.2-0.2-0.3-0.3l0.1-0.1c-0.1,0-0.1,0-0.2-0.1l-0.1,0.1c-0.1-0.1-0.2-0.2-0.3-0.3l0,0c-0.2-0.1-0.3-0.2-0.5-0.2
	c0.1,0.1,0.2,0.2,0.2,0.2c-0.1,0.1-0.2,0.2-0.3,0.3c-0.1-0.1-0.2-0.2-0.2-0.2c0.1-0.1,0.2-0.2,0.3-0.3c0,0-0.1,0-0.1-0.1
	c-0.1,0.1-0.2,0.2-0.3,0.3c-0.1-0.1-0.2-0.2-0.3-0.3c0.1-0.1,0.1-0.1,0.2-0.2c0,0-0.1,0-0.1-0.1l-0.1,0.1c-0.1-0.1-0.2-0.2-0.3-0.3
	l0,0l-0.1-0.1l0,0l0,0c-0.2-0.1-0.4-0.2-0.5-0.3l0.1,0.1c-0.1,0.1-0.2,0.2-0.3,0.3c-0.1-0.1-0.2-0.2-0.3-0.3
	c0.1-0.1,0.2-0.2,0.3-0.3l-0.1-0.1c-0.1,0.1-0.2,0.2-0.2,0.2c-0.1-0.1-0.2-0.2-0.3-0.3c0.1-0.1,0.1-0.1,0.2-0.2l0,0l-0.1-0.1
	C13,39.9,13,39.9,12.9,40c-0.1-0.1-0.2-0.2-0.2-0.2l0.1-0.1l-0.1-0.1l-0.1,0.1c-0.1-0.1-0.2-0.2-0.3-0.3c0,0,0,0,0.1-0.1l-0.1-0.1
	l0,0C12.1,39.1,12,39,11.9,39l0,0l-0.1-0.1l0,0c-0.1-0.1-0.2-0.2-0.3-0.3l0,0c-0.1-0.1-0.3-0.3-0.4-0.4c0-0.1-0.1-0.2-0.2-0.2
	c-0.1-0.1-0.1-0.1-0.2-0.2l0,0l0,0l-0.1-0.1l0,0c-0.1-0.1-0.2-0.2-0.2-0.3l0,0l-0.1-0.1l0,0c0.1,0.1,0.1,0.3,0.2,0.4l0,0l0,0
	C10.5,37.8,10.6,37.9,10.6,37.9z M11.6,40.1c0.1-0.1,0.2-0.2,0.3-0.3c0.1,0.1,0.2,0.2,0.3,0.3c-0.1,0.1-0.2,0.2-0.3,0.3
	C11.8,40.2,11.7,40.2,11.6,40.1z M12.2,40.7c-0.1-0.1-0.2-0.2-0.2-0.2c0.1-0.1,0.2-0.2,0.3-0.3c0.1,0.1,0.2,0.2,0.2,0.2
	C12.4,40.5,12.3,40.6,12.2,40.7z M12.3,40.8c0.1-0.1,0.2-0.2,0.3-0.3c0.1,0.1,0.2,0.2,0.3,0.3c-0.1,0.1-0.2,0.2-0.3,0.3
	C12.5,41,12.4,40.9,12.3,40.8z M12.7,41.2c0.1-0.1,0.2-0.2,0.3-0.3c0.1,0.1,0.2,0.2,0.3,0.3c-0.1,0.1-0.2,0.2-0.3,0.3
	C12.9,41.4,12.8,41.3,12.7,41.2z M13.1,41.6c0.1-0.1,0.2-0.2,0.3-0.3c0.1,0.1,0.2,0.2,0.2,0.2c-0.1,0.1-0.2,0.2-0.3,0.3
	C13.3,41.8,13.2,41.7,13.1,41.6z M13.5,42c0.1-0.1,0.2-0.2,0.3-0.3c0.1,0.1,0.2,0.2,0.3,0.3c-0.1,0.1-0.2,0.2-0.3,0.3
	C13.7,42.2,13.6,42.1,13.5,42z M14.9,42.6c-0.1-0.1-0.2-0.2-0.2-0.2c0.1-0.1,0.1-0.1,0.2-0.2c0.1,0.1,0.2,0.2,0.2,0.2
	C15,42.5,15,42.5,14.9,42.6z M15.2,42.5c0.1,0.1,0.2,0.2,0.3,0.3c-0.1,0.1-0.1,0.1-0.2,0.2c-0.1-0.1-0.2-0.2-0.3-0.3
	C15.1,42.6,15.1,42.6,15.2,42.5z M14.5,42.2c-0.1-0.1-0.2-0.2-0.3-0.3c0.1-0.1,0.1-0.1,0.2-0.2c0.1,0.1,0.2,0.2,0.3,0.3
	C14.7,42.1,14.6,42.2,14.5,42.2z M14.2,41.9c-0.1-0.1-0.2-0.2-0.3-0.3c0.1-0.1,0.1-0.1,0.2-0.2c0.1,0.1,0.2,0.2,0.3,0.3
	C14.3,41.7,14.2,41.8,14.2,41.9z M13.9,42.4c0.1-0.1,0.2-0.2,0.3-0.3c0.1,0.1,0.2,0.2,0.3,0.3c-0.1,0.1-0.2,0.2-0.3,0.3
	C14.1,42.5,14,42.5,13.9,42.4z M14.3,42.7c0.1-0.1,0.2-0.2,0.3-0.3c0.1,0.1,0.2,0.2,0.2,0.2c-0.1,0.1-0.2,0.2-0.3,0.3
	C14.4,42.9,14.3,42.8,14.3,42.7z M14.9,43.4c-0.1-0.1-0.2-0.2-0.3-0.3c0.1-0.1,0.2-0.2,0.3-0.3c0.1,0.1,0.2,0.2,0.3,0.3
	C15.1,43.2,15,43.3,14.9,43.4z M15.3,43.8c-0.1-0.1-0.2-0.2-0.3-0.3c0.1-0.1,0.2-0.2,0.3-0.3c0.1,0.1,0.2,0.2,0.3,0.3
	C15.5,43.6,15.4,43.7,15.3,43.8z M15.7,43.4c-0.1-0.1-0.2-0.2-0.3-0.3c0.1-0.1,0.1-0.1,0.2-0.2c0.1,0.1,0.2,0.2,0.3,0.3
	C15.8,43.3,15.8,43.3,15.7,43.4z M18.4,43.9c0.1-0.1,0.2-0.2,0.3-0.3c0.1,0.1,0.2,0.2,0.3,0.3c-0.1,0.1-0.2,0.2-0.3,0.3
	C18.6,44.1,18.5,44,18.4,43.9z M18.6,44.3c-0.1,0.1-0.2,0.2-0.3,0.3c-0.1-0.1-0.2-0.2-0.3-0.3c0.1-0.1,0.2-0.2,0.3-0.3
	C18.4,44.1,18.5,44.2,18.6,44.3z M18.3,43.8c-0.1-0.1-0.2-0.2-0.3-0.3c0.1-0.1,0.2-0.2,0.3-0.3c0.1,0.1,0.2,0.2,0.3,0.3
	C18.5,43.6,18.4,43.7,18.3,43.8z M18.2,43.9c-0.1,0.1-0.2,0.2-0.3,0.3c-0.1-0.1-0.2-0.2-0.3-0.3c0.1-0.1,0.2-0.2,0.3-0.3
	C18,43.7,18.1,43.8,18.2,43.9z M17.5,43.8c-0.1-0.1-0.1-0.1-0.2-0.2c0.1-0.1,0.2-0.2,0.3-0.3c0.1,0.1,0.1,0.1,0.2,0.2
	C17.7,43.6,17.6,43.7,17.5,43.8z M17.2,43.4c-0.1-0.1-0.2-0.2-0.3-0.3c0.1-0.1,0.2-0.2,0.3-0.3c0.1,0.1,0.2,0.2,0.3,0.3
	C17.4,43.2,17.3,43.3,17.2,43.4z M17.1,43.5c-0.1,0.1-0.2,0.2-0.3,0.3c-0.1-0.1-0.2-0.2-0.3-0.3c0.1-0.1,0.2-0.2,0.3-0.3
	C16.9,43.3,17,43.4,17.1,43.5z M16.4,43.4c-0.1-0.1-0.2-0.2-0.2-0.2c0.1-0.1,0.2-0.2,0.3-0.3c0.1,0.1,0.2,0.2,0.2,0.2
	C16.6,43.2,16.5,43.3,16.4,43.4z M16,43.1c-0.1-0.1-0.2-0.2-0.3-0.3c0.1-0.1,0.2-0.2,0.3-0.3c0.1,0.1,0.2,0.2,0.3,0.3
	C16.2,42.9,16.1,43,16,43.1z M16,43.8c-0.1-0.1-0.2-0.2-0.2-0.2c0.1-0.1,0.1-0.1,0.2-0.2c0.1,0.1,0.2,0.2,0.2,0.2S16.1,43.7,16,43.8
	z M16.1,43.9c0.1-0.1,0.1-0.1,0.2-0.2c0.1,0.1,0.2,0.2,0.3,0.3c-0.1,0.1-0.1,0.1-0.2,0.2C16.3,44.1,16.2,44,16.1,43.9z M16.8,44.5
	c-0.1-0.1-0.1-0.1-0.2-0.2c0.1-0.1,0.1-0.1,0.2-0.2c0.1,0.1,0.1,0.1,0.2,0.2C16.9,44.3,16.8,44.4,16.8,44.5z M16.9,43.9
	c0.1-0.1,0.2-0.2,0.3-0.3c0.1,0.1,0.1,0.1,0.2,0.2c-0.1,0.1-0.2,0.2-0.3,0.3C17,44.1,16.9,44,16.9,43.9z M17.5,44.6
	c-0.1-0.1-0.2-0.2-0.3-0.3c0.1-0.1,0.2-0.2,0.3-0.3c0.1,0.1,0.2,0.2,0.3,0.3C17.7,44.4,17.6,44.5,17.5,44.6z M17.9,45
	c-0.1-0.1-0.2-0.2-0.3-0.3c0.1-0.1,0.2-0.2,0.3-0.3c0.1,0.1,0.2,0.2,0.3,0.3C18.1,44.8,18,44.9,17.9,45z M18.2,45.3
	c-0.1-0.1-0.2-0.2-0.2-0.2c0.1-0.1,0.2-0.2,0.3-0.3c0.1,0.1,0.2,0.2,0.2,0.2C18.4,45.1,18.3,45.2,18.2,45.3z M18.4,44.7
	c0.1-0.1,0.2-0.2,0.3-0.3c0.1,0.1,0.2,0.2,0.2,0.2c-0.1,0.1-0.2,0.2-0.3,0.3C18.6,44.8,18.5,44.8,18.4,44.7z M19.3,45
	c-0.1,0.1-0.2,0.2-0.3,0.3c-0.1-0.1-0.2-0.2-0.3-0.3c0.1-0.1,0.2-0.2,0.3-0.3C19.1,44.8,19.2,44.9,19.3,45z M19.3,44.2
	c-0.1,0.1-0.2,0.2-0.3,0.3c-0.1-0.1-0.2-0.2-0.2-0.2c0.1-0.1,0.2-0.2,0.3-0.3C19.2,44.1,19.3,44.2,19.3,44.2z M19.1,43.3
	c0.1,0.1,0.2,0.2,0.3,0.3c-0.1,0.1-0.2,0.2-0.2,0.2c-0.1-0.1-0.2-0.2-0.3-0.3C18.9,43.4,19,43.3,19.1,43.3z M19,43.1
	c-0.1,0.1-0.2,0.2-0.2,0.2c-0.1-0.1-0.2-0.2-0.3-0.3c0.1-0.1,0.2-0.2,0.2-0.2C18.7,42.9,18.8,43,19,43.1z M18.1,42.7
	c0.1-0.1,0.1-0.1,0.2-0.2c0.1,0.1,0.1,0.1,0.2,0.2c-0.1,0.1-0.2,0.2-0.2,0.2C18.2,42.9,18.2,42.8,18.1,42.7L18.1,42.7z M18.2,43.1
	c-0.1,0.1-0.2,0.2-0.3,0.3c-0.1-0.1-0.1-0.1-0.2-0.2c0.1-0.1,0.2-0.2,0.3-0.3C18,42.9,18.1,43,18.2,43.1z M17.9,42.8
	c-0.1,0.1-0.2,0.2-0.3,0.3c-0.1-0.1-0.2-0.2-0.3-0.3c0.1-0.1,0.2-0.2,0.3-0.3C17.7,42.6,17.8,42.7,17.9,42.8z M17.2,42.1
	c0.1,0.1,0.2,0.2,0.2,0.2c-0.1,0.1-0.2,0.2-0.3,0.3c-0.1-0.1-0.2-0.2-0.2-0.2C17,42.3,17.1,42.2,17.2,42.1z M17.1,42.7
	c-0.1,0.1-0.2,0.2-0.3,0.3c-0.1-0.1-0.2-0.2-0.2-0.2c0.1-0.1,0.2-0.2,0.3-0.3C16.9,42.6,17,42.7,17.1,42.7z M16.7,42.4
	c-0.1,0.1-0.2,0.2-0.3,0.3c-0.1-0.1-0.2-0.2-0.3-0.3c0.1-0.1,0.2-0.2,0.3-0.3C16.5,42.2,16.6,42.3,16.7,42.4z M16,41.7
	c0.1,0.1,0.2,0.2,0.3,0.3c-0.1,0.1-0.2,0.2-0.3,0.3c-0.1-0.1-0.2-0.2-0.3-0.3C15.8,41.9,15.9,41.8,16,41.7z M15.9,42.3
	c-0.1,0.1-0.2,0.2-0.3,0.3c-0.1-0.1-0.2-0.2-0.3-0.3c0.1-0.1,0.2-0.2,0.3-0.3C15.7,42.2,15.8,42.3,15.9,42.3z M15.5,42
	c-0.1,0.1-0.2,0.2-0.3,0.3C15.1,42.2,15,42.1,15,42c0.1-0.1,0.2-0.2,0.3-0.3C15.3,41.8,15.4,41.9,15.5,42z M15.2,41.6
	c-0.1,0.1-0.2,0.2-0.3,0.3c-0.1-0.1-0.2-0.2-0.3-0.3c0.1-0.1,0.2-0.2,0.3-0.3C15,41.4,15.1,41.5,15.2,41.6z M14.8,41.2
	c-0.1,0.1-0.2,0.2-0.3,0.3c-0.1-0.1-0.2-0.2-0.3-0.3c0.1-0.1,0.2-0.2,0.3-0.3C14.6,41,14.7,41.1,14.8,41.2z M14.1,40.6
	c0.1,0.1,0.2,0.2,0.2,0.2c-0.1,0.1-0.2,0.2-0.3,0.3c0-0.1-0.1-0.1-0.2-0.2C13.9,40.8,14,40.7,14.1,40.6z M14,41.2
	c-0.1,0.1-0.1,0.1-0.2,0.2c-0.1-0.1-0.2-0.2-0.2-0.2c0.1-0.1,0.1-0.1,0.2-0.2C13.8,41.1,13.9,41.2,14,41.2z M13.6,40.9
	c-0.1,0.1-0.1,0.1-0.2,0.2c-0.1-0.1-0.2-0.2-0.3-0.3c0.1-0.1,0.1-0.1,0.2-0.2C13.4,40.7,13.5,40.8,13.6,40.9z M13.2,40.5
	c-0.1,0.1-0.1,0.1-0.2,0.2c-0.1-0.1-0.2-0.2-0.3-0.3c0.1-0.1,0.2-0.1,0.2-0.2C13,40.3,13.1,40.4,13.2,40.5z M12.8,40.1
	c-0.1,0.1-0.2,0.1-0.2,0.2c-0.1-0.1-0.2-0.2-0.2-0.2c0.1-0.1,0.2-0.2,0.2-0.2C12.6,39.9,12.7,40,12.8,40.1z M12.5,39.7
	c-0.1,0.1-0.2,0.2-0.2,0.2c-0.1-0.1-0.2-0.2-0.3-0.3c0.1-0.1,0.2-0.2,0.2-0.2C12.3,39.5,12.4,39.6,12.5,39.7z M12.1,39.3
	c-0.1,0.1-0.2,0.2-0.2,0.2c-0.1-0.1-0.2-0.2-0.3-0.3c0.1-0.1,0.2-0.2,0.2-0.2C11.9,39.2,12,39.2,12.1,39.3z M11.7,39
	c-0.1,0.1-0.2,0.2-0.2,0.2c-0.1-0.1-0.2-0.2-0.3-0.3c0.1-0.1,0.2-0.2,0.2-0.2C11.5,38.8,11.6,38.9,11.7,39z"/>
<g>
	<path class="st7" d="M30,43.9c-0.3,0-0.6-0.1-0.8-0.4c-0.2-0.3-0.4-0.8-0.2-1.2c0.1-0.2,0.3-0.5,1-0.5c0.6,0,0.9,0.3,1,0.5
		c0.2,0.4,0,0.9-0.2,1.2C30.6,43.8,30.3,43.9,30,43.9z"/>
	<path class="st11" d="M30.8,43.6C30.6,43.9,30.3,44,30,44c-0.2,0-0.5-0.1-0.7-0.3c-0.4-0.5-0.4-1.6,0.7-1.6
		C31.2,42.1,31.2,43.2,30.8,43.6z"/>
	
		<linearGradient id="SVGID_6_" gradientUnits="userSpaceOnUse" x1="30" y1="36.9816" x2="30" y2="35.3028" gradientTransform="matrix(1 0 0 -1 0 80)">
		<stop  offset="0" style="stop-color:#FF6E4D"/>
		<stop  offset="1" style="stop-color:#690000"/>
	</linearGradient>
	<path class="st12" d="M30.7,42.7c0,0.2-0.3,0.4-0.7,0.4c-0.4,0-0.7-0.2-0.7-0.4s0.3-0.4,0.7-0.4C30.4,42.3,30.7,42.4,30.7,42.7z"/>
</g>
<path class="st13" d="M53.9,25.2c0,0.1,0,0.2,0,0.3s0,0.2,0,0.3c0,0.1,0,0.2-0.1,0.3c0,0.1,0,0.1,0,0.2c0.1-0.5,0.1-1,0.1-1.5
	c0-7.6-10.6-13.7-23.7-13.8C17.1,11,6.5,17.1,6.5,24.7c0,0.7,0.1,1.5,0.3,2.2V27c0,3.5,2.2,6.9,6.7,9.6c0.1,0,0.1,0.1,0.2,0.1
	c0,0.1-0.1,0.1-0.2,0.2c-0.1,0-0.1-0.1-0.2-0.1c-2.9-1.8-4.9-3.9-5.9-6.1c1.9,4.1,3.7,8.2,5.6,12.3v0.1c0,0.1,0.1,0.1,0.1,0.2
	c0.1,0.2,0.3,0.5,0.4,0.7l0.1,0.1c0.2,0.3,0.4,0.5,0.6,0.8c0.1,0.1,0.1,0.1,0.2,0.2c0.2,0.2,0.5,0.5,0.7,0.7l0.1,0.1
	c0.3,0.3,0.6,0.5,0.9,0.7c0.1,0.1,0.2,0.1,0.2,0.2c0.3,0.2,0.7,0.5,1.1,0.7c0.4,0.3,0.9,0.5,1.3,0.7c0.2,0.1,0.3,0.1,0.5,0.2
	c0.3,0.1,0.6,0.3,0.9,0.4c0.2,0.1,0.4,0.1,0.6,0.2c0.3,0.1,0.6,0.2,0.9,0.3c0.2,0.1,0.4,0.1,0.7,0.2s0.6,0.2,0.9,0.2
	c0.2,0.1,0.5,0.1,0.7,0.2c0.3,0.1,0.6,0.1,0.9,0.2c0.2,0,0.5,0.1,0.7,0.1c0.3,0,0.6,0.1,0.9,0.1c0.3,0,0.5,0.1,0.8,0.1
	s0.6,0.1,0.9,0.1c0.3,0,0.5,0,0.8,0c0.2,0,0.4,0,0.7,0c0.1,0,0.2,0,0.3,0c0.1,0,0.3,0,0.4,0c0.4,0,0.9,0,1.3,0c0.1,0,0.1,0,0.2,0
	c0.5,0,1-0.1,1.5-0.1c0.1,0,0.2,0,0.4,0s0.3,0,0.5-0.1c0.3,0,0.5-0.1,0.7-0.1c0.1,0,0.2,0,0.3,0c0.5-0.1,1-0.2,1.4-0.3
	c0.1,0,0.2-0.1,0.3-0.1c0.4-0.1,0.8-0.2,1.1-0.3c0.1,0,0.2-0.1,0.3-0.1c0.5-0.1,0.9-0.3,1.4-0.4c0.1,0,0.1-0.1,0.2-0.1
	c0.4-0.1,0.7-0.3,1.1-0.5c0.1-0.1,0.2-0.1,0.3-0.2c0.4-0.2,0.8-0.4,1.2-0.6c0.3-0.2,0.6-0.4,1-0.6c0.1,0,0.1-0.1,0.2-0.1
	c0.1-0.1,0.2-0.1,0.2-0.2c0.2-0.1,0.3-0.2,0.4-0.3c0.1-0.1,0.2-0.2,0.3-0.2c0.1,0,0.1-0.1,0.2-0.1c0,0,0,0,0.1-0.1
	c0.1-0.1,0.2-0.2,0.3-0.2c0.1-0.1,0.2-0.2,0.3-0.2c0.1-0.1,0.2-0.2,0.3-0.3c0.1-0.1,0.1-0.1,0.2-0.2l0.1-0.1c0,0,0,0,0.1-0.1
	c0-0.1,0.1-0.1,0.1-0.2c0.1-0.1,0.2-0.3,0.3-0.4c0,0,0-0.1,0.1-0.1l0.1-0.1c0.1-0.1,0.2-0.3,0.3-0.4c0-0.1,0.1-0.1,0.1-0.2
	c0-0.1,0.1-0.1,0.1-0.2c0,0,0-0.1,0.1-0.1c0.1-0.1,0.1-0.2,0.2-0.3c1.9-4.1,3.8-8.1,5.6-12.2c0,0,0-0.1,0.1-0.1c0,0,0,0,0,0
	c0,0,0,0,0,0c0,0,0-0.1,0-0.1c0.1-0.1,0.1-0.2,0.1-0.4c0-0.1,0.1-0.1,0.1-0.2v-0.1c0-0.1,0.1-0.2,0.1-0.3s0.1-0.2,0.1-0.3
	c0-0.1,0.1-0.2,0.1-0.3c0-0.1,0-0.1,0.1-0.2v-0.1c0-0.1,0-0.2,0.1-0.3c0-0.1,0-0.2,0-0.3s0-0.2,0-0.3c0-0.1,0-0.1,0-0.2s0-0.1,0-0.2
	v-2.6C53.9,24.9,53.9,25.1,53.9,25.2z M47.6,34.1c-0.1,0-0.1,0.1-0.2,0.1C47.5,34.2,47.6,34.1,47.6,34.1
	C47.6,34.1,47.6,34.1,47.6,34.1z M49.6,35.2c-0.1,0.1-0.3,0.2-0.4,0.3c-0.2,0.2-0.5,0.4-0.8,0.6c-0.1,0.1-0.2,0.2-0.4,0.3
	c0,0-0.1,0.1-0.2,0.1c0.1-0.1,0.2-0.1,0.3-0.2c0.1-0.1,0.3-0.2,0.4-0.3c0.1-0.1,0.3-0.2,0.4-0.3c0.1-0.1,0.2-0.2,0.4-0.3
	c0.1-0.1,0.3-0.2,0.4-0.3C49.7,35.1,49.6,35.2,49.6,35.2z M52.7,31.7c0,0.1-0.1,0.2-0.1,0.2c-0.1,0.2-0.2,0.4-0.4,0.5
	c-0.1,0.1-0.1,0.2-0.2,0.3c-0.1,0.2-0.3,0.4-0.4,0.5c-0.1,0.1-0.1,0.2-0.2,0.2c-0.1,0.1-0.2,0.2-0.3,0.3c0.1-0.1,0.1-0.1,0.2-0.2
	c0.2-0.2,0.4-0.5,0.6-0.7c0,0,0-0.1,0.1-0.1c0-0.1,0.1-0.1,0.1-0.2c0.1-0.1,0.2-0.3,0.3-0.4c0.1-0.1,0.1-0.2,0.2-0.3
	c0.1-0.1,0.2-0.3,0.2-0.4c0-0.1,0.1-0.1,0.1-0.2c0,0,0-0.1,0.1-0.1C52.9,31.3,52.8,31.5,52.7,31.7z"/>
<g>
	<path class="st14" d="M43.6,32v-2.3c0-0.4,0.3-0.7,0.7-0.7h1.3c0.4,0,0.7,0.3,0.7,0.7V32c0,0.4-0.3,0.7-0.7,0.7h-1.3
		C43.9,32.7,43.6,32.4,43.6,32z"/>
	<path class="st14" d="M16.1,37V24.6c0-0.6,0.5-1.1,1.1-1.1h25.5c0.6,0,1.1,0.5,1.1,1.1V37c0,0.6-0.5,1.1-1.1,1.1H17.2
		C16.6,38.1,16.1,37.6,16.1,37z"/>
	
		<rect x="13.8" y="29.2" transform="matrix(-1.836970e-16 1 -1 -1.836970e-16 50.6709 10.8652)" class="st15" width="12.1" height="3.2"/>
</g>
</svg>
