<?xml version="1.0" encoding="utf-8"?>
<!-- Generator: Adobe Illustrator 22.0.0, SVG Export Plug-In . SVG Version: 6.00 Build 0)  -->
<svg version="1.1" id="图层_1" xmlns="http://www.w3.org/2000/svg" xmlns:xlink="http://www.w3.org/1999/xlink" x="0px" y="0px"
	 viewBox="0 0 60 79" style="enable-background:new 0 0 60 79;" xml:space="preserve">
<style type="text/css">
	.st0{fill:url(#SVGID_1_);}
	.st1{fill:#FFFFFF;}
	.st2{fill:#F3D516;}
	.st3{clip-path:url(#SVGID_3_);}
	.st4{fill:#1F1F1F;}
	.st5{fill:#2A2A2A;}
	.st6{fill:#1D1D1D;}
	.st7{fill:#3B3B3B;}
	.st8{fill:#727272;}
	.st9{fill:#A9A9A9;}
	.st10{fill:#E9EAE7;}
	.st11{fill:#4D4D4D;}
	.st12{fill:#949494;}
	.st13{fill:#C4C4C4;}
	.st14{fill:#B30300;}
	.st15{fill:#871100;}
	.st16{fill:#FF443B;}
	.st17{fill:#941D19;}
	.st18{fill:#7D0F00;}
	.st19{fill:#D13830;}
	.st20{fill:#731000;}
	.st21{fill:#990004;}
	.st22{fill:#B6110D;}
	.st23{fill:#9C0500;}
	.st24{clip-path:url(#SVGID_5_);}
	.st25{fill:#C4DCE8;}
	.st26{fill:#325A9B;}
	.st27{fill:#D9D9D9;}
	.st28{fill:#939292;}
	.st29{fill:#5A6374;}
	.st30{fill:#648182;}
	.st31{fill:#D36C3E;}
</style>
<g>
	
		<radialGradient id="SVGID_1_" cx="30.4933" cy="76.2912" r="17.4476" gradientTransform="matrix(1 0 0 0.1461 0 65.1462)" gradientUnits="userSpaceOnUse">
		<stop  offset="0" style="stop-color:#7A7A7A"/>
		<stop  offset="1" style="stop-color:#FFFFFF;stop-opacity:0"/>
	</radialGradient>
	<ellipse class="st0" cx="30.5" cy="76.3" rx="17" ry="2.7"/>
	<g>
		<path class="st1" d="M57.2,29.7c0,15-27.2,43.4-27.2,43.4S2.8,44.7,2.8,29.7S15,2.5,30,2.5S57.2,14.7,57.2,29.7z"/>
		<path class="st2" d="M30,2.5c15,0,27.2,12.2,27.2,27.2S30,73.1,30,73.1S2.8,44.7,2.8,29.7S15,2.5,30,2.5 M30,0.7
			c-16,0-29,13-29,29c0,15.6,26.6,43.5,27.7,44.7l1.3,1.4l1.3-1.4C32.5,73.2,59,45.3,59,29.7C59,13.7,46,0.7,30,0.7L30,0.7z"/>
	</g>
	<g>
		<defs>
			<path id="SVGID_2_" d="M57.2,29.7c0,15-27.2,43.4-27.2,43.4S2.8,44.7,2.8,29.7S15,2.5,30,2.5S57.2,14.7,57.2,29.7z"/>
		</defs>
		<clipPath id="SVGID_3_">
			<use xlink:href="#SVGID_2_"  style="overflow:visible;"/>
		</clipPath>
		<g id="图层_1_1_" class="st3">
			<g>
				<g>
					<g>
						<path d="M22.1,60.7l-2.6-4.2l1.3-0.8l0,0c0.3-0.2,0.8-0.2,1.2,0.1c1,0.6,1.8,1.9,1.8,3c0,0.5-0.2,0.9-0.5,1.1l0,0l0,0l0,0
							L22.1,60.7z"/>
						<path class="st4" d="M20,56.7l1.8-1.1c0.1,0,0.2,0.1,0.3,0.1c1,0.6,1.8,1.9,1.8,3c0,0.2,0,0.4-0.1,0.5L22.4,60
							c-0.2,0-0.3-0.1-0.5-0.2c-0.2-0.1-0.4-0.2-0.5-0.4L20,57.2C20,57.1,20,56.9,20,56.7z"/>
						<path class="st5" d="M19,57.6c0,1.1,0.8,2.5,1.8,3c1,0.6,1.8,0.1,1.8-1s-0.8-2.5-1.8-3C19.9,56,19,56.5,19,57.6z"/>
						<path class="st6" d="M19.1,57.6c0,1.1,0.8,2.4,1.7,2.9c0.9,0.5,1.7,0.1,1.7-1s-0.8-2.4-1.7-2.9C19.9,56.1,19.1,56.5,19.1,57.6
							z"/>
						<path class="st7" d="M19.5,57.8c0,0.8,0.6,1.8,1.3,2.2c0.7,0.4,1.3,0.1,1.3-0.8c0-0.8-0.6-1.8-1.3-2.2S19.5,57,19.5,57.8z"/>
						<path class="st8" d="M19.6,57.9c0,0.8,0.6,1.7,1.3,2.1c0.7,0.4,1.2,0.1,1.2-0.7s-0.6-1.7-1.3-2.1
							C20.1,56.8,19.6,57.1,19.6,57.9z"/>
						<path class="st9" d="M20.9,57.2c0.7,0.4,1.2,1.3,1.2,2.1c0,0.1,0,0.2,0,0.3l-0.9,0.5c-0.1,0-0.2-0.1-0.3-0.1
							c-0.7-0.4-1.2-1.3-1.3-2.1L20.9,57.2z"/>
						<path class="st10" d="M21.5,57.8c0.2,0.3,0.4,0.7,0.5,1.1l-1.5,0.9c-0.3-0.2-0.5-0.6-0.7-1L21.5,57.8z"/>
						<path class="st10" d="M21.5,57.8c0.2,0.3,0.4,0.7,0.5,1.1l-1.5,0.9c-0.3-0.2-0.5-0.6-0.7-1L21.5,57.8z"/>
						<path class="st11" d="M19.9,57.9c0,0.7,0.5,1.5,1.1,1.8s1.1,0.1,1.1-0.6c0-0.7-0.5-1.5-1.1-1.8C20.4,57,19.9,57.2,19.9,57.9z"
							/>
						<path class="st12" d="M20.1,57.9c0,0.5,0.4,1.2,0.9,1.4c0.5,0.3,0.8,0,0.8-0.5s-0.4-1.2-0.9-1.4
							C20.5,57.2,20.1,57.4,20.1,57.9z"/>
						<path class="st13" d="M20.5,58.3c0,0.2,0.2,0.5,0.4,0.6c0.2,0.1,0.4,0,0.4-0.2s-0.2-0.5-0.4-0.6S20.5,58.1,20.5,58.3z"/>
						<path class="st11" d="M20.6,58.5c0,0.1,0.1,0.3,0.2,0.3c0.1,0.1,0.2,0,0.2-0.1s-0.1-0.3-0.2-0.3
							C20.8,58.3,20.6,58.3,20.6,58.5z"/>
						<path d="M22.1,60.7l0.8-0.5l0,0l0,0l0,0c0.3-0.2,0.5-0.6,0.5-1.1c0-1.1-0.8-2.5-1.8-3c-0.5-0.3-0.9-0.3-1.2-0.1l0,0l0.1-0.1
							l0,0c0.3-0.2,0.8-0.2,1.2,0.1c1,0.6,1.8,1.9,1.8,3c0,0.5-0.2,0.9-0.5,1.1l0,0l0,0l0,0L22.1,60.7L22.1,60.7z"/>
						<path d="M22.1,60.7l0.4-0.2l0,0l0,0l0,0c0.3-0.2,0.5-0.6,0.5-1.1c0-1.1-0.8-2.5-1.8-3c-0.5-0.3-0.9-0.3-1.2-0.1l0,0l0.1-0.1
							l0,0c0.3-0.2,0.8-0.2,1.2,0.1c1,0.6,1.8,1.9,1.8,3c0,0.5-0.2,0.9-0.5,1.1l0,0l0,0l0,0L22.1,60.7L22.1,60.7z"/>
					</g>
					<path class="st14" d="M27.8,63.5l13.1-7.6l2-23.8l-11.5,6.6c-0.5,0.3-1,0.4-1.6,0.5L27.8,63.5z"/>
					<g>
						<polygon class="st15" points="39.5,56.7 38.8,57.1 41,31.2 41.8,30.8 						"/>
						<polygon class="st15" points="31.8,36.5 32.7,36.1 30.5,61.9 29.8,62.3 						"/>
					</g>
					<path class="st16" d="M18.9,33.6l1.3,21.9c0.3,0,0.7,0.1,1.1,0.3c1.3,0.7,2.3,2.4,2.3,3.9c0,0.6-0.2,1-0.4,1.3l4.6,2.6l2-24.3
						c-0.1,0-0.1,0-0.2,0c-0.6,0-1.2-0.2-1.7-0.4L18.9,33.6z"/>
					<path class="st17" d="M18.8,31.4v2.2l9.2,5.2c0.5,0.3,1.1,0.4,1.7,0.4c0.1,0,0.1,0,0.2,0l0.1-1.6L18.8,31.4z"/>
					<path class="st18" d="M29.8,39.2c0.5,0,1.1-0.2,1.6-0.5L42.9,32l0.1-2l-13.1,7.6L29.8,39.2z"/>
					<path class="st14" d="M29.8,38.5c0.6,0,1.2-0.1,1.7-0.5l12.3-7.1c0.5-0.6,0.2-2-0.5-2.7L42,27.9l-11.8,9
						C29.5,37.2,29.5,38,29.8,38.5z"/>
					<path class="st16" d="M18.1,32.5L28,38c0.5,0.3,1.1,0.4,1.7,0.4c-0.3-0.5-0.1-1.2,0.4-1.6l11.8-9l-8.1-4.6
						c-1.1-0.6-2.4-0.6-3.4,0l-11.9,6.5C18,30.3,17.5,31.8,18.1,32.5z"/>
					<path class="st19" d="M18.9,31.4l9.4,5.3c1,0.6,2.2,0.6,3.2,0L43.1,30c0.7-0.4,0.7-1.5,0-1.9l-9.4-5.4c-1-0.6-2.3-0.6-3.3,0
						l-11.6,6.8C18,29.9,18,31,18.9,31.4z"/>
					<path class="st20" d="M29.8,35.5c0.3,0,0.7-0.1,1-0.3L41,29.3c0.5-0.3,0.5-0.9,0-1.2L33,23.6c-0.3-0.2-0.6-0.2-0.9-0.2
						c-0.3,0-0.7,0.1-1,0.3l-10.2,6c-0.5,0.3-0.5,0.9,0,1.2l7.9,4.4C29.2,35.4,29.5,35.5,29.8,35.5z"/>
					<path class="st21" d="M31.8,23.3c0.1,0,0.1,0,0.2,0c0.3,0,0.7,0.1,0.9,0.2l7.9,4.5c0.5,0.3,0.5,0.9,0,1.2L32,34.4L31.8,23.3z"
						/>
					<g>
						<path class="st1" d="M33.8,44.9l3.6-2.2c0,0,0.9,0.7,1,1.9l-1.8,1.2v-0.3l-0.4-1L33.8,44.9z"/>
						<polygon class="st1" points="38.5,44.9 38.3,50.3 37.5,47.4 36.3,51.6 36.5,45.9 						"/>
						<path class="st1" d="M37.3,41.8c0,0.5-0.2,1-0.6,1.2c-0.4,0.2-0.7,0-0.7-0.4c0-0.5,0.2-1,0.6-1.2C37,41.2,37.3,41.4,37.3,41.8
							z"/>
						<path class="st1" d="M33.8,46c0,0-0.1,0.6-0.2,0.9c-0.1,0.3-0.4,0.6-0.4,0.6s0.2,0.4,0.6,0.2c0.4-0.2,0.6-0.5,0.8-0.6
							c0.3-0.1,0.3-0.1,0.3-0.1s-0.1-0.3,0.2-0.7c0.2-0.4,0.4-0.7,0.4-0.9C35.5,45.4,34.5,46.1,33.8,46z"/>
						<path class="st1" d="M35.8,46.9l-2.9,1.8c-0.1,0-0.1,0.2-0.1,0.2l0,0c0,0.1,0.1,0.1,0.1,0.1H33l0.8,4.1l1.7-1.1l0.2-4.7h0.1
							c0.1,0,0.1-0.2,0.1-0.2l0,0C36,46.8,36,46.8,35.8,46.9z M35,48v0.4l-0.4,0.3v-0.4L35,48z M34.3,48.8l-0.4,0.3v-0.4l0.4-0.3
							V48.8z M33.3,49l0.4-0.3v0.4l-0.4,0.3V49z M33.5,49.7L33.5,49.7l0.4-0.3v0.1v0.2v0.2l-0.4,0.2V49.7z M33.5,50.2L34,50v0.2v0.2
							l0,0v0.1l-0.4,0.2V50.2z M33.7,51.3l-0.1-0.4l0.3-0.2v0.2v0.3L33.7,51.3L33.7,51.3z M33.8,51.6l0.3-0.2v0.1v0.1v0.3l-0.3,0.2
							V51.6z M34,52.7l-0.1-0.4l0.3-0.2v0.4L34,52.7z M34,49.5v-0.2v-0.1l0.4-0.2v0.1v0.4L34,49.7V49.5z M34,50.1v-0.2l0.4-0.2v0.2
							V50v0.3L34,50.5V50.1z M34.2,50.8v-0.2v-0.1l0.3-0.2v0.4v0.1L34.2,51V50.8z M34.3,51.5v-0.2l0.3-0.2v0.1v0.4l-0.3,0.2V51.5z
							 M34.3,52.4V52l0.3-0.2v0.4L34.3,52.4z M35,52l-0.3,0.2v-0.4l0.3-0.2V52z M35,51.1v0.3l-0.3,0.2v-0.4v-0.1l0.3-0.2V51.1z
							 M35,50.1v0.2v0.3l-0.3,0.2v-0.1v-0.4L35,50.1L35,50.1z M35,49.6v0.3l-0.4,0.2v-0.3v-0.1v-0.2l0.4-0.2V49.6z M34.7,49.4V49
							v-0.1l0.4-0.2v0.1V49v0.2L34.7,49.4z M35.5,51.7l-0.3,0.2v-0.4l0.3-0.2V51.7z M35.5,51.1l-0.3,0.2V51v-0.1v-0.1l0.3-0.2V51.1z
							 M35.5,50.2L35.5,50.2l-0.3,0.3v-0.3V50l0.3-0.2V50.2z M35.5,49.5l-0.4,0.2l0,0l0,0v-0.2v-0.3l0.4-0.2V49.5z M35.5,48.4v0.4
							L35.1,49v-0.2v-0.2v-0.1L35.5,48.4L35.5,48.4z M35.5,48.1l-0.4,0.3V48l0.4-0.3V48.1z"/>
					</g>
				</g>
				<path class="st16" d="M18,28.2l0.1-10.7c0-1.1,0.6-2.2,1.6-2.8L31.3,8C32,7.6,33,8.1,33,8.9v10.8c0,1.2-0.6,2.2-1.6,2.8
					l-11.7,6.7C19,29.6,18,29,18,28.2z"/>
				<path class="st22" d="M18.5,28.4V17.7c0-1.1,0.6-2.2,1.6-2.8l11.6-6.7c0.7-0.4,1.7,0.1,1.7,0.9v10.8c0,1.2-0.6,2.2-1.6,2.8
					l-11.7,6.7C19.4,29.8,18.4,29.3,18.5,28.4z"/>
				<path class="st18" d="M21,26.6l0.1-7.9c0-0.8,0.5-1.6,1.2-2l8.5-4.9c0.5-0.3,1.2,0.1,1.2,0.7v7.9c0,0.9-0.5,1.6-1.2,2.1
					l-8.6,4.8C21.8,27.6,21,27.2,21,26.6z"/>
				<path class="st16" d="M21,25.6l0.1-7.9c0-0.8,0.5-1.6,1.2-2l8.5-4.9c0.5-0.3,1.2,0.1,1.2,0.7v7.9c0,0.9-0.5,1.6-1.2,2.1
					l-8.6,4.8C21.8,26.6,21,26.2,21,25.6z"/>
				<path class="st22" d="M21.5,25.8l0.1-7.9c0-0.8,0.5-1.6,1.2-2l8.5-4.9c0.5-0.3,1.2,0.1,1.2,0.7v7.9c0,0.9-0.5,1.6-1.2,2.1
					l-8.5,4.9C22.1,26.8,21.5,26.5,21.5,25.8z"/>
				<path class="st23" d="M25.3,16.9l4.3-2.5c0.4-0.2,0.6-0.6,0.6-1v-1.2c0-0.3-0.3-0.5-0.6-0.3l-4.3,2.5c-0.4,0.2-0.6,0.6-0.6,1
					v1.1C24.6,16.9,25,17.1,25.3,16.9z"/>
				<path class="st18" d="M29.5,12.8c0.1-0.1,0.3-0.2,0.4-0.3v-0.2c0-0.3-0.3-0.5-0.6-0.3l-4.3,2.5c-0.2,0.1-0.3,0.2-0.4,0.4v0.2
					c0,0.3,0.3,0.5,0.6,0.4L29.5,12.8z"/>
			</g>
			<g>
				<g>
					<defs>
						<path id="SVGID_4_" d="M29.8,35.5c0.3,0,0.7-0.1,1-0.3L41,29.3c0.5-0.3,0.5-0.9,0-1.2l7-17c-0.3-0.2-15.5,0.3-15.8,0.3
							S19.9,12,19.6,12.2l1.5,17.4c-0.5,0.3-0.5,0.9,0,1.2l7.9,4.4C29.2,35.4,29.5,35.5,29.8,35.5z"/>
					</defs>
					<clipPath id="SVGID_5_">
						<use xlink:href="#SVGID_4_"  style="overflow:visible;"/>
					</clipPath>
					<g class="st24">
						<g>
							<g>
								<g>
									<g>
										<g>
											<g>
												<path class="st25" d="M32.5,24.8v-0.1c0,0,0.3-1.3,0.1-2.1c-0.2-0.9-0.8-1.3-0.8-1.5c0,0,0.1-0.1,0.1-0.2l0,0l0,0
													c0-0.1,0-0.2-0.1-0.2l0.1-0.4c0,0.1-0.2,0.1-0.4,0.1c-0.1,0-0.2-0.1-0.3-0.1s-0.2,0-0.3,0c-0.2-0.1-0.4-0.2-0.4-0.3
													l-0.1,0.4c-0.1,0-0.1,0.1-0.1,0.2l0,0l0,0c0,0.1,0,0.1,0,0.2l0,0c0,0.2-0.7,0.4-1.2,1.2c-0.5,0.8-0.6,2.1-0.6,2.1v0.1
													c0,0.2,0,0.4,0.1,0.5l-0.7,4.1c-0.1,0.1-0.2,0.2-0.2,0.3l0,0l0,0l0,0v0.1l-0.2,1.9c0,0,0,0.8,0.2,0.9l0,0h0.1
													c0,0,0.1,0,0.2,0c0,0,0.1,0,0.1,0.1c0,0.1,0,0.2,0,0.2s0.1,0.3,0.3,0.4l0,0c0.3,0.1,0.4,0.1,0.4,0.1s0.1,0.1,0.3,0
													c0.1,0,0.1,0,0.2-0.1c0.2-0.2,0.4-0.5,0.4-0.5s0.1,0,0.1,0.1l0.2,0.3c0,0,0,0,0,0.1c0.1,0.1,0.2,0.1,0.4,0
													c0.3-0.2,0.3-0.2,0.3-0.2s0.2-0.2,0.3-0.6l0.5-2.1v-0.1c0-0.1,0-0.3-0.1-0.4c0,0,0,0,0-0.1l0,0l0.7-4
													C32.3,25.2,32.3,25,32.5,24.8z M27.7,29.1L27.7,29.1C27.7,29,27.7,29,27.7,29.1C27.7,29,27.7,29,27.7,29.1z M29.3,25.3
													L29.3,25.3C29.3,25.2,29.3,25.2,29.3,25.3c0.2,0,0.4,0.1,0.6,0.2c0,0,0,0,0,0.1C29.5,25.4,29.3,25.3,29.3,25.3z
													 M31,25.6c-0.2,0-0.5,0-0.7-0.1c-0.1,0-0.3-0.1-0.4-0.1c0,0,0,0,0-0.1c0.1,0,0.3,0.1,0.4,0.1
													C30.5,25.6,30.8,25.6,31,25.6L31,25.6z M31.5,29.7L31.5,29.7L31.5,29.7L31.5,29.7z M32.3,24.3c0-0.1-0.1-0.1-0.1-0.2
													c0.1-0.2,0.1-0.5,0.2-0.7c0-0.4-0.1-1-0.3-1.5c0.1,0.1,0.3,0.3,0.4,0.6C32.5,23.1,32.5,23.7,32.3,24.3z"/>
											</g>
										</g>
									</g>
								</g>
							</g>
							<path class="st26" d="M32,20.3c0,0.1-0.1,0.1-0.2,0.1l-1.4-0.2c-0.1,0-0.1-0.1-0.1-0.2l0.1-0.5c0-0.1,0.1-0.1,0.2-0.1
								l1.4,0.2c0.1,0,0.1,0.1,0.1,0.2L32,20.3z"/>
						</g>
						<g>
							<g>
								<g>
									<g>
										<g>
											<g>
												<path class="st25" d="M28,24v-0.2c0,0-0.2-1.8-0.9-2.8s-1.6-1.3-1.7-1.6c0-0.1,0.1-0.2,0-0.2l0,0l0,0
													c0-0.1-0.1-0.2-0.2-0.3l-0.1-0.5c0,0.1-0.2,0.3-0.5,0.4c-0.1,0-0.3,0-0.5,0s-0.3,0.1-0.4,0.1c-0.3,0-0.6-0.1-0.6-0.2
													l0.1,0.6c0,0,0,0.1,0,0.2l0,0l0,0c0,0.1,0,0.1,0.1,0.2l0,0c0,0.2-0.7,0.9-1,2.1s0.1,2.9,0.1,2.9v0.2
													c0,0.2,0.2,0.5,0.4,0.6l1,5.6c-0.1,0.2-0.1,0.4-0.1,0.5l0,0l0,0l0,0c0,0.1,0,0.1,0.1,0.2l0.7,2.6c0,0,0.4,1.1,0.7,1l0,0
													h0.1c0,0,0.2,0,0.2-0.1c0,0,0.1-0.1,0.2,0.1c0.1,0.2,0.2,0.3,0.2,0.3s0.2,0.4,0.6,0.4l0,0c0.4,0,0.5,0,0.5,0
													s0.2,0,0.4-0.1c0.1,0,0.1-0.1,0.2-0.2C27.8,35.5,28,35,28,35c0-0.1,0.1-0.1,0.2,0l0.4,0.3c0,0,0,0,0.1,0.1
													c0.1,0,0.3,0,0.4-0.2c0.2-0.4,0.2-0.4,0.2-0.4s0.2-0.4,0.1-0.8l-0.3-2.9c0-0.1,0-0.1,0-0.2c0-0.2-0.1-0.3-0.3-0.5
													c0,0,0-0.1-0.1-0.1l0,0l-0.8-5.6C28,24.5,28,24.2,28,24z M24,31.6L24,31.6C24,31.5,24,31.5,24,31.6
													C24,31.5,24,31.5,24,31.6z M24.1,26L24.1,26C24.1,25.9,24.1,25.9,24.1,26c0.2,0,0.5,0,0.8,0c0,0,0,0,0,0.1
													C24.6,26,24.4,26,24.1,26z M26.5,25.7c-0.3,0.1-0.6,0.2-1,0.3c-0.2,0-0.3,0.1-0.5,0.1c0,0,0,0,0-0.1
													c0.2,0,0.4,0,0.5-0.1C25.8,25.8,26.3,25.7,26.5,25.7L26.5,25.7z M29,30.7L29,30.7C29,30.6,29,30.6,29,30.7
													C29,30.6,29,30.6,29,30.7z M27.5,23.3c-0.1,0-0.2-0.1-0.3-0.1c0-0.3-0.1-0.7-0.1-1c-0.2-0.6-0.6-1.3-1-1.8
													c0.2,0.1,0.5,0.3,0.8,0.6C27.3,21.7,27.5,22.5,27.5,23.3z"/>
											</g>
										</g>
									</g>
								</g>
							</g>
							<path class="st26" d="M25.3,18.4c0,0.1-0.1,0.2-0.2,0.2l-1.9,0.3c-0.1,0-0.2-0.1-0.2-0.2l-0.1-0.6c0-0.1,0.1-0.2,0.2-0.2
								l1.9-0.3c0.1,0,0.2,0.1,0.2,0.2L25.3,18.4z"/>
						</g>
						<g>
							<g>
								<g>
									<g>
										<g>
											<g>
												<path class="st25" d="M41,25.2v-0.1c0,0,0.4-1,0.3-1.8c-0.1-0.7-0.5-1.2-0.4-1.3l0.1-0.1l0,0l0,0c0-0.1,0-0.1,0-0.2
													l0.1-0.3c0,0.1-0.2,0.1-0.4,0.1c-0.1,0-0.2-0.1-0.3-0.1s-0.2,0-0.3-0.1c-0.2-0.1-0.3-0.2-0.3-0.3l-0.1,0.3
													c-0.1,0-0.1,0.1-0.1,0.1l0,0l0,0v0.1l0,0c0,0.1-0.6,0.3-1.1,0.8c-0.5,0.6-0.8,1.6-0.8,1.6V24c0,0.1,0,0.3,0,0.4
													l-1.1,3.4c-0.1,0.1-0.2,0.2-0.2,0.3l0,0l0,0l0,0v0.1L36,29.8c0,0-0.1,0.7,0.1,0.7l0,0l0,0c0,0,0.1,0,0.2,0
													c0,0,0.1,0,0.1,0.1s0,0.2,0,0.2s0,0.3,0.2,0.4l0,0c0.2,0.1,0.3,0.1,0.3,0.1s0.2,0.4,0.3,0.4c0,0,0.1,0,0.2-0.1
													c0.2-0.1,0.4-0.3,0.4-0.4c0,0,0,0,0.1,0.1l0.1,0.3c0,0,0,0,0,0.1s0.1,0.1,0.3,0c0.3-0.2,0.3-0.2,0.3-0.2
													s0.2-0.2,0.3-0.4l0.7-1.6c0,0,0-0.1,0.1-0.1c0-0.1,0-0.2,0-0.3c0,0,0,0,0-0.1l0,0l1.1-3.3C41,25.5,41,25.4,41,25.2z
													 M36.7,28.2L36.7,28.2L36.7,28.2L36.7,28.2z M38.3,25.2L38.3,25.2L38.3,25.2c0.1,0,0.3,0.1,0.5,0.2l0,0
													C38.7,25.4,38.5,25.3,38.3,25.2z M39.8,25.7c-0.2,0-0.4-0.1-0.6-0.1c-0.1,0-0.2-0.1-0.3-0.1l0,0c0.1,0,0.2,0.1,0.3,0.1
													C39.3,25.6,39.5,25.7,39.8,25.7L39.8,25.7z M39.7,29.2L39.7,29.2L39.7,29.2L39.7,29.2z M41,24.8l-0.1-0.1
													c0.1-0.2,0.2-0.4,0.2-0.6c0.1-0.4,0-0.9,0-1.3c0.1,0.1,0.2,0.3,0.3,0.6C41.3,23.8,41.3,24.3,41,24.8z"/>
											</g>
										</g>
									</g>
								</g>
							</g>
							<path class="st26" d="M41.3,21.5c0,0.1-0.1,0.1-0.2,0.1L40,21.2c-0.1,0-0.1-0.1-0.1-0.2l0.1-0.4c0-0.1,0.1-0.1,0.2-0.1
								l1.1,0.4c0.1,0,0.1,0.1,0.1,0.2L41.3,21.5z"/>
						</g>
						<g>
							<g>
								<g>
									<g>
										<g>
											<g>
												<path class="st25" d="M37.5,23.1v-0.2c0,0,0-1.6-0.4-2.6c-0.5-1-1.3-1.4-1.3-1.6c0-0.1,0.1-0.1,0.1-0.2l0,0l0,0
													c0-0.1,0-0.2-0.1-0.3v-0.5c0,0.1-0.2,0.2-0.5,0.3c-0.1,0-0.3,0-0.4,0c-0.2,0-0.3,0-0.4,0.1c-0.3,0-0.5-0.1-0.5-0.3v0.5
													c-0.1,0.1-0.1,0.2-0.1,0.2l0,0l0,0c0,0.1,0,0.1,0.1,0.2l0,0c0,0.2-0.8,0.7-1.1,1.7c-0.4,1-0.2,2.6-0.2,2.6v0.2
													c0,0.2,0.1,0.4,0.3,0.6l0.2,5.2c-0.1,0.1-0.1,0.3-0.1,0.5l0,0l0,0l0,0c0,0.1,0,0.1,0,0.2l0.3,2.4c0,0,0.2,1,0.5,1l0,0
													H34c0,0,0.1,0,0.2-0.1c0,0,0.1-0.1,0.1,0.1c0,0.1,0.1,0.3,0.1,0.3s0.2,0.4,0.5,0.5l0,0c0.3,0.1,0.5,0.1,0.5,0.1
													s0.2,0,0.3,0s0.1-0.1,0.2-0.2c0.2-0.3,0.4-0.7,0.4-0.7s0.1-0.1,0.2,0.1l0.3,0.3c0,0,0,0,0.1,0.1c0.1,0,0.2,0.1,0.4-0.1
													c0.3-0.4,0.3-0.4,0.3-0.4s0.2-0.3,0.2-0.7l0.1-2.6c0-0.1,0-0.1,0-0.2c0-0.2-0.1-0.3-0.2-0.5V29l0,0l-0.1-5.1
													C37.5,23.6,37.5,23.4,37.5,23.1z M33,29.5L33,29.5C33,29.4,33,29.4,33,29.5C33,29.4,33,29.5,33,29.5z M33.8,24.5
													L33.8,24.5C33.8,24.4,33.8,24.4,33.8,24.5c0.2,0,0.5,0,0.7,0.1c0,0,0,0,0,0.1C34.3,24.6,34,24.5,33.8,24.5z M36,24.5
													c-0.3,0.1-0.6,0.1-0.9,0.1c-0.2,0-0.3,0-0.5,0c0,0,0,0,0-0.1c0.2,0,0.3,0,0.5,0C35.5,24.5,35.8,24.5,36,24.5L36,24.5z
													 M37.7,29.3L37.7,29.3L37.7,29.3L37.7,29.3z M37.2,22.5c-0.1-0.1-0.1-0.1-0.2-0.1c0-0.3,0-0.6,0-0.9
													c-0.1-0.5-0.4-1.2-0.7-1.8c0.2,0.1,0.4,0.3,0.6,0.6C37.3,21,37.3,21.8,37.2,22.5z"/>
											</g>
										</g>
									</g>
								</g>
							</g>
							<path class="st26" d="M36,17.8c0,0.1-0.1,0.2-0.2,0.2L34,18.1c-0.1,0-0.2-0.1-0.2-0.2v-0.6c0-0.1,0.1-0.2,0.2-0.2l1.7-0.1
								c0.1,0,0.2,0.1,0.2,0.2V17.8z"/>
						</g>
						<g>
							<polygon class="st27" points="25.8,37.8 40.5,34.7 40.3,33.9 25.8,37 							"/>
							<g>
								<path class="st28" d="M25.8,37.8c0.5-0.1,0.4-1,0.4-1l13-2.8l-2.6-12.1l-14.2,3L25,37.3C25.1,37.6,25.3,37.9,25.8,37.8z"/>
							</g>
							
								<rect x="24.5" y="22" transform="matrix(0.9781 -0.2083 0.2083 0.9781 -5.2965 7.2539)" class="st27" width="14.5" height="13.6"/>
							<g>
								<g>
									<g>
										<path class="st29" d="M25.5,26.5l-0.4-1.7l0.5-0.1l0.5,0.6c0.1,0.2,0.3,0.4,0.4,0.5l0,0c-0.1-0.2-0.1-0.5-0.2-0.7
											l-0.1-0.5l0.4-0.1l0.4,1.7l-0.4,0.1L26,25.7c-0.1-0.2-0.3-0.4-0.4-0.5l0,0c0.1,0.2,0.1,0.5,0.2,0.7l0.1,0.5L25.5,26.5z"/>
										<path class="st29" d="M28.2,25.2l-0.6,0.1l0.1,0.4l0.7-0.2l0.1,0.3L27.4,26L27,24.3l1.1-0.2l0.1,0.3l-0.7,0.1l0.1,0.4
											l0.6-0.1L28.2,25.2z"/>
										<path class="st29" d="M29,25.8l-0.8-1.6l0.4-0.1l0.3,0.7c0.1,0.2,0.2,0.4,0.2,0.6l0,0c0-0.2,0-0.4,0-0.6v-0.7l0.4-0.1
											l0.3,0.7c0.1,0.2,0.1,0.4,0.2,0.6l0,0c0-0.2,0-0.4,0-0.6V24l0.4-0.1l-0.1,1.8l-0.4,0.1l-0.3-0.7c-0.1-0.2-0.1-0.3-0.2-0.5
											l0,0c0,0.2,0,0.4,0,0.6V26L29,25.8z"/>
										<path class="st29" d="M30.8,24.9c0.1,0,0.3,0.1,0.5,0c0.2,0,0.3-0.1,0.2-0.2c0-0.1-0.1-0.2-0.3-0.2
											c-0.3,0-0.5-0.2-0.6-0.4c-0.1-0.3,0.1-0.6,0.5-0.7c0.2,0,0.3,0,0.5,0v0.3c-0.1,0-0.2,0-0.4,0S31,23.8,31,23.9
											s0.1,0.1,0.4,0.2c0.3,0,0.5,0.2,0.6,0.4c0.1,0.3-0.1,0.6-0.6,0.7c-0.2,0-0.4,0-0.5,0L30.8,24.9z"/>
									</g>
								</g>
								
									<rect x="32.5" y="23.1" transform="matrix(0.9781 -0.2083 0.2083 0.9781 -4.1464 7.7533)" class="st30" width="4.4" height="1"/>
							</g>
							
								<rect x="24.9" y="25.6" transform="matrix(0.9781 -0.2083 0.2083 0.9781 -4.6979 7.1176)" class="st28" width="13" height="0.6"/>
							
								<rect x="25.6" y="27.1" transform="matrix(0.9781 -0.2083 0.2083 0.9781 -5.4417 6.6805)" class="st30" width="6.9" height="4.2"/>
							
								<rect x="32.4" y="25.8" transform="matrix(0.9781 -0.2083 0.2083 0.9781 -4.6471 7.9044)" class="st28" width="5.7" height="0.5"/>
							
								<rect x="32.6" y="27" transform="matrix(0.9781 -0.2083 0.2083 0.9781 -4.8952 7.9728)" class="st28" width="5.7" height="0.5"/>
							
								<rect x="32.9" y="28.2" transform="matrix(0.9781 -0.2083 0.2083 0.9781 -5.1366 8.0612)" class="st28" width="5.7" height="0.5"/>
							
								<rect x="33.2" y="29.4" transform="matrix(0.9781 -0.2083 0.2083 0.9781 -5.3782 8.1495)" class="st28" width="5.7" height="0.5"/>
							
								<rect x="26.4" y="31.3" transform="matrix(0.9781 -0.2083 0.2083 0.9781 -5.9717 7.5141)" class="st31" width="12.5" height="1.7"/>
							
								<rect x="27" y="34.4" transform="matrix(0.9781 -0.2083 0.2083 0.9781 -6.6132 6.9221)" class="st30" width="5.2" height="1"/>
							
								<rect x="33.9" y="32.9" transform="matrix(0.9781 -0.2083 0.2083 0.9781 -6.1475 8.347)" class="st30" width="5.4" height="1"/>
							
								<rect x="27.2" y="35.8" transform="matrix(0.9781 -0.2083 0.2083 0.9781 -6.8511 6.9876)" class="st28" width="5.2" height="0.5"/>
							
								<rect x="34.3" y="34.3" transform="matrix(0.9781 -0.2083 0.2083 0.9781 -6.3824 8.434)" class="st28" width="5.2" height="0.5"/>
						</g>
					</g>
				</g>
			</g>
		</g>
	</g>
</g>
</svg>
