<?xml version="1.0" encoding="utf-8"?>
<!-- Generator: Adobe Illustrator 22.0.0, SVG Export Plug-In . SVG Version: 6.00 Build 0)  -->
<svg version="1.1" id="图层_1" xmlns="http://www.w3.org/2000/svg" xmlns:xlink="http://www.w3.org/1999/xlink" x="0px" y="0px"
	 viewBox="0 0 60 79" style="enable-background:new 0 0 60 79;" xml:space="preserve">
<style type="text/css">
	.st0{fill:url(#SVGID_1_);}
	.st1{fill:#FFFFFF;}
	.st2{fill:#F3D516;}
	.st3{clip-path:url(#SVGID_3_);}
	.st4{fill:#1F1F1F;}
	.st5{fill:#2A2A2A;}
	.st6{fill:#1D1D1D;}
	.st7{fill:#3B3B3B;}
	.st8{fill:#727272;}
	.st9{fill:#A9A9A9;}
	.st10{fill:#EAEAEA;}
	.st11{fill:#4D4D4D;}
	.st12{fill:#949494;}
	.st13{fill:#C4C4C4;}
	.st14{fill:#808080;}
	.st15{fill:#616161;}
	.st16{fill:#B8B8B8;}
	.st17{fill:#707070;}
	.st18{fill:#696969;}
	.st19{fill:#BFBFBF;}
</style>
<g>
	
		<radialGradient id="SVGID_1_" cx="30.4933" cy="76.2912" r="17.4476" gradientTransform="matrix(1 0 0 0.1461 0 65.1462)" gradientUnits="userSpaceOnUse">
		<stop  offset="0" style="stop-color:#7A7A7A"/>
		<stop  offset="1" style="stop-color:#FFFFFF;stop-opacity:0"/>
	</radialGradient>
	<ellipse class="st0" cx="30.5" cy="76.3" rx="17" ry="2.7"/>
	<g>
		<path class="st1" d="M57.2,29.7c0,15-27.2,43.4-27.2,43.4S2.8,44.7,2.8,29.7S15,2.5,30,2.5S57.2,14.7,57.2,29.7z"/>
		<path class="st2" d="M30,2.5c15,0,27.2,12.2,27.2,27.2S30,73.1,30,73.1S2.8,44.7,2.8,29.7S15,2.5,30,2.5 M30,0.7
			c-16,0-29,13-29,29c0,15.6,26.6,43.5,27.7,44.7l1.3,1.4l1.3-1.4C32.5,73.2,59,45.3,59,29.7C59,13.7,46,0.7,30,0.7L30,0.7z"/>
	</g>
	<g>
		<defs>
			<path id="SVGID_2_" d="M57.2,29.7c0,15-27.2,43.4-27.2,43.4S2.8,44.7,2.8,29.7S15,2.5,30,2.5S57.2,14.7,57.2,29.7z"/>
		</defs>
		<clipPath id="SVGID_3_">
			<use xlink:href="#SVGID_2_"  style="overflow:visible;"/>
		</clipPath>
		<g id="图层_1_2_" class="st3">
			<g>
				<g>
					<path d="M20.3,56.9l-3.2-5.3l1.6-1l0,0c0.4-0.2,1-0.2,1.5,0.1c1.2,0.6,2.3,2.4,2.3,3.8c0,0.6-0.2,1.1-0.5,1.4l0,0l0,0l0,0
						L20.3,56.9z"/>
					<path class="st4" d="M17.7,52l2.3-1.3c0.1,0,0.2,0.1,0.4,0.2c1.2,0.6,2.3,2.4,2.3,3.8c0,0.2,0,0.4-0.1,0.6l-1.7,1
						c-0.2,0-0.4-0.1-0.5-0.2c-0.2-0.1-0.4-0.3-0.6-0.4l-1.7-2.8C17.7,52.5,17.7,52.2,17.7,52z"/>
					<path class="st5" d="M16.5,53c0,1.4,1,3,2.3,3.8c1.2,0.6,2.1,0.1,2.1-1.3c0-1.4-1-3-2.3-3.8C17.5,51.1,16.5,51.6,16.5,53z"/>
					<path class="st6" d="M16.6,53c0,1.3,1,2.9,2.1,3.5s2.1,0.1,2-1.2c0-1.3-1-2.9-2.1-3.5C17.6,51.2,16.6,51.8,16.6,53z"/>
					<path class="st7" d="M17.1,53.4c0,1.1,0.8,2.3,1.7,2.8c0.9,0.5,1.6,0.1,1.6-1c0-1.1-0.8-2.3-1.7-2.8
						C17.8,51.9,17.1,52.3,17.1,53.4z"/>
					<path class="st8" d="M17.2,53.4c0,1,0.8,2.1,1.5,2.6c0.9,0.4,1.5,0.1,1.5-0.9c0-1-0.8-2.1-1.5-2.6
						C17.9,52.1,17.2,52.4,17.2,53.4z"/>
					<path class="st9" d="M18.8,52.5c0.9,0.4,1.5,1.6,1.5,2.6c0,0.1,0,0.2,0,0.3L19.2,56c-0.1,0-0.2-0.1-0.3-0.1
						c-0.9-0.4-1.5-1.6-1.5-2.6L18.8,52.5z"/>
					<path class="st10" d="M19.5,53.3c0.3,0.4,0.5,0.9,0.6,1.3l-1.8,1.1c-0.3-0.3-0.6-0.8-0.9-1.2L19.5,53.3z"/>
					<path class="st10" d="M19.5,53.3c0.3,0.4,0.5,0.9,0.6,1.3l-1.8,1.1c-0.3-0.3-0.6-0.8-0.9-1.2L19.5,53.3z"/>
					<path class="st11" d="M17.5,53.5c0,0.9,0.6,1.8,1.3,2.3c0.8,0.4,1.3,0.1,1.3-0.8c0-0.9-0.6-1.8-1.3-2.3
						C18,52.3,17.5,52.6,17.5,53.5z"/>
					<path class="st12" d="M17.9,53.4c0,0.6,0.4,1.4,1.1,1.7c0.5,0.3,1.1,0.1,1.1-0.6c0-0.6-0.4-1.4-1.1-1.7
						C18.3,52.5,17.9,52.7,17.9,53.4z"/>
					<path class="st13" d="M18.3,53.9c0,0.3,0.2,0.6,0.4,0.8c0.2,0.1,0.4,0,0.4-0.2c0-0.3-0.2-0.6-0.4-0.8
						C18.6,53.5,18.3,53.7,18.3,53.9z"/>
					<path class="st11" d="M18.6,54.1c0,0.1,0.1,0.3,0.2,0.4c0.1,0.1,0.2,0,0.2-0.1s-0.1-0.3-0.2-0.4C18.7,53.9,18.6,53.9,18.6,54.1
						z"/>
					<path d="M20.3,56.8l1-0.5l0,0l0,0l0,0c0.3-0.2,0.5-0.8,0.5-1.4c0-1.4-1-3-2.3-3.8c-0.6-0.3-1.2-0.3-1.5-0.1l0,0l0.1-0.1l0,0
						c0.4-0.2,1-0.2,1.5,0.1c1.2,0.6,2.3,2.4,2.3,3.8c0,0.6-0.2,1.1-0.5,1.4l0,0l0,0l0,0L20.3,56.8L20.3,56.8z"/>
					<path d="M20.3,56.9l0.4-0.3l0,0l0,0l0,0c0.3-0.2,0.5-0.8,0.5-1.4c0-1.4-1-3-2.3-3.8c-0.6-0.3-1.2-0.3-1.5-0.1l0,0l0.1-0.1l0,0
						c0.4-0.2,1-0.2,1.5,0.1c1.2,0.6,2.3,2.4,2.3,3.8c0,0.6-0.2,1.1-0.5,1.4l0,0l0,0l0,0L20.3,56.9L20.3,56.9z"/>
				</g>
				<path class="st14" d="M27.4,60.2l16.1-9.3l2.5-29.4l-14.2,8.3c-0.6,0.3-1.3,0.5-1.9,0.5L27.4,60.2z"/>
				<g>
					<polygon class="st15" points="41.9,51.9 40.9,52.4 43.6,20.5 44.4,20 					"/>
					<polygon class="st15" points="32.3,27.1 33.3,26.5 30.6,58.3 29.7,58.8 					"/>
				</g>
				<path class="st16" d="M16.2,23.4l1.6,26.9c0.4,0,0.9,0.1,1.4,0.3c1.6,0.9,2.8,3,2.9,4.7c0,0.6-0.2,1.2-0.5,1.6l5.7,3.2l2.6-29.9
					c-0.1,0-0.1,0-0.2,0c-0.8,0-1.4-0.2-2-0.5L16.2,23.4z"/>
				<path class="st17" d="M16.2,20.7v2.8l11.4,6.3c0.6,0.3,1.4,0.5,2,0.5c0.1,0,0.1,0,0.2,0l0.1-1.9L16.2,20.7z"/>
				<path class="st18" d="M29.8,30.3c0.6,0,1.3-0.2,1.9-0.5l14.2-8.3L46,19l-16.1,9.3L29.8,30.3z"/>
				<path class="st14" d="M29.6,29.4c0.8,0,1.5-0.2,2.1-0.5l15.1-8.8c0.6-0.8,0.2-2.4-0.5-3.3l-1.6-0.4L30.2,27.5
					C29.5,27.9,29.3,28.8,29.6,29.4z"/>
				<path class="st16" d="M15.3,22.1L27.6,29c0.6,0.3,1.4,0.5,2,0.5c-0.3-0.6-0.2-1.5,0.5-1.9l14.5-11.2l-10-5.7
					c-1.3-0.8-2.9-0.8-4.3,0l-14.6,7.9C15.2,19.5,14.6,21.2,15.3,22.1z"/>
				<path class="st19" d="M16.2,20.7l11.6,6.4c1.3,0.6,2.8,0.6,4,0L46,18.9c0.9-0.5,0.9-1.8,0-2.4L34.6,10c-1.3-0.8-2.8-0.8-4,0
					l-14.3,8.4C15.3,18.9,15.3,20.2,16.2,20.7z"/>
				<path class="st16" d="M43.4,16.8l-9.8-5.6c-0.3-0.1-0.8-0.2-1.2-0.2c-0.4,0-0.9,0.1-1.2,0.3l-12.6,7.4c-0.5,0.3-0.5,1.2,0,1.5
					l9.8,5.5c0.3,0.2,0.8,0.3,1.2,0.3c0.4,0,0.9-0.1,1.2-0.3l1.5-0.9l0,0l11.1-6.3C43.9,17.9,43.9,17.1,43.4,16.8z"/>
				<g>
					<path class="st1" d="M34.7,37.5l4.5-2.8c0,0,1.2,1,1.2,2.4l-2.3,1.5v-0.4l-0.5-1.3L34.7,37.5z"/>
					<polygon class="st1" points="40.3,37.4 40.3,44.1 39.3,40.4 37.8,45.6 38.1,38.7 					"/>
					<path class="st1" d="M39,33.6c0,0.5-0.3,1.3-0.8,1.5s-0.9,0-0.9-0.5c0-0.5,0.3-1.3,0.8-1.5S39,33.1,39,33.6z"/>
					<path class="st1" d="M34.8,38.8c0,0-0.1,0.8-0.2,1.1c-0.2,0.4-0.5,0.8-0.5,0.8s0.2,0.4,0.8,0.2c0.5-0.2,0.6-0.6,1-0.8
						c0.3-0.1,0.3-0.1,0.3-0.1s-0.1-0.3,0.2-0.9c0.3-0.4,0.4-0.9,0.5-1.2C36.7,38,35.5,38.9,34.8,38.8z"/>
					<path class="st1" d="M37.2,39.8l-3.5,2.3c-0.1,0-0.1,0.2-0.1,0.3l0,0c0,0.1,0.1,0.1,0.2,0.1l0.1-0.1l1,5l2.1-1.3l0.3-5.8
						l0.1-0.1c0.1,0,0.1-0.2,0.1-0.3l0,0C37.5,39.8,37.3,39.7,37.2,39.8z M36.2,41.2v0.5L35.6,42v-0.5L36.2,41.2z M35.4,42.2
						l-0.5,0.3V42l0.5-0.3V42.2z M34.1,42.5l0.5-0.3l0.1,0.4L34.2,43L34.1,42.5z M34.2,43.3v-0.1l0.5-0.3V43v0.2v0.2l-0.4,0.3
						L34.2,43.3z M34.3,43.9l0.4-0.3v0.3v0.2l0,0v0.1l-0.4,0.3V43.9z M34.6,45.2l-0.1-0.4l0.4-0.2v0.3v0.3l-0.3,0.2V45.2z
						 M34.7,45.6l0.4-0.2v0.1v0.1V46l-0.3,0.2L34.7,45.6z M34.9,46.9l-0.1-0.4l0.3-0.2l0.1,0.4L34.9,46.9z M35,43.2V43v-0.1l0.5-0.3
						v0.1v0.4l-0.4,0.3L35,43.2z M35.1,43.8v-0.3l0.4-0.3v0.2v0.1v0.3l-0.4,0.3V43.8z M35.2,44.7v-0.2v-0.1l0.4-0.2v0.4v0.2L35.2,45
						V44.7z M35.2,45.5v-0.3l0.4-0.2v0.1v0.4l-0.3,0.2L35.2,45.5z M35.3,46.6v-0.5l0.3-0.2v0.5L35.3,46.6z M36.2,46.1l-0.3,0.2v-0.5
						l0.3-0.2V46.1z M36.2,45v0.3l-0.3,0.2V45v-0.1l0.4-0.2L36.2,45z M36.2,43.8V44v0.3l-0.4,0.2v-0.2v-0.4L36.2,43.8L36.2,43.8z
						 M36.2,43.2v0.3l-0.4,0.3v-0.3v-0.1v-0.2l0.4-0.3V43.2z M35.7,42.8v-0.4v-0.1l0.5-0.3v0.1v0.2v0.2L35.7,42.8z M36.7,45.7
						L36.4,46v-0.5l0.3-0.1V45.7z M36.7,45l-0.3,0.2v-0.3v-0.2v-0.1l0.4-0.2L36.7,45z M36.8,43.9v0.2l-0.4,0.2V44v-0.3l0.4-0.2V43.9
						z M36.8,43.1l-0.4,0.3v-0.1l0,0v-0.2v-0.3l0.4-0.3V43.1z M36.9,41.7v0.4l-0.4,0.3v-0.2V42v-0.1l0.5-0.3L36.9,41.7z M36.9,41.2
						l-0.5,0.3V41l0.5-0.3V41.2z"/>
				</g>
			</g>
		</g>
	</g>
</g>
</svg>
