<?xml version="1.0" encoding="utf-8"?>
<!-- Generator: Adobe Illustrator 22.0.0, SVG Export Plug-In . SVG Version: 6.00 Build 0)  -->
<svg version="1.1" id="图层_1" xmlns="http://www.w3.org/2000/svg" xmlns:xlink="http://www.w3.org/1999/xlink" x="0px" y="0px"
	 viewBox="0 0 60 79" style="enable-background:new 0 0 60 79;" xml:space="preserve">
<style type="text/css">
	.st0{fill:url(#SVGID_1_);}
	.st1{fill:#FFFFFF;}
	.st2{fill:#F3D516;}
	.st3{clip-path:url(#SVGID_3_);}
	.st4{fill:#1F1F1F;}
	.st5{fill:#2A2A2A;}
	.st6{fill:#1D1D1D;}
	.st7{fill:#3B3B3B;}
	.st8{fill:#727272;}
	.st9{fill:#A9A9A9;}
	.st10{fill:#E9EAE7;}
	.st11{fill:#4D4D4D;}
	.st12{fill:#949494;}
	.st13{fill:#C4C4C4;}
	.st14{fill:#448000;}
	.st15{fill:#306100;}
	.st16{fill:#76B805;}
	.st17{fill:#407000;}
	.st18{fill:#246909;}
	.st19{fill:#8CBF34;}
</style>
<g>
	
		<radialGradient id="SVGID_1_" cx="30.4933" cy="76.2912" r="17.4476" gradientTransform="matrix(1 0 0 0.1461 0 65.1462)" gradientUnits="userSpaceOnUse">
		<stop  offset="0" style="stop-color:#7A7A7A"/>
		<stop  offset="1" style="stop-color:#FFFFFF;stop-opacity:0"/>
	</radialGradient>
	<ellipse class="st0" cx="30.5" cy="76.3" rx="17" ry="2.7"/>
	<g>
		<path class="st1" d="M57.2,29.7c0,15-27.2,43.4-27.2,43.4S2.8,44.7,2.8,29.7S15,2.5,30,2.5S57.2,14.7,57.2,29.7z"/>
		<path class="st2" d="M30,2.5c15,0,27.2,12.2,27.2,27.2S30,73.1,30,73.1S2.8,44.7,2.8,29.7S15,2.5,30,2.5 M30,0.7
			c-16,0-29,13-29,29c0,15.6,26.6,43.5,27.7,44.7l1.3,1.4l1.3-1.4C32.5,73.2,59,45.3,59,29.7C59,13.7,46,0.7,30,0.7L30,0.7z"/>
	</g>
	<g>
		<defs>
			<path id="SVGID_2_" d="M57.2,29.7c0,15-27.2,43.4-27.2,43.4S2.8,44.7,2.8,29.7S15,2.5,30,2.5S57.2,14.7,57.2,29.7z"/>
		</defs>
		<clipPath id="SVGID_3_">
			<use xlink:href="#SVGID_2_"  style="overflow:visible;"/>
		</clipPath>
		<g id="图层_1_1_" class="st3">
			<g>
				<g>
					<path d="M20.5,57.9l-3.3-5.3l1.6-1l0,0c0.4-0.2,1-0.2,1.5,0.1c1.2,0.7,2.3,2.4,2.3,3.8c0,0.7-0.2,1.1-0.5,1.4l0,0l0,0l0,0
						L20.5,57.9z"/>
					<path class="st4" d="M17.9,52.8l2.3-1.3c0.1,0,0.2,0.1,0.4,0.2c1.2,0.7,2.3,2.4,2.3,3.8c0,0.2,0,0.4-0.1,0.7l-1.7,1
						c-0.2,0-0.4-0.1-0.5-0.2c-0.2-0.1-0.4-0.3-0.7-0.4l-1.7-2.8C17.9,53.4,17.9,53.1,17.9,52.8z"/>
					<path class="st5" d="M16.7,53.9c0,1.4,1,3.1,2.3,3.8c1.2,0.7,2.2,0.1,2.2-1.3c0-1.4-1-3.1-2.3-3.8C17.7,52,16.7,52.5,16.7,53.9
						z"/>
					<path class="st6" d="M16.8,53.9c0,1.3,1,2.9,2.2,3.6c1.2,0.7,2.2,0.1,2.1-1.2c0-1.3-1-2.9-2.2-3.6
						C17.8,52.1,16.8,52.6,16.8,53.9z"/>
					<path class="st7" d="M17.2,54.3c0,1.1,0.8,2.3,1.7,2.8c0.9,0.5,1.6,0.1,1.6-1c0-1.1-0.8-2.3-1.7-2.8
						C18,52.7,17.2,53.2,17.2,54.3z"/>
					<path class="st8" d="M17.3,54.3c0,1,0.8,2.2,1.5,2.6c0.9,0.4,1.5,0.1,1.5-0.9c0-1-0.8-2.2-1.5-2.6
						C18.1,52.9,17.3,53.3,17.3,54.3z"/>
					<path class="st9" d="M19,53.4c0.9,0.4,1.5,1.6,1.5,2.6c0,0.1,0,0.2,0,0.3L19.4,57c-0.1,0-0.2-0.1-0.3-0.1
						c-0.9-0.4-1.5-1.6-1.5-2.6L19,53.4z"/>
					<path class="st10" d="M19.7,54.1c0.3,0.4,0.5,0.9,0.7,1.3l-1.9,1.1c-0.3-0.3-0.7-0.8-0.9-1.2L19.7,54.1z"/>
					<path class="st10" d="M19.7,54.1c0.3,0.4,0.5,0.9,0.7,1.3l-1.9,1.1c-0.3-0.3-0.7-0.8-0.9-1.2L19.7,54.1z"/>
					<path class="st11" d="M17.7,54.4c0,0.9,0.7,1.9,1.3,2.3c0.8,0.4,1.3,0.1,1.3-0.8S19.6,54,19,53.6
						C18.2,53.2,17.7,53.5,17.7,54.4z"/>
					<path class="st12" d="M18.1,54.3c0,0.7,0.4,1.4,1.1,1.7c0.5,0.3,1.1,0.1,1.1-0.7c0-0.7-0.4-1.4-1.1-1.7
						C18.5,53.4,18.1,53.6,18.1,54.3z"/>
					<path class="st13" d="M18.5,54.8c0,0.3,0.2,0.7,0.4,0.8c0.2,0.1,0.4,0,0.4-0.2c0-0.3-0.2-0.7-0.4-0.8
						C18.8,54.4,18.5,54.6,18.5,54.8z"/>
					<path class="st11" d="M18.8,55c0,0.1,0.1,0.3,0.2,0.4c0.1,0.1,0.2,0,0.2-0.1S19.1,55,19,54.9C18.9,54.8,18.8,54.8,18.8,55z"/>
					<path d="M20.5,57.7l1-0.5l0,0l0,0l0,0c0.3-0.2,0.5-0.8,0.5-1.4c0-1.4-1-3.1-2.3-3.8c-0.7-0.3-1.2-0.3-1.5-0.1l0,0l0.1-0.1l0,0
						c0.4-0.2,1-0.2,1.5,0.1c1.2,0.7,2.3,2.4,2.3,3.8c0,0.7-0.2,1.1-0.5,1.4l0,0l0,0l0,0L20.5,57.7L20.5,57.7z"/>
					<path d="M20.5,57.9l0.4-0.3l0,0l0,0l0,0c0.3-0.2,0.5-0.8,0.5-1.4c0-1.4-1-3.1-2.3-3.8C18.5,52,18,52,17.7,52.2l0,0l0.1-0.1l0,0
						c0.4-0.2,1-0.2,1.5,0.1c1.2,0.7,2.3,2.4,2.3,3.8c0,0.7-0.2,1.1-0.5,1.4l0,0l0,0l0,0L20.5,57.9L20.5,57.9z"/>
				</g>
				<path class="st14" d="M27.7,61.2l16.4-9.5l2.5-29.9l-14.4,8.4c-0.7,0.3-1.3,0.5-2,0.5L27.7,61.2z"/>
				<g>
					<polygon class="st15" points="42.4,52.7 41.4,53.3 44.2,20.9 45,20.3 					"/>
					<polygon class="st15" points="32.7,27.5 33.7,27 31,59.3 30.1,59.8 					"/>
				</g>
				<path class="st16" d="M16.4,23.8L18,51.2c0.4,0,0.9,0.1,1.4,0.3c1.6,0.9,2.8,3.1,2.9,4.8c0,0.7-0.2,1.2-0.5,1.6l5.8,3.3
					l2.6-30.4c-0.1,0-0.1,0-0.2,0c-0.8,0-1.4-0.2-2.1-0.5L16.4,23.8z"/>
				<path class="st17" d="M16.4,21.1v2.8l11.6,6.4c0.7,0.3,1.4,0.5,2.1,0.5c0.1,0,0.1,0,0.2,0l0.1-2L16.4,21.1z"/>
				<path class="st18" d="M30.2,30.8c0.7,0,1.3-0.2,2-0.5l14.4-8.4l0.1-2.5l-16.4,9.5L30.2,30.8z"/>
				<path class="st14" d="M30,29.9c0.8,0,1.5-0.2,2.2-0.5l15.4-8.9c0.7-0.8,0.2-2.4-0.5-3.4l-1.6-0.4L30.5,28
					C29.9,28.4,29.7,29.3,30,29.9z"/>
				<path class="st16" d="M15.5,22.5l12.4,7c0.7,0.3,1.4,0.5,2.1,0.5c-0.3-0.7-0.2-1.5,0.5-2l14.7-11.3L35.1,11
					c-1.3-0.8-2.9-0.8-4.4,0L15.9,19C15.4,19.8,14.7,21.5,15.5,22.5z"/>
				<path class="st19" d="M16.4,21.1l11.8,6.5c1.3,0.7,2.8,0.7,4,0l14.5-8.4c0.9-0.5,0.9-1.9,0-2.4L35,10.2c-1.3-0.8-2.8-0.8-4,0
					l-14.5,8.5C15.5,19.2,15.5,20.6,16.4,21.1z"/>
				<path class="st16" d="M44,17.1L34,11.4c-0.3-0.1-0.8-0.2-1.2-0.2c-0.4,0-0.9,0.1-1.2,0.3L18.9,19c-0.5,0.3-0.5,1.2,0,1.5
					l9.9,5.6c0.3,0.2,0.8,0.3,1.2,0.3c0.4,0,0.9-0.1,1.2-0.3l1.5-0.9l0,0L44,18.8C44.5,18.3,44.5,17.4,44,17.1z"/>
				<g>
					<path class="st1" d="M35.1,38.1l4.6-2.8c0,0,1.2,1,1.2,2.4l-2.3,1.5v-0.4l-0.5-1.3L35.1,38.1z"/>
					<polygon class="st1" points="40.9,38 40.9,44.9 39.8,41.1 38.3,46.4 38.6,39.3 					"/>
					<path class="st1" d="M39.5,34.2c0,0.5-0.3,1.3-0.8,1.5c-0.4,0.2-0.9,0-0.9-0.5s0.3-1.3,0.8-1.5C39.1,33.4,39.5,33.6,39.5,34.2z
						"/>
					<path class="st1" d="M35.2,39.4c0,0-0.1,0.8-0.2,1.1c-0.2,0.4-0.5,0.8-0.5,0.8s0.2,0.4,0.8,0.2c0.5-0.2,0.7-0.7,1-0.8
						c0.3-0.1,0.3-0.1,0.3-0.1s-0.1-0.3,0.2-0.9c0.3-0.4,0.4-0.9,0.5-1.2C37.2,38.7,36,39.5,35.2,39.4z"/>
					<path class="st1" d="M37.7,40.5l-3.6,2.3C34,42.8,34,43,34,43.1l0,0c0,0.1,0.1,0.1,0.2,0.1l0.1-0.1l1,5.1l2.2-1.3l0.3-5.9
						l0.1-0.1c0.1,0,0.1-0.2,0.1-0.3l0,0C38,40.5,37.9,40.4,37.7,40.5z M36.7,41.9v0.5l-0.5,0.2v-0.5L36.7,41.9z M35.9,42.9
						l-0.5,0.3v-0.5l0.5-0.3V42.9z M34.6,43.2l0.5-0.3l0.1,0.4l-0.5,0.3L34.6,43.2z M34.7,44v-0.1l0.5-0.3v0.1v0.2v0.2l-0.4,0.3
						L34.7,44z M34.8,44.7l0.4-0.3v0.3v0.2l0,0V45l-0.4,0.3V44.7z M35,46l-0.1-0.4l0.4-0.2v0.3V46L35,46.2V46z M35.1,46.4l0.4-0.2
						v0.1v0.1v0.3l-0.3,0.2L35.1,46.4z M35.3,47.7l-0.1-0.4l0.3-0.2l0.1,0.4L35.3,47.7z M35.5,43.9v-0.2v-0.1l0.5-0.3v0.1v0.4
						l-0.4,0.3L35.5,43.9z M35.6,44.5v-0.3l0.4-0.3v0.2v0.1v0.3l-0.4,0.3V44.5z M35.7,45.4v-0.2v-0.1l0.4-0.2v0.4v0.2l-0.4,0.2V45.4
						z M35.7,46.3V46l0.4-0.2v0.1v0.4l-0.3,0.2L35.7,46.3z M35.8,47.4v-0.5l0.3-0.2v0.5L35.8,47.4z M36.7,46.8l-0.3,0.2v-0.5
						l0.3-0.2V46.8z M36.7,45.7v0.3l-0.3,0.2v-0.5v-0.1l0.4-0.2L36.7,45.7z M36.7,44.5v0.2v0.3l-0.4,0.2v-0.2v-0.4L36.7,44.5
						L36.7,44.5z M36.7,43.9v0.3l-0.4,0.3v-0.3v-0.1v-0.2l0.4-0.3V43.9z M36.2,43.6v-0.4V43l0.5-0.3v0.1V43v0.2L36.2,43.6z
						 M37.2,46.5l-0.3,0.2v-0.5l0.3-0.1V46.5z M37.2,45.7L36.9,46v-0.3v-0.2v-0.1l0.4-0.2L37.2,45.7z M37.3,44.7v0.2l-0.4,0.2v-0.3
						v-0.3l0.4-0.2V44.7z M37.3,43.8l-0.4,0.3V44l0,0v-0.2v-0.3l0.4-0.3V43.8z M37.4,42.4v0.4L37,43.1v-0.2v-0.2v-0.1l0.5-0.3
						L37.4,42.4z M37.4,41.9l-0.5,0.3v-0.5l0.5-0.3V41.9z"/>
				</g>
			</g>
		</g>
	</g>
</g>
</svg>
