<?xml version="1.0" encoding="utf-8"?>
<!-- Generator: Adobe Illustrator 22.0.0, SVG Export Plug-In . SVG Version: 6.00 Build 0)  -->
<svg version="1.1" id="图层_1" xmlns="http://www.w3.org/2000/svg" xmlns:xlink="http://www.w3.org/1999/xlink" x="0px" y="0px"
	 viewBox="0 0 60 79" style="enable-background:new 0 0 60 79;" xml:space="preserve">
<style type="text/css">
	.st0{fill:url(#SVGID_1_);}
	.st1{fill:#FFFFFF;}
	.st2{fill:#F3D516;}
	.st3{clip-path:url(#SVGID_3_);}
	.st4{fill:#7C7C7C;}
	.st5{opacity:0.2;fill:#E6EDEF;enable-background:new    ;}
	.st6{fill:#D0D6D6;}
	.st7{fill:#E6EDEF;}
	.st8{fill:#DFE4E5;}
	.st9{fill:url(#SVGID_4_);}
</style>
<g>
	
		<radialGradient id="SVGID_1_" cx="30.4933" cy="76.2912" r="17.4476" gradientTransform="matrix(1 0 0 0.1461 0 65.1462)" gradientUnits="userSpaceOnUse">
		<stop  offset="0" style="stop-color:#7A7A7A"/>
		<stop  offset="1" style="stop-color:#FFFFFF;stop-opacity:0"/>
	</radialGradient>
	<ellipse class="st0" cx="30.5" cy="76.3" rx="17" ry="2.7"/>
	<g>
		<path class="st1" d="M57.2,29.7c0,15-27.2,43.4-27.2,43.4S2.8,44.7,2.8,29.7S15,2.5,30,2.5S57.2,14.7,57.2,29.7z"/>
		<path class="st2" d="M30,2.5c15,0,27.2,12.2,27.2,27.2S30,73.1,30,73.1S2.8,44.7,2.8,29.7S15,2.5,30,2.5 M30,0.7
			c-16,0-29,13-29,29c0,15.6,26.6,43.5,27.7,44.7l1.3,1.4l1.3-1.4C32.5,73.2,59,45.3,59,29.7C59,13.7,46,0.7,30,0.7L30,0.7z"/>
	</g>
	<g>
		<defs>
			<path id="SVGID_2_" d="M57.2,29.7c0,15-27.2,43.4-27.2,43.4S2.8,44.7,2.8,29.7S15,2.5,30,2.5S57.2,14.7,57.2,29.7z"/>
		</defs>
		<clipPath id="SVGID_3_">
			<use xlink:href="#SVGID_2_"  style="overflow:visible;"/>
		</clipPath>
		<g id="图层_1_1_" class="st3">
			<path class="st4" d="M33.3,30.4c0.1-1.1-0.1-2.2-0.7-3c-1-1.5-2.6-1.5-3.6,0c-0.5,0.7-0.7,1.6-0.7,2.6l0,0l0,0l0,0v48.1
				c0,1,0.3,1.9,0.7,2.6c1,1.5,2.6,1.5,3.6,0c0.4-0.7,0.7-1.6,0.7-2.6V30C33.3,30.1,33.3,30.2,33.3,30.4z M28.6,31.3
				c0-0.1,0-0.1,0-0.3C28.6,31.2,28.6,31.3,28.6,31.3L28.6,31.3z"/>
			<path class="st5" d="M31.2,28.3v53.4c0.4-0.1,0.7-0.4,1.1-0.8V28.1C31.8,28.2,31.6,28.3,31.2,28.3z"/>
			<ellipse class="st6" cx="30.9" cy="25.7" rx="20.4" ry="5.2"/>
			<ellipse class="st7" cx="30.7" cy="25.2" rx="20.4" ry="4.8"/>
			<rect x="15.5" y="13.3" class="st8" width="1.4" height="9.9"/>
			<path class="st7" d="M17.6,11.2h-1.9c-1.1,0-2.7,1.8-2.7,1.9c0.4,0.4,1.8,0.8,2.5,1c0.5,0.1,2.2,0,2.2,0c0.3,0,0.4-0.1,0.4-0.4
				l0,0v-0.8v-1.2C18,11.3,17.9,11.2,17.6,11.2z"/>
			<rect x="30.6" y="14.9" class="st8" width="1.4" height="11.9"/>
			<rect x="44.4" y="13.4" class="st8" width="1.4" height="10.8"/>
			<path class="st7" d="M43.6,11.3h2.1c1.1,0,2.7,1.8,2.7,1.9c-0.4,0.4-1.8,0.8-2.5,1c-0.5,0.1-2.2,0-2.2,0c-0.3,0-0.4-0.1-0.4-0.4
				l0,0V13v-1.2C43.2,11.5,43.3,11.3,43.6,11.3z"/>
			<path class="st7" d="M31.3,15.7L31.3,15.7c-0.7,0-1.2-0.5-1.2-1.2v-0.7c0-0.7,0.5-1.2,1.2-1.2l0,0c0.7,0,1.2,0.5,1.2,1.2v0.7
				C32.5,15.2,32,15.7,31.3,15.7z"/>
			<polygon class="st6" points="42.4,55.5 15.4,55.5 18.8,38.1 45.4,38.1 			"/>
			
				<linearGradient id="SVGID_4_" gradientUnits="userSpaceOnUse" x1="10.3146" y1="51.6301" x2="39.8895" y2="51.6301" gradientTransform="matrix(1 0 0 -1 0 98.25)">
				<stop  offset="0" style="stop-color:#889197"/>
				<stop  offset="0.205" style="stop-color:#AAB3B7"/>
				<stop  offset="0.4386" style="stop-color:#CBD2D6"/>
				<stop  offset="0.6343" style="stop-color:#DFE6E8"/>
				<stop  offset="0.7667" style="stop-color:#E6EDEF"/>
			</linearGradient>
			<polygon class="st9" points="42,55.2 15.5,55.2 18.6,38.1 45,38.1 			"/>
		</g>
	</g>
</g>
</svg>
