<?xml version="1.0" encoding="utf-8"?>
<!-- Generator: Adobe Illustrator 22.0.0, SVG Export Plug-In . SVG Version: 6.00 Build 0)  -->
<svg version="1.1" id="图层_1" xmlns="http://www.w3.org/2000/svg" xmlns:xlink="http://www.w3.org/1999/xlink" x="0px" y="0px"
	 viewBox="0 0 60 79" style="enable-background:new 0 0 60 79;" xml:space="preserve">
<style type="text/css">
	.st0{fill:url(#SVGID_1_);}
	.st1{fill:#FFFFFF;}
	.st2{fill:#F3D516;}
	.st3{clip-path:url(#SVGID_3_);}
	.st4{fill:#FFDE39;}
	.st5{fill:#FFE149;}
	.st6{fill:#572724;}
	.st7{fill:#FFD71A;}
	.st8{fill:#F9C905;}
	.st9{fill:#F7C705;}
	.st10{fill:#FFFF05;}
	.st11{fill:#FF08AB;}
	.st12{fill:#FFF5A9;}
	.st13{fill:#FF0893;}
	.st14{fill:#FC0890;}
	.st15{fill:#FF0898;}
	.st16{fill:#FF2FAA;}
	.st17{fill:#FE0891;}
	.st18{fill:#FF34AC;}
	.st19{fill:#FF16A1;}
	.st20{fill:#FFF19A;}
	.st21{fill:#FFFF30;}
	.st22{fill:#FF67C2;}
	.st23{fill:#FF9CE0;}
	.st24{fill:#FFEC7D;}
	.st25{fill:#FF4FB8;}
	.st26{fill:#FFF29D;}
	.st27{fill:#FFF6AF;}
	.st28{fill:#FFEE8B;}
	.st29{fill:#FFD105;}
	.st30{fill:#FFEA77;}
	.st31{fill:#FFF305;}
	.st32{fill:#FFEC81;}
	.st33{fill:#FFFAC2;}
	.st34{fill:#FFF8B9;}
	.st35{fill:#FFF39F;}
	.st36{fill:#FFDD36;}
	.st37{fill:#FFDF3F;}
	.st38{fill:#FDCD05;}
	.st39{fill:#FFDA26;}
	.st40{fill:#FFD005;}
	.st41{fill:#FFED83;}
	.st42{fill:#FECE05;}
	.st43{fill:#FFE665;}
	.st44{fill:#FFEF8D;}
	.st45{fill:#FFD305;}
	.st46{fill:#FFCF05;}
	.st47{fill:#FFEB7B;}
	.st48{fill:#FFEF91;}
	.st49{fill:#FFF4A7;}
	.st50{fill:#FFFCCF;}
	.st51{fill:#FFEA75;}
	.st52{fill:#FFE55F;}
	.st53{fill:#FFEE87;}
	.st54{fill:#FFE768;}
	.st55{fill:#FFD716;}
	.st56{fill:#FFD40A;}
	.st57{fill:#FFF6B3;}
	.st58{fill:#FFE55B;}
</style>
<g>
	
		<radialGradient id="SVGID_1_" cx="30.5" cy="-639.2002" r="17.4444" gradientTransform="matrix(1 0 0 -0.1461 0 -17.0948)" gradientUnits="userSpaceOnUse">
		<stop  offset="0" style="stop-color:#7A7A7A"/>
		<stop  offset="1" style="stop-color:#FFFFFF;stop-opacity:0"/>
	</radialGradient>
	<ellipse class="st0" cx="30.5" cy="76.3" rx="17" ry="2.7"/>
	<g>
		<path class="st1" d="M57.2,29.7c0,15-27.2,43.4-27.2,43.4S2.8,44.7,2.8,29.7S15,2.5,30,2.5S57.2,14.7,57.2,29.7z"/>
		<path class="st2" d="M30,2.5c15,0,27.2,12.2,27.2,27.2S30,73.1,30,73.1S2.8,44.7,2.8,29.7S15,2.5,30,2.5 M30,0.7
			c-16,0-29,13-29,29c0,15.6,26.6,43.5,27.7,44.7l1.3,1.4l1.3-1.4C32.5,73.2,59,45.3,59,29.7C59,13.7,46,0.7,30,0.7L30,0.7z"/>
	</g>
	<g>
		<g>
			<defs>
				<path id="SVGID_2_" d="M57.2,29.7c0,15-27.2,43.4-27.2,43.4S2.8,44.7,2.8,29.7S15,2.5,30,2.5S57.2,14.7,57.2,29.7z"/>
			</defs>
			<clipPath id="SVGID_3_">
				<use xlink:href="#SVGID_2_"  style="overflow:visible;"/>
			</clipPath>
			<g id="图层_1_3_" class="st3">
				<g>
					<g id="XMLID_12_">
						<path class="st4" d="M23,112.2c0.6,0,1.2,0,1.8,0c1,0,2.8,0.4,3,1.6c0,0.6,0,1.2,0,1.6c0,0.8,0,1.8,0.2,2.6
							c0,1.2,0.8,2,1.4,3.2c0.6,1,1,2,1.6,3c0.4,0.8,0.8,1.6,0.8,2.6s-0.2,2.4-0.6,3.2c-0.4,0.6-1,0.8-1.6,1
							c-0.4,0.2-0.8,0.2-1.2,0.2c-0.2,0-0.4,0-0.6,0c-1.2-0.2-2.2-1-3-2c-0.4-0.4-0.8-0.8-1-1.2c-0.4-0.6-0.6-1.2-0.8-2l-0.4-1.4
							h-0.2c-0.2,0-0.8-1.2-1-1.2c-0.4-0.4-0.6-1-0.8-1.6c-0.2-0.4-0.4-0.8-0.6-1.2c-0.2-0.6-0.2-1.4-0.2-2.2c0-0.6,0.4-1.2,0.2-1.8
							c0-0.6-0.2-1-0.2-1.4c-0.2-0.6-0.4-1.6,0.2-2.2c0.4-0.2,1-0.2,1.4-0.4C21.8,112.4,22.2,112.2,23,112.2
							C22.6,112.4,22.8,112.4,23,112.2z"/>
					</g>
					<path class="st5" d="M30.1,126.8c-2.4,2.6-5.7-0.6-6.5-3c-0.4-1.4-0.4-2.6-0.4-4c0-0.8-0.2-1.8-0.2-2.8c0-0.6,0.2-1.2,0.6-1.4
						c0.2-0.2,0.6-0.2,1-0.2s1-0.2,1.4,0c0.6,0,1,0.4,1.6,0.6c0,0,0,0,0.2,0v0.2c0,1.6,0,3.2,0.8,4.6s2.4,3.2,2.2,5.1
						C30.5,126.2,30.3,126.6,30.1,126.8z"/>
					<g>
						<path class="st6" d="M24.4,122.7L24.4,122.7c0-0.6,0.6-1,1-1.4c0.2-0.2,0.4-0.2,0.6-0.4c0.2-0.2,0.4-0.4,0.4-0.8l0,0l0,0
							c-0.2-0.2-0.6-0.2-1-0.2c-0.2,0-0.2,0-0.4,0c-0.4,0-0.8-0.2-1-0.4c0-0.2,0-0.4,0.2-0.6s0.4-0.4,0.8-0.4h0.2
							c0.2,0,0.4-0.2,0.4-0.4c0-0.2,0-0.2,0-0.4c-0.2-0.2-0.8-0.2-1.2-0.2h-0.2c-0.2,0-0.4,0-0.6-0.2s-0.4-0.4-0.2-0.6
							c0-0.2,0.4-0.4,0.6-0.6l0.2-0.2c0.4-0.4,0.4-0.6,0.4-0.8c0-0.2-0.4-0.4-0.6-0.6l0.2-0.2c0.2,0.2,0.6,0.4,0.6,0.6
							c0,0.4,0,0.8-0.4,1l-0.2,0.2c-0.2,0.2-0.4,0.4-0.6,0.6c0,0.2,0,0.2,0.2,0.4c0.2,0,0.2,0,0.4,0.2h0.2c0.4,0,1,0,1.2,0.4
							c0,0.2,0.2,0.4,0,0.6c0,0.2-0.4,0.4-0.6,0.4c0,0,0,0-0.2,0c-0.2,0.2-0.4,0.2-0.6,0.4c-0.2,0.2-0.2,0.2-0.2,0.4
							c0,0.2,0.4,0.4,0.8,0.4c0,0,0.2,0,0.4,0c0.4,0,0.8,0,1.2,0.2c0,0,0,0,0.2,0.2v0.2c0,0.4-0.2,0.6-0.6,0.8
							c-0.2,0.2-0.4,0.2-0.6,0.4C25.3,121.9,24.9,122.3,24.4,122.7z"/>
					</g>
					<g>
						<path class="st6" d="M27.5,121.5c-0.6,0-1.4,0-2-0.2c-0.2,0-0.6-0.2-0.6-0.6s0.4-0.6,0.6-0.8c0,0,0,0,0.2,0c0,0,0.2,0,0.2-0.2
							c0.2-0.2,0.2-0.2,0.4-0.4c0-0.2,0-0.6,0-0.6c-0.2-0.2-0.6-0.2-0.8,0c-0.2,0-0.2,0-0.4,0l0,0c-0.2,0-0.6,0-0.6-0.2
							c-0.2-0.2-0.2-0.6,0.2-0.8c0.2-0.2,0.4-0.2,0.6-0.4h0.2c0.4-0.2,0.4-0.4,0.6-0.4v-0.2h-0.2c-0.4,0-1,0-1.4-0.2
							c0,0-0.2,0-0.2-0.2V116c0-0.8,0.4-1.6,1-2.4l0.2,0.2c-0.6,0.8-1,1.4-1,2.2v0.2c0,0,0,0,0.2,0c0.4,0.2,1,0.2,1.4,0.2
							c0.2,0,0.2,0,0.4,0c0.2,0.2,0.2,0.4,0.2,0.4c0,0.2-0.2,0.4-0.6,0.6h-0.2c-0.2,0-0.4,0.2-0.6,0.4c-0.2,0.2-0.2,0.4,0,0.6
							s0.4,0.2,0.6,0.2l0,0c0,0,0.2,0,0.4,0c0.4,0,0.8,0,1,0.2s0.2,0.6,0.2,0.8c0,0.2-0.2,0.4-0.4,0.4c0,0,0,0-0.2,0.2
							c0,0,0,0-0.2,0c-0.2,0.2-0.6,0.4-0.4,0.6c0,0.2,0.2,0.2,0.6,0.4c0.8,0.2,1.6,0.4,2.4,0.2v0.2
							C27.9,121.5,27.7,121.5,27.5,121.5z"/>
					</g>
					<path class="st7" d="M46.1,117.5c0.2,1.8-0.8,2.2-2.4,2.2c-1,0-2.4,0-3.4-0.4c-0.8-0.2-2.8-0.6-3.2-1.4
						c-0.2-0.4-0.6-0.8-0.6-0.8l-1-0.2v0.4c0,0-0.2,0-2-0.8s-2.2-1.6-2.2-1.6c-0.2-0.6,0-1.8,0-2.4c-0.2-1.2,0-2.2,0-3.4
						c0-0.8,0.2-1.8,0.8-2.2c0.2-0.2,0.6-0.2,1-0.4c0.8-0.2,1.4-0.2,2.2-0.4c0.8,0,1.4,0,2.2,0c0.8,0.2,1.4,0.6,1.8,1.2
						c0.4,0.6,0.4,1.2,0.4,2c0,0.6,0,1.6,0.4,2.2c0.4,0.4,1.4,0.8,2,1.2c0.6,0.4,1.2,0.6,1.8,1C44.9,114.6,45.9,116,46.1,117.5z"/>
					<path class="st8" d="M31.7,127c0,0.8-0.2,2-0.6,2.6s-1,0.8-1.6,1c-0.4,0.2-0.8,0.2-1.2,0.2c-0.2,0-0.4,0-0.6,0
						c-1.2-0.2-2.2-1-3-2c-0.4-0.4-0.8-0.8-1-1.2c-0.4-0.6-0.6-1.2-0.8-2l-0.4-1.4h-0.2c-0.2,0-0.8-1.2-1-1.2
						c-0.4-0.4-0.6-1-0.8-1.6c-0.2-0.4-0.4-0.8-0.6-1.2c0-0.4-0.2-0.6-0.2-1c0,0.6,0,1.2,0.2,1.8c0.2,0.4,0.4,0.8,0.6,1.2
						c0.2,0.6,0.4,1,0.8,1.6c0.2,0.2,0.8,1.4,1,1.2h0.2l0.4,1.4c0.2,0.8,0.4,1.4,0.8,2c0.4,0.4,0.6,0.8,1,1.2c0.8,0.8,1.8,1.6,3,2
						c0.2,0,0.4,0,0.6,0c0.4,0,0.8-0.2,1.2-0.2c0.6-0.2,1.2-0.4,1.6-1C31.5,129.4,31.7,128,31.7,127L31.7,127z"/>
					<path class="st9" d="M43.6,118.9c-1,0-2.4,0-3.4-0.4c-0.8-0.2-2.6-0.6-3-1.4c-0.2-0.4-0.6-0.8-0.6-0.8l-1.2-0.2v0.6
						c0,0-0.2,0-2-0.8s-2.2-1.6-2.2-1.6c0-0.2,0-0.2,0-0.4c0,0.4,0,0.8,0,1.2c0,0,0.4,0.8,2.2,1.6c1.8,0.8,2,0.8,2,0.8l0.2-0.6
						l1,0.4c0,0,0.4,0.4,0.6,0.8c0.4,0.6,2.4,1,3,1.4c1,0.4,2.4,0.4,3.4,0.4c1.6,0,2.6-0.4,2.4-2.2l0,0
						C45.9,118.7,44.9,118.9,43.6,118.9z"/>
					<g>
						<path class="st6" d="M41,114L41,114l0.2-1c0-0.2,0-0.2,0-0.4c0,0,0,0-0.2,0c-0.4,0-0.8,0-1.2-0.2s-0.8-0.6-0.6-1.2
							c0-0.2,0-0.2,0.2-0.4c0.2-0.2,0.2-0.4,0.2-0.6s-0.4-0.2-0.6-0.4l0,0c-0.2,0-0.4,0-0.6-0.2s-0.2-0.6-0.2-0.8
							c0-0.2,0.2-0.4,0.4-0.6l0,0l0.2-0.2c0,0,0-0.2-0.2-0.2c0,0-0.2-0.2-0.2-0.4h0.2c0,0,0,0.2,0.2,0.2c0,0.2,0.2,0.2,0.2,0.4
							c0,0.2,0,0.2-0.2,0.4l0,0c-0.2,0.2-0.2,0.4-0.4,0.6c0,0.2,0,0.4,0,0.6c0.2,0.2,0.4,0.2,0.6,0.2l0,0c0.4,0,0.6,0.2,0.6,0.4
							c0,0.2,0,0.4-0.2,0.6c0,0.2-0.2,0.2-0.2,0.4c0,0.4,0.2,0.8,0.4,0.8c0.2,0.2,0.6,0.2,1.2,0.2H41c0.2,0,0.2,0.2,0,0.6V114z"/>
					</g>
					<g>
						<path class="st6" d="M40.4,113.4c-0.2,0-0.6-0.2-0.8-0.4c-0.2-0.2-0.2-0.4-0.2-0.6s0.2-0.4,0.2-0.6c0,0,0,0,0-0.2
							s0.2-0.4,0-0.6c0-0.2-0.4-0.2-0.4-0.2H39c-0.2,0-0.2,0-0.4,0s-0.4-0.2-0.6-0.4c-0.2-0.2-0.2-0.6,0-0.8c0-0.2,0.2-0.4,0.4-0.6
							c0,0,0,0,0.2-0.2s0.2-0.4,0.2-0.6s-0.2-0.4-0.4-0.4s-0.2,0-0.4,0h-0.2c-0.6,0-1-0.4-1.4-0.8l0.2-0.2c0.4,0.4,0.8,0.6,1.2,0.6
							H38c0.2,0,0.4,0,0.4,0c0.4,0,0.6,0.2,0.6,0.4c0,0.2,0,0.6-0.2,0.8c0,0,0,0.2-0.2,0.2c-0.2,0.2-0.2,0.2-0.4,0.4
							c0,0.2,0,0.4,0,0.6c0.2,0.2,0.2,0.4,0.4,0.4s0.2,0,0.4,0h0.2c0.2,0,0.4,0.2,0.6,0.2c0.2,0.2,0,0.4,0,0.8c0,0,0,0,0,0.2
							s-0.2,0.2-0.2,0.4c0,0.2,0,0.2,0.2,0.4c0.2,0.2,0.4,0.2,0.6,0.2l0,0c0.4,0,0.8-0.2,1-0.4l0.2,0.2
							C41.4,113,41,113.4,40.4,113.4L40.4,113.4z"/>
					</g>
					<g>
						<path class="st10" d="M16.6,41.5c-0.2,1-0.6,2-1,2.8c0,0,0,0.2-0.2,0.2l-0.2-0.2c-0.2-0.6-0.4-1.4-0.2-2.2
							c0-0.6,0.4-1.8,1-2.2c0.2,0,0.4,0,0.6,0c0,0,0,0.2,0,0.4C16.6,40.9,16.6,41.1,16.6,41.5z"/>
						<g>
							<g>
								<path class="st11" d="M33.7,108.2L33.7,108.2L33.7,108.2L33.7,108.2z"/>
							</g>
							<path id="XMLID_11_" class="st12" d="M50.5,66.5c-0.4-0.4-1.2-1-1.8-1.4c0-0.2-0.2-0.2-0.2-0.4c-0.4-0.6-0.8-1.2-1.2-2
								c-0.6-1.4-1.2-2.8-1.8-4c-1-2-2.6-7.5-2.6-7.5c-3.8-1.2-4,3.8-3.4,5.1c0.8,1.2,1.6,2.4,2.6,3.4c0.8,1,1.2,2.2,1.6,3.2
								c0.2,0.2,0.2,0.6,0.4,0.8s0.2,0.4,0.2,0.6c0.2,0.6,0.4,1.2,0.6,1.8c0.2,0.6,0,1.4,0.2,2s0.4,1,0.8,1.2c0.6,1.6,1.2,2,1.6,2.6
								s0.2,0.8,1.8,0.8s1.2-0.8,1.2-0.8s0,0,0.4-0.2s0.2-0.6,0.2-0.6l-1.2-2.8c0-0.2,0.2-0.4,0.2-0.6c0,0,0,0,0-0.2
								c0.6,0.2,1.8,0.8,2.2,0.4C53.1,67.7,51.1,67.1,50.5,66.5z"/>
							<path class="st13" d="M36.8,69.6c-0.4-0.8-0.2-1.6,0.2-2c-0.2-0.2-0.2-0.6-0.2-0.8c-0.4,0-0.6,0.2-0.8,0.4
								c-1.6,1-2.4,2.6-3.2,4.2c-0.2,0.4-0.2,0.6-0.4,1c-0.8,2.2-0.2,5.1-0.2,7.3c0,3,0.2,6.3-0.6,9.3c-1.2,4.9-1.2,9.1-1,12.5
								s0,9.3,0,9.3s1.2,1.8,4.4,1.8c1.2,0,2.2-0.2,3.2-0.8c1.2-0.8,1.4-1.2,1.4-2.4c-0.2-3.2,0-6.3,0-9.5c0.2-2.6,0.2-5.3,0.6-7.9
								c0.6-4,0.6-5.1,0.8-8.3c0.2-2.2,1.2-10.1,0.6-13.3C40.2,70.8,37.8,71.2,36.8,69.6z"/>
							<g>
								<path class="st14" d="M32.9,103.7c-0.2-3.4-0.2-7.7,1-12.5c0.8-3,0.8-6.3,0.6-9.3c0-2.2-0.8-5.3,0.2-7.3
									c0.2-0.4,0.2-0.6,0.4-1c0.6-1.2,1.2-2.4,2-3.4C37,70,37,70,36.8,69.8c-0.4-0.8-0.2-1.6,0.2-2c-0.2-0.2-0.2-0.6-0.2-0.8
									c-0.4,0-0.6,0.2-0.8,0.4c-1.6,1-2.4,2.6-3.2,4.2c-0.2,0.4-0.2,0.6-0.4,1c-0.8,2.2-0.2,5.1-0.2,7.3c0,3,0.2,6.3-0.6,9.3
									c-1.2,4.9-1.2,9.1-1,12.5s0,9.3,0,9.3s0.6,1,2.4,1.6C32.9,111,33.1,106.5,32.9,103.7z"/>
							</g>
							<path id="XMLID_10_" class="st15" d="M36,32.2c0,0,2.6-0.8,4.2,1c1.6,1.8,1.6,3,1.6,6.5s-0.2,7.1-0.2,7.1l6.5,16.8
								c0,0-2,0.4-3,2.6c-0.2,0.4-4.2-7.5-4.9-7.9C35.6,53.6,32.3,32.8,36,32.2z"/>
							<path id="XMLID_9_" class="st16" d="M41.6,36.4c-0.2-1.2-0.6-2.2-1.6-3.2c-1.6-1.8-4.2-1-4.2-1c-0.6,0-1,0.8-1,2
								c1,0.2,2.4,0,3.4,0c1.2,0,2.2,0.8,3,1.6C41.4,36,41.6,36.2,41.6,36.4z"/>
							<g>
								<path class="st13" d="M29.9,100.3c0.2-2,1-4.2,1.4-6.3c0.4-2.8,1-6.9,1.2-9.7c0-1.6,0.2-3,0.4-4.6c0-0.2,0-0.4,0.2-0.6
									c0-0.2,0.2-0.2,0.2-0.4c0.2-0.2,0.6-0.6,0.8-0.8c0.8-0.8,1.4-1.6,1.6-2.4c0.2-1.6,0-3-0.4-4.6c0-0.2,0-0.4,0.2-0.4
									c0.2-0.2,0.6-0.4,0.8-0.6c0.6-0.4,1-0.8,1.6-1.2c0.8-0.6,1.4-1,2.2-1.6c0.4-0.2,1-0.2,1.4-0.2c0-3.4-1-6.5-1-6.5
									s0.4,1-6.5,4.9c-1.6,1-3.4,1.6-5.3,2.2c-2,0.4-4.6-0.4-6.5,0.8c-1.8,1.2-2.2,3.2-2.4,5.3c-0.2,2.6-0.4,5.5-0.2,8.3
									c0.4,5.3,0.8,10.7,0.4,16.2c-0.4,5.1-0.6,10.3-0.2,15.4c0.2,1.6-0.2,4.4,1,5.9c0.8,0.8,2.2,1.2,3.4,1.4
									c1.2,0.2,2.6,0.4,3.6-0.2c1.2-0.8,1-3,1.2-4.4c0.2-2.2,0.2-4.4,0.2-6.5C29.3,106.1,29.5,103.1,29.9,100.3z"/>
							</g>
							<path class="st17" d="M22.4,115.6c-0.4-5.1,0-10.3,0.2-15.4c0.4-5.5,0-10.7-0.4-16.2c-0.2-1.4-0.2-3,0-4.4c0-1,0.2-2,0.4-3
								c0,0.2,2.4,0.6,2.8,0.6c1,0.2,2.2,0.2,3.2,0c2.2-0.2,4.4-1.2,6.5-1.4c2.2-0.4,4.2-1,6.1-2.2c0.2-0.2,0.4-0.2,0.6-0.6
								c0-0.2,0.2-0.4,0.2-0.6c0.2-4.2,0-8.5-1.4-12.3c0,0,0.4,1-6.5,4.9c-1.6,1-3.4,1.6-5.3,2.2c-2,0.4-4.6-0.4-6.5,0.8
								c-1.8,1.2-2.2,3.2-2.4,5.3c-0.2,2.6-0.4,5.5-0.2,8.3c0.4,5.3,0.8,10.7,0.4,16.2c-0.4,5.1-0.6,10.3-0.2,15.4
								c0.2,1.6-0.2,4.4,1,5.9c0.6,0.6,1.2,1,2,1.2C22.2,118.7,22.4,116.9,22.4,115.6z"/>
							<path id="XMLID_8_" class="st18" d="M41.4,52c-0.2,2.8-0.2,5.9,0,8.7c0,1.2,0.2,2.4,0.2,3.6c0.2,1,0.6,2.2,0.2,3.2
								c-0.2,0.8-0.4,1.6-0.6,2.4c0,0.2-0.2,0.6-0.4,0.8c-0.4,0.6-0.8,1.4-1.4,1.6c-0.8,0.4-1.6,0.6-2.4,1c-3.2,1-7.9,2.2-15,0
								c0,0,1.2-12.1,0.6-13.7c-0.8-1.6-5.9-8.1-6.1-11.7c-0.2-3.8-1-6.9,2.8-10.1c2.2-1.8,3.8-3.2,5.7-4.2c1.4-1,2.8-1.6,4.4-2.2
								c1.4-0.4,3-0.4,4.6,0c2.6,0.6,4.9,1.6,5.7,2.8C41.6,36.6,42,42.3,41.4,52z"/>
							<path class="st19" d="M39,33.2c0,0,1.2,1.4,1.6,1.8c0.4,0.6,0.8,1.4,1,2.2c0.6,2,0.4,4.2,0.2,6.5c-0.2,3.2,0,6.5,0,9.7
								c0,2,0,3.8,0,5.9c0,0.8,0,1.8,0,2.6c0,1.6,0.2,3.4,0.6,5.1c0.2,0.8,0,1.4-0.2,2.2C42,70,41.8,71,41,71.4
								c-0.8,0.6-1.4,1-2.4,1.4c-0.2,0-2,0.6-2,0.6s0.8-9.9-0.2-20.6c-0.2-2.4-0.4-5.1-1-7.5c-0.4-1.6-0.8-3.2-1.2-4.9
								c-0.2-0.6-0.8-1.6-0.4-2c0.2-0.2,0.6-0.4,0.8-0.6c0.6-0.6,0.8-1.4,1-2.4c0-0.2,0-0.6,0.2-0.8c0-0.2,0-0.4,0.2-0.6
								c0.2-0.6,0.8-0.6,1.2-0.8C37.4,33.2,38.8,33,39,33.2z"/>
							<path id="XMLID_7_" class="st15" d="M32.5,34.4c2.2-0.2,4.2-1.2,6.5-1c-1.2-1.2-2.2-2.2-4.2-2.6c-1.6-0.4-3.8,0.2-5.3,0.8
								c-1.6,0.6-3,1.4-4.4,2.2c-1.8,1.2-5.3,2.6-7.3,4.4c-3.4,3-2.6,6.1-2.8,10.1c0,0.4,1.6,0.8,1.8,1.2c0.6,2.2,1.8,4,3,6.1
								c0.4,0.6,0.6,1.2,1.2,1.6c0.2,0.2,0.2,1,0.2,1.2c0,1,0,2,0,2.8c0,1.2-0.2,2.4-0.2,3.6c0,0.6-0.2,1.2-0.2,1.8
								c0,0.8,0.8,1.8,0.4,2.8c-0.2,0.8-0.6,1.4-0.4,2.2c0.2,0.6,0,1.4,0.4,1.6s0.8,0.2,1,0.4c0.4,0.2,0.6,0.2,1,0.2
								c0,0,0.2-5.7,0.2-5.9c0-2,0-4.2,0-6.3c0.2-2.8,0.4-5.5,0.6-8.3c0-1.2,0.2-2.4,0.2-3.4c0-1.2-0.2-2.6-0.4-3.8
								c-0.2-1.6-0.2-3.6-1-5.1c-0.4-0.6-0.6-1-1-1.4c-0.8-0.6-0.6-0.8,0-1.4c0.6-0.6,1.2-1,2-1.4c1-0.4,1.8-0.8,2.8-1.2
								c0.2,0,0.4-0.2,0.8-0.2C29.1,35,30.9,34.6,32.5,34.4z"/>
							<path id="XMLID_6_" class="st12" d="M22,83.1c-0.2-0.2-0.4-0.6-0.8-1c0,0,0-0.2-0.2-0.2c-0.4-0.6-1-1-1.4-1.6s-0.4-1.4-0.6-2
								c-0.2-3,0.4-8.5-0.2-11.5S12.9,66,12.9,66s-0.2,3.4,1.4,8.7c1.6,5.3,2,5.9,2,7.9c0,0.8-0.2,1.2,0.2,1.8
								c0.2,0.4,0.4,0.8,0.6,1.2c0.4,1,0.6,1.6,0.8,2.2c0.4,0.8,0,0.8,1.8,1.2c1.8,0.6,1.4-0.4,1.4-0.4s0,0,0.6,0s0.4-0.6,0.4-0.6
								l-0.8-3.2c0-0.2,0.2-0.2,0.2-0.4c0.6,0.4,1.8,1.4,2.2,1.2C24.2,84.9,22.4,83.9,22,83.1z"/>
							<path id="XMLID_5_" class="st20" d="M12.9,65.9c0,0-0.2,3.4,1.4,8.7c1.6,5.3,2,5.9,2,7.9c0,0.6,0,1,0,1.4
								c0.4-1,0.6-2.2,0.6-3c-0.2-2.4-1-4.9-1.6-7.3c-0.6-2.8-0.8-5.7-0.4-8.3C13.9,65.3,12.9,65.9,12.9,65.9z"/>
							<path class="st18" d="M21.4,38.4c0,0-4.9-2-5.9,4.6s-1.2,8.9-2,13.9c-1,5.1-1,6.1-1,7.5s0.8,6.9,1.6,10.3s1.8,5.9,1.8,5.9
								s0.4-1.6,2-1.6c1.4,0,1.6,0.6,1.6,0.6l-0.2-15.8c0,0,5.3-15.2,4.9-18.6C23.6,41.5,23.2,39.3,21.4,38.4z"/>
							<path class="st15" d="M17.8,40.3c-0.4,0.2-0.8,0.4-0.8,0.8c0,0.4,0.4,0.6,0.6,0.8c1,0.4,1.8,0.4,2.6,1
								c0.8,0.6,1.2,1.4,1.6,2.4c0.4,0.8,0.4,1.8,0.6,2.8c0,0.8,0.2,1.8,0,2.6c-0.2,2-1,4-1.6,5.9c-0.6,2.4-1.2,4.6-2,6.9
								c0,0,0.2,11.1,0.4,11.1V63.7c0.8-2.2,1.4-4.4,2.2-6.7c0.6-1.8,1.2-3.8,1.6-5.7c0.2-0.8,0.4-1.8,0.6-2.6c0.2-1,0-2,0-3
								c0-1.2,0-3.6-1-4.6C21.4,40.3,19.4,39.9,17.8,40.3z"/>
							<path class="st15" d="M15.6,76.6C14.8,73.2,14,65.5,14,64.1s0.8-3.2,1.6-8.3c1-5.1,1.4-6.1,2.4-12.7c0.4-3,1.8-4.2,3.2-4.6
								c-0.8-0.2-4.9-1.6-5.7,4.6c-1,6.7-1.2,8.9-2,13.9c-1,5.1-1,6.1-1,7.5s0.8,6.9,1.6,10.3s1.8,5.9,1.8,5.9s0.2-0.6,0.6-1
								C16.2,78.7,15.8,77.9,15.6,76.6z"/>
							<path class="st21" d="M37.4,35.2c-0.2-0.6-0.2-1.2-0.6-1.6c-0.4-0.6-1.2-1-1.6-1.6c-0.4-0.4-0.6-0.6-1-1c0,0,3,0.2,5.7,3
								c3,3.2,3,8.1,2.8,9.7c0,0.6-0.2,3-0.6,6.1c-0.2,0.6,0,1.2,0,2s0,1.6,0,2.4c0,0.6,0,1.2,0,2c0,2.6,0,4.6,0,4.6s1,6.9,0.4,9.1
								c-0.6,2-3.8,4-11.1,5.5c-3.2,0.6-6.1,0.2-8.1-0.4c-2.2-0.6-3.6-1.6-3.6-1.6s0-3.4,0.4-5.1c0.4-1.4,0.6-7.3,0.6-8.9
								c0-0.4,0-0.4,0-0.4l0.4-1.2l0.2-1c0,0,0.2-0.4,0.4-1.2c0.2-0.4,0.4-1.2,0.6-1.8c0-0.4,0.2-0.6,0.2-1c0.4-2,1-3.8-0.4-9.1
								c-0.2-0.8-0.4-1-0.6-1.4c-2-2.8-5.9-1.8-6.1-1.8c2.2-3.4,7.9-6.9,9.7-7.5c0,0.6-2.2,2.2-2.4,3c-0.6,1,2.4,3.6,2.4,3.6
								c0.8,0.6,1.4,1.2,2.2,1.8c0.8,0.6,1.6,0.8,2.4,1c0.4,0.2,0.6,0.2,1,0.4c1.8,0.6,4,0.2,5.7-0.8c1.2-0.8,1.4-2.2,1.4-3.6
								c0-0.8,0-1.8-0.2-2.6C37.6,35.8,37.4,35.4,37.4,35.2z"/>
							<path class="st22" d="M14.9,80.3l-1-3.6c0,0,2.4,0.4,3.6-0.2c1.4-0.6,1.8-1.6,1.8-1.6l0.2,4.2C19.8,79.1,17.8,81.3,14.9,80.3
								z"/>
							<path class="st22" d="M44.7,66.5l-1.8-2.8c0,0,1.6-0.2,2.8-0.8c1.4-0.8,1.6-2.2,1.6-2.2l1.6,3.4
								C48.9,64.1,48.1,66.1,44.7,66.5z"/>
							<path class="st23" d="M37.6,34.6c0-0.2-0.2-0.4-0.2-0.4c-0.2-0.6-0.4-1-1-1.4c-0.2-0.2-1-0.4-1.2,0c0,0.2,0.2,0.4,0.2,0.6
								c0.2,0.4,0.6,0.8,0.8,1.2s0.2,1,0.4,1.4c0.2,1,0.2,2,0,3s-0.8,1.4-1.8,1.8c-0.4,0.2-1,0.4-1.6,0.6c-1.4,0.2-2.6,0.2-4-0.2
								c-0.8-0.2-1.6-0.8-2.4-1.2s-1.6-1-2.2-1.8c-0.4-0.4-1.2-1.2-1-2.4c0-0.6,0.2-1.2,0.8-1.4l0.2-0.2V34c0-0.2,0.2-0.4,0.2-0.6
								c0,0-0.8,0.4-1,0.4C23,34,22.4,34.4,22.2,35c-0.6,2.2,1,4.2,2.4,5.7c0.4,0.4,0.6,0.6,1.2,1s1,0.6,1.6,1
								c2.8,1.6,5.9,1.8,8.7,0.2c0.4-0.2,0.8-0.6,1-1c0.6-1,0.8-2,0.8-3C38.4,37.4,38,36,37.6,34.6z"/>
							<path class="st10" d="M21.4,41.5c0.4,0.2,0.6,0.6,0.8,1c0.6,0.8,1,1.8,1.2,2.8c0.4,1.4,0.6,3,0.6,4.6c0,0.8,0,1.6,0,2.2
								c0,0.2,0,2.2,0,2.2c-0.2,0-0.4-0.2-0.6-0.2c-0.2-0.2-0.6-0.2-1-0.4c0,0,0,0,0,0.2c0-0.4,0.2-0.8,0.2-1
								c0.2-0.6,0.2-1.2,0.4-1.8c0.2-1.4,0.2-2.8-0.2-4.2c-0.2-0.6-0.4-1.4-0.6-2c0-0.2-0.2-0.4-0.2-0.8c0-0.2-0.2-0.2-0.2-0.4
								c-0.4-0.4-0.6-0.8-1-1.2c-0.2-0.4-0.6-0.6-1-0.8s-0.8-0.4-1.2-0.4c-1.2-0.2-2.2,0-3.4,0.2v-0.2c0-0.2,0.2-0.4,0.4-0.6
								c1.4-0.8,3.8-0.2,5.1,0.6C21,41.1,21.2,41.3,21.4,41.5z"/>
							<path class="st10" d="M24.2,60.1c0,3.4,0,6.7-0.4,8.9c-0.2,1.4-0.2,3-0.4,4.2l0,0c-2-0.6-3.2-1.4-3.6-1.6c0-1,0.2-2.2,0.4-3
								c0.4-1.6,0.6-9.5,0.6-9.5v-0.2c0.6,0.4,1.4,0.6,2.4,1C23.8,60.1,24,60.1,24.2,60.1z"/>
							<path class="st10" d="M23.4,57.8c-0.8-0.2-1.4-0.6-2-0.8v-0.4c0,0,0.2-0.4,0.4-1.2c0.4,0.2,1,0.4,1.6,0.6
								c0.2,0,0.4,0.2,0.6,0.2c0,0.6,0,1.2,0,1.8C24,58,23.8,58,23.4,57.8z"/>
							<path class="st24" d="M25.3,34.2c-0.2,0.6-0.2,0.8,0.2,1.4c0.4,0.4,0.6,0.6,1,0.8c0.4,0.4,0.8,0.8,1.2,1c0.4,0.4,1,0.6,1.4,1
								c-0.6-1.2-0.6-2.8-0.6-4.2c0-1,0.2-2,0.2-3V31c-0.2,0-0.4,0-0.6,0.2C26.9,32,25.9,32.6,25.3,34.2z"/>
							<path class="st25" d="M31.3,40.1c1,0,3.2-0.4,3.8-1.2c0.8-1,0.6-3,0.4-4c-0.4-2-3-1.2-3-1.2c-0.4,0-0.8,0-1.2,0
								c-1,0-2-0.2-2.8-0.2c-0.2,0-0.6,0-0.8,0c-0.4,0-0.6-0.6-1-0.6c-0.2-0.2-0.8,0-1,0c-0.6,0.2-1.2,1-1.4,1.6
								c-0.4,1.4,0.8,2.6,1.8,3.6c1.2,1,2.6,2,4.2,2.2C30.5,40.1,30.9,40.3,31.3,40.1z"/>
							<path id="XMLID_4_" class="st26" d="M26.5,30c0,0.2,0,0.2,0,0.4c0,0.8,0,1.6-0.2,2.4c0,0.2-0.2,0.8,0,1s0.4,0.4,0.6,0.4
								c1,0.8,2.2,1.4,3.4,2c3,1.2,4,0.4,4,0.4l0.4-6.5L34.1,30c-0.6-0.2-1.2-0.4-1.8-0.6c-1-0.4-2-0.6-3-0.8c-0.4,0-1-0.2-1.4,0
								c-0.2,0-0.4,0-0.6,0.2s-0.4,0.6-0.4,0.8C26.5,29.6,26.5,29.8,26.5,30z"/>
							<path id="XMLID_3_" class="st26" d="M28.3,31.4c0.6-0.2,1.4-0.4,2.2-0.4c0.6,0,1.8,0,2.4,0.2c0.4,0.2,0.4,0.8,0.6,1.2
								c0.4,0.4,1,0.2,1.2,0.4c0.4,0.4,0.2,1.4,0.2,1.8c0,0.8,0,1.4,0,2.2c0,0.2,0,0.4-0.2,0.6c-0.4,0.8-1.2,1-1.8,1.2
								c-0.8,0.2-1.8,0.2-2.6,0.2c-0.6,0-1-0.4-1.6-0.6c-1.2-0.6-2.2-1.6-3.2-2.6c-0.2-0.2,0-0.4,0-0.6c0-0.8,0.2-1.8,0.8-2.4
								C26.9,32,27.7,31.6,28.3,31.4z"/>
							<path id="XMLID_2_" class="st24" d="M26.7,28.7c-0.4,0.2-1,0.4-1,0.8c-0.2,0.6,0.2,1.2,0.2,1.8c0,0.8,0,1.4-0.2,2.2
								c0,0.6-0.2,1-0.2,1.4c0,0.6,0.4,1.2,0.8,1.6c0.6,0.4,1.2,1,1.8,1.4c0.6,0.4,1.2,0.4,1.8,0.8c-0.4-0.2-0.8-0.8-1-1.2
								s-0.2-0.8-0.2-1.2s-0.2-1,0.2-1.4c0.2-0.4,0.6-0.2,1-0.2c0.2,0,0.4,0.2,0.4,0.2c1.2,0.6,2.6,0.8,4,0.8c0.2,0,0.4,0,0.6-0.2
								c0-0.2,0-0.2-0.2-0.4s-0.6-0.2-1-0.4c-0.8-0.4-1.6-1.2-2.6-1.6c-0.6-0.2-1-0.4-1.6-0.6c-0.2-0.2-0.6-0.4-0.6-0.6
								c0-0.4,0-0.6,0-1s-0.2-0.8-0.2-1.2c0-0.2-0.2-1-0.4-1C27.9,28.3,27.1,28.5,26.7,28.7z"/>
							<path class="st27" d="M39.2,22.3v-0.2c0-1-0.6-2-1-2.8c-0.8-1.2-2.2-2-3.6-2.2c-2-0.2-5.7,0.8-7.7,3.2
								c-0.2,0.2-0.2,0.4-0.4,0.6c-0.2,0.2-0.2,0.4-0.4,0.6c-1.2,3-5.3,3.8,1.2,10.7c0,0,0,0,0.2,0.2l0.2,0.2l0.2,0.2
								c0.2,0.2,0.6,0.4,1,0.8c1,0.8,2.2,1.4,3.4,1.8c2.4,0.4,4.4-0.2,4.6-2c0.4-3.2,1.4-6.3,1.8-9.5C39.2,23.3,39.2,22.7,39.2,22.3
								z"/>
							<path class="st28" d="M37.6,21.1c-0.2-0.6-0.6-1.4-0.6-2h-0.2c-1-0.4-2.2-0.6-3.4-0.6c-0.8,0-1.8,0-2.6,0.2
								c-1.4,0.2-2.8,0.8-3.8,1.8c-0.2,0.2-0.2,0.4-0.4,0.6c-0.2,0.2-0.2,0.4-0.4,0.6c-1.2,3-5.3,3.8,1.2,10.7c0,0,0,0,0.2,0.2
								l0.2,0.2L28,33c0.2,0.2,0.6,0.4,1,0.8c-0.2-0.8-0.2-1.8-0.2-2.6c0-0.4,0-0.8,0-1.2c0-0.4,0.2-0.8,0.4-1
								c0.2-0.2,0.4-0.6,0.4-0.8c0-0.2,0-0.6,0-0.8c0.2-1,0-2,0.2-2.8c0.2-0.6,0.4-1,0.6-1.4c0.4-0.6,1.4-1,2-1.2c0.4,0,0.8,0,1.4,0
								c0.4,0,0.8,0,1.2,0c0.6,0,1.2-0.2,1.8-0.2H37C37.6,21.3,37.6,21.3,37.6,21.1z"/>
							<g id="XMLID_1_">
								<path class="st7" d="M36.4,18.8C36.2,18,35.8,17,36,16c-1.4-1.2-3.2-2.4-5.1-2.6c-2.6-0.4-4.4,0.4-6.3,2c0,0,0,0-0.2,0.2
									c0,0,0,0-0.2,0.2L24,16c-0.2,0.2-0.4,0.6-0.6,0.8c0,0.2-0.2,0.2-0.2,0.4c-0.4,0.6-0.6,1.4-0.8,2.2v0.2c0,0.6,0,1.2,0,1.6
									c0,0.6,0.2,1.4,0.4,2c0.2,0.6,0.4,1.4,0.6,2c0,0.2,0,0.4,0.2,0.4c0.2,0.8,0.4,1.6,0.8,2.4c0.2,0.4,0.2,1,0.4,1.4
									c0.2,0.4,0.6,0.6,0.8,1c0.4,0.2,0.6,0.6,1,0.8l0,0l0,0c0-0.2,0-0.4,0-0.6l0,0c0-1.2-0.6-2.4-1.2-3.4
									c-0.2-0.4-0.4-0.8-0.6-1.2c0-0.2,0-0.2,0-0.4v-0.2c0-0.4,0.2-0.8,0.4-1c0.6-0.8,1.6-0.6,2,0.2c0.2,0.4,0.4,1.2,0.6,1.6
									s0.2,1,0.2,1.4c0,0.2,0,0.4,0,0.4c0.4,0.2,0.8,0.2,1.2,0.4c0-0.2,0-0.4,0.2-0.6c0.2-1.2,0.4-2.6,0.6-3.8v-0.2c0,0,0,0,0-0.2
									c0.4-2.4,2.8-3.2,6.9-3.2c0,0,0,0,0.2,0C36.6,20.1,36.4,19.4,36.4,18.8z"/>
								<path class="st29" d="M29.7,23.9c0,0.2,0,0.2,0,0.4c-0.2,1.4-0.4,2.6-0.6,3.8c0,0.2,0,0.4-0.2,0.6c-0.4,0-0.8-0.2-1.2-0.4
									v-0.2c0-0.2,0-0.4,0-0.4c0-0.4,0-0.8-0.2-1.2c-0.2-0.6-0.2-1.2-0.6-1.6c-0.4-0.8-1.4-1-2-0.2c-0.2,0.2-0.2,0.6-0.4,1v0.2
									c0,0.2,0,0.4,0,0.6v0.2c0.2,0.4,0.4,0.8,0.6,1c0.6,1,1.2,2,1.2,3.4l0,0c0,0,0,0.4,0,0.6l0,0c-0.4-0.2-0.8-0.6-1-0.8
									c-0.4-0.2-0.8-0.6-0.8-1c-0.2-0.4-0.2-1-0.4-1.4c-0.2-0.8-0.4-1.6-0.8-2.4c0-0.2,0-0.4-0.2-0.4c-0.2-0.6-0.4-1.4-0.6-2
									s-0.4-1.4-0.4-2s0-1.2,0-1.6v-0.2c0.2-0.8,0.4-1.6,0.8-2.2s0.4-0.6,0.4-0.8c0.2-0.2,0.4-0.6,0.6-0.8l0.2-0.2
									c0,0,0,0,0.2-0.2c-0.2,0.2-0.4,0.4-0.4,0.6c-0.8,1.4-0.2,3.8,1,4.9c0.6,0.4,1.2,0.8,1.8,1c1,0.4,1.8,1,2.6,1.6
									C29.5,23.7,29.5,23.7,29.7,23.9L29.7,23.9z"/>
							</g>
							<path class="st30" d="M14.7,69.6C14.7,69.8,14.7,69.8,14.7,69.6C14.7,69.8,14.7,69.8,14.7,69.6z"/>
						</g>
						<path class="st31" d="M23.6,73.2c0,0.6,0,1.4,0,2c-2.2-0.6-3.6-1.6-3.6-1.6s0-0.8,0-2C20.2,71.8,21.4,72.6,23.6,73.2
							L23.6,73.2z"/>
						<path class="st23" d="M42.6,70c-0.6,2-3.8,4-11.1,5.5c-3.2,0.6-6.1,0.2-8.1-0.4c0-0.6,0-1.2,0-2c2,0.6,4.6,1,7.9,0.4
							C38.4,72,41.6,70,42.4,68c0-0.4,0.2-0.8,0.2-1.2C42.8,68.2,42.8,69.4,42.6,70z"/>
						<path class="st31" d="M24.2,60.1c-0.2,0-0.4-0.2-0.6-0.2c-1-0.4-1.8-0.6-2.4-1l0.4-1.8c0.6,0.2,1.2,0.6,2,0.8
							c0.2,0,0.4,0.2,0.6,0.2C24.2,58.9,24.2,59.5,24.2,60.1z"/>
						<path class="st23" d="M42,55.6c-1.2,1.8-4.4,3.4-10.5,4.4c-2.8,0.6-5.5,0.4-7.3-0.2c0-0.6,0-1.4,0-2c1.8,0.4,4.4,0.6,7.3,0.2
							c6.1-1.2,9.3-2.8,10.5-4.4C42,54.4,42,55,42,55.6z"/>
						<path class="st31" d="M24.2,56.2c-0.2,0-0.4-0.2-0.6-0.2c-0.6-0.2-1-0.4-1.6-0.6c0,0,0-0.2,0-0.4c0,0,0-0.2,0-0.4
							c0-0.4,0.2-0.6,0.2-1c0,0,0,0,0-0.2c0.4,0.2,0.6,0.2,1,0.4c0.2,0,0.4,0.2,0.6,0.2C24.2,55,24.2,55.6,24.2,56.2z"/>
						<path class="st23" d="M42,52c-1.2,1.6-4.4,3.2-10.5,4.4c-3,0.6-5.5,0.4-7.3-0.2c0-0.6,0-1.4,0-2c1.8,0.4,4.4,0.8,7.3,0.2
							c5.9-1.2,9.3-2.6,10.5-4.4C42,50.8,42,51.4,42,52z"/>
						<path class="st32" d="M41.8,21.7c0.2,0.4,0,0.8-0.4,1.2c-0.2,0.2-0.2,0.2-0.4,0.4c-0.8,0.6-1.6,1-2.4,1.4
							c-0.6,0.2-1.2,0.4-1.8,0.6c-1,0.2-2,0.4-3,0.2c-0.6,0-1.4-0.4-2-0.6c-0.2-0.2-0.4-0.4-0.6-0.6c0,0-0.4-0.6,0-0.6h0.2
							c0.2,0,0.4,0,0.4,0c0.2,0,0.2,0,0.4-0.2c0.4,0,0.6-0.2,1-0.2c0.6-0.2,1.4-0.2,2-0.4c1.6-0.4,3.2-1,4.6-1.8
							c0.2-0.2,0.4-0.4,0.8-0.8c0.2-0.2,0.2,0,0.4,0c0.2,0.2,0.2,0.2,0.4,0.4C41.4,20.9,41.6,21.3,41.8,21.7z"/>
						<path class="st33" d="M40.4,19.9c0.2,0.6-0.2,1.6-0.8,2c-0.4,0.4-1,0.6-1.6,0.8c-1.2,0.4-2.4,0.6-3.6,0.8c-0.6,0-1.2,0-1.8,0
							c-0.4,0-1,0.4-1.4,0.2l0,0c-1,0-2,0-3-0.2c-1.6-0.2-3.2-0.8-4.9-1.2c-0.8-0.2-1.8-0.2-1.8-1.2c0-1.4,0-2.8,0.4-4.2
							c0.2-1,0.6-2,1.4-2.8c0.2-0.2,0.6-0.6,0.8-0.8c0.8-0.6,1.6-1,2.4-1.4c2-0.8,4.9-0.6,7.1-0.2c0.6,0.2,1.4,0.2,2,0.4
							s1.4,0.4,2,1c0.4,0.4,0.8,1,1,1.4c0.6,1,0.6,2.4,1,3.6C40,18.6,40.2,19.2,40.4,19.9L40.4,19.9z"/>
						<path class="st34" d="M41.8,21.3c0.2,0.4,0,0.8-0.4,1.2c-0.2,0.2-0.2,0.2-0.4,0.4c-0.8,0.6-1.6,1-2.4,1.4
							c-0.6,0.2-1.2,0.4-1.8,0.6c-1,0.2-2,0.4-3,0.2c-0.6,0-1.4-0.4-2-0.6c-0.6-0.4-0.8-1-0.8-1s3.4-0.2,4.6-0.6
							c5.5-1.4,4.9-3,4.9-3c0.2-0.2,0.2,0,0.4,0c0.2,0.2,0.2,0.2,0.4,0.4C41.4,20.5,41.6,20.9,41.8,21.3z"/>
						<path class="st35" d="M31.1,23.7L31.1,23.7c-1,0-2,0-3-0.2c-1.6-0.2-3.2-0.8-4.9-1.2c-0.8-0.2-1.8-0.2-1.8-1.2
							c0-1.4,0-2.8,0.4-4.2c0.2-1,0.6-2,1.4-2.8c0.2-0.2,0.6-0.6,0.8-0.8c-0.2,0.2-1.4,1.6,1.4,2.2c3,0.6,3.8,1,4.2,2.8
							C29.9,19.7,30.3,22.5,31.1,23.7z"/>
						<path class="st35" d="M26.7,12.8c-0.6,0-1.2,0-1.6,0.2s-0.6,0.4,0,0.6c1.2,0.4,5.1,0.6,6.1,3c1.2,2.4,1.4,5.5,2,5.5
							s0.8-0.6,0.2-3c-0.8-3.2-1.4-3.8-2-4.6C30.5,13.6,28.3,13,26.7,12.8z"/>
						<path class="st35" d="M38,20.5c0.6,0,0.4-0.8,0.4-1.4c0-0.8-0.4-1.8-0.6-2.6c-0.2-0.4-0.2-1-0.4-1.4s-0.4-1-0.6-1.4
							c-0.2-0.4-0.6-0.6-1-1c-0.6-0.4-1.2-0.6-2-0.8c-0.6,0-1.2-0.2-2-0.2h-0.2c-0.4,0-1-0.2-1.4-0.2c-0.2,0-0.4,0-0.4,0.2
							s0.6,0.2,0.6,0.2c1.2,0.4,4.6,0.6,5.9,3C37.2,17.4,37.4,20.5,38,20.5z"/>
						<path class="st35" d="M36,18c0-0.2-0.2-0.4-0.2-0.6c-0.2-1-0.4-1.8-0.8-2.6c-0.2-0.2-0.2-0.6-0.6-0.8
							c-0.4-0.4-0.8-0.6-1.2-0.8c-1-0.4-2-0.8-3.2-1c-0.4,0-0.8-0.2-1.4-0.2c-0.2,0-1.2-0.2-1.4,0.2c0,0.2,0.2,0.4,0.4,0.4
							c1.2,0.4,5.1,0.6,6.1,3c1.2,2.4,1.4,5.5,2,5.5C36.6,20.9,36.8,20.5,36,18z"/>
					</g>
				</g>
				<g>
					<g id="XMLID_24_">
						<path class="st36" d="M23,112.2c0.6,0,1.2,0,1.8,0c1,0,2.8,0.4,3,1.6c0,0.6,0,1.2,0,1.6c0,0.8,0,1.8,0.2,2.6
							c0,1.2,0.8,2,1.4,3.2c0.6,1,1,2,1.6,3c0.4,0.8,0.8,1.6,0.8,2.6s-0.2,2.4-0.6,3.2c-0.4,0.6-1,0.8-1.6,1
							c-0.4,0.2-0.8,0.2-1.2,0.2c-0.2,0-0.4,0-0.6,0c-1.2-0.2-2.2-1-3-2c-0.4-0.4-0.8-0.8-1-1.2c-0.4-0.6-0.6-1.2-0.8-2l-0.4-1.4
							h-0.2c-0.2,0-0.8-1.2-1-1.2c-0.4-0.4-0.6-1-0.8-1.6c-0.2-0.4-0.4-0.8-0.6-1.2c-0.2-0.6-0.2-1.4-0.2-2.2c0-0.6,0.4-1.2,0.2-1.8
							c0-0.6-0.2-1-0.2-1.4c-0.2-0.6-0.4-1.6,0.2-2.2c0.4-0.2,1-0.2,1.4-0.4C21.8,112.4,22.2,112.2,23,112.2
							C22.6,112.4,22.8,112.4,23,112.2z"/>
					</g>
					<path class="st37" d="M30.1,126.8c-2.4,2.6-5.7-0.6-6.5-3c-0.4-1.4-0.4-2.6-0.4-4c0-0.8-0.2-1.8-0.2-2.8c0-0.6,0.2-1.2,0.6-1.4
						c0.2-0.2,0.6-0.2,1-0.2s1-0.2,1.4,0c0.6,0,1,0.4,1.6,0.6c0,0,0,0,0.2,0v0.2c0,1.6,0,3.2,0.8,4.6s2.4,3.2,2.2,5.1
						C30.5,126.2,30.3,126.6,30.1,126.8z"/>
					<g>
						<path class="st38" d="M24.4,122.7L24.4,122.7c0-0.6,0.6-1,1-1.4c0.2-0.2,0.4-0.2,0.6-0.4c0.2-0.2,0.4-0.4,0.4-0.8l0,0l0,0
							c-0.2-0.2-0.6-0.2-1-0.2c-0.2,0-0.2,0-0.4,0c-0.4,0-0.8-0.2-1-0.4c0-0.2,0-0.4,0.2-0.6s0.4-0.4,0.8-0.4h0.2
							c0.2,0,0.4-0.2,0.4-0.4c0-0.2,0-0.2,0-0.4c-0.2-0.2-0.8-0.2-1.2-0.2h-0.2c-0.2,0-0.4,0-0.6-0.2s-0.4-0.4-0.2-0.6
							c0-0.2,0.4-0.4,0.6-0.6l0.2-0.2c0.4-0.4,0.4-0.6,0.4-0.8c0-0.2-0.4-0.4-0.6-0.6l0.2-0.2c0.2,0.2,0.6,0.4,0.6,0.6
							c0,0.4,0,0.8-0.4,1l-0.2,0.2c-0.2,0.2-0.4,0.4-0.6,0.6c0,0.2,0,0.2,0.2,0.4c0.2,0,0.2,0,0.4,0.2h0.2c0.4,0,1,0,1.2,0.4
							c0,0.2,0.2,0.4,0,0.6c0,0.2-0.4,0.4-0.6,0.4c0,0,0,0-0.2,0c-0.2,0.2-0.4,0.2-0.6,0.4c-0.2,0.2-0.2,0.2-0.2,0.4
							c0,0.2,0.4,0.4,0.8,0.4c0,0,0.2,0,0.4,0c0.4,0,0.8,0,1.2,0.2c0,0,0,0,0.2,0.2v0.2c0,0.4-0.2,0.6-0.6,0.8
							c-0.2,0.2-0.4,0.2-0.6,0.4C25.3,121.9,24.9,122.3,24.4,122.7z"/>
					</g>
					<g>
						<path class="st38" d="M27.5,121.5c-0.6,0-1.4,0-2-0.2c-0.2,0-0.6-0.2-0.6-0.6s0.4-0.6,0.6-0.8c0,0,0,0,0.2,0
							c0,0,0.2,0,0.2-0.2c0.2-0.2,0.2-0.2,0.4-0.4c0-0.2,0-0.6,0-0.6c-0.2-0.2-0.6-0.2-0.8,0c-0.2,0-0.2,0-0.4,0l0,0
							c-0.2,0-0.6,0-0.6-0.2c-0.2-0.2-0.2-0.6,0.2-0.8c0.2-0.2,0.4-0.2,0.6-0.4h0.2c0.4-0.2,0.4-0.4,0.6-0.4v-0.2h-0.2
							c-0.4,0-1,0-1.4-0.2c0,0-0.2,0-0.2-0.2V116c0-0.8,0.4-1.6,1-2.4l0.2,0.2c-0.6,0.8-1,1.4-1,2.2v0.2c0,0,0,0,0.2,0
							c0.4,0.2,1,0.2,1.4,0.2c0.2,0,0.2,0,0.4,0c0.2,0.2,0.2,0.4,0.2,0.4c0,0.2-0.2,0.4-0.6,0.6h-0.2c-0.2,0-0.4,0.2-0.6,0.4
							c-0.2,0.2-0.2,0.4,0,0.6s0.4,0.2,0.6,0.2l0,0c0,0,0.2,0,0.4,0c0.4,0,0.8,0,1,0.2s0.2,0.6,0.2,0.8c0,0.2-0.2,0.4-0.4,0.4
							c0,0,0,0-0.2,0.2c0,0,0,0-0.2,0c-0.2,0.2-0.6,0.4-0.4,0.6c0,0.2,0.2,0.2,0.6,0.4c0.8,0.2,1.6,0.4,2.4,0.2v0.2
							C27.9,121.5,27.7,121.5,27.5,121.5z"/>
					</g>
					<path class="st39" d="M46.1,117.5c0.2,1.8-0.8,2.2-2.4,2.2c-1,0-2.4,0-3.4-0.4c-0.8-0.2-2.8-0.6-3.2-1.4
						c-0.2-0.4-0.6-0.8-0.6-0.8l-1-0.2v0.4c0,0-0.2,0-2-0.8s-2.2-1.6-2.2-1.6c-0.2-0.6,0-1.8,0-2.4c-0.2-1.2,0-2.2,0-3.4
						c0-0.8,0.2-1.8,0.8-2.2c0.2-0.2,0.6-0.2,1-0.4c0.8-0.2,1.4-0.2,2.2-0.4c0.8,0,1.4,0,2.2,0c0.8,0.2,1.4,0.6,1.8,1.2
						c0.4,0.6,0.4,1.2,0.4,2c0,0.6,0,1.6,0.4,2.2c0.4,0.4,1.4,0.8,2,1.2c0.6,0.4,1.2,0.6,1.8,1C44.9,114.6,45.9,116,46.1,117.5z"/>
					<path class="st40" d="M31.7,127c0,0.8-0.2,2-0.6,2.6s-1,0.8-1.6,1c-0.4,0.2-0.8,0.2-1.2,0.2c-0.2,0-0.4,0-0.6,0
						c-1.2-0.2-2.2-1-3-2c-0.4-0.4-0.8-0.8-1-1.2c-0.4-0.6-0.6-1.2-0.8-2l-0.4-1.4h-0.2c-0.2,0-0.8-1.2-1-1.2
						c-0.4-0.4-0.6-1-0.8-1.6c-0.2-0.4-0.4-0.8-0.6-1.2c0-0.4-0.2-0.6-0.2-1c0,0.6,0,1.2,0.2,1.8c0.2,0.4,0.4,0.8,0.6,1.2
						c0.2,0.6,0.4,1,0.8,1.6c0.2,0.2,0.8,1.4,1,1.2h0.2l0.4,1.4c0.2,0.8,0.4,1.4,0.8,2c0.4,0.4,0.6,0.8,1,1.2c0.8,0.8,1.8,1.6,3,2
						c0.2,0,0.4,0,0.6,0c0.4,0,0.8-0.2,1.2-0.2c0.6-0.2,1.2-0.4,1.6-1C31.5,129.4,31.7,128,31.7,127L31.7,127z"/>
					<path class="st40" d="M43.6,118.9c-1,0-2.4,0-3.4-0.4c-0.8-0.2-2.6-0.6-3-1.4c-0.2-0.4-0.6-0.8-0.6-0.8l-1.2-0.2v0.6
						c0,0-0.2,0-2-0.8s-2.2-1.6-2.2-1.6c0-0.2,0-0.2,0-0.4c0,0.4,0,0.8,0,1.2c0,0,0.4,0.8,2.2,1.6c1.8,0.8,2,0.8,2,0.8l0.2-0.6
						l1,0.4c0,0,0.4,0.4,0.6,0.8c0.4,0.6,2.4,1,3,1.4c1,0.4,2.4,0.4,3.4,0.4c1.6,0,2.6-0.4,2.4-2.2l0,0
						C45.9,118.7,44.9,118.9,43.6,118.9z"/>
					<g>
						<path class="st38" d="M41,114L41,114l0.2-1c0-0.2,0-0.2,0-0.4c0,0,0,0-0.2,0c-0.4,0-0.8,0-1.2-0.2s-0.8-0.6-0.6-1.2
							c0-0.2,0-0.2,0.2-0.4c0.2-0.2,0.2-0.4,0.2-0.6s-0.4-0.2-0.6-0.4l0,0c-0.2,0-0.4,0-0.6-0.2s-0.2-0.6-0.2-0.8
							c0-0.2,0.2-0.4,0.4-0.6l0,0l0.2-0.2c0,0,0-0.2-0.2-0.2c0,0-0.2-0.2-0.2-0.4h0.2c0,0,0,0.2,0.2,0.2c0,0.2,0.2,0.2,0.2,0.4
							c0,0.2,0,0.2-0.2,0.4l0,0c-0.2,0.2-0.2,0.4-0.4,0.6c0,0.2,0,0.4,0,0.6c0.2,0.2,0.4,0.2,0.6,0.2l0,0c0.4,0,0.6,0.2,0.6,0.4
							c0,0.2,0,0.4-0.2,0.6c0,0.2-0.2,0.2-0.2,0.4c0,0.4,0.2,0.8,0.4,0.8c0.2,0.2,0.6,0.2,1.2,0.2H41c0.2,0,0.2,0.2,0,0.6V114z"/>
					</g>
					<g>
						<path class="st38" d="M40.4,113.4c-0.2,0-0.6-0.2-0.8-0.4c-0.2-0.2-0.2-0.4-0.2-0.6s0.2-0.4,0.2-0.6c0,0,0,0,0-0.2
							s0.2-0.4,0-0.6c0-0.2-0.4-0.2-0.4-0.2H39c-0.2,0-0.2,0-0.4,0s-0.4-0.2-0.6-0.4c-0.2-0.2-0.2-0.6,0-0.8c0-0.2,0.2-0.4,0.4-0.6
							c0,0,0,0,0.2-0.2s0.2-0.4,0.2-0.6s-0.2-0.4-0.4-0.4s-0.2,0-0.4,0h-0.2c-0.6,0-1-0.4-1.4-0.8l0.2-0.2c0.4,0.4,0.8,0.6,1.2,0.6
							H38c0.2,0,0.4,0,0.4,0c0.4,0,0.6,0.2,0.6,0.4c0,0.2,0,0.6-0.2,0.8c0,0,0,0.2-0.2,0.2c-0.2,0.2-0.2,0.2-0.4,0.4
							c0,0.2,0,0.4,0,0.6c0.2,0.2,0.2,0.4,0.4,0.4s0.2,0,0.4,0h0.2c0.2,0,0.4,0.2,0.6,0.2c0.2,0.2,0,0.4,0,0.8c0,0,0,0,0,0.2
							s-0.2,0.2-0.2,0.4c0,0.2,0,0.2,0.2,0.4c0.2,0.2,0.4,0.2,0.6,0.2l0,0c0.4,0,0.8-0.2,1-0.4l0.2,0.2
							C41.4,113,41,113.4,40.4,113.4L40.4,113.4z"/>
					</g>
					<g>
						<path class="st24" d="M16.6,41.5c-0.2,1-0.6,2-1,2.8c0,0,0,0.2-0.2,0.2l-0.2-0.2c-0.2-0.6-0.4-1.4-0.2-2.2
							c0-0.6,0.4-1.8,1-2.2c0.2,0,0.4,0,0.6,0c0,0,0,0.2,0,0.4C16.6,40.9,16.6,41.1,16.6,41.5z"/>
						<g>
							<g>
								<path class="st33" d="M33.7,108.2L33.7,108.2L33.7,108.2L33.7,108.2z"/>
							</g>
							<path id="XMLID_23_" class="st41" d="M50.5,66.5c-0.4-0.4-1.2-1-1.8-1.4c0-0.2-0.2-0.2-0.2-0.4c-0.4-0.6-0.8-1.2-1.2-2
								c-0.6-1.4-1.2-2.8-1.8-4c-1-2-2.6-7.5-2.6-7.5c-3.8-1.2-4,3.8-3.4,5.1c0.8,1.2,1.6,2.4,2.6,3.4c0.8,1,1.2,2.2,1.6,3.2
								c0.2,0.2,0.2,0.6,0.4,0.8s0.2,0.4,0.2,0.6c0.2,0.6,0.4,1.2,0.6,1.8c0.2,0.6,0,1.4,0.2,2s0.4,1,0.8,1.2c0.6,1.6,1.2,2,1.6,2.6
								s0.2,0.8,1.8,0.8s1.2-0.8,1.2-0.8s0,0,0.4-0.2s0.2-0.6,0.2-0.6l-1.2-2.8c0-0.2,0.2-0.4,0.2-0.6c0,0,0,0,0-0.2
								c0.6,0.2,1.8,0.8,2.2,0.4C53.1,67.7,51.1,67.1,50.5,66.5z"/>
							<path class="st29" d="M36.8,69.6c-0.4-0.8-0.2-1.6,0.2-2c-0.2-0.2-0.2-0.6-0.2-0.8c-0.4,0-0.6,0.2-0.8,0.4
								c-1.6,1-2.4,2.6-3.2,4.2c-0.2,0.4-0.2,0.6-0.4,1c-0.8,2.2-0.2,5.1-0.2,7.3c0,3,0.2,6.3-0.6,9.3c-1.2,4.9-1.2,9.1-1,12.5
								s0,9.3,0,9.3s1.2,1.8,4.4,1.8c1.2,0,2.2-0.2,3.2-0.8c1.2-0.8,1.4-1.2,1.4-2.4c-0.2-3.2,0-6.3,0-9.5c0.2-2.6,0.2-5.3,0.6-7.9
								c0.6-4,0.6-5.1,0.8-8.3c0.2-2.2,1.2-10.1,0.6-13.3C40.2,70.8,37.8,71.2,36.8,69.6z"/>
							<g>
								<path class="st42" d="M32.9,103.7c-0.2-3.4-0.2-7.7,1-12.5c0.8-3,0.8-6.3,0.6-9.3c0-2.2-0.8-5.3,0.2-7.3
									c0.2-0.4,0.2-0.6,0.4-1c0.6-1.2,1.2-2.4,2-3.4C37,70,37,70,36.8,69.8c-0.4-0.8-0.2-1.6,0.2-2c-0.2-0.2-0.2-0.6-0.2-0.8
									c-0.4,0-0.6,0.2-0.8,0.4c-1.6,1-2.4,2.6-3.2,4.2c-0.2,0.4-0.2,0.6-0.4,1c-0.8,2.2-0.2,5.1-0.2,7.3c0,3,0.2,6.3-0.6,9.3
									c-1.2,4.9-1.2,9.1-1,12.5s0,9.3,0,9.3s0.6,1,2.4,1.6C32.9,111,33.1,106.5,32.9,103.7z"/>
							</g>
							<path id="XMLID_22_" class="st43" d="M36,32.2c0,0,2.6-0.8,4.2,1c1.6,1.8,1.6,3,1.6,6.5s-0.2,7.1-0.2,7.1l6.5,16.8
								c0,0-2,0.4-3,2.6c-0.2,0.4-4.2-7.5-4.9-7.9C35.6,53.6,32.3,32.8,36,32.2z"/>
							<path id="XMLID_21_" class="st44" d="M41.6,36.4c-0.2-1.2-0.6-2.2-1.6-3.2c-1.6-1.8-4.2-1-4.2-1c-0.6,0-1,0.8-1,2
								c1,0.2,2.4,0,3.4,0c1.2,0,2.2,0.8,3,1.6C41.4,36,41.6,36.2,41.6,36.4z"/>
							<g>
								<path class="st45" d="M29.9,100.3c0.2-2,1-4.2,1.4-6.3c0.4-2.8,1-6.9,1.2-9.7c0-1.6,0.2-3,0.4-4.6c0-0.2,0-0.4,0.2-0.6
									c0-0.2,0.2-0.2,0.2-0.4c0.2-0.2,0.6-0.6,0.8-0.8c0.8-0.8,1.4-1.6,1.6-2.4c0.2-1.6,0-3-0.4-4.6c0-0.2,0-0.4,0.2-0.4
									c0.2-0.2,0.6-0.4,0.8-0.6c0.6-0.4,1-0.8,1.6-1.2c0.8-0.6,1.4-1,2.2-1.6c0.4-0.2,1-0.2,1.4-0.2c0-3.4-1-6.5-1-6.5
									s0.4,1-6.5,4.9c-1.6,1-3.4,1.6-5.3,2.2c-2,0.4-4.6-0.4-6.5,0.8c-1.8,1.2-2.2,3.2-2.4,5.3c-0.2,2.6-0.4,5.5-0.2,8.3
									c0.4,5.3,0.8,10.7,0.4,16.2c-0.4,5.1-0.6,10.3-0.2,15.4c0.2,1.6-0.2,4.4,1,5.9c0.8,0.8,2.2,1.2,3.4,1.4
									c1.2,0.2,2.6,0.4,3.6-0.2c1.2-0.8,1-3,1.2-4.4c0.2-2.2,0.2-4.4,0.2-6.5C29.3,106.1,29.5,103.1,29.9,100.3z"/>
							</g>
							<path class="st46" d="M22.4,115.6c-0.4-5.1,0-10.3,0.2-15.4c0.4-5.5,0-10.7-0.4-16.2c-0.2-1.4-0.2-3,0-4.4c0-1,0.2-2,0.4-3
								c0,0.2,2.4,0.6,2.8,0.6c1,0.2,2.2,0.2,3.2,0c2.2-0.2,4.4-1.2,6.5-1.4c2.2-0.4,4.2-1,6.1-2.2c0.2-0.2,0.4-0.2,0.6-0.6
								c0-0.2,0.2-0.4,0.2-0.6c0.2-4.2,0-8.5-1.4-12.3c0,0,0.4,1-6.5,4.9c-1.6,1-3.4,1.6-5.3,2.2c-2,0.4-4.6-0.4-6.5,0.8
								c-1.8,1.2-2.2,3.2-2.4,5.3c-0.2,2.6-0.4,5.5-0.2,8.3c0.4,5.3,0.8,10.7,0.4,16.2c-0.4,5.1-0.6,10.3-0.2,15.4
								c0.2,1.6-0.2,4.4,1,5.9c0.6,0.6,1.2,1,2,1.2C22.2,118.7,22.4,116.9,22.4,115.6z"/>
							<path id="XMLID_20_" class="st44" d="M41.4,52c-0.2,2.8-0.2,5.9,0,8.7c0,1.2,0.2,2.4,0.2,3.6c0.2,1,0.6,2.2,0.2,3.2
								c-0.2,0.8-0.4,1.6-0.6,2.4c0,0.2-0.2,0.6-0.4,0.8c-0.4,0.6-0.8,1.4-1.4,1.6c-0.8,0.4-1.6,0.6-2.4,1c-3.2,1-7.9,2.2-15,0
								c0,0,1.2-12.1,0.6-13.7c-0.8-1.6-5.9-8.1-6.1-11.7c-0.2-3.8-1-6.9,2.8-10.1c2.2-1.8,3.8-3.2,5.7-4.2c1.4-1,2.8-1.6,4.4-2.2
								c1.4-0.4,3-0.4,4.6,0c2.6,0.6,4.9,1.6,5.7,2.8C41.6,36.6,42,42.3,41.4,52z"/>
							<path class="st47" d="M39,33.2c0,0,1.2,1.4,1.6,1.8c0.4,0.6,0.8,1.4,1,2.2c0.6,2,0.4,4.2,0.2,6.5c-0.2,3.2,0,6.5,0,9.7
								c0,2,0,3.8,0,5.9c0,0.8,0,1.8,0,2.6c0,1.6,0.2,3.4,0.6,5.1c0.2,0.8,0,1.4-0.2,2.2C42,70,41.8,71,41,71.4
								c-0.8,0.6-1.4,1-2.4,1.4c-0.2,0-2,0.6-2,0.6s0.8-9.9-0.2-20.6c-0.2-2.4-0.4-5.1-1-7.5c-0.4-1.6-0.8-3.2-1.2-4.9
								c-0.2-0.6-0.8-1.6-0.4-2c0.2-0.2,0.6-0.4,0.8-0.6c0.6-0.6,0.8-1.4,1-2.4c0-0.2,0-0.6,0.2-0.8c0-0.2,0-0.4,0.2-0.6
								c0.2-0.6,0.8-0.6,1.2-0.8C37.4,33.2,38.8,33,39,33.2z"/>
							<path id="XMLID_19_" class="st43" d="M32.5,34.4c2.2-0.2,4.2-1.2,6.5-1c-1.2-1.2-2.2-2.2-4.2-2.6c-1.6-0.4-3.8,0.2-5.3,0.8
								c-1.6,0.6-3,1.4-4.4,2.2c-1.8,1.2-5.3,2.6-7.3,4.4c-3.4,3-2.6,6.1-2.8,10.1c0,0.4,1.6,0.8,1.8,1.2c0.6,2.2,1.8,4,3,6.1
								c0.4,0.6,0.6,1.2,1.2,1.6c0.2,0.2,0.2,1,0.2,1.2c0,1,0,2,0,2.8c0,1.2-0.2,2.4-0.2,3.6c0,0.6-0.2,1.2-0.2,1.8
								c0,0.8,0.8,1.8,0.4,2.8c-0.2,0.8-0.6,1.4-0.4,2.2c0.2,0.6,0,1.4,0.4,1.6s0.8,0.2,1,0.4c0.4,0.2,0.6,0.2,1,0.2
								c0,0,0.2-5.7,0.2-5.9c0-2,0-4.2,0-6.3c0.2-2.8,0.4-5.5,0.6-8.3c0-1.2,0.2-2.4,0.2-3.4c0-1.2-0.2-2.6-0.4-3.8
								c-0.2-1.6-0.2-3.6-1-5.1c-0.4-0.6-0.6-1-1-1.4c-0.8-0.6-0.6-0.8,0-1.4c0.6-0.6,1.2-1,2-1.4c1-0.4,1.8-0.8,2.8-1.2
								c0.2,0,0.4-0.2,0.8-0.2C29.1,35,30.9,34.6,32.5,34.4z"/>
							<path id="XMLID_18_" class="st41" d="M22,83.1c-0.2-0.2-0.4-0.6-0.8-1c0,0,0-0.2-0.2-0.2c-0.4-0.6-1-1-1.4-1.6
								s-0.4-1.4-0.6-2c-0.2-3,0.4-8.5-0.2-11.5S12.9,66,12.9,66s-0.2,3.4,1.4,8.7c1.6,5.3,2,5.9,2,7.9c0,0.8-0.2,1.2,0.2,1.8
								c0.2,0.4,0.4,0.8,0.6,1.2c0.4,1,0.6,1.6,0.8,2.2c0.4,0.8,0,0.8,1.8,1.2c1.8,0.6,1.4-0.4,1.4-0.4s0,0,0.6,0s0.4-0.6,0.4-0.6
								l-0.8-3.2c0-0.2,0.2-0.2,0.2-0.4c0.6,0.4,1.8,1.4,2.2,1.2C24.2,84.9,22.4,83.9,22,83.1z"/>
							<path id="XMLID_17_" class="st47" d="M12.9,65.9c0,0-0.2,3.4,1.4,8.7c1.6,5.3,2,5.9,2,7.9c0,0.6,0,1,0,1.4
								c0.4-1,0.6-2.2,0.6-3c-0.2-2.4-1-4.9-1.6-7.3c-0.6-2.8-0.8-5.7-0.4-8.3C13.9,65.3,12.9,65.9,12.9,65.9z"/>
							<path class="st44" d="M21.4,38.4c0,0-4.9-2-5.9,4.6s-1.2,8.9-2,13.9c-1,5.1-1,6.1-1,7.5s0.8,6.9,1.6,10.3s1.8,5.9,1.8,5.9
								s0.4-1.6,2-1.6c1.4,0,1.6,0.6,1.6,0.6l-0.2-15.8c0,0,5.3-15.2,4.9-18.6C23.6,41.5,23.2,39.3,21.4,38.4z"/>
							<path class="st43" d="M17.8,40.3c-0.4,0.2-0.8,0.4-0.8,0.8c0,0.4,0.4,0.6,0.6,0.8c1,0.4,1.8,0.4,2.6,1
								c0.8,0.6,1.2,1.4,1.6,2.4c0.4,0.8,0.4,1.8,0.6,2.8c0,0.8,0.2,1.8,0,2.6c-0.2,2-1,4-1.6,5.9c-0.6,2.4-1.2,4.6-2,6.9
								c0,0,0.2,11.1,0.4,11.1V63.7c0.8-2.2,1.4-4.4,2.2-6.7c0.6-1.8,1.2-3.8,1.6-5.7c0.2-0.8,0.4-1.8,0.6-2.6c0.2-1,0-2,0-3
								c0-1.2,0-3.6-1-4.6C21.4,40.3,19.4,39.9,17.8,40.3z"/>
							<path class="st43" d="M15.6,76.6C14.8,73.2,14,65.5,14,64.1s0.8-3.2,1.6-8.3c1-5.1,1.4-6.1,2.4-12.7c0.4-3,1.8-4.2,3.2-4.6
								c-0.8-0.2-4.9-1.6-5.7,4.6c-1,6.7-1.2,8.9-2,13.9c-1,5.1-1,6.1-1,7.5s0.8,6.9,1.6,10.3s1.8,5.9,1.8,5.9s0.2-0.6,0.6-1
								C16.2,78.7,15.8,77.9,15.6,76.6z"/>
							<path class="st48" d="M37.4,35.2c-0.2-0.6-0.2-1.2-0.6-1.6c-0.4-0.6-1.2-1-1.6-1.6c-0.4-0.4-0.6-0.6-1-1c0,0,3,0.2,5.7,3
								c3,3.2,3,8.1,2.8,9.7c0,0.6-0.2,3-0.6,6.1c-0.2,0.6,0,1.2,0,2s0,1.6,0,2.4c0,0.6,0,1.2,0,2c0,2.6,0,4.6,0,4.6s1,6.9,0.4,9.1
								c-0.6,2-3.8,4-11.1,5.5c-3.2,0.6-6.1,0.2-8.1-0.4c-2.2-0.6-3.6-1.6-3.6-1.6s0-3.4,0.4-5.1c0.4-1.4,0.6-7.3,0.6-8.9
								c0-0.4,0-0.4,0-0.4l0.4-1.2l0.2-1c0,0,0.2-0.4,0.4-1.2c0.2-0.4,0.4-1.2,0.6-1.8c0-0.4,0.2-0.6,0.2-1c0.4-2,1-3.8-0.4-9.1
								c-0.2-0.8-0.4-1-0.6-1.4c-2-2.8-5.9-1.8-6.1-1.8c2.2-3.4,7.9-6.9,9.7-7.5c0,0.6-2.2,2.2-2.4,3c-0.6,1,2.4,3.6,2.4,3.6
								c0.8,0.6,1.4,1.2,2.2,1.8c0.8,0.6,1.6,0.8,2.4,1c0.4,0.2,0.6,0.2,1,0.4c1.8,0.6,4,0.2,5.7-0.8c1.2-0.8,1.4-2.2,1.4-3.6
								c0-0.8,0-1.8-0.2-2.6C37.6,35.8,37.4,35.4,37.4,35.2z"/>
							<path class="st49" d="M14.9,80.3l-1-3.6c0,0,2.4,0.4,3.6-0.2c1.4-0.6,1.8-1.6,1.8-1.6l0.2,4.2C19.8,79.1,17.8,81.3,14.9,80.3
								z"/>
							<path class="st49" d="M44.7,66.5l-1.8-2.8c0,0,1.6-0.2,2.8-0.8c1.4-0.8,1.6-2.2,1.6-2.2l1.6,3.4
								C48.9,64.1,48.1,66.1,44.7,66.5z"/>
							<path class="st50" d="M37.6,34.6c0-0.2-0.2-0.4-0.2-0.4c-0.2-0.6-0.4-1-1-1.4c-0.2-0.2-1-0.4-1.2,0c0,0.2,0.2,0.4,0.2,0.6
								c0.2,0.4,0.6,0.8,0.8,1.2s0.2,1,0.4,1.4c0.2,1,0.2,2,0,3s-0.8,1.4-1.8,1.8c-0.4,0.2-1,0.4-1.6,0.6c-1.4,0.2-2.6,0.2-4-0.2
								c-0.8-0.2-1.6-0.8-2.4-1.2s-1.6-1-2.2-1.8c-0.4-0.4-1.2-1.2-1-2.4c0-0.6,0.2-1.2,0.8-1.4l0.2-0.2V34c0-0.2,0.2-0.4,0.2-0.6
								c0,0-0.8,0.4-1,0.4C23,34,22.4,34.4,22.2,35c-0.6,2.2,1,4.2,2.4,5.7c0.4,0.4,0.6,0.6,1.2,1s1,0.6,1.6,1
								c2.8,1.6,5.9,1.8,8.7,0.2c0.4-0.2,0.8-0.6,1-1c0.6-1,0.8-2,0.8-3C38.4,37.4,38,36,37.6,34.6z"/>
							<path class="st51" d="M21.4,41.5c0.4,0.2,0.6,0.6,0.8,1c0.6,0.8,1,1.8,1.2,2.8c0.4,1.4,0.6,3,0.6,4.6c0,0.8,0,1.6,0,2.2
								c0,0.2,0,2.2,0,2.2c-0.2,0-0.4-0.2-0.6-0.2c-0.2-0.2-0.6-0.2-1-0.4c0,0,0,0,0,0.2c0-0.4,0.2-0.8,0.2-1
								c0.2-0.6,0.2-1.2,0.4-1.8c0.2-1.4,0.2-2.8-0.2-4.2c-0.2-0.6-0.4-1.4-0.6-2c0-0.2-0.2-0.4-0.2-0.8c0-0.2-0.2-0.2-0.2-0.4
								c-0.4-0.4-0.6-0.8-1-1.2c-0.2-0.4-0.6-0.6-1-0.8s-0.8-0.4-1.2-0.4c-1.2-0.2-2.2,0-3.4,0.2v-0.2c0-0.2,0.2-0.4,0.4-0.6
								c1.4-0.8,3.8-0.2,5.1,0.6C21,41.1,21.2,41.3,21.4,41.5z"/>
							<path class="st51" d="M24.2,60.1c0,3.4,0,6.7-0.4,8.9c-0.2,1.4-0.2,3-0.4,4.2l0,0c-2-0.6-3.2-1.4-3.6-1.6c0-1,0.2-2.2,0.4-3
								c0.4-1.6,0.6-9.5,0.6-9.5v-0.2c0.6,0.4,1.4,0.6,2.4,1C23.8,60.1,24,60.1,24.2,60.1z"/>
							<path class="st51" d="M23.4,57.8c-0.8-0.2-1.4-0.6-2-0.8v-0.4c0,0,0.2-0.4,0.4-1.2c0.4,0.2,1,0.4,1.6,0.6
								c0.2,0,0.4,0.2,0.6,0.2c0,0.6,0,1.2,0,1.8C24,58,23.8,58,23.4,57.8z"/>
							<path class="st52" d="M25.3,34.2c-0.2,0.6-0.2,0.8,0.2,1.4c0.4,0.4,0.6,0.6,1,0.8c0.4,0.4,0.8,0.8,1.2,1c0.4,0.4,1,0.6,1.4,1
								c-0.6-1.2-0.6-2.8-0.6-4.2c0-1,0.2-2,0.2-3V31c-0.2,0-0.4,0-0.6,0.2C26.9,32,25.9,32.6,25.3,34.2z"/>
							<path class="st35" d="M31.3,40.1c1,0,3.2-0.4,3.8-1.2c0.8-1,0.6-3,0.4-4c-0.4-2-3-1.2-3-1.2c-0.4,0-0.8,0-1.2,0
								c-1,0-2-0.2-2.8-0.2c-0.2,0-0.6,0-0.8,0c-0.4,0-0.6-0.6-1-0.6c-0.2-0.2-0.8,0-1,0c-0.6,0.2-1.2,1-1.4,1.6
								c-0.4,1.4,0.8,2.6,1.8,3.6c1.2,1,2.6,2,4.2,2.2C30.5,40.1,30.9,40.3,31.3,40.1z"/>
							<path id="XMLID_16_" class="st30" d="M26.5,30c0,0.2,0,0.2,0,0.4c0,0.8,0,1.6-0.2,2.4c0,0.2-0.2,0.8,0,1s0.4,0.4,0.6,0.4
								c1,0.8,2.2,1.4,3.4,2c3,1.2,4,0.4,4,0.4l0.4-6.5L34.1,30c-0.6-0.2-1.2-0.4-1.8-0.6c-1-0.4-2-0.6-3-0.8c-0.4,0-1-0.2-1.4,0
								c-0.2,0-0.4,0-0.6,0.2s-0.4,0.6-0.4,0.8C26.5,29.6,26.5,29.8,26.5,30z"/>
							<path id="XMLID_15_" class="st30" d="M28.3,31.4c0.6-0.2,1.4-0.4,2.2-0.4c0.6,0,1.8,0,2.4,0.2c0.4,0.2,0.4,0.8,0.6,1.2
								c0.4,0.4,1,0.2,1.2,0.4c0.4,0.4,0.2,1.4,0.2,1.8c0,0.8,0,1.4,0,2.2c0,0.2,0,0.4-0.2,0.6c-0.4,0.8-1.2,1-1.8,1.2
								c-0.8,0.2-1.8,0.2-2.6,0.2c-0.6,0-1-0.4-1.6-0.6c-1.2-0.6-2.2-1.6-3.2-2.6c-0.2-0.2,0-0.4,0-0.6c0-0.8,0.2-1.8,0.8-2.4
								C26.9,32,27.7,31.6,28.3,31.4z"/>
							<path id="XMLID_14_" class="st52" d="M26.7,28.7c-0.4,0.2-1,0.4-1,0.8c-0.2,0.6,0.2,1.2,0.2,1.8c0,0.8,0,1.4-0.2,2.2
								c0,0.6-0.2,1-0.2,1.4c0,0.6,0.4,1.2,0.8,1.6c0.6,0.4,1.2,1,1.8,1.4c0.6,0.4,1.2,0.4,1.8,0.8c-0.4-0.2-0.8-0.8-1-1.2
								s-0.2-0.8-0.2-1.2s-0.2-1,0.2-1.4c0.2-0.4,0.6-0.2,1-0.2c0.2,0,0.4,0.2,0.4,0.2c1.2,0.6,2.6,0.8,4,0.8c0.2,0,0.4,0,0.6-0.2
								c0-0.2,0-0.2-0.2-0.4s-0.6-0.2-1-0.4c-0.8-0.4-1.6-1.2-2.6-1.6c-0.6-0.2-1-0.4-1.6-0.6c-0.2-0.2-0.6-0.4-0.6-0.6
								c0-0.4,0-0.6,0-1s-0.2-0.8-0.2-1.2c0-0.2-0.2-1-0.4-1C27.9,28.3,27.1,28.5,26.7,28.7z"/>
							<path class="st53" d="M39.2,22.3v-0.2c0-1-0.6-2-1-2.8c-0.8-1.2-2.2-2-3.6-2.2c-2-0.2-5.7,0.8-7.7,3.2
								c-0.2,0.2-0.2,0.4-0.4,0.6c-0.2,0.2-0.2,0.4-0.4,0.6c-1.2,3-5.3,3.8,1.2,10.7c0,0,0,0,0.2,0.2l0.2,0.2l0.2,0.2
								c0.2,0.2,0.6,0.4,1,0.8c1,0.8,2.2,1.4,3.4,1.8c2.4,0.4,4.4-0.2,4.6-2c0.4-3.2,1.4-6.3,1.8-9.5C39.2,23.3,39.2,22.7,39.2,22.3
								z"/>
							<path class="st54" d="M37.6,21.1c-0.2-0.6-0.6-1.4-0.6-2h-0.2c-1-0.4-2.2-0.6-3.4-0.6c-0.8,0-1.8,0-2.6,0.2
								c-1.4,0.2-2.8,0.8-3.8,1.8c-0.2,0.2-0.2,0.4-0.4,0.6c-0.2,0.2-0.2,0.4-0.4,0.6c-1.2,3-5.3,3.8,1.2,10.7c0,0,0,0,0.2,0.2
								l0.2,0.2L28,33c0.2,0.2,0.6,0.4,1,0.8c-0.2-0.8-0.2-1.8-0.2-2.6c0-0.4,0-0.8,0-1.2c0-0.4,0.2-0.8,0.4-1
								c0.2-0.2,0.4-0.6,0.4-0.8c0-0.2,0-0.6,0-0.8c0.2-1,0-2,0.2-2.8c0.2-0.6,0.4-1,0.6-1.4c0.4-0.6,1.4-1,2-1.2c0.4,0,0.8,0,1.4,0
								c0.4,0,0.8,0,1.2,0c0.6,0,1.2-0.2,1.8-0.2H37C37.6,21.3,37.6,21.3,37.6,21.1z"/>
							<g id="XMLID_13_">
								<path class="st55" d="M36.4,18.8C36.2,18,35.8,17,36,16c-1.4-1.2-3.2-2.4-5.1-2.6c-2.6-0.4-4.4,0.4-6.3,2c0,0,0,0-0.2,0.2
									c0,0,0,0-0.2,0.2L24,16c-0.2,0.2-0.4,0.6-0.6,0.8c0,0.2-0.2,0.2-0.2,0.4c-0.4,0.6-0.6,1.4-0.8,2.2v0.2c0,0.6,0,1.2,0,1.6
									c0,0.6,0.2,1.4,0.4,2c0.2,0.6,0.4,1.4,0.6,2c0,0.2,0,0.4,0.2,0.4c0.2,0.8,0.4,1.6,0.8,2.4c0.2,0.4,0.2,1,0.4,1.4
									c0.2,0.4,0.6,0.6,0.8,1c0.4,0.2,0.6,0.6,1,0.8l0,0l0,0c0-0.2,0-0.4,0-0.6l0,0c0-1.2-0.6-2.4-1.2-3.4
									c-0.2-0.4-0.4-0.8-0.6-1.2c0-0.2,0-0.2,0-0.4v-0.2c0-0.4,0.2-0.8,0.4-1c0.6-0.8,1.6-0.6,2,0.2c0.2,0.4,0.4,1.2,0.6,1.6
									s0.2,1,0.2,1.4c0,0.2,0,0.4,0,0.4c0.4,0.2,0.8,0.2,1.2,0.4c0-0.2,0-0.4,0.2-0.6c0.2-1.2,0.4-2.6,0.6-3.8v-0.2c0,0,0,0,0-0.2
									c0.4-2.4,2.8-3.2,6.9-3.2c0,0,0,0,0.2,0C36.6,20.1,36.4,19.4,36.4,18.8z"/>
								<path class="st56" d="M29.7,23.9c0,0.2,0,0.2,0,0.4c-0.2,1.4-0.4,2.6-0.6,3.8c0,0.2,0,0.4-0.2,0.6c-0.4,0-0.8-0.2-1.2-0.4
									v-0.2c0-0.2,0-0.4,0-0.4c0-0.4,0-0.8-0.2-1.2c-0.2-0.6-0.2-1.2-0.6-1.6c-0.4-0.8-1.4-1-2-0.2c-0.2,0.2-0.2,0.6-0.4,1v0.2
									c0,0.2,0,0.4,0,0.6v0.2c0.2,0.4,0.4,0.8,0.6,1c0.6,1,1.2,2,1.2,3.4l0,0c0,0,0,0.4,0,0.6l0,0c-0.4-0.2-0.8-0.6-1-0.8
									c-0.4-0.2-0.8-0.6-0.8-1c-0.2-0.4-0.2-1-0.4-1.4c-0.2-0.8-0.4-1.6-0.8-2.4c0-0.2,0-0.4-0.2-0.4c-0.2-0.6-0.4-1.4-0.6-2
									s-0.4-1.4-0.4-2s0-1.2,0-1.6v-0.2c0.2-0.8,0.4-1.6,0.8-2.2s0.4-0.6,0.4-0.8c0.2-0.2,0.4-0.6,0.6-0.8l0.2-0.2
									c0,0,0,0,0.2-0.2c-0.2,0.2-0.4,0.4-0.4,0.6c-0.8,1.4-0.2,3.8,1,4.9c0.6,0.4,1.2,0.8,1.8,1c1,0.4,1.8,1,2.6,1.6
									C29.5,23.7,29.5,23.7,29.7,23.9L29.7,23.9z"/>
							</g>
							<path class="st52" d="M14.7,69.6C14.7,69.8,14.7,69.8,14.7,69.6C14.7,69.8,14.7,69.8,14.7,69.6z"/>
						</g>
						<path class="st57" d="M23.6,73.2c0,0.6,0,1.4,0,2c-2.2-0.6-3.6-1.6-3.6-1.6s0-0.8,0-2C20.2,71.8,21.4,72.6,23.6,73.2
							L23.6,73.2z"/>
						<path class="st50" d="M42.6,70c-0.6,2-3.8,4-11.1,5.5c-3.2,0.6-6.1,0.2-8.1-0.4c0-0.6,0-1.2,0-2c2,0.6,4.6,1,7.9,0.4
							C38.4,72,41.6,70,42.4,68c0-0.4,0.2-0.8,0.2-1.2C42.8,68.2,42.8,69.4,42.6,70z"/>
						<path class="st57" d="M24.2,60.1c-0.2,0-0.4-0.2-0.6-0.2c-1-0.4-1.8-0.6-2.4-1l0.4-1.8c0.6,0.2,1.2,0.6,2,0.8
							c0.2,0,0.4,0.2,0.6,0.2C24.2,58.9,24.2,59.5,24.2,60.1z"/>
						<path class="st50" d="M42,55.6c-1.2,1.8-4.4,3.4-10.5,4.4c-2.8,0.6-5.5,0.4-7.3-0.2c0-0.6,0-1.4,0-2c1.8,0.4,4.4,0.6,7.3,0.2
							c6.1-1.2,9.3-2.8,10.5-4.4C42,54.4,42,55,42,55.6z"/>
						<path class="st57" d="M24.2,56.2c-0.2,0-0.4-0.2-0.6-0.2c-0.6-0.2-1-0.4-1.6-0.6c0,0,0-0.2,0-0.4c0,0,0-0.2,0-0.4
							c0-0.4,0.2-0.6,0.2-1c0,0,0,0,0-0.2c0.4,0.2,0.6,0.2,1,0.4c0.2,0,0.4,0.2,0.6,0.2C24.2,55,24.2,55.6,24.2,56.2z"/>
						<path class="st50" d="M42,52c-1.2,1.6-4.4,3.2-10.5,4.4c-3,0.6-5.5,0.4-7.3-0.2c0-0.6,0-1.4,0-2c1.8,0.4,4.4,0.8,7.3,0.2
							c5.9-1.2,9.3-2.6,10.5-4.4C42,50.8,42,51.4,42,52z"/>
						<path class="st58" d="M41.8,21.7c0.2,0.4,0,0.8-0.4,1.2c-0.2,0.2-0.2,0.2-0.4,0.4c-0.8,0.6-1.6,1-2.4,1.4
							c-0.6,0.2-1.2,0.4-1.8,0.6c-1,0.2-2,0.4-3,0.2c-0.6,0-1.4-0.4-2-0.6c-0.2-0.2-0.4-0.4-0.6-0.6c0,0-0.4-0.6,0-0.6h0.2
							c0.2,0,0.4,0,0.4,0c0.2,0,0.2,0,0.4-0.2c0.4,0,0.6-0.2,1-0.2c0.6-0.2,1.4-0.2,2-0.4c1.6-0.4,3.2-1,4.6-1.8
							c0.2-0.2,0.4-0.4,0.8-0.8c0.2-0.2,0.2,0,0.4,0c0.2,0.2,0.2,0.2,0.4,0.4C41.4,20.9,41.6,21.3,41.8,21.7z"/>
						<path class="st20" d="M40.4,19.9c0.2,0.6-0.2,1.6-0.8,2c-0.4,0.4-1,0.6-1.6,0.8c-1.2,0.4-2.4,0.6-3.6,0.8c-0.6,0-1.2,0-1.8,0
							c-0.4,0-1,0.4-1.4,0.2l0,0c-1,0-2,0-3-0.2c-1.6-0.2-3.2-0.8-4.9-1.2c-0.8-0.2-1.8-0.2-1.8-1.2c0-1.4,0-2.8,0.4-4.2
							c0.2-1,0.6-2,1.4-2.8c0.2-0.2,0.6-0.6,0.8-0.8c0.8-0.6,1.6-1,2.4-1.4c2-0.8,4.9-0.6,7.1-0.2c0.6,0.2,1.4,0.2,2,0.4
							s1.4,0.4,2,1c0.4,0.4,0.8,1,1,1.4c0.6,1,0.6,2.4,1,3.6C40,18.6,40.2,19.2,40.4,19.9L40.4,19.9z"/>
						<path class="st48" d="M41.8,21.3c0.2,0.4,0,0.8-0.4,1.2c-0.2,0.2-0.2,0.2-0.4,0.4c-0.8,0.6-1.6,1-2.4,1.4
							c-0.6,0.2-1.2,0.4-1.8,0.6c-1,0.2-2,0.4-3,0.2c-0.6,0-1.4-0.4-2-0.6c-0.6-0.4-0.8-1-0.8-1s3.4-0.2,4.6-0.6
							c5.5-1.4,4.9-3,4.9-3c0.2-0.2,0.2,0,0.4,0c0.2,0.2,0.2,0.2,0.4,0.4C41.4,20.5,41.6,20.9,41.8,21.3z"/>
						<path class="st32" d="M31.1,23.7L31.1,23.7c-1,0-2,0-3-0.2c-1.6-0.2-3.2-0.8-4.9-1.2c-0.8-0.2-1.8-0.2-1.8-1.2
							c0-1.4,0-2.8,0.4-4.2c0.2-1,0.6-2,1.4-2.8c0.2-0.2,0.6-0.6,0.8-0.8c-0.2,0.2-1.4,1.6,1.4,2.2c3,0.6,3.8,1,4.2,2.8
							C29.9,19.7,30.3,22.5,31.1,23.7z"/>
						<path class="st32" d="M26.7,12.8c-0.6,0-1.2,0-1.6,0.2s-0.6,0.4,0,0.6c1.2,0.4,5.1,0.6,6.1,3c1.2,2.4,1.4,5.5,2,5.5
							s0.8-0.6,0.2-3c-0.8-3.2-1.4-3.8-2-4.6C30.5,13.6,28.3,13,26.7,12.8z"/>
						<path class="st32" d="M38,20.5c0.6,0,0.4-0.8,0.4-1.4c0-0.8-0.4-1.8-0.6-2.6c-0.2-0.4-0.2-1-0.4-1.4s-0.4-1-0.6-1.4
							c-0.2-0.4-0.6-0.6-1-1c-0.6-0.4-1.2-0.6-2-0.8c-0.6,0-1.2-0.2-2-0.2h-0.2c-0.4,0-1-0.2-1.4-0.2c-0.2,0-0.4,0-0.4,0.2
							s0.6,0.2,0.6,0.2c1.2,0.4,4.6,0.6,5.9,3C37.2,17.4,37.4,20.5,38,20.5z"/>
						<path class="st32" d="M36,18c0-0.2-0.2-0.4-0.2-0.6c-0.2-1-0.4-1.8-0.8-2.6c-0.2-0.2-0.2-0.6-0.6-0.8
							c-0.4-0.4-0.8-0.6-1.2-0.8c-1-0.4-2-0.8-3.2-1c-0.4,0-0.8-0.2-1.4-0.2c-0.2,0-1.2-0.2-1.4,0.2c0,0.2,0.2,0.4,0.4,0.4
							c1.2,0.4,5.1,0.6,6.1,3c1.2,2.4,1.4,5.5,2,5.5C36.6,20.9,36.8,20.5,36,18z"/>
					</g>
				</g>
			</g>
		</g>
	</g>
</g>
</svg>
