<?xml version="1.0" encoding="utf-8"?>
<!-- Generator: Adobe Illustrator 22.0.0, SVG Export Plug-In . SVG Version: 6.00 Build 0)  -->
<svg version="1.1" id="图层_1" xmlns="http://www.w3.org/2000/svg" xmlns:xlink="http://www.w3.org/1999/xlink" x="0px" y="0px"
	 viewBox="0 0 60 79" style="enable-background:new 0 0 60 79;" xml:space="preserve">
<style type="text/css">
	.st0{fill:url(#SVGID_1_);}
	.st1{fill:#FFFFFF;}
	.st2{fill:#F3D516;}
	.st3{clip-path:url(#SVGID_3_);}
	.st4{fill:#996932;}
	.st5{fill:#A87438;}
	.st6{fill:#1F1F1F;}
	.st7{fill:#825520;}
	.st8{fill:#42260B;}
	.st9{fill:#3D2003;}
	.st10{fill:#A7BF1D;}
	.st11{fill:#EBEBEB;}
	.st12{fill:#E8B58F;}
	.st13{fill:#1C4059;}
	.st14{fill:#12344A;}
	.st15{fill:#32A6A0;}
	.st16{fill:#48C2C1;}
	.st17{fill:#1F4964;}
	.st18{fill:#133B54;}
	.st19{fill:#4FC2BE;}
	.st20{fill:#46B3B0;}
	.st21{fill:#E0AA82;}
	.st22{fill:#4DC2BF;}
	.st23{fill:#B1D331;}
	.st24{fill:#78D4C3;}
	.st25{fill:#F4FAFC;}
	.st26{fill:#9CB31B;}
	.st27{fill:#D98F6C;}
	.st28{fill:#51D6BE;}
	.st29{fill:#EAA685;}
	.st30{fill:#F0B88F;}
	.st31{fill:#DF9876;}
	.st32{fill:#A34512;}
	.st33{fill:#7D350E;}
	.st34{fill:#D18D6D;}
	.st35{fill:#B8E0CA;}
	.st36{fill:#FF9500;}
	.st37{fill:#FFDF0D;}
	.st38{fill:#FFD30D;}
	.st39{fill:#EDC200;}
</style>
<g>
	
		<radialGradient id="SVGID_1_" cx="30.4933" cy="76.2912" r="17.4476" gradientTransform="matrix(1 0 0 0.1461 0 65.1462)" gradientUnits="userSpaceOnUse">
		<stop  offset="0" style="stop-color:#7A7A7A"/>
		<stop  offset="1" style="stop-color:#FFFFFF;stop-opacity:0"/>
	</radialGradient>
	<ellipse class="st0" cx="30.5" cy="76.3" rx="17" ry="2.7"/>
	<g>
		<path class="st1" d="M57.2,29.7c0,15-27.2,43.4-27.2,43.4S2.8,44.7,2.8,29.7S15,2.5,30,2.5S57.2,14.7,57.2,29.7z"/>
		<path class="st2" d="M30,2.5c15,0,27.2,12.2,27.2,27.2S30,73.1,30,73.1S2.8,44.7,2.8,29.7S15,2.5,30,2.5 M30,0.7
			c-16,0-29,13-29,29c0,15.6,26.6,43.5,27.7,44.7l1.3,1.4l1.3-1.4C32.5,73.2,59,45.3,59,29.7C59,13.7,46,0.7,30,0.7L30,0.7z"/>
	</g>
	<g>
		<defs>
			<path id="SVGID_2_" d="M57.2,29.7c0,15-27.2,43.4-27.2,43.4S2.8,44.7,2.8,29.7S15,2.5,30,2.5S57.2,14.7,57.2,29.7z"/>
		</defs>
		<clipPath id="SVGID_3_">
			<use xlink:href="#SVGID_2_"  style="overflow:visible;"/>
		</clipPath>
		<g id="图层_1_2_" class="st3">
			<g id="图层_1_1_">
				<g>
					<g id="XMLID_36_">
						<path class="st4" d="M23.1,112.3c0.6,0,1.2,0,1.8,0c1,0,2.8,0.4,3,1.6c0,0.6,0,1.2,0,1.6c0,0.8,0,1.8,0.2,2.6
							c0,1.2,0.8,2,1.4,3.2c0.6,1,1,2,1.6,3c0.4,0.8,0.8,1.6,0.8,2.6s-0.2,2.4-0.6,3.2c-0.4,0.6-1,0.8-1.6,1
							c-0.4,0.2-0.8,0.2-1.2,0.2c-0.2,0-0.4,0-0.6,0c-1.2-0.2-2.2-1-3-2c-0.4-0.4-0.8-0.8-1-1.2c-0.4-0.6-0.6-1.2-0.8-2l-0.4-1.4
							h-0.2c-0.2,0-0.8-1.2-1-1.2c-0.4-0.4-0.6-1-0.8-1.6c-0.2-0.4-0.4-0.8-0.6-1.2c-0.2-0.6-0.2-1.4-0.2-2.2c0-0.6,0.4-1.2,0.2-1.8
							c0-0.6-0.2-1-0.2-1.4c-0.2-0.6-0.4-1.6,0.2-2.2c0.4-0.2,1-0.2,1.4-0.4c0.4-0.2,0.8-0.4,1.4-0.4
							C22.7,112.5,22.9,112.5,23.1,112.3z"/>
					</g>
					<path class="st5" d="M30.2,126.7c-2.4,2.6-5.6-0.6-6.4-3c-0.4-1.2-0.4-2.6-0.4-3.8c0-0.8-0.2-1.8-0.2-2.8
						c0-0.6,0.2-1.2,0.6-1.4c0.2-0.2,0.6-0.2,1-0.2c0.4,0,1-0.2,1.4,0c0.6,0,1,0.4,1.6,0.6c0,0,0,0,0.2,0v0.2c0,1.6,0,3.2,0.8,4.6
						c0.8,1.4,2.4,3.2,2.2,5C30.6,126.1,30.4,126.5,30.2,126.7z"/>
					<g>
						<path class="st6" d="M24.5,122.7L24.5,122.7c0-0.6,0.6-1,1-1.4c0.2-0.2,0.4-0.2,0.6-0.4c0.2-0.2,0.4-0.4,0.4-0.8l0,0l0,0
							c-0.2-0.2-0.6-0.2-1-0.2c-0.2,0-0.2,0-0.4,0c-0.4,0-0.8-0.2-1-0.4c0-0.2,0-0.4,0.2-0.6s0.4-0.4,0.8-0.4h0.2
							c0.2,0,0.4-0.2,0.4-0.4s0-0.2,0-0.4c-0.2-0.2-0.8-0.2-1.2-0.2h-0.2c-0.2,0-0.4,0-0.6-0.2s-0.4-0.4-0.2-0.6
							c0-0.2,0.4-0.4,0.6-0.6l0.2-0.2c0.4-0.4,0.4-0.6,0.4-0.8c0-0.2-0.4-0.4-0.6-0.6l0.2-0.2c0.2,0.2,0.6,0.4,0.6,0.6
							c0,0.4,0,0.8-0.4,1l-0.2,0.2c-0.2,0.2-0.4,0.4-0.6,0.6c0,0.2,0,0.2,0.2,0.4c0.2,0,0.2,0,0.4,0.2h0.2c0.4,0,1,0,1.2,0.4
							c0,0.2,0.2,0.4,0,0.6c0,0.2-0.4,0.4-0.6,0.4c0,0,0,0-0.2,0c-0.2,0.2-0.4,0.2-0.6,0.4c-0.2,0.2-0.2,0.2-0.2,0.4
							c0,0.2,0.4,0.4,0.8,0.4c0,0,0.2,0,0.4,0c0.4,0,0.8,0,1.2,0.2c0,0,0,0,0.2,0.2v0.2c0,0.4-0.2,0.6-0.6,0.8
							c-0.2,0.2-0.4,0.2-0.6,0.4C25.3,121.9,24.9,122.3,24.5,122.7z"/>
					</g>
					<g>
						<path class="st6" d="M27.6,121.5c-0.6,0-1.4,0-2-0.2c-0.2,0-0.6-0.2-0.6-0.6s0.4-0.6,0.6-0.8c0,0,0,0,0.2,0c0,0,0.2,0,0.2-0.2
							c0.2-0.2,0.2-0.2,0.4-0.4c0-0.2,0-0.6,0-0.6c-0.2-0.2-0.6-0.2-0.8,0c-0.2,0-0.2,0-0.4,0l0,0c-0.2,0-0.6,0-0.6-0.2
							c-0.2-0.2-0.2-0.6,0.2-0.8c0.2-0.2,0.4-0.2,0.6-0.4h0.2c0.4-0.2,0.4-0.4,0.6-0.4v-0.2h-0.2c-0.4,0-1,0-1.4-0.2
							c0,0-0.2,0-0.2-0.2v-0.2c0-0.8,0.4-1.6,1-2.4l0.2,0.2c-0.6,0.8-1,1.4-1,2.2v0.2c0,0,0,0,0.2,0c0.4,0.2,1,0.2,1.4,0.2
							c0.2,0,0.2,0,0.4,0c0.2,0.2,0.2,0.4,0.2,0.4c0,0.2-0.2,0.4-0.6,0.6h-0.2c-0.2,0-0.4,0.2-0.6,0.4s-0.2,0.4,0,0.6
							s0.4,0.2,0.6,0.2l0,0c0,0,0.2,0,0.4,0c0.4,0,0.8,0,1,0.2c0.2,0.2,0.2,0.6,0.2,0.8c0,0.2-0.2,0.4-0.4,0.4c0,0,0,0-0.2,0.2
							c0,0,0,0-0.2,0c-0.2,0.2-0.6,0.4-0.4,0.6c0,0.2,0.2,0.2,0.6,0.4c0.8,0.2,1.6,0.4,2.4,0.2v0.2C28,121.5,27.8,121.5,27.6,121.5z
							"/>
					</g>
					<path class="st7" d="M46,117.5c0.2,1.8-0.8,2.2-2.4,2.2c-1,0-2.4,0-3.4-0.4c-0.8-0.2-2.6-0.6-3-1.4c-0.2-0.4-0.6-0.8-0.6-0.8
						l-1-0.4l-0.2,0.6c0,0-0.2,0-2-0.8c-1.8-0.8-2.2-1.6-2.2-1.6c-0.2-0.6,0-1.8,0-2.4c-0.2-1.2,0-2.2,0-3.4c0-0.8,0.2-1.8,0.8-2.2
						c0.2-0.2,0.6-0.2,1-0.4c0.8-0.2,1.4-0.2,2.2-0.4c0.8,0,1.4,0,2.2,0c0.8,0.2,1.4,0.6,1.8,1.2c0.4,0.6,0.4,1.2,0.4,2
						c0,0.6,0,1.6,0.4,2.2c0.4,0.4,1.4,0.8,2,1.2c0.6,0.4,1.2,0.6,1.8,1C45,114.7,46,116.1,46,117.5z"/>
					<path class="st8" d="M31.8,126.9c0,0.8-0.2,2-0.6,2.6c-0.4,0.6-1,0.8-1.6,1c-0.4,0.2-0.8,0.2-1.2,0.2c-0.2,0-0.4,0-0.6,0
						c-1.2-0.2-2.2-1-3-2c-0.4-0.4-0.8-0.8-1-1.2c-0.4-0.6-0.6-1.2-0.8-2l-0.4-1.4h-0.2c-0.2,0-0.8-1.2-1-1.2
						c-0.4-0.4-0.6-1-0.8-1.6c-0.2-0.4-0.4-0.8-0.6-1.2c0-0.4-0.2-0.6-0.2-1c0,0.6,0,1.2,0.2,1.8c0.2,0.4,0.4,0.8,0.6,1.2
						c0.2,0.6,0.4,1,0.8,1.6c0.2,0.2,0.8,1.4,1,1.2h0.2l0.4,1.4c0.2,0.8,0.4,1.4,0.8,2c0.4,0.4,0.6,0.8,1,1.2c0.8,0.8,1.8,1.6,3,2
						c0.2,0,0.4,0,0.6,0c0.4,0,0.8-0.2,1.2-0.2c0.6-0.2,1.2-0.4,1.6-1C31.6,129.3,31.8,127.9,31.8,126.9L31.8,126.9z"/>
					<path class="st9" d="M43.8,118.9c-1,0-2.4,0-3.4-0.4c-0.8-0.2-2.6-0.6-3-1.4c-0.2-0.4-0.6-0.8-0.6-0.8l-1.2-0.4l-0.2,0.8
						c0,0-0.2,0-2-0.8c-1.8-0.8-2.2-1.6-2.2-1.6c0-0.2,0-0.2,0-0.4c0,0.4,0,0.8,0,1.2c0,0,0.4,0.8,2.2,1.6c1.8,0.8,2,0.8,2,0.8
						l0.2-0.6l1,0.4c0,0,0.4,0.4,0.6,0.8c0.4,0.6,2.4,1,3,1.4c1,0.4,2.4,0.4,3.4,0.4c1.6,0,2.6-0.4,2.4-2.2l0,0
						C46,118.7,45,118.9,43.8,118.9z"/>
					<g>
						<path class="st6" d="M41.2,114.1L41.2,114.1l0.2-1c0-0.2,0-0.2,0-0.4c0,0,0,0-0.2,0c-0.4,0-0.8,0-1.2-0.2
							c-0.4-0.2-0.8-0.6-0.6-1.2c0-0.2,0-0.2,0.2-0.4c0.2-0.2,0.2-0.4,0.2-0.6s-0.4-0.2-0.6-0.4l0,0c-0.2,0-0.4,0-0.6-0.2
							s-0.2-0.6-0.2-0.8c0-0.2,0.2-0.4,0.4-0.6l0,0l0.2-0.2c0,0,0-0.2-0.2-0.2c0,0-0.2-0.2-0.2-0.4h0.2c0,0,0,0.2,0.2,0.2
							c0,0.2,0.2,0.2,0.2,0.4c0,0.2,0,0.2-0.2,0.4l0,0c-0.2,0.2-0.2,0.4-0.4,0.6c0,0.2,0,0.4,0,0.6c0.2,0.2,0.4,0.2,0.6,0.2l0,0
							c0.4,0,0.6,0.2,0.6,0.4s0,0.4-0.2,0.6c0,0.2-0.2,0.2-0.2,0.4c0,0.4,0.2,0.8,0.4,0.8c0.2,0.2,0.6,0.2,1.2,0.2h0.2
							c0.2,0,0.2,0.2,0,0.6V114.1z"/>
					</g>
					<g>
						<path class="st6" d="M40.6,113.5c-0.2,0-0.6-0.2-0.8-0.4c-0.2-0.2-0.2-0.4-0.2-0.6s0.2-0.4,0.2-0.6c0,0,0,0,0-0.2
							s0.2-0.4,0-0.6c0-0.2-0.4-0.2-0.4-0.2h-0.2c-0.2,0-0.2,0-0.4,0s-0.4-0.2-0.6-0.4c-0.2-0.2-0.2-0.6,0-0.8
							c0-0.2,0.2-0.4,0.4-0.6c0,0,0,0,0.2-0.2s0.2-0.4,0.2-0.6s-0.2-0.4-0.4-0.4c-0.2,0-0.2,0-0.4,0H38c-0.6,0-1-0.4-1.4-0.8
							l0.2-0.2c0.4,0.4,0.8,0.6,1.2,0.6h0.2c0.2,0,0.4,0,0.4,0c0.4,0,0.6,0.2,0.6,0.4c0,0.2,0,0.6-0.2,0.8c0,0,0,0.2-0.2,0.2
							c-0.2,0.2-0.2,0.2-0.4,0.4c0,0.2,0,0.4,0,0.6c0.2,0.2,0.2,0.4,0.4,0.4c0.2,0,0.2,0,0.4,0h0.2c0.2,0,0.4,0.2,0.6,0.2
							c0.2,0.2,0,0.4,0,0.8c0,0,0,0,0,0.2s-0.2,0.2-0.2,0.4c0,0.2,0,0.2,0.2,0.4c0.2,0.2,0.4,0.2,0.6,0.2l0,0c0.4,0,0.8-0.2,1-0.4
							l0.2,0.2C41.6,113.1,41.2,113.5,40.6,113.5L40.6,113.5z"/>
					</g>
					<g>
						<path class="st10" d="M16.7,41.5c-0.2,1-0.6,2-1,2.8c0,0,0,0.2-0.2,0.2l-0.2-0.2c-0.2-0.6-0.4-1.4-0.2-2.2
							c0-0.6,0.4-1.8,1-2.2c0.2,0,0.4,0,0.6,0c0,0,0,0.2,0,0.4C16.7,40.9,16.7,41.1,16.7,41.5z"/>
						<g>
							<g>
								<path class="st11" d="M33.8,108.1L33.8,108.1L33.8,108.1L33.8,108.1z"/>
							</g>
							<path id="XMLID_35_" class="st12" d="M50.6,66.6c-0.4-0.4-1.2-1-1.8-1.4c0-0.2-0.2-0.2-0.2-0.4c-0.4-0.6-0.8-1.2-1.2-2
								c-0.6-1.4-1.2-2.8-1.8-4c-1-2-2.6-7.4-2.6-7.4c-3.8-1.2-4,3.8-3.4,5c0.8,1.2,1.6,2.4,2.6,3.4c0.8,1,1.2,2.2,1.6,3.2
								c0.2,0.2,0.2,0.6,0.4,0.8c0.2,0.2,0.2,0.4,0.2,0.6c0.2,0.6,0.4,1.2,0.6,1.8c0.2,0.6,0,1.4,0.2,2s0.4,1,0.8,1.2
								c0.6,1.6,1.2,2,1.6,2.6c0.4,0.6,0.2,0.8,1.8,0.8c1.6,0,1.2-0.8,1.2-0.8s0,0,0.4-0.2s0.2-0.6,0.2-0.6L50,68.4
								c0-0.2,0.2-0.4,0.2-0.6c0,0,0,0,0-0.2c0.6,0.2,1.8,0.8,2.2,0.4C53,67.8,51.2,67.2,50.6,66.6z"/>
							<path class="st13" d="M36.8,69.6c-0.4-0.8-0.2-1.6,0.2-2c-0.2-0.2-0.2-0.6-0.2-0.8c-0.4,0-0.6,0.2-0.8,0.4
								c-1.6,1-2.4,2.6-3.2,4.2c-0.2,0.4-0.2,0.6-0.4,1c-0.8,2.2-0.2,5-0.2,7.2c0,3,0.2,6.2-0.6,9.2c-1.2,4.8-1.2,9-1,12.4
								c0.2,3.4,0,9.2,0,9.2s1.2,1.8,4.4,1.8c1.2,0,2.2-0.2,3.2-0.8c1.2-0.8,1.4-1.2,1.4-2.4c-0.2-3.2,0-6.2,0-9.4
								c0.2-2.6,0.2-5.2,0.6-7.8c0.6-4,0.6-5,0.8-8.2c0.2-2.2,1.2-10,0.6-13.2C40.4,70.8,37.8,71.2,36.8,69.6z"/>
							<g>
								<path class="st14" d="M33,103.7c-0.2-3.4-0.2-7.6,1-12.4c0.8-3,0.8-6.2,0.6-9.2c0-2.2-0.8-5.2,0.2-7.2
									c0.2-0.4,0.2-0.6,0.4-1c0.6-1.2,1.2-2.4,2-3.4C37,70.2,37,70.2,36.8,70c-0.4-0.8-0.2-1.6,0.2-2c-0.2-0.2-0.2-0.6-0.2-0.8
									c-0.4,0-0.6,0.2-0.8,0.4c-1.6,1-2.4,2.6-3.2,4.2c-0.2,0.4-0.2,0.6-0.4,1c-0.8,2.2-0.2,5-0.2,7.2c0,3,0.2,6.2-0.6,9.2
									c-1.2,4.8-1.2,9-1,12.4c0.2,3.4,0,9.2,0,9.2s0.6,1,2.4,1.6C33,111.1,33.2,106.5,33,103.7z"/>
							</g>
							<path id="XMLID_34_" class="st15" d="M36,32.3c0,0,2.6-0.8,4.2,1c1.6,1.8,1.6,3,1.6,6.4s-0.2,7-0.2,7L48,63.6
								c0,0-2,0.4-3,2.6c-0.2,0.4-4.2-7.4-4.8-7.8C35.6,53.8,32.4,32.9,36,32.3z"/>
							<path id="XMLID_33_" class="st16" d="M41.8,36.5c-0.2-1.2-0.6-2.2-1.6-3.2c-1.6-1.8-4.2-1-4.2-1c-0.6,0-1,0.8-1,2
								c1,0.2,2.4,0,3.4,0c1.2,0,2.2,0.8,3,1.6C41.6,36.1,41.6,36.3,41.8,36.5z"/>
							<g>
								<path class="st17" d="M29.8,100.2c0.2-2,1-4.2,1.4-6.2c0.4-2.8,1-6.8,1.2-9.6c0-1.6,0.2-3,0.4-4.6c0-0.2,0-0.4,0.2-0.6
									c0-0.2,0.2-0.2,0.2-0.4c0.2-0.2,0.6-0.6,0.8-0.8c0.8-0.8,1.4-1.6,1.6-2.4c0.2-1.6,0-3-0.4-4.6c0-0.2,0-0.4,0.2-0.4
									c0.2-0.2,0.6-0.4,0.8-0.6c0.6-0.4,1-0.8,1.6-1.2c0.8-0.6,1.4-1,2.2-1.6c0.4-0.2,1-0.2,1.4-0.2c0-3.4-1-6.4-1-6.4
									s0.4,1-6.4,4.8c-1.6,1-3.4,1.6-5.2,2.2c-2,0.4-4.6-0.4-6.4,0.8c-1.8,1.2-2.2,3.2-2.4,5.2c-0.2,2.6-0.4,5.4-0.2,8.2
									c0.4,5.2,0.8,10.6,0.4,16.2c-0.4,5-0.6,10.2-0.2,15.4c0.2,1.6-0.2,4.4,1,5.8c0.8,0.8,2.2,1.2,3.4,1.4s2.6,0.4,3.6-0.2
									c1.2-0.8,1-3,1.2-4.4c0.2-2.2,0.2-4.4,0.2-6.4C29.4,106.1,29.6,103,29.8,100.2z"/>
							</g>
							<path class="st18" d="M22.5,115.7c-0.4-5,0-10.2,0.2-15.4c0.4-5.4,0-10.6-0.4-16.2c-0.2-1.4-0.2-3,0-4.4c0-1,0.2-2,0.4-3
								c0,0.2,2.4,0.6,2.8,0.6c1,0.2,2.2,0.2,3.2,0c2.2-0.2,4.4-1.2,6.4-1.4c2.2-0.4,4.2-1,6-2.2c0.2-0.2,0.4-0.2,0.6-0.6
								c0-0.2,0.2-0.4,0.2-0.6c0.2-4.2,0-8.4-1.4-12.2c0,0,0.4,1-6.4,4.8c-1.6,1-3.4,1.6-5.2,2.2c-2,0.4-4.6-0.4-6.4,0.8
								c-1.8,1.2-2.2,3.2-2.4,5.2c-0.2,2.6-0.4,5.4-0.2,8.2c0.4,5.2,0.8,10.6,0.4,16.2c-0.4,5-0.6,10.2-0.2,15.4
								c0.2,1.6-0.2,4.4,1,5.8c0.6,0.6,1.2,1,2,1.2C22.3,118.7,22.5,116.9,22.5,115.7z"/>
							<path id="XMLID_32_" class="st19" d="M41.6,51.9c-0.2,2.8-0.2,5.8,0,8.6c0,1.2,0.2,2.4,0.2,3.6c0.2,1,0.6,2.2,0.2,3.2
								c-0.2,0.8-0.4,1.6-0.6,2.4c0,0.2-0.2,0.6-0.4,0.8c-0.4,0.6-0.8,1.4-1.4,1.6c-0.8,0.4-1.6,0.6-2.4,1c-3.2,1-7.8,2.2-15,0
								c0,0,1.2-12,0.6-13.6c-0.8-1.6-5.8-8-6-11.6c-0.2-3.8-1-6.8,2.8-10c2.2-1.8,3.8-3.2,5.6-4.2c1.4-1,2.8-1.6,4.4-2.2
								c1.4-0.4,3-0.4,4.6,0c2.6,0.6,4.8,1.6,5.6,2.8C41.8,36.7,42.2,42.3,41.6,51.9z"/>
							<path class="st20" d="M39,33.3c0,0,1.2,1.4,1.6,1.8c0.4,0.6,0.8,1.4,1,2.2c0.6,2,0.4,4.2,0.2,6.4c-0.2,3.2,0,6.4,0,9.6
								c0,2,0,3.8,0,5.8c0,0.8,0,1.8,0,2.6c0,1.6,0.2,3.4,0.6,5c0.2,0.8,0,1.4-0.2,2.2c-0.2,0.8-0.4,1.8-1.2,2.2
								c-0.8,0.6-1.4,1-2.4,1.4c-0.2,0-2,0.6-2,0.6s0.8-9.8-0.2-20.6c-0.2-2.4-0.4-5-1-7.4c-0.4-1.6-0.8-3.2-1.2-4.8
								c-0.2-0.6-0.8-1.6-0.4-2c0.2-0.2,0.6-0.4,0.8-0.6c0.6-0.6,0.8-1.4,1-2.4c0-0.2,0-0.6,0.2-0.8c0-0.2,0-0.4,0.2-0.6
								c0.2-0.6,0.8-0.6,1.2-0.8C37.4,33.3,38.8,33.1,39,33.3z"/>
							<path id="XMLID_31_" class="st15" d="M32.6,34.5c2.2-0.2,4.2-1.2,6.4-1c-1.2-1.2-2.2-2.2-4.2-2.6c-1.6-0.4-3.8,0.2-5.2,0.8
								c-1.6,0.6-3,1.4-4.4,2.2c-1.8,1.2-5.2,2.6-7.2,4.4c-3.4,3-2.6,6-2.8,10c0,0.4,1.6,0.8,1.8,1.2c0.6,2.2,1.8,4,3,6
								c0.4,0.6,0.6,1.2,1.2,1.6c0.2,0.2,0.2,1,0.2,1.2c0,1,0,2,0,2.8c0,1.2-0.2,2.4-0.2,3.6c0,0.6-0.2,1.2-0.2,1.8
								c0,0.8,0.8,1.8,0.4,2.8c-0.2,0.8-0.6,1.4-0.4,2.2c0.2,0.6,0,1.4,0.4,1.6s0.8,0.2,1,0.4c0.4,0.2,0.6,0.2,1,0.2
								c0,0,0.2-5.6,0.2-5.8c0-2,0-4.2,0-6.2c0.2-2.8,0.4-5.4,0.6-8.2c0-1.2,0.2-2.4,0.2-3.4c0-1.2-0.2-2.6-0.4-3.8
								c-0.2-1.6-0.2-3.6-1-5c-0.4-0.6-0.6-1-1-1.4c-0.8-0.6-0.6-0.8,0-1.4c0.6-0.6,1.2-1,2-1.4c1-0.4,1.8-0.8,2.8-1.2
								c0.2,0,0.4-0.2,0.8-0.2C29.2,35.1,30.8,34.7,32.6,34.5z"/>
							<path id="XMLID_30_" class="st12" d="M21.9,83.2c-0.2-0.2-0.4-0.6-0.8-1c0,0,0-0.2-0.2-0.2c-0.4-0.6-1-1-1.4-1.6
								c-0.4-0.6-0.4-1.4-0.6-2c-0.2-3,0.4-8.4-0.2-11.4c-0.6-3-5.8-0.8-5.8-0.8s-0.2,3.4,1.4,8.6c1.6,5.2,2,5.8,2,7.8
								c0,0.8-0.2,1.2,0.2,1.8c0.2,0.4,0.4,0.8,0.6,1.2c0.4,1,0.6,1.6,0.8,2.2c0.4,0.8,0,0.8,1.8,1.2c1.8,0.6,1.4-0.4,1.4-0.4
								s0,0,0.6,0c0.6,0,0.4-0.6,0.4-0.6l-0.8-3.2c0-0.2,0.2-0.2,0.2-0.4c0.6,0.4,1.8,1.4,2.2,1.2C24.3,85,22.5,84,21.9,83.2z"/>
							<path id="XMLID_29_" class="st21" d="M13.1,66c0,0-0.2,3.4,1.4,8.6c1.6,5.2,2,5.8,2,7.8c0,0.6,0,1,0,1.4c0.4-1,0.6-2.2,0.6-3
								c-0.2-2.4-1-4.8-1.6-7.2c-0.6-2.8-0.8-5.6-0.4-8.2C14.1,65.4,13.1,66,13.1,66z"/>
							<path class="st22" d="M21.3,38.5c0,0-4.8-2-5.8,4.6s-1.2,8.8-2,13.8c-1,5-1,6-1,7.4s0.8,6.8,1.6,10.2
								c0.8,3.4,1.8,5.8,1.8,5.8s0.4-1.6,2-1.6c1.4,0,1.6,0.6,1.6,0.6l-0.2-15.8c0,0,5.2-15.2,4.8-18.6S23.1,39.3,21.3,38.5z"/>
							<path class="st15" d="M17.9,40.3c-0.4,0.2-0.8,0.4-0.8,0.8c0,0.4,0.4,0.6,0.6,0.8c1,0.4,1.8,0.4,2.6,1
								c0.8,0.6,1.2,1.4,1.6,2.4c0.4,0.8,0.4,1.8,0.6,2.8c0,0.8,0.2,1.8,0,2.6c-0.2,2-1,4-1.6,5.8c-0.6,2.4-1.2,4.6-2,6.8
								c0,0,0.2,11,0.4,11V63.6c0.8-2.2,1.4-4.4,2.2-6.6c0.6-1.8,1.2-3.8,1.6-5.6c0.2-0.8,0.4-1.8,0.6-2.6c0.2-1,0-2,0-3
								c0-1.2,0-3.6-1-4.6C21.5,40.3,19.3,39.9,17.9,40.3z"/>
							<path class="st15" d="M15.7,76.6c-0.8-3.4-1.6-11-1.6-12.4s0.8-3.2,1.6-8.2c1-5,1.4-6,2.4-12.6c0.4-3,1.8-4.2,3.2-4.6
								c-0.8-0.2-4.8-1.6-5.6,4.6c-1,6.6-1.2,8.8-2,13.8c-1,5-1,6-1,7.4c0,1.4,0.8,6.8,1.6,10.2c0.8,3.4,1.8,5.8,1.8,5.8
								s0.2-0.6,0.6-1C16.3,78.6,15.9,77.8,15.7,76.6z"/>
							<path class="st23" d="M37.4,35.3c-0.2-0.6-0.2-1.2-0.6-1.6c-0.4-0.6-1.2-1-1.6-1.6c-0.4-0.4-0.6-0.6-1-1c0,0,3,0.2,5.6,3
								c3,3.2,3,8,2.8,9.6c0,0.6-0.2,3-0.6,6c-0.2,0.6,0,1.2,0,2c0,0.8,0,1.6,0,2.4c0,0.6,0,1.2,0,2c0,2.6,0,4.6,0,4.6s1,6.8,0.4,9
								c-0.6,2-3.8,4-11,5.4c-3.2,0.6-6,0.2-8-0.4c-2.2-0.6-3.6-1.6-3.6-1.6s0-3.4,0.4-5c0.4-1.4,0.6-7.2,0.6-8.8c0-0.4,0-0.4,0-0.4
								l0.4-1.2l0.2-1c0,0,0.2-0.4,0.4-1.2c0.2-0.4,0.4-1.2,0.6-1.8c0-0.4,0.2-0.6,0.2-1c0.4-2,1-3.8-0.4-9c-0.2-0.8-0.4-1-0.6-1.4
								c-2-2.8-5.8-1.8-6-1.8c2.2-3.4,7.8-6.8,9.6-7.4c0,0.6-2.2,2.2-2.4,3c-0.6,1,2.4,3.6,2.4,3.6c0.8,0.6,1.4,1.2,2.2,1.8
								c0.8,0.6,1.6,0.8,2.4,1c0.4,0.2,0.6,0.2,1,0.4c1.8,0.6,4,0.2,5.6-0.8c1.2-0.8,1.4-2.2,1.4-3.6c0-0.8,0-1.8-0.2-2.6
								C37.4,35.9,37.4,35.5,37.4,35.3z"/>
							<path class="st24" d="M15.1,80.2l-1-3.6c0,0,2.4,0.4,3.6-0.2c1.4-0.6,1.8-1.6,1.8-1.6l0.2,4.2C19.9,79,17.9,81.4,15.1,80.2z"
								/>
							<path class="st24" d="M44.8,66.6L43,63.8c0,0,1.6-0.2,2.8-0.8c1.4-0.8,1.6-2.2,1.6-2.2l1.6,3.4C49,64.2,48.2,66.2,44.8,66.6z
								"/>
							<path class="st25" d="M37.6,34.7c0-0.2-0.2-0.4-0.2-0.4c-0.2-0.6-0.4-1-1-1.4c-0.2-0.2-1-0.4-1.2,0c0,0.2,0.2,0.4,0.2,0.6
								c0.2,0.4,0.6,0.8,0.8,1.2c0.2,0.4,0.2,1,0.4,1.4c0.2,1,0.2,2,0,3c-0.2,1-0.8,1.4-1.8,1.8c-0.4,0.2-1,0.4-1.6,0.6
								c-1.4,0.2-2.6,0.2-4-0.2c-0.8-0.2-1.6-0.8-2.4-1.2c-0.8-0.4-1.6-1-2.2-1.8c-0.6-0.8-1.4-1.6-1.4-2.6c0-0.6,0.2-1.2,0.8-1.4
								l0.2-0.2v-0.2c0-0.2,0.2-0.4,0.2-0.6c0,0-0.8,0.4-1,0.4c-0.6,0.2-1.2,0.6-1.4,1.2c-0.6,2.2,1,4.2,2.4,5.6
								c0.4,0.4,0.6,0.6,1.2,1c0.6,0.4,1,0.6,1.6,1c2.8,1.6,5.8,1.8,8.6,0.2c0.4-0.2,0.8-0.6,1-1c0.6-1,0.8-2,0.8-3
								C38.4,37.5,38,36.1,37.6,34.7z"/>
							<path class="st26" d="M21.5,41.5c0.4,0.2,0.6,0.6,0.8,1c0.6,0.8,1,1.8,1.2,2.8c0.4,1.4,0.6,3,0.6,4.6c0,0.8,0,1.6,0,2.2
								c0,0.2,0,2.2,0,2.2c-0.2,0-0.4-0.2-0.6-0.2c-0.4-0.2-0.8-0.2-1-0.4c0,0,0,0,0,0.2c0-0.4,0.2-0.8,0.2-1
								c0.2-0.6,0.2-1.2,0.4-1.8c0.2-1.4,0.2-2.8-0.2-4.2c-0.2-0.6-0.4-1.4-0.6-2c0-0.2-0.2-0.4-0.2-0.8c0-0.2-0.2-0.2-0.2-0.4
								c-0.4-0.4-0.6-0.8-1-1.2c-0.2-0.4-0.6-0.6-1-0.8s-0.8-0.4-1.2-0.4c-1.2-0.2-2.2,0-3.4,0.2v-0.2c0-0.2,0.2-0.4,0.4-0.6
								c1.4-0.8,3.8-0.2,5,0.6C21.1,41.1,21.3,41.3,21.5,41.5z"/>
							<path class="st26" d="M24.3,60.2c0,3.4,0,6.6-0.4,8.8c-0.2,1.4-0.2,3-0.4,4.2l0,0c-2-0.6-3.2-1.4-3.6-1.6c0-1,0.2-2.2,0.4-3
								c0.4-1.6,0.6-9.4,0.6-9.4V59c0.6,0.4,1.4,0.6,2.4,1C23.7,60.2,24.1,60.2,24.3,60.2z"/>
							<path class="st26" d="M23.5,58c-0.8-0.2-1.4-0.6-2-0.8v-0.4c0,0,0.2-0.4,0.4-1.2c0.4,0.2,1,0.4,1.6,0.6
								c0.2,0,0.4,0.2,0.6,0.2c0,0.6,0,1.2,0,1.8C24.1,58.2,23.7,58.2,23.5,58z"/>
							<path class="st27" d="M25.3,34.3c-0.2,0.6-0.2,0.8,0.2,1.4c0.4,0.4,0.6,0.6,1,0.8c0.4,0.4,0.8,0.8,1.2,1c0.4,0.4,1,0.6,1.4,1
								c-0.4-1.2-0.4-2.8-0.4-4.2c0-1,0.2-2,0.2-3v-0.2c-0.2,0-0.4,0-0.6,0.2C27,32.1,25.9,32.7,25.3,34.3z"/>
							<path class="st28" d="M31.4,40.1c1,0,3.2-0.4,3.8-1.2c0.8-1,0.6-3,0.4-4c-0.4-2-3-1.2-3-1.2c-0.4,0-0.8,0-1.2,0
								c-1,0-2-0.2-2.8-0.2c-0.2,0-0.6,0-0.8,0c-0.4,0-0.6-0.6-1-0.6c-0.2-0.2-0.8,0-1,0c-0.6,0.2-1.2,1-1.4,1.6
								c-0.4,1.4,0.8,2.6,1.8,3.6c1.2,1,2.6,2,4.2,2.2C30.6,40.1,31,40.3,31.4,40.1z"/>
							<path id="XMLID_28_" class="st29" d="M26.6,30.1c0,0.2,0,0.2,0,0.4c0,0.8,0,1.6-0.2,2.4c0,0.2-0.2,0.8,0,1s0.4,0.4,0.6,0.4
								c1,0.8,2.2,1.4,3.4,2c3,1.2,4,0.4,4,0.4l0.4-6.4l-0.6-0.2c-0.6-0.2-1.2-0.4-1.8-0.6c-1-0.4-2-0.6-3-0.8c-0.4,0-1-0.2-1.4,0
								c-0.2,0-0.4,0-0.6,0.2c-0.2,0.2-0.4,0.6-0.4,0.8C26.6,29.7,26.6,29.9,26.6,30.1z"/>
							<path id="XMLID_27_" class="st29" d="M28.4,31.5c0.6-0.2,1.4-0.4,2.2-0.4c0.6,0,1.8,0,2.4,0.2c0.4,0.2,0.4,0.8,0.6,1.2
								c0.4,0.4,1,0.2,1.2,0.4c0.4,0.4,0.2,1.4,0.2,1.8c0,0.8,0,1.4,0,2.2c0,0.2,0,0.4-0.2,0.6c-0.4,0.8-1.2,1-1.8,1.2
								c-0.8,0.2-1.8,0.2-2.6,0.2c-0.6,0-1-0.4-1.6-0.6c-1.2-0.6-2.2-1.6-3.2-2.6c-0.2-0.2,0-0.4,0-0.6c0-0.8,0.2-1.8,0.8-2.4
								C27,32.1,27.8,31.7,28.4,31.5z"/>
							<path id="XMLID_26_" class="st27" d="M26.8,28.9c-0.4,0.2-1,0.4-1,0.8c-0.2,0.6,0.2,1.2,0.2,1.8c0,0.8,0,1.4-0.2,2.2
								c0,0.6-0.2,1-0.2,1.4c0,0.6,0.4,1.2,0.8,1.6c0.6,0.4,1.2,1,1.8,1.4c0.6,0.4,1.2,0.4,1.8,0.8c-0.4-0.2-0.8-0.8-1-1.2
								s-0.2-0.8-0.2-1.2s-0.2-1,0.2-1.4c0.2-0.4,0.6-0.2,1-0.2c0.2,0,0.4,0.2,0.4,0.2c1.2,0.6,2.6,0.8,4,0.8c0.2,0,0.4,0,0.6-0.2
								c0-0.2,0-0.2-0.2-0.4s-0.6-0.2-1-0.4c-0.8-0.4-1.6-1.2-2.6-1.6c-0.6-0.2-1-0.4-1.6-0.6c-0.2-0.2-0.6-0.4-0.6-0.6
								c0-0.4,0-0.6,0-1c0-0.4-0.2-0.8-0.2-1.2c0-0.2-0.2-1-0.4-1C28,28.5,27.2,28.7,26.8,28.9z"/>
							<path class="st30" d="M39.2,22.3v-0.2c0-1-0.6-2-1-2.8c-0.8-1.2-2.2-2-3.6-2.2c-2-0.2-5.6,0.8-7.6,3.2
								c-0.2,0.2-0.2,0.4-0.4,0.6c-0.2,0.2-0.2,0.4-0.4,0.6c-1.2,3-5.2,3.8,1.2,10.6c0,0,0,0,0.2,0.2l0.2,0.2l0.2,0.2
								c0.2,0.2,0.6,0.4,1,0.8c1,0.8,2.2,1.4,3.4,1.8c2.4,0.4,4.4-0.2,4.6-2c0.4-3.2,1.4-6.2,1.8-9.4C39.2,23.3,39.2,22.7,39.2,22.3
								z"/>
							<path class="st31" d="M37.6,21.1c-0.2-0.6-0.6-1.4-0.6-2h-0.2c-1-0.4-2.2-0.6-3.4-0.6c-0.8,0-1.8,0-2.6,0.2
								c-1.4,0.2-2.8,0.8-3.8,1.8c-0.2,0.2-0.2,0.4-0.4,0.6c-0.2,0.2-0.2,0.4-0.4,0.6c-1.2,3-5.2,3.8,1.2,10.6c0,0,0,0,0.2,0.2
								l0.2,0.2l0.2,0.2c0.2,0.2,0.6,0.4,1,0.8c-0.2-0.8-0.2-1.8-0.2-2.6c0-0.4,0-0.8,0-1.2c0-0.4,0.2-0.8,0.4-1
								c0.2-0.2,0.4-0.6,0.4-0.8c0-0.2,0-0.6,0-0.8c0.2-1,0-2,0.2-2.8c0.6-0.8,0.8-1.2,1-1.8c0.4-0.6,1.4-1,2-1.2c0.4,0,0.8,0,1.4,0
								c0.4,0,0.8,0,1.2,0c0.8,0.2,1.4,0.2,2,0h0.2C37.6,21.3,37.6,21.3,37.6,21.1z"/>
							<g id="XMLID_25_">
								<path class="st32" d="M36.4,18.9c-0.2-0.8-0.6-1.8-0.4-2.8c-1.6-1.2-3.2-2.2-5.2-2.4c-2.6-0.4-4.4,0.4-6.2,2
									c0,0,0,0-0.2,0.2c0,0,0,0-0.2,0.2l-0.2,0.2c-0.2,0.2-0.4,0.6-0.6,0.8c0,0.2-0.2,0.2-0.2,0.4c-0.4,0.6-0.6,1.4-0.8,2.2v0.2
									c0,0.6,0,1.2,0,1.6c0,0.6,0.2,1.4,0.4,2c0.2,0.6,0.4,1.4,0.6,2c0,0.2,0,0.4,0.2,0.4c0.2,0.8,0.4,1.6,0.8,2.4
									c0.2,0.4,0.2,1,0.4,1.4c0.2,0.4,0.6,0.6,0.8,1c0.4,0.2,0.6,0.6,1,0.8l0,0l0,0c0-0.2,0-0.4,0-0.6l0,0c0-1.2-0.6-2.4-1.2-3.4
									c-0.2-0.4-0.4-0.8-0.6-1.2c0-0.2,0-0.2,0-0.4c0-0.2,0-0.2,0-0.2c0-0.4,0.2-0.8,0.4-1c0.6-0.8,1.6-0.6,2,0.2
									c0.2,0.4,0.4,1.2,0.6,1.6c0.2,0.4,0.2,1,0.2,1.4c0,0.2,0,0.4,0,0.4c0.4,0.2,0.8,0.2,1.2,0.4c0-0.2,0-0.4,0.2-0.6
									c0.2-1.2,0.4-2.6,0.6-3.8v0c0,0,0,0,0-0.2c0.4-2.4,2.8-3.2,6.8-3.2c0,0,0,0,0.2,0C36.6,20.1,36.4,19.5,36.4,18.9z"/>
								<path class="st33" d="M29.8,24.1c0,0.2,0,0.2,0,0.4c-0.2,1.4-0.4,2.6-0.6,3.8c0,0.2,0,0.4-0.2,0.6c-0.4,0-0.8-0.2-1.2-0.4
									v-0.2c0-0.2,0-0.4,0-0.4c0-0.4,0-0.8-0.2-1.2c-0.2-0.6-0.2-1.2-0.6-1.6c-0.4-0.8-1.4-1-2-0.2c0,0.2-0.2,0.6-0.2,1v0.2
									c0,0.2,0,0.4,0,0.6v0.2c0.2,0.4,0.4,0.8,0.6,1c0.6,1,1.2,2,1.2,3.4l0,0c0,0,0,0.4,0,0.6l0,0c-0.4-0.2-0.8-0.6-1-0.8
									c-0.4-0.2-0.8-0.6-0.8-1c-0.2-0.4-0.2-1-0.4-1.4c-0.2-0.8-0.4-1.6-0.8-2.4c0-0.2,0-0.4-0.2-0.4c-0.2-0.6-0.4-1.4-0.6-2
									c-0.2-0.6-0.4-1.4-0.4-2c0-0.6,0-1.2,0-1.6v-0.2c0.2-0.8,0.4-1.6,0.8-2.2c0-0.2,0.2-0.2,0.2-0.4c0.2-0.2,0.4-0.6,0.6-0.8
									l0.2-0.4c0,0,0,0,0.2-0.2c-0.2,0.2-0.4,0.4-0.4,0.6c-0.8,1.4-0.2,3.8,1,4.8c0.6,0.4,1.2,0.8,1.8,1c1,0.4,1.8,1,2.6,1.6
									C29.6,23.9,29.6,23.9,29.8,24.1L29.8,24.1z"/>
							</g>
							<path class="st34" d="M14.9,69.6c0,0.2,0,0.2,0,0.2C14.9,69.8,14.9,69.8,14.9,69.6z"/>
						</g>
						<path class="st35" d="M23.7,73.2c0,0.6,0,1.4,0,2c-2.2-0.6-3.6-1.6-3.6-1.6s0-0.8,0-2C20.3,71.8,21.5,72.6,23.7,73.2
							C23.5,73.2,23.5,73.2,23.7,73.2z"/>
						<path class="st25" d="M42.8,70c-0.6,2-3.8,4-11,5.4c-3.2,0.6-6,0.2-8-0.4c0-0.6,0-1.2,0-2c2,0.6,4.6,1,7.8,0.4
							c7-1.4,10.2-3.4,11-5.4c0-0.4,0.2-0.8,0.2-1.2C43,68.2,43,69.4,42.8,70z"/>
						<path class="st35" d="M24.3,60.2c-0.2,0-0.4-0.2-0.6-0.2c-1-0.4-1.8-0.6-2.4-1l0.4-1.8c0.6,0.2,1.2,0.6,2,0.8
							c0.2,0,0.4,0.2,0.6,0.2C24.3,59,24.3,59.6,24.3,60.2z"/>
						<path class="st25" d="M42.2,55.8c-1.2,1.8-4.4,3.4-10.4,4.4c-2.8,0.6-5.4,0.4-7.2-0.2c0-0.6,0-1.4,0-2
							c1.8,0.4,4.4,0.6,7.2,0.2c6-1.2,9.2-2.8,10.4-4.4C42.2,54.6,42.2,55.2,42.2,55.8z"/>
						<path class="st35" d="M24.3,56.4c-0.2,0-0.4-0.2-0.6-0.2c-0.6-0.2-1-0.4-1.6-0.6c0,0,0-0.2,0-0.4c0,0,0-0.2,0-0.4
							c0-0.4,0.2-0.6,0.2-1c0,0,0,0,0-0.2c0.4,0.2,0.6,0.2,1,0.4c0.2,0,0.4,0.2,0.6,0.2C24.3,55.2,24.3,55.8,24.3,56.4z"/>
						<path class="st25" d="M42.2,51.9c-1.2,1.6-4.4,3.2-10.4,4.4c-3,0.6-5.4,0.4-7.2-0.2c0-0.6,0-1.4,0-2c1.8,0.4,4.4,0.8,7.2,0.2
							c5.8-1.2,9.2-2.6,10.4-4.4C42.2,50.7,42.2,51.3,42.2,51.9z"/>
						<path class="st36" d="M42,21.7c0.2,0.4,0,0.8-0.4,1.2c-0.2,0.2-0.2,0.2-0.4,0.4c-0.8,0.6-1.6,1-2.4,1.4
							c-0.6,0.2-1.2,0.4-1.8,0.6c-1,0.2-2,0.4-3,0.2c-0.6,0-1.4-0.4-2-0.6c-0.2-0.2-0.4-0.4-0.6-0.6c0,0-0.4-0.6,0-0.6h0.2
							c0.2,0,0.4,0,0.4,0c0.2,0,0.2,0,0.4-0.2c0.4,0,0.6-0.2,1-0.2c0.6-0.2,1.4-0.2,2-0.4c1.6-0.4,3.2-1,4.6-1.8
							c0.2-0.2,0.4-0.4,0.8-0.8c0.2-0.2,0.2,0,0.4,0c0.2,0.2,0.2,0.2,0.4,0.4C41.6,20.9,41.8,21.3,42,21.7z"/>
						<path class="st37" d="M40.6,19.9c0.2,0.6-0.2,1.6-0.8,2c-0.4,0.4-1,0.6-1.6,0.8c-1.2,0.4-2.4,0.6-3.6,0.8c-0.6,0-1.2,0-1.8,0
							c-0.4,0-1,0.4-1.4,0.2l0,0c-1,0-2,0-3-0.2c-1.6-0.2-3.2-0.8-4.8-1.2c-0.8-0.2-1.8-0.2-1.8-1.2c0-1.4,0-2.8,0.4-4.2
							c0.2-1,0.6-2,1.4-2.8c0.2-0.2,0.6-0.6,0.8-0.8c0.8-0.6,1.6-1,2.4-1.4c2-0.8,4.8-0.6,7-0.2c0.6,0.2,1.4,0.2,2,0.4
							c0.6,0.2,1.4,0.4,2,1c0.4,0.4,0.8,1,1,1.4c0.6,1,0.6,2.4,1,3.6C40.2,18.7,40.4,19.3,40.6,19.9L40.6,19.9z"/>
						<path class="st38" d="M42,21.3c0.2,0.4,0,0.8-0.4,1.2c-0.2,0.2-0.2,0.2-0.4,0.4c-0.8,0.6-1.6,1-2.4,1.4
							c-0.6,0.2-1.2,0.4-1.8,0.6c-1,0.2-2,0.4-3,0.2c-0.6,0-1.4-0.4-2-0.6c-0.6-0.4-0.8-1-0.8-1s3.4-0.2,4.6-0.6
							c5.4-1.6,4.8-3.2,4.8-3.2c0.2-0.2,0.2,0,0.4,0c0.2,0.2,0.2,0.2,0.4,0.4C41.6,20.5,41.8,20.9,42,21.3z"/>
						<path class="st39" d="M31.2,23.9L31.2,23.9c-1,0-2,0-3-0.2c-1.6-0.2-3.2-0.8-4.8-1.2c-0.8-0.2-1.8-0.2-1.8-1.2
							c0-1.4,0-2.8,0.4-4.2c0.2-1,0.6-2,1.4-2.8c0.2-0.2,0.6-0.6,0.8-0.8c-0.2,0.2-1.4,1.6,1.4,2.2c3,0.6,3.8,1,4.2,2.8
							C30,19.7,30.4,22.5,31.2,23.9z"/>
						<path class="st39" d="M26.8,12.9c-0.6,0-1.2,0-1.6,0.2s-0.6,0.4,0,0.6c1.2,0.4,5,0.6,6,3c1.2,2.4,1.4,5.4,2,5.4s0.8-0.6,0.2-3
							c-0.8-3.2-1.4-3.8-2-4.6C30.6,13.7,28.4,13.1,26.8,12.9z"/>
						<path class="st39" d="M38,20.5c0.6,0,0.4-0.8,0.4-1.4c0-0.8-0.4-1.8-0.6-2.6c-0.2-0.4-0.2-1-0.4-1.4c-0.2-0.4-0.4-1-0.6-1.4
							c-0.2-0.4-0.6-0.6-1-1c-0.6-0.4-1.2-0.6-2-0.8c-0.6,0-1.2-0.2-2-0.2h-0.2c-0.4,0-1-0.2-1.4-0.2c-0.2,0-0.4,0-0.4,0.2
							c0,0.2,0.6,0.2,0.6,0.2c1.2,0.4,4.6,0.6,5.8,3C37.2,17.5,37.4,20.5,38,20.5z"/>
						<path class="st39" d="M36,18.1c0-0.2-0.2-0.4-0.2-0.6c-0.2-0.8-0.4-1.8-0.8-2.6c-0.2-0.4-0.2-0.6-0.4-0.8
							c-0.4-0.4-0.8-0.6-1.2-0.8c-1-0.4-2-0.8-3.2-1c-0.4,0-0.8-0.2-1.4-0.2c-0.2,0-1.2-0.2-1.4,0.2c0,0.2,0.2,0.4,0.4,0.4
							c1.2,0.4,5,0.6,6,3c1.2,2.4,1.4,5.4,2,5.4C36.6,20.9,36.6,20.5,36,18.1z"/>
					</g>
				</g>
			</g>
		</g>
	</g>
</g>
</svg>
