<?xml version="1.0" encoding="utf-8"?>
<!-- Generator: Adobe Illustrator 22.0.0, SVG Export Plug-In . SVG Version: 6.00 Build 0)  -->
<svg version="1.1" id="图层_1" xmlns="http://www.w3.org/2000/svg" xmlns:xlink="http://www.w3.org/1999/xlink" x="0px" y="0px"
	 viewBox="0 0 48 48" style="enable-background:new 0 0 48 48;" xml:space="preserve">
<style type="text/css">
	.st0{display:none;}
	.st1{display:inline;fill:#7FDDC0;}
	.st2{display:inline;fill:#FFFFFF;}
	.st3{display:inline;fill:none;stroke:#FFFFFF;stroke-width:4;stroke-linecap:round;stroke-miterlimit:10;}
	.st4{display:inline;fill:#D1D1D1;}
	.st5{font-family:'RTWSYueRoudGoDemo-Regular-GBpc-EUC-H';}
	.st6{font-size:48px;}
	.st7{display:inline;fill:#9E9E9E;}
	.st8{display:inline;fill:none;stroke:#D1D1D1;stroke-width:4;stroke-linecap:round;stroke-miterlimit:10;}
	.st9{display:inline;fill:#686868;stroke:#686868;stroke-width:0.5;stroke-miterlimit:10;}
	.st10{display:inline;fill:none;stroke:#686868;stroke-linecap:round;stroke-miterlimit:10;}
	.st11{display:inline;fill:#FFFFFF;stroke:#686868;stroke-width:2;stroke-miterlimit:10;}
	.st12{display:inline;fill:#FFFFFF;stroke:#686868;stroke-miterlimit:10;}
	.st13{display:inline;fill:#FFFFFF;stroke:#686868;stroke-width:0.5;stroke-miterlimit:10;}
	.st14{display:inline;fill:#686868;}
	.st15{display:inline;fill:none;stroke:#D0D0D0;stroke-miterlimit:10;}
	.st16{display:inline;}
	.st17{fill:none;stroke:#686868;stroke-linecap:round;stroke-miterlimit:10;}
	.st18{display:inline;fill:#F17368;}
	.st19{display:inline;fill:#FFFFFF;stroke:#FFFFFF;stroke-width:1.6;stroke-miterlimit:10;}
	.st20{fill:#686868;}
	.st21{fill:#FFFFFF;}
	.st22{display:inline;fill:#282828;}
	.st23{display:inline;fill:none;stroke:#282828;stroke-width:2;stroke-linecap:round;stroke-miterlimit:10;}
	.st24{display:inline;fill:#F17368;stroke:#F17368;stroke-width:0.25;stroke-miterlimit:10;}
	.st25{display:inline;fill:none;stroke:#686868;stroke-width:1.6;stroke-miterlimit:10;}
	.st26{display:inline;fill:#686868;stroke:#686868;stroke-width:0.25;stroke-miterlimit:10;}
	.st27{display:inline;fill:#686868;stroke:#686868;stroke-width:0.75;stroke-miterlimit:10;}
	.st28{fill:none;stroke:#686868;stroke-width:2;stroke-linecap:round;stroke-miterlimit:10;}
	.st29{display:inline;fill:#FFFFFF;stroke:#FFFFFF;stroke-width:3;stroke-miterlimit:10;}
</style>
<g id="图层_2_1_" class="st0">
	<rect class="st1" width="48" height="48"/>
</g>
<g id="图层_1_1_" class="st0">
	<path class="st2" d="M21,23.9L21,23.9L21,23.9L32.8,12c0.9-0.9,0.9-2.4,0-3.3c-0.9-0.9-2.4-0.9-3.3,0c0,0-9.9,9.8-13.1,13.1
		c-1.4,1.4-1.2,3.1,0,4.1L29.6,39c0.5,0.5,1,0.7,1.6,0.7s1.2-0.2,1.6-0.7c0.9-0.9,0.9-2.4,0-3.3L21,23.9z"/>
</g>
<g id="border4" class="st0">
	<line class="st3" x1="10" y1="12" x2="38" y2="12"/>
	<line class="st3" x1="10" y1="24" x2="38" y2="24"/>
	<line class="st3" x1="10" y1="36" x2="38" y2="36"/>
</g>
<g id="图层_4" class="st0">
	<path class="st2" d="M22.1,35.9c-0.6,0-1.3-0.2-1.7-0.7l-9.6-9.6c-0.9-0.9-0.9-2.5,0-3.4s2.5-0.9,3.4,0l7.7,7.7l12.8-17
		c0.8-1.1,2.3-1.3,3.4-0.5c1.1,0.8,1.3,2.3,0.5,3.4l0,0L24,34.9c-0.4,0.6-1.1,0.9-1.8,1H22.1z"/>
</g>
<g id="图层_5" class="st0">
	<text transform="matrix(1 0 0 1 9.75 40.4375)" class="st4 st5 st6">&gt;</text>
	<path class="st7" d="M77.8,14.5h-3.5l-2.8-2.8h-6.8l-2.8,2.8h-8.1c-0.9,0-1.7,0.8-1.7,1.7v13.9c0,0.9,0.8,1.7,1.7,1.7h24
		c0.9,0,1.7-0.8,1.7-1.7V16.2C79.5,15.3,78.8,14.5,77.8,14.5z M68.2,29.4c-3.4,0-6.2-2.8-6.2-6.2s2.8-6.2,6.2-6.2s6.2,2.8,6.2,6.2
		C74.4,26.6,71.6,29.4,68.2,29.4z"/>
	<path class="st7" d="M64.4,23.2c0,2.1,1.7,3.7,3.7,3.7c2.1,0,3.7-1.7,3.7-3.7c0-2.1-1.7-3.7-3.7-3.7C66.1,19.4,64.4,21.1,64.4,23.2
		z"/>
</g>
<g id="图层_6" class="st0">
	<line class="st8" x1="10" y1="24" x2="38" y2="24"/>
	<line class="st8" x1="24" y1="38" x2="24" y2="10"/>
</g>
<g id="border2" class="st0">
	<path class="st9" d="M35.3,9.8H13.6c-1,0-1.8,0.8-1.8,1.8V37c0,1,0.8,1.8,1.8,1.8h21.7c1,0,1.8-0.8,1.8-1.8V11.5
		C37,10.6,36.2,9.8,35.3,9.8z M30.6,11.1v2.4c0,0.3-0.3,0.6-0.6,0.6H18.8c-0.3,0-0.6-0.3-0.6-0.6v-2.4c1.5,0,3.1,0,5.5,0
		C25.5,11.1,27.7,11.1,30.6,11.1z M35.8,36.9c0,0.3-0.3,0.6-0.6,0.6H13.6c-0.3,0-0.6-0.3-0.6-0.6V11.5c0-0.3,0.3-0.6,0.6-0.6h3.5
		v2.6c0,1,0.8,1.8,1.8,1.8H30c1,0,1.8-0.8,1.8-1.8v-2.6h3.5c0.3,0,0.6,0.3,0.6,0.6L35.8,36.9L35.8,36.9z"/>
	<line class="st10" x1="18" y1="21.5" x2="31" y2="21.5"/>
	<line class="st10" x1="18" y1="26.5" x2="31" y2="26.5"/>
	<line class="st10" x1="18" y1="32.5" x2="31" y2="32.5"/>
</g>
<g id="图层_8" class="st0">
	<path class="st11" d="M36.8,15.1h-3.7l-3-3h-7.2l-3,3h-8.6c-1,0-1.8,0.8-1.8,1.8v14.8c0,1,0.8,1.8,1.8,1.8h25.6
		c1,0,1.8-0.8,1.8-1.8V16.9C38.6,15.9,37.8,15.1,36.8,15.1z"/>
	<circle class="st12" cx="26.5" cy="24.4" r="6.7"/>
	<path class="st13" d="M22.5,24.3c0,2.2,1.8,4,4,4s4-1.8,4-4s-1.8-4-4-4S22.5,22.1,22.5,24.3z"/>
</g>
<g id="图层_9" class="st0">
	<path class="st14" d="M35.9,31.7c-1-0.8-3.3-2.3-4.3-2.8c-0.3-0.1-0.5-0.2-0.9-0.4l-0.5-0.2c-0.8-0.3-1.8-0.7-1.8-0.9
		c-0.1-0.3-0.1-0.4,0-1.1c0.6-0.6,1.9-2.2,2.3-3.3c0.3-1,0.7-2.9,0.7-3.9h2.4l0.3-0.1L34,18.6c-0.1-0.5-0.2-1.3-0.5-1.8
		c-0.4-0.7-1-1.3-1.2-1.5c0-0.7-0.4-2.8-2-4.4C28.4,9,25.8,7.7,24,7.7h0c-1.8,0-4.4,1.4-6.3,3.2c-1.6,1.6-1.9,3.8-1.9,4.4l0,0
		c-0.2,0.2-0.9,0.8-1.2,1.5c-0.3,0.6-0.5,1.5-0.6,1.9V19h2.8c0,1,0.4,3,0.7,3.9c0.4,1,1.7,2.7,2.3,3.3c0.1,0.7,0.1,0.9,0,1.1
		s-1.2,0.6-1.8,0.9c-0.2,0.1-0.4,0.2-0.5,0.2c-0.3,0.1-0.6,0.3-0.9,0.4c-0.9,0.5-3.3,2-4.3,2.8c-1.3,1.1-2,2.7-1.7,4.2
		c0.4,2.6,4.9,4.2,5.8,4.4h0.1h0.1c0.8-0.3,5.2-0.7,6.8-0.7h0.5H24c0.2,0,0.4,0,0.5,0h0.1h0.5c1.6,0,6.1,0.4,6.8,0.7H32h0.1
		c0.8-0.2,5.3-1.8,5.7-4.4C37.9,34.3,37.2,32.8,35.9,31.7z M35.8,35.2c-0.5,2.3-3.7,3.1-4.2,3.2l0,0c-0.1,0-0.3-0.1-0.6-0.1l1.2-7
		c0.6,0.3,1,0.6,1.5,0.9C34.3,32.7,36,33.9,35.8,35.2z M31.5,17.2H16.6c0-0.1,0.1-0.3,0.2-0.5c0.3-0.5,0.6-0.7,0.7-0.7l0.2-0.1v-0.2
		c0-0.7,0-2.2,1.3-3.5s3.2-2.8,5.1-2.8c1.4,0,3.4,1.1,5.1,2.8c1.3,1.3,1.3,2.7,1.3,3.5v0.2l0.1,0.1c0.2,0.1,0.4,0.3,0.7,0.7
		C31.4,16.9,31.5,17.1,31.5,17.2z M18.7,30c0.1-0.1,0.2-0.1,0.4-0.2c0.1,0,0.2-0.1,0.3-0.1c0.9-0.4,1.9-0.8,2.3-2.2
		c0.1-0.3,0.1-0.6,0.1-0.9s-0.1-0.6-0.2-0.9v-0.1c0,0,0-0.1-0.1-0.2c0-0.1,0-0.1-0.1-0.2l-0.1-0.1c-0.6-0.5-1.4-1.7-1.9-2.6
		l-0.3-0.6c-0.2-0.5-0.3-1.4-0.5-2.6h10.8c-0.1,1-0.3,2.1-0.5,2.6l-0.3,0.6c-0.4,0.8-1.3,2.1-1.8,2.6l-0.1,0.1l-0.1,0.2
		c0,0.1-0.1,0.2-0.1,0.3l-0.1,0.2c-0.1,0.3-0.2,0.5-0.2,0.8s0,0.5,0.1,0.8c0.4,1.4,1.4,1.8,2.3,2.2c0.1,0,0.2,0.1,0.3,0.1
		c0.1,0,0.2,0.1,0.4,0.2h0.1l-1,8c-1.1-0.1-2.5-0.2-3.9-0.2h-0.9c-1.4,0-2.7,0.1-3.8,0.2L18.7,30L18.7,30z M17.1,38.3
		c-0.2,0-0.5,0.1-0.6,0.1l0,0c-0.4-0.1-3.7-0.8-4.2-3.2c-0.2-1.2,1.4-2.5,2.1-3c0.5-0.3,0.9-0.6,1.5-0.9L17.1,38.3z"/>
</g>
<g id="图层_10" class="st0">
	<path class="st15" d="M-2.7,20.6l-4,0.7l-6.1-18.2c-0.4-0.9-1.2-1.3-2-1.2c-0.8,0-1.6,0.4-2,1.2L-23,21.3l-5.5-0.7
		c-0.6,0-1,0.3-1,0.6v3.2c0,1,1.6,2.1,2.6,2.1h12.2h10.2c1,0,3-1.1,3-2.1v-3.2C-1.5,20.9-2,20.3-2.7,20.6z"/>
	<path class="st15" d="M-21,16.5c3.2,1.3,10.1,1.3,13,0"/>
	<path class="st15" d="M-19.1,9.1c3.2,1.3,5.8,1.4,8.7,0"/>
	<path class="st14" d="M37.4,28.6c-0.2,0-2-0.1-3.4-0.2l-5.9-17.6C27.6,9.6,26.6,9,25.3,9h-0.1c-1.3,0-2.4,0.7-3,1.8l-6,17.5
		l-3.9,0.3c-1.1,0-2.3,0.6-2.3,1.6v2.2c0,1.6,1.7,3.6,3.1,3.6h22.4c1.4,0,3.5-1.9,3.5-3.6v-2.2C39,29.4,38.5,28.6,37.4,28.6z
		 M12.5,32.7v-1.9c1-0.1,3.3-0.2,4.9-0.3h0.3l6.4-18.8c0.2-0.4,0.5-0.6,1.1-0.6h0.1c0.5,0,0.7,0.1,0.9,0.5l6.2,18.9h0.3
		c1.4,0.1,3.4,0.2,4.3,0.3v1.7c0,0.4-1,1.6-1.5,1.6H13.1C12.8,34,12.5,33.2,12.5,32.7z M25.3,10L25.3,10L25.3,10L25.3,10z M38,32.4
		L38,32.4L38,32.4L38,32.4z"/>
	<path class="st14" d="M25.6,26c-2.6,0-5.2-0.3-6.8-1l0.4-0.9c3.1,1.2,9.9,1.2,12.6,0l0.4,0.9C30.7,25.6,28.2,26,25.6,26z"/>
	<path class="st14" d="M25.4,18.6c-1.5,0-3.1-0.3-4.8-1l0.4-0.9c3.1,1.3,5.7,1.3,8.3,0.1l0.4,0.9C28.3,18.2,26.9,18.6,25.4,18.6z"/>
</g>
<g id="address" class="st0">
	<path class="st14" d="M24,9.3c-6.3,0-11.4,4.9-11.4,11c0,2,0.6,4,1.7,5.8l8,11.2c0.1,0.2,0.4,0.4,0.5,0.7l0.1,0.1
		c0.3,0.3,0.5,0.6,0.6,0.7l0.5,0.5l0.5-0.5c0.1-0.1,0.2-0.2,0.4-0.5l0.2-0.3c0.2-0.2,0.4-0.5,0.6-0.8l8-11.2v-0.1
		c1.1-1.7,1.6-3.7,1.6-5.7C35.4,14.2,30.3,9.3,24,9.3z M24,11.7c4.9,0,8.9,3.8,8.9,8.5c0,1.5-0.4,3-1.2,4.3
		c-2.2,3.1-6.2,8.7-7.6,10.6c-1.4-1.9-5.4-7.4-7.6-10.5c-0.8-1.3-1.3-2.8-1.3-4.4C15.1,15.6,19.1,11.7,24,11.7z"/>
	<path class="st14" d="M24,26.7c3.3,0,6.1-2.7,6.1-6.1c0-3.3-2.7-6.1-6.1-6.1s-6.1,2.7-6.1,6.1S20.7,26.7,24,26.7z M24,16.6
		c2.2,0,4.1,1.8,4.1,4.1s-1.8,4.1-4.1,4.1s-4.1-1.8-4.1-4.1S21.8,16.6,24,16.6z"/>
</g>
<g id="type" class="st0">
	<path class="st14" d="M36.1,8.8H17.6c-1,0-1.9,0.8-1.9,1.9v2.4h-2.4c-1,0-1.8,0.8-1.8,1.8v21.7c0,1,0.8,1.8,1.8,1.8h18.5
		c1,0,1.8-0.8,1.8-1.8v-2.4H36c1,0,1.9-0.8,1.9-1.9V10.7C37.9,9.7,37.1,8.8,36.1,8.8z M17.4,32.4V10.7c0-0.1,0.1-0.1,0.1-0.1H36
		c0.1,0,0.1,0.1,0.1,0.1v21.7c0,0.1-0.1,0.1-0.1,0.1H17.6C17.5,32.5,17.4,32.4,17.4,32.4z M17.6,34.2H32v2.4c0,0.1-0.1,0.2-0.2,0.2
		H13.3c-0.1,0-0.2-0.1-0.2-0.2V15c0-0.1,0.1-0.2,0.2-0.2h2.4v17.6C15.7,33.4,16.5,34.2,17.6,34.2z"/>
	<g class="st16">
		<line class="st17" x1="21" y1="16.5" x2="32" y2="16.5"/>
		<line class="st17" x1="21" y1="20.5" x2="32" y2="20.5"/>
		<line class="st17" x1="21" y1="25.5" x2="32" y2="25.5"/>
	</g>
</g>
<g id="_x2A_" class="st0">
	<path class="st18" d="M26,23.3L24.2,24l1.7,0.7c0.4,0.2,0.7,0.3,0.8,0.4c0.1,0.1,0.1,0.2,0.1,0.3c0,0.3-0.1,0.4-0.2,0.5
		c-0.1,0-0.2,0.1-0.3,0.1s-0.2,0-0.3-0.1c-0.1-0.1-0.2-0.1-0.4-0.2L24,24.3l0.4,2.1c0,0.1,0.1,0.2,0.1,0.3c0,0.1,0,0.1,0,0.2
		c0,0.2-0.1,0.4-0.2,0.4c-0.1,0.1-0.2,0.1-0.4,0.1c-0.1,0-0.2,0-0.3-0.1c-0.1-0.1-0.2-0.2-0.2-0.5c0-0.1,0-0.1,0-0.2s0-0.2,0-0.3
		l0.4-2.1l-1.6,1.4c-0.1,0.1-0.2,0.1-0.3,0.2c-0.1,0.1-0.2,0.1-0.3,0.1s-0.2,0-0.3-0.1c-0.1-0.1-0.2-0.2-0.2-0.4
		c0-0.1,0.1-0.3,0.2-0.4s0.3-0.2,0.7-0.4l1.7-0.7L22,23.3c-0.2-0.1-0.4-0.2-0.6-0.3c-0.2-0.1-0.3-0.2-0.3-0.4c0-0.2,0.1-0.3,0.2-0.4
		s0.2-0.1,0.3-0.1c0.1,0,0.2,0,0.3,0.1c0.1,0.1,0.2,0.1,0.3,0.2l1.6,1.4l-0.4-2.1c0-0.1,0-0.2,0-0.3s0-0.1,0-0.2s0.1-0.3,0.2-0.4
		s0.2-0.2,0.4-0.2c0.2,0,0.3,0.1,0.4,0.2s0.1,0.3,0.1,0.4s0,0.1,0,0.2s0,0.2-0.1,0.2L24,23.7l1.6-1.4c0.1-0.1,0.3-0.2,0.4-0.3
		s0.2-0.1,0.3-0.1c0.1,0,0.3,0.1,0.3,0.2c0.1,0.1,0.1,0.2,0.1,0.4s0,0.2-0.1,0.3S26.4,23.2,26,23.3L26,23.3z"/>
</g>
<g id="exit" class="st0">
	<path class="st2" d="M33.1,30.2c0.2,0.1,0.3,0,0.4-0.1l4.7-5.9c0.1-0.2,0.1-0.4,0-0.5l-4.8-5.9c-0.1-0.1-0.2-0.2-0.3-0.1
		C33,17.6,33,17.8,33,17.9V22H22.5c-0.9,0-1.6,1.1-1.6,2s0.7,2,1.6,2H33v3.8C33,30,33,30.2,33.1,30.2z"/>
	<path class="st2" d="M27.2,34h-9.5C16,34,15,32.7,15,31V16.8c0-1.7,1-2.8,2.7-2.8h9.5c0.9,0,1.6-1.1,1.6-2s-0.7-2-1.6-2H15.3
		c-2.2,0-4.3,2.2-4.3,4.4v19c0,2.2,2.1,3.6,4.3,3.6h11.9c0.9,0,1.6-0.6,1.6-1.5S28.1,34,27.2,34z"/>
</g>
<g id="project" class="st0">
	<path class="st19" d="M19.1,27.1h-7.5c-0.9,0-1.9,0.9-1.9,1.9v7.5c0,0.9,0.9,1.9,1.9,1.9h7.5c0.9,0,1.9-0.9,1.9-1.9V29
		C21,28,20.1,27.1,19.1,27.1z M19.1,36.4h-7.5V29h7.5V36.4L19.1,36.4z M35.6,10.4h-7.5c-0.9,0-1.9,0.9-1.9,1.9v7.5
		c0,0.9,0.9,1.9,1.9,1.9h7.5c0.9,0,1.9-0.9,1.9-1.9v-7.5C37.5,11.3,36.6,10.4,35.6,10.4L35.6,10.4z M35.6,19.8h-7.5v-7.5h7.5V19.8
		L35.6,19.8z M35.6,27.1h-7.5c-0.9,0-1.9,0.9-1.9,1.9v7.5c0,0.9,0.9,1.9,1.9,1.9h7.5c0.9,0,1.9-0.9,1.9-1.9V29
		C37.5,28,36.6,27.1,35.6,27.1L35.6,27.1z M35.6,36.4h-7.5V29h7.5V36.4L35.6,36.4z M19.1,10.4h-7.5c-0.9,0-1.9,0.9-1.9,1.9v7.5
		c0,0.9,0.9,1.9,1.9,1.9h7.5c0.9,0,1.9-0.9,1.9-1.9v-7.5C21,11.3,20.1,10.4,19.1,10.4z M19.1,19.8h-7.5v-7.5h7.5V19.8z"/>
</g>
<g id="title" class="st0">
	<path class="st14" d="M35.2,8.8H13.5c-1.1,0-2,0.9-2,2v25.4c0,1.1,0.9,2,2,2h21.7c1.1,0,2-0.9,2-2V10.8C37.2,9.7,36.3,8.8,35.2,8.8
		z M30.3,12.8c0,0.2-0.1,0.3-0.3,0.3H18.8c-0.2,0-0.3-0.1-0.3-0.3v-2.2c0.6,0,1.3,0,2,0h3.2c1.7,0,3.8,0,6.6,0L30.3,12.8L30.3,12.8z
		 M13.2,10.8c0-0.2,0.1-0.3,0.3-0.3h3.3v2.4c0,1.1,0.9,2,2,2H30c1.1,0,2-0.9,2-2v-2.4h3.3c0.2,0,0.3,0.1,0.3,0.3v25.4
		c0,0.2-0.2,0.3-0.3,0.3H13.5c-0.2,0-0.3-0.1-0.3-0.3V10.8z"/>
	<g class="st16">
		<path class="st20" d="M29,20.9h-3.7v9.7c0,0.4-0.1,0.7-0.3,0.9c-0.2,0.2-0.4,0.3-0.7,0.3c-0.3,0-0.5-0.1-0.7-0.3
			c-0.2-0.2-0.3-0.5-0.3-0.9v-9.7h-3.7c-0.3,0-0.6-0.1-0.7-0.2c-0.2-0.1-0.2-0.3-0.2-0.6c0-0.2,0.1-0.4,0.2-0.6
			c0.2-0.1,0.4-0.2,0.7-0.2H29c0.3,0,0.6,0.1,0.7,0.2c0.2,0.1,0.2,0.3,0.2,0.6s-0.1,0.4-0.2,0.6C29.5,20.8,29.3,20.9,29,20.9z"/>
	</g>
</g>
<g>
	<path class="st21" d="M33,21.9h-7.3V11.3c0-1.1-0.9-2-2-2s-2,0.9-2,2V24c0,1,0.9,1.8,2.1,1.8H33c1.1,0,2-0.9,2-2
		C35,22.8,34.1,21.9,33,21.9z"/>
	<path class="st21" d="M23.8,1.6C11.4,1.6,1.3,11.7,1.3,24.1s10.1,22.5,22.5,22.5s22.5-10.1,22.5-22.5S36.2,1.6,23.8,1.6z
		 M42.3,24.1c0,10.2-8.3,18.5-18.5,18.5S5.3,34.3,5.3,24.1S13.6,5.6,23.8,5.6C34,5.6,42.3,13.9,42.3,24.1z"/>
</g>
<g id="money" class="st0">
	<path class="st14" d="M24,1.7c-12.1,0-22,9.9-22,22s9.9,22,22,22c12.2,0,22-9.9,22-22C46,11.5,36.2,1.7,24,1.7z M24,43
		C13.3,43,4.7,34.3,4.7,23.7C4.7,13,13.3,4.4,24,4.4S43.3,13,43.3,23.7C43.3,34.3,34.7,43,24,43z"/>
	<path class="st14" d="M32.4,25.9h-7.1V22h7.1c0.7,0,1.3-0.6,1.3-1.3c0-0.7-0.6-1.3-1.3-1.3h-5.6l5.1-5.1c0.6-0.4,0.7-1,0.3-1.5
		c-0.4-0.5-1.2-0.7-1.8-0.3c-0.1,0.1-0.2,0.1-0.3,0.3L24,18.6l-6.1-5.8c-0.1-0.1-0.2-0.2-0.3-0.3c-0.5-0.4-1.4-0.3-1.8,0.3
		c-0.4,0.6-0.3,1.1,0.3,1.5l5.1,5.1h-5.6c-0.7,0-1.3,0.6-1.3,1.3c0,0.7,0.6,1.3,1.3,1.3h7.1v3.9h-7.1c-0.7,0-1.3,0.6-1.3,1.3
		s0.6,1.3,1.3,1.3h7.1v5.4c0,0.7,0.6,1.3,1.3,1.3s1.3-0.6,1.3-1.3v-5.4h7.1c0.7,0,1.3-0.6,1.3-1.3S33.1,25.9,32.4,25.9z"/>
</g>
<g id="sun" class="st0">
	<path class="st14" d="M24,1.6c-12.1,0-22,9.9-22,22s9.9,22,22,22s22-9.9,22-22S36.2,1.6,24,1.6z M24,42.9
		c-10.7,0-19.3-8.6-19.3-19.3C4.7,12.9,13.3,4.3,24,4.3s19.3,8.6,19.3,19.3S34.7,42.9,24,42.9z"/>
	<path class="st14" d="M15.6,12.7c-0.4,0-0.7,0.2-0.8,0.6c-0.1,0.3-0.1,0.7,0.2,1l8.8,9.5L15,33c-0.3,0.3-0.3,0.7-0.2,1
		s0.5,0.6,0.9,0.6h16.8c0.5,0,0.9-0.4,0.9-0.9v-2.5c0-0.5-0.4-0.9-0.9-0.9s-0.9,0.4-0.9,0.9v1.5H17.8l7.9-8.2c0.3-0.4,0.3-0.9,0-1.3
		l-8-8.6h13.8v2.3c0,0.5,0.4,0.9,0.9,0.9c0.5,0,0.9-0.4,0.9-0.9v-3.2c0-0.5-0.4-0.9-0.9-0.9L15.6,12.7L15.6,12.7z"/>
</g>
<g id="seach" class="st0">
	<path class="st14" d="M46.3,42.3c1,1,1,2.7,0,3.7s-2.6,1-3.6,0L30.8,33.8c0,0,0-0.1-0.1-0.1c-2.9,2.4-6.6,3.8-10.6,3.8
		C10.7,37.5,3,29.7,3,20.2c0-9.6,7.6-17.3,17.1-17.3c9.4,0,17.1,7.8,17.1,17.3c0,3.6-1.1,7-3,9.8c0.1,0.1,0.2,0.1,0.2,0.2L46.3,42.3
		z M20.1,6.2c-7.5,0-13.7,6.2-13.7,13.9S12.5,34,20.1,34c7.5,0,13.7-6.2,13.7-13.9S27.7,6.2,20.1,6.2z"/>
</g>
<g id="图层_21" class="st0">
	<path class="st14" d="M36.5,27.8V20c0-4-1.2-7.8-3.4-10.5c0-0.1-0.1-0.1-0.1-0.2l0,0c-1.1-1.4-2.5-2.5-4.1-3.2
		C28.2,3.7,26.2,2,24,2s-4.2,1.7-4.9,4.1c-1.6,0.8-3,1.9-4.2,3.4c-2.2,2.8-3.4,6.5-3.4,10.5v7.7l-2.7,4C8.3,32.5,8,33.4,8,34.3v2.1
		c0,1.5,0.8,2.8,1.9,3.4l0,0c0.5,0.3,1,0.4,1.5,0.4H19c0,0.1,0,0.2,0,0.3c0,3,2.1,5.4,4.8,5.4c2.6,0,4.8-2.4,4.8-5.4l0,0
		c0-0.1,0-0.2,0-0.3h8c1.9,0,3.4-1.7,3.4-3.9v-2.1c0-0.9-0.3-1.8-0.9-2.6L36.5,27.8z"/>
</g>
<g id="图层_22" class="st0">
	<g class="st16">
		<path class="st20" d="M34.1,25.4c-4.8,0-8.6,3.8-8.6,8.6c0,4.7,3.9,8.6,8.6,8.6c4.8,0,8.6-3.8,8.6-8.6
			C42.7,29.2,38.9,25.4,34.1,25.4z M39,35h-4v4h-2v-4h-4v-2h4v-4h2v4h4V35z"/>
		<path class="st20" d="M7,39c-0.3,0-1-0.3-1-0.6V6.8C6,6.5,6.7,6,7,6h28c0.3,0,0,0.5,0,0.8v15.9c1,0.1,2,0.2,2,0.4V6.8
			C37,5.4,36.4,4,35,4H7C5.6,4,4,5.4,4,6.8v31.6C4,39.8,5.6,41,7,41h18.1c-0.5-1-0.9-1-1.3-2H7z"/>
		<path class="st20" d="M11.5,30c0,0.4,0.4,1,0.8,1h10.9c0.2-1,0.4-1,0.6-2H12.3C11.8,29,11.5,29.6,11.5,30z"/>
		<path class="st20" d="M12.3,15h17.4c0.4,0,0.8-0.6,0.8-1s-0.4-1-0.8-1H12.3c-0.4,0-0.8,0.6-0.8,1S11.8,15,12.3,15z"/>
		<path class="st20" d="M30.5,22c0-0.4-0.4-1-0.8-1H12.3c-0.4,0-0.8,0.6-0.8,1s0.4,1,0.8,1h17.4C30.1,23,30.5,22.4,30.5,22z"/>
	</g>
</g>
<g id="图层_23" class="st0">
	<path class="st14" d="M24.5,24.8c3-1.8,5-4.9,5-8.5c0-5.6-4.9-10.1-11-10.1s-11,4.5-11,10.1c0,3.5,2,6.7,5,8.5
		C6.4,26.6,2,30.4,2,36.9c0,0.7,0.6,1.3,1.4,1.3s1.4-0.6,1.4-1.3c0-7,6.2-10.4,13.8-10.4s13.7,3.4,13.7,10.4c0,0.7,0.6,1.3,1.4,1.3
		c0.8,0,1.4-0.6,1.4-1.3C35,30.4,30.6,26.6,24.5,24.8z M18.5,23.9c-4.5,0-8.3-3.4-8.3-7.6s3.7-7.6,8.3-7.6s8.3,3.4,8.3,7.6
		S23,23.9,18.5,23.9z M36.6,24.9c3.2-1.8,5.3-5,5.3-8.6c0-5.6-4.9-10.1-11-10.1c-0.8,0-1.4,0.6-1.4,1.3s0.6,1.3,1.4,1.3
		c4.5,0,8.3,3.4,8.3,7.6c0,2.8-1.7,5.3-4.1,6.6c-2.4,1.4-3.1,3.3,0,4.3c4.8,1.6,8.3,4.7,8.3,9.7c0,0.7,0.6,1.3,1.4,1.3
		c0.8,0,1.4-0.6,1.4-1.3C46,31,42.1,27,36.6,24.9z"/>
</g>
<g id="图层_24" class="st0">
	<path class="st14" d="M29,23.7c2.5-1.7,4.2-4.5,4.2-7.7c0-5.1-4.2-9.2-9.3-9.2c-5.2,0-9.3,4.1-9.3,9.2c0,3.2,1.7,6.1,4.2,7.7
		c-5.2,1.7-8.9,8-8.9,13.8c0,0.6,0.5,1.2,1.2,1.2s1.2-0.5,1.2-1.2c0-6.4,5.2-12.3,11.7-12.3c6.4,0,11.7,6,11.7,12.3
		c0,0.6,0.5,1.2,1.2,1.2s1.2-0.5,1.2-1.2C37.9,31.6,34.2,25.3,29,23.7z M23.9,22.9c-3.9,0-7-3.1-7-6.9s3.1-6.9,7-6.9s7,3.1,7,6.9
		C30.9,19.7,27.7,22.9,23.9,22.9z M38,23.8c2.7-1.6,4.5-4.5,4.5-7.9c0-5.1-4.2-9.2-9.3-9.2c-0.7,0-1.2,0.5-1.2,1.2
		C32,8.5,32.5,9,33.2,9c3.8,0,7,3.1,7,6.9c0,2.6-1.4,4.8-3.5,6c-2.1,1.2-2.6,3,0,3.9c4.1,1.4,7,7.2,7,11.7c0,0.6,0.5,1.2,1.2,1.2
		s1.2-0.5,1.2-1.2C46,32.2,42.7,25.7,38,23.8z M2,37.5c0,0.6,0.5,1.2,1.2,1.2s1.2-0.5,1.2-1.2c0-4.5,2.9-10.2,7-11.7
		c2.6-0.9,2.1-2.7,0-3.9c-2.1-1.2-3.5-3.4-3.5-6c0-3.8,3.1-6.9,7-6.9C15.5,9,16,8.5,16,7.8s-0.5-1.2-1.2-1.2c-5.2,0-9.3,4.1-9.3,9.2
		c0,3.3,1.8,6.2,4.5,7.9C5.3,25.7,2,32.2,2,37.5z"/>
</g>
<g id="图层_26" class="st0">
	<g class="st16">
		<path class="st20" d="M24,31.3c-4.2,0-8-3.7-8-8.3V12.3C16,7.7,19.8,4,24,4s8,3.7,8,8.3V23C32,27.6,28.2,31.3,24,31.3z M24,7
			c-2.7,0-5,2.4-5,5.3V23c0,2.9,2.3,5.3,5,5.3s5-2.4,5-5.3V12.3C29,9.4,26.7,7,24,7z"/>
		<path class="st20" d="M24,37.2c-9,0-16-9.4-16-17.4c0-0.8,0.6-1.5,1.4-1.5c0.8,0,1.4,0.7,1.4,1.5c0,6.7,5.8,14.4,13.2,14.4
			s13.2-7.7,13.2-14.4c0-0.8,0.6-1.5,1.4-1.5c0.8,0,1.4,0.7,1.4,1.5C40,27.8,33,37.2,24,37.2z"/>
		<path class="st20" d="M23,44c-0.8,0-1-0.7-1-1.5v-6.1c0-0.8,0.2-1.5,1-1.5s1,0.7,1,1.5v6.1C24,43.3,23.8,44,23,44z"/>
		<path class="st20" d="M30.3,44h-14c-0.8,0-1.4-0.7-1.4-1.5s0.6-1.5,1.4-1.5h13.9c0.8,0,1.4,0.7,1.4,1.5S31,44,30.3,44z"/>
	</g>
</g>
<g id="图层_28" class="st0">
	<ellipse class="st22" cx="9.5" cy="24.2" rx="4" ry="3.9"/>
	<path class="st23" d="M17.7,10.4c3.8,3.1,6.2,7.9,6.2,13.2s-2.5,10.1-6.3,13.2"/>
	<path class="st23" d="M26.8,1.9c6.5,5.1,10.7,13,10.7,21.8c0,9.1-4.4,17.1-11.2,22.2"/>
</g>
<g id="图层_27" class="st0">
	<path class="st24" d="M43.5,7.4l-3.8-3.9c-0.7-0.7-1.6-1-2.5-1s-1.8,0.4-2.4,1l-1.9,1.9l0,0L12.7,25.6c-0.1,0-0.1,0.1-0.1,0.1
		s0,0-0.1,0c-0.1,0.1-0.1,0.1-0.1,0.2l0,0c0,0,0,0-0.1,0.1L9.6,36.2c-0.1,0.4,0,0.8,0.3,1c0.2,0.2,0.4,0.3,0.8,0.3
		c0.1,0,0.2,0,0.3,0l10-2.8c0,0,0,0,0.1,0l0,0c0,0,0.1,0,0.1-0.1c0,0,0,0,0-0.1c0,0,0.1,0,0.1-0.1l20.1-20.1l1.9-1.9
		C44.8,11,44.8,8.7,43.5,7.4L43.5,7.4z M14.5,34.3l-1.7-1.7l1.1-4.3l4.8,4.8L14.5,34.3L14.5,34.3z M14.9,26.3L33.5,7.6L34,8.1
		l1.7,1.7L17.1,28.5L14.9,26.3L14.9,26.3z M20.7,32.2L18.5,30l18.6-18.7l2.2,2.2L20.7,32.2L20.7,32.2z M42,10.9l-1.1,1.2L35,6.2
		L36.2,5c0.2-0.3,0.6-0.4,1-0.4s0.8,0.2,1,0.4L42,8.8C42.5,9.4,42.5,10.4,42,10.9L42,10.9z M39.1,21.1c-0.5,0-1,0.5-1,1.1V39
		c0,0.9-0.7,1.6-1.5,1.6H8.1c-0.8,0-1.5-0.7-1.5-1.6V10.5c0-0.9,0.7-1.6,1.5-1.6h16.8c0.5,0,1-0.5,1-1.1s-0.4-1.1-1-1.1H8.1
		c-2,0-3.6,1.6-3.6,3.6v28.5c0,2,1.6,3.6,3.6,3.6h28.4c2,0,3.6-1.6,3.6-3.6V22.2C40.1,21.6,39.7,21.1,39.1,21.1L39.1,21.1z"/>
</g>
<g id="图层_29" class="st0">
	<line class="st10" x1="12" y1="37.5" x2="36" y2="37.5"/>
	<path class="st25" d="M34.9,27.8h-5.2l-1.5-3.5c1.9-1.3,3.1-3.4,3.1-5.8c0-3.9-3.1-7-7-7s-7,3.1-7,7c0,2.4,1.2,4.6,3.1,5.8
		l-1.5,3.5h-5.6c-0.9,0.1-1.7,0.8-1.8,1.8v2.9c0.1,1,0.8,1.7,1.8,1.8h21.6c0.9-0.1,1.6-0.8,1.7-1.7v-3.1
		C36.4,28.5,35.7,27.9,34.9,27.8z"/>
</g>
<g id="图层_30" class="st0">
	<path class="st26" d="M13,37.5c-1.9,0-3.5-1.5-3.5-3.5V16c0-1.9,1.5-3.5,3.5-3.5h22c1.9,0,3.5,1.5,3.5,3.5v18.1
		c0,1.9-1.5,3.5-3.5,3.5L13,37.5L13,37.5z M23.2,29l6.9,7.1H35c1.1,0,2.1-0.9,2.1-2.1v-7.4l-5.7-5.7L23.2,29z M10.9,33.1V34
		c0,1.1,0.9,2.1,2.1,2.1h15.3l-9.8-9.7L10.9,33.1z M13,13.9c-1.1,0-2.1,0.9-2.1,2.1v15.2l7.6-6.9l3.8,3.8l9.1-9.3l5.7,5.8V16
		c0-1.1-0.9-2.1-2.1-2.1H13L13,13.9z M16.6,23.1c-1.9,0-3.5-1.5-3.5-3.5s1.5-3.5,3.5-3.5s3.5,1.5,3.5,3.5S18.5,23.1,16.6,23.1z
		 M16.6,17.6c-1.1,0-2.1,0.9-2.1,2.1s0.9,2.1,2.1,2.1s2.1-0.9,2.1-2.1S17.8,17.6,16.6,17.6z"/>
</g>
<g id="图层_31" class="st0">
</g>
<g id="图层_32" class="st0">
	<path class="st27" d="M8.9,32.7c0,0.6,0.5,1.1,1.1,1.1h2.8c0.6,0,1.1-0.5,1.1-1.1v-0.2c1.1,0.1,1.5,0.3,2.1,0.7
		c0.4,0.3,1,0.6,1.9,0.9c2.5,0.9,6.9,0.5,7.1,0.5h0.1c2.3-0.4,2.6-1.9,2.8-3c0.1-0.4,0.2-0.7,0.3-0.9c1-1,1.4-2.1,1.6-3
		c0-0.6,0.1-1.2,0.2-1.8c0.2-0.6,0.6-2.3-0.4-3.7c2.4,0,6.8,0,7.3,0c0.9,0,1.8-1.1,1.8-1.1c0.3-0.4,0.5-1,0.5-1.6
		c0-1.5-1.2-2.7-2.7-2.7h-12c-0.5,0-0.8-0.1-1.1-0.1c1.5-2.8,1.8-4.8,1.1-6c-0.6-1.1-1.8-1.1-1.9-1.1c-2,0-2.9,2.4-3,2.7
		c-2.1,4.5-4.5,4.9-5.8,4.8v-0.2c0-0.6-0.5-1.1-1.1-1.1H10c-0.6,0-1.1,0.5-1.1,1.1V32.7z M13.9,18.2c0.6,0,1.3,0,2-0.3
		c1.9-0.7,3.5-2.4,4.8-5.2v-0.1c0,0,0.7-1.9,2-1.9c0,0,0.6,0,0.9,0.6c0.3,0.5,0.5,1.9-1.4,5.4L22,17.1l0.4,0.3
		c0.1,0.1,0.8,0.5,2.2,0.5h11.9c0.9,0,1.6,0.7,1.6,1.6s-0.7,1.6-1.6,1.6h-5.8h-0.1h-2.8c-0.3,0-0.6,0.2-0.6,0.6
		c0,0.3,0.2,0.6,0.6,0.6H28l0,0c0,0,0.1,0,0.2,0l0,0c1.5,1.3,0.7,3.5,0.7,3.5v0.1c-0.1,0.1-0.1,0.2-0.1,0.3c0,0.1,0.3,2.1-1.4,3.8
		l0,0c-0.3,0.4-0.4,0.9-0.5,1.4c-0.2,1-0.4,1.8-1.9,2.1c-0.4,0-4.4,0.3-6.6-0.5c-0.9-0.3-1.3-0.6-1.7-0.8c-0.8-0.4-1.3-0.7-2.7-0.8
		L13.9,18.2L13.9,18.2z"/>
	<path class="st2" d="M13,17.7c0-0.4-0.3-0.7-0.7-0.7h-1.8c-0.4,0-0.7,0.3-0.7,0.7V32c0,0.4,0.3,0.7,0.7,0.7h1.8
		c0.4,0,0.7-0.3,0.7-0.7V17.7z"/>
</g>
<g id="图层_33" class="st0">
	<g class="st16">
		<line class="st28" x1="19.5" y1="18.8" x2="30.2" y2="29.5"/>
		<line class="st28" x1="18.8" y1="29.5" x2="29.4" y2="18.8"/>
	</g>
	<path class="st14" d="M24.4,8.7C16,8.7,9.1,15.6,9.1,24s6.8,15.3,15.3,15.3S39.7,32.4,39.7,24S32.9,8.7,24.4,8.7z M24.4,37.4
		C17,37.4,11,31.4,11,24s6-13.4,13.4-13.4s13.4,6,13.4,13.4S31.8,37.4,24.4,37.4z"/>
</g>
<g id="图层_34" class="st0">
	<path class="st29" d="M39.8,23.3L24.7,9.5c-0.3-0.3-0.8-0.3-1.1,0L9.2,23.3c-0.7,0.7,0.4,1.8,1.1,1.1L24.1,11l14.5,13.4
		C39.4,25.1,40.5,24,39.8,23.3z"/>
	<path class="st29" d="M34.3,24.6v11.5c0,0.3,0.1,1.1-0.3,1.1H14.9c-0.5,0-0.4-0.6-0.4-0.9v-2.8v-7.2v-1.6c0-1-1.6-1-1.6,0v11.5
		c0,0.7-0.1,1.5,0.5,2c0.5,0.5,1.1,0.6,1.8,0.6h18.2c0.6,0,1.3,0,1.8-0.5c0.6-0.6,0.6-1.3,0.6-2.1v-6.7v-4.9
		C35.9,23.6,34.3,23.6,34.3,24.6z M30.8,12h4.5v4.3c0,1,1.6,1,1.6,0v-5.1c0-0.4-0.4-0.8-0.8-0.8h-5.2C29.7,10.4,29.7,12,30.8,12
		L30.8,12z"/>
</g>
<g id="图层_35" class="st0">
	<path class="st18" d="M36.8,26.7c-0.1-0.2-2.1-4-3.5-5.5c-0.6-0.7-1.2-1.4-2.1-1.4c-0.7,0-1.4,0.5-2.1,1.1
		c-0.8,0.6-1.2,0.7-1.4,0.7c0,0-3.8-4.4-4.7-6.4c-0.6-1.2-0.2-1.7,1.8-2.7c1.8-0.9,1.8-2.3,1.5-2.9c-0.1-0.2-3.2-4.9-4.8-6.4
		c-0.4-0.4-1-0.7-1.6-0.7c-1.7,0-3.5,1.8-3.7,2c-1.2,1.2-3,5.8-1.5,10.8s4.7,9.6,9.7,14.1c1.7,1.6,3.6,2.3,5.6,2.3
		c3.1,0,5.5-2,6.2-2.6C37.4,28.2,37.1,27.1,36.8,26.7L36.8,26.7z M20.4,4.4c1.4,1.4,4.5,6,4.5,6c0,0.1-0.1,0.5-0.8,0.8
		c-0.5,0.3-1,0.6-1.5,0.9l-4.8-6.8c0.6-0.5,1.5-1.1,2.1-1.1C20.1,4.2,20.3,4.2,20.4,4.4z M25.5,28.4c-4.8-4.3-7.8-8.7-9.3-13.4
		c-1.2-4,0-7.7,0.9-9l4.7,6.8c-0.6,0.8-0.9,1.8-0.2,3.2c1.1,2.1,4.8,6.5,5,6.7c0.1,0.1,0.5,0.4,1.2,0.4c0.2,0,0.4,0,0.6-0.1l4.5,6.7
		c-0.8,0.4-1.8,0.7-2.8,0.7C28.5,30.4,26.9,29.7,25.5,28.4L25.5,28.4z M35.2,28.2c-0.4,0.4-0.9,0.7-1.4,1l-4.5-6.6
		c0.2-0.1,0.5-0.3,0.8-0.5c0.4-0.3,1-0.8,1.2-0.8c0.1,0,0.3,0.1,0.9,0.8c1.2,1.5,3.3,5.2,3.3,5.4C35.5,27.5,35.6,27.8,35.2,28.2
		L35.2,28.2z"/>
	<path class="st18" d="M25.6-4.7c-12.1,0-22,9.9-22,22s9.9,22,22,22s22-9.9,22-22C47.6,5.1,37.8-4.7,25.6-4.7z M25.6,36.6
		C14.9,36.6,6.3,28,6.3,17.3C6.3,6.6,14.9-2,25.6-2s19.3,8.6,19.3,19.3C44.9,27.9,36.3,36.6,25.6,36.6z"/>
</g>
</svg>
