<?xml version="1.0" encoding="utf-8"?>
<!-- Generator: Adobe Illustrator 22.0.0, SVG Export Plug-In . SVG Version: 6.00 Build 0)  -->
<svg version="1.1" id="图层_2_1_" xmlns="http://www.w3.org/2000/svg" xmlns:xlink="http://www.w3.org/1999/xlink" x="0px"
	 y="0px" viewBox="0 0 48 48" style="enable-background:new 0 0 48 48;" xml:space="preserve">
<style type="text/css">
	.st0{fill:none;stroke:url(#SVGID_1_);stroke-width:3;stroke-miterlimit:10;}
	.st1{fill:none;stroke:url(#SVGID_2_);stroke-width:4;stroke-miterlimit:10;}
	.st2{fill:none;stroke:url(#SVGID_3_);stroke-width:2;stroke-linecap:round;stroke-miterlimit:10;}
	.st3{fill:none;stroke:url(#SVGID_4_);stroke-width:2;stroke-linecap:round;stroke-miterlimit:10;}
	.st4{fill:none;stroke:url(#SVGID_5_);stroke-width:2;stroke-linecap:round;stroke-miterlimit:10;}
</style>
<linearGradient id="SVGID_1_" gradientUnits="userSpaceOnUse" x1="17.4787" y1="14.4639" x2="31.1213" y2="0.8213">
	<stop  offset="0" style="stop-color:#F3B957"/>
	<stop  offset="1" style="stop-color:#FFCE7B"/>
</linearGradient>
<path class="st0" d="M32.6,5.3v5.3c0,0.4-0.4,0.7-0.7,0.7H16.7c-0.4,0-0.7-0.4-0.7-0.7V5.3c2,0,4.2,0,7.5,0
	C25.8,5.3,28.7,5.3,32.6,5.3z"/>
<linearGradient id="SVGID_2_" gradientUnits="userSpaceOnUse" x1="5.3604" y1="43.0639" x2="43.2703" y2="5.154">
	<stop  offset="0" style="stop-color:#F3B957"/>
	<stop  offset="1" style="stop-color:#FFCE7B"/>
</linearGradient>
<path class="st1" d="M38.9,4.6H9.6C8.3,4.6,7.3,5.7,7.3,7v34.2c0,1.3,1.1,2.4,2.4,2.4H39c1.3,0,2.4-1.1,2.4-2.4V7
	C41.3,5.7,40.2,4.6,38.9,4.6z"/>
<linearGradient id="SVGID_3_" gradientUnits="userSpaceOnUse" x1="18.6179" y1="25.4321" x2="30.2821" y2="13.7679">
	<stop  offset="0" style="stop-color:#F3B957"/>
	<stop  offset="1" style="stop-color:#FFCE7B"/>
</linearGradient>
<line class="st2" x1="14.2" y1="19.6" x2="34.7" y2="19.6"/>
<linearGradient id="SVGID_4_" gradientUnits="userSpaceOnUse" x1="18.6179" y1="32.4321" x2="30.2821" y2="20.7679">
	<stop  offset="0" style="stop-color:#F3B957"/>
	<stop  offset="1" style="stop-color:#FFCE7B"/>
</linearGradient>
<line class="st3" x1="14.2" y1="26.6" x2="34.7" y2="26.6"/>
<linearGradient id="SVGID_5_" gradientUnits="userSpaceOnUse" x1="18.6179" y1="39.3321" x2="30.2821" y2="27.6679">
	<stop  offset="0" style="stop-color:#F3B957"/>
	<stop  offset="1" style="stop-color:#FFCE7B"/>
</linearGradient>
<line class="st4" x1="14.2" y1="33.5" x2="34.7" y2="33.5"/>
</svg>
