<?xml version="1.0" encoding="utf-8"?>
<!-- Generator: Adobe Illustrator 22.0.0, SVG Export Plug-In . SVG Version: 6.00 Build 0)  -->
<svg version="1.1" id="图层_2_1_" xmlns="http://www.w3.org/2000/svg" xmlns:xlink="http://www.w3.org/1999/xlink" x="0px"
	 y="0px" viewBox="0 0 48 48" style="enable-background:new 0 0 48 48;" xml:space="preserve">
<style type="text/css">
	.st0{fill:none;stroke:#2DC4B5;stroke-width:3;stroke-miterlimit:10;}
	.st1{fill:none;stroke:#2DC4B5;stroke-width:4;stroke-miterlimit:10;}
	.st2{fill:none;stroke:#2DC4B5;stroke-width:2;stroke-linecap:round;stroke-miterlimit:10;}
</style>
<path class="st0" d="M32.6,5.3v5.3c0,0.4-0.4,0.7-0.7,0.7H16.7c-0.4,0-0.7-0.4-0.7-0.7V5.3c2,0,4.2,0,7.5,0
	C25.8,5.3,28.7,5.3,32.6,5.3z"/>
<path class="st1" d="M38.9,4.6H9.6C8.3,4.6,7.3,5.7,7.3,7v34.2c0,1.3,1.1,2.4,2.4,2.4H39c1.3,0,2.4-1.1,2.4-2.4V7
	C41.3,5.7,40.2,4.6,38.9,4.6z"/>
<line class="st2" x1="14.2" y1="19.6" x2="34.7" y2="19.6"/>
<line class="st2" x1="14.2" y1="26.6" x2="34.7" y2="26.6"/>
<line class="st2" x1="14.2" y1="33.5" x2="34.7" y2="33.5"/>
</svg>
